M48
INCH,TZ
T1C0.0157
T2C0.0315
T3C0.0394
T4C0.0551
%
G90
G05
T1
X39331Y-48543
X39533Y-37559
X39617Y-37985
X39626Y-38433
X39862Y-41949
X39961Y-43504
X39961Y-52008
X40236Y-38799
X40295Y-37924
X40811Y-36676
X40942Y-45880
X41024Y-38307
X41181Y-41929
X41243Y-36638
X41675Y-36656
X41732Y-40984
X41732Y-37520
X42283Y-44291
X42323Y-42835
X42520Y-35925
X42997Y-36580
X43012Y-36122
X43110Y-49449
X44016Y-36417
X44055Y-44803
X44291Y-47362
X44606Y-42165
X44961Y-46260
X45276Y-36476
X46732Y-38976
X50236Y-37559
X53661Y-38307
X54961Y-37402
X60827Y-37520
X60945Y-51063
T2
X50197Y-36417
X50984Y-36417
X51772Y-36417
X52559Y-36417
T3
X39606Y-45906
X39606Y-46906
X42874Y-45906
X42874Y-46906
X47362Y-51693
X48362Y-51693
X49362Y-51693
X50362Y-51693
X51362Y-51693
X52362Y-51693
X53362Y-51693
X54362Y-51693
X54354Y-36378
X55354Y-36378
T4
X58323Y-42932
X60315Y-42932
X60315Y-46439
X62327Y-42932
X39386Y-42932
X41378Y-42932
X41378Y-46439
X43390Y-42932
T0
M30
