G04 #@! TF.GenerationSoftware,KiCad,Pcbnew,5.0.0-rc2+dfsg1-3*
G04 #@! TF.CreationDate,2018-08-01T13:56:14+02:00*
G04 #@! TF.ProjectId,reform-trackball,7265666F726D2D747261636B62616C6C,rev?*
G04 #@! TF.SameCoordinates,Original*
G04 #@! TF.FileFunction,Other,User*
%FSLAX46Y46*%
G04 Gerber Fmt 4.6, Leading zero omitted, Abs format (unit mm)*
G04 Created by KiCad (PCBNEW 5.0.0-rc2+dfsg1-3) date Wed Aug  1 13:56:14 2018*
%MOMM*%
%LPD*%
G01*
G04 APERTURE LIST*
%ADD10C,0.050000*%
G04 APERTURE END LIST*
D10*
G04 #@! TO.C,C1*
X115550000Y-96300000D02*
X115550000Y-92700000D01*
X115550000Y-96300000D02*
X116850000Y-96300000D01*
X116850000Y-92700000D02*
X115550000Y-92700000D01*
X116850000Y-92700000D02*
X116850000Y-96300000D01*
G04 #@! TO.C,C2*
X124650000Y-92700000D02*
X124650000Y-96300000D01*
X124650000Y-92700000D02*
X123350000Y-92700000D01*
X123350000Y-96300000D02*
X124650000Y-96300000D01*
X123350000Y-96300000D02*
X123350000Y-92700000D01*
G04 #@! TO.C,C3*
X105200000Y-101850000D02*
X108800000Y-101850000D01*
X105200000Y-101850000D02*
X105200000Y-103150000D01*
X108800000Y-103150000D02*
X108800000Y-101850000D01*
X108800000Y-103150000D02*
X105200000Y-103150000D01*
G04 #@! TO.C,C4*
X98650000Y-105400000D02*
X98650000Y-101800000D01*
X98650000Y-105400000D02*
X99950000Y-105400000D01*
X99950000Y-101800000D02*
X98650000Y-101800000D01*
X99950000Y-101800000D02*
X99950000Y-105400000D01*
G04 #@! TO.C,Y1*
X122800000Y-92200000D02*
X117200000Y-92200000D01*
X122800000Y-96800000D02*
X122800000Y-92200000D01*
X117200000Y-96800000D02*
X122800000Y-96800000D01*
X117200000Y-92200000D02*
X117200000Y-96800000D01*
G04 #@! TO.C,MK2*
X157950000Y-102800000D02*
G75*
G03X157950000Y-102800000I-2150000J0D01*
G01*
G04 #@! TO.C,MK3*
X104750000Y-123300000D02*
G75*
G03X104750000Y-123300000I-2150000J0D01*
G01*
G04 #@! TO.C,MK4*
X157950000Y-123300000D02*
G75*
G03X157950000Y-123300000I-2150000J0D01*
G01*
G04 #@! TO.C,MK11*
X117750000Y-124300000D02*
G75*
G03X117750000Y-124300000I-3050000J0D01*
G01*
G04 #@! TO.C,MK9*
X117750000Y-101800000D02*
G75*
G03X117750000Y-101800000I-3050000J0D01*
G01*
G04 #@! TO.C,MK10*
X146650000Y-101800000D02*
G75*
G03X146650000Y-101800000I-3050000J0D01*
G01*
G04 #@! TO.C,MK12*
X146650000Y-124300000D02*
G75*
G03X146650000Y-124300000I-3050000J0D01*
G01*
G04 #@! TO.C,MK8*
X151050000Y-129300000D02*
G75*
G03X151050000Y-129300000I-4250000J0D01*
G01*
G04 #@! TO.C,MK7*
X115850000Y-129300000D02*
G75*
G03X115850000Y-129300000I-4250000J0D01*
G01*
G04 #@! TO.C,MK6*
X151050000Y-96900000D02*
G75*
G03X151050000Y-96900000I-4250000J0D01*
G01*
G04 #@! TO.C,MK5*
X115850000Y-96800000D02*
G75*
G03X115850000Y-96800000I-4250000J0D01*
G01*
G04 #@! TO.C,J6*
X142400000Y-94200000D02*
X142400000Y-90600000D01*
X136250000Y-94200000D02*
X142400000Y-94200000D01*
X136250000Y-90600000D02*
X136250000Y-94200000D01*
X142400000Y-90600000D02*
X136250000Y-90600000D01*
G04 #@! TO.C,J3*
X107100000Y-114800000D02*
X107100000Y-120950000D01*
X107100000Y-120950000D02*
X110700000Y-120950000D01*
X110700000Y-120950000D02*
X110700000Y-114800000D01*
X110700000Y-114800000D02*
X107100000Y-114800000D01*
G04 #@! TO.C,J7*
X102400000Y-114800000D02*
X98800000Y-114800000D01*
X102400000Y-120950000D02*
X102400000Y-114800000D01*
X98800000Y-120950000D02*
X102400000Y-120950000D01*
X98800000Y-114800000D02*
X98800000Y-120950000D01*
G04 #@! TO.C,J1*
X126000000Y-91000000D02*
X126000000Y-94000000D01*
X135000000Y-91000000D02*
X126000000Y-91000000D01*
X135000000Y-94000000D02*
X135000000Y-91000000D01*
X126000000Y-94000000D02*
X135000000Y-94000000D01*
G04 #@! TO.C,J2*
X118500000Y-129500000D02*
X118500000Y-133100000D01*
X139850000Y-129500000D02*
X118500000Y-129500000D01*
X139850000Y-133100000D02*
X139850000Y-129500000D01*
X118500000Y-133100000D02*
X139850000Y-133100000D01*
G04 #@! TO.C,R1*
X110600000Y-119960000D02*
X110600000Y-116050000D01*
X110600000Y-119960000D02*
X112000000Y-119960000D01*
X112000000Y-116050000D02*
X110600000Y-116050000D01*
X112000000Y-116050000D02*
X112000000Y-119960000D01*
G04 #@! TO.C,R2*
X103400000Y-116050000D02*
X103400000Y-119960000D01*
X103400000Y-116050000D02*
X102000000Y-116050000D01*
X102000000Y-119960000D02*
X103400000Y-119960000D01*
X102000000Y-119960000D02*
X102000000Y-116050000D01*
G04 #@! TO.C,U1*
X108700000Y-101100000D02*
X108700000Y-90500000D01*
X98100000Y-101100000D02*
X98100000Y-90500000D01*
X108700000Y-101100000D02*
X98100000Y-101100000D01*
X108700000Y-90500000D02*
X98100000Y-90500000D01*
G04 #@! TD*
M02*
