G04 #@! TF.GenerationSoftware,KiCad,Pcbnew,5.0.0-rc2+dfsg1-3*
G04 #@! TF.CreationDate,2018-08-01T13:56:14+02:00*
G04 #@! TF.ProjectId,reform-trackball,7265666F726D2D747261636B62616C6C,rev?*
G04 #@! TF.SameCoordinates,Original*
G04 #@! TF.FileFunction,Soldermask,Bot*
G04 #@! TF.FilePolarity,Negative*
%FSLAX46Y46*%
G04 Gerber Fmt 4.6, Leading zero omitted, Abs format (unit mm)*
G04 Created by KiCad (PCBNEW 5.0.0-rc2+dfsg1-3) date Wed Aug  1 13:56:14 2018*
%MOMM*%
%LPD*%
G01*
G04 APERTURE LIST*
%ADD10C,2.200000*%
%ADD11C,3.200000*%
%ADD12C,4.000000*%
%ADD13O,1.700000X1.700000*%
%ADD14R,1.700000X1.700000*%
%ADD15O,1.350000X1.350000*%
%ADD16R,1.350000X1.350000*%
%ADD17C,2.600000*%
%ADD18C,1.550000*%
%ADD19C,1.800000*%
G04 APERTURE END LIST*
D10*
G04 #@! TO.C,MK2*
X155800000Y-102800000D03*
G04 #@! TD*
G04 #@! TO.C,MK3*
X102600000Y-123300000D03*
G04 #@! TD*
G04 #@! TO.C,MK4*
X155800000Y-123300000D03*
G04 #@! TD*
D11*
G04 #@! TO.C,MK11*
X114700000Y-124300000D03*
G04 #@! TD*
G04 #@! TO.C,MK9*
X114700000Y-101800000D03*
G04 #@! TD*
G04 #@! TO.C,MK10*
X143600000Y-101800000D03*
G04 #@! TD*
G04 #@! TO.C,MK12*
X143600000Y-124300000D03*
G04 #@! TD*
D12*
G04 #@! TO.C,MK8*
X146800000Y-129300000D03*
G04 #@! TD*
G04 #@! TO.C,MK7*
X111600000Y-129300000D03*
G04 #@! TD*
G04 #@! TO.C,MK6*
X146800000Y-96900000D03*
G04 #@! TD*
G04 #@! TO.C,MK5*
X111600000Y-96800000D03*
G04 #@! TD*
D13*
G04 #@! TO.C,J6*
X138060000Y-92400000D03*
D14*
X140600000Y-92400000D03*
G04 #@! TD*
G04 #@! TO.C,J3*
X108900000Y-116600000D03*
D13*
X108900000Y-119140000D03*
G04 #@! TD*
G04 #@! TO.C,J7*
X100600000Y-119140000D03*
D14*
X100600000Y-116600000D03*
G04 #@! TD*
D15*
G04 #@! TO.C,J1*
X133500000Y-92500000D03*
X131500000Y-92500000D03*
X129500000Y-92500000D03*
D16*
X127500000Y-92500000D03*
G04 #@! TD*
D13*
G04 #@! TO.C,J2*
X138080000Y-131300000D03*
X135540000Y-131300000D03*
X133000000Y-131300000D03*
X130460000Y-131300000D03*
X127920000Y-131300000D03*
X125380000Y-131300000D03*
X122840000Y-131300000D03*
D14*
X120300000Y-131300000D03*
G04 #@! TD*
D17*
G04 #@! TO.C,SW2*
X153200000Y-112850000D03*
D18*
X158300000Y-112850000D03*
X148100000Y-112850000D03*
D19*
X153200000Y-117956000D03*
X153200000Y-109048000D03*
X158310000Y-109048000D03*
X148140000Y-109048000D03*
G04 #@! TD*
G04 #@! TO.C,SW1*
X100040000Y-109048000D03*
X110210000Y-109048000D03*
X105100000Y-109048000D03*
X105100000Y-117956000D03*
D18*
X100000000Y-112850000D03*
X110200000Y-112850000D03*
D17*
X105100000Y-112850000D03*
G04 #@! TD*
M02*
