G04 #@! TF.GenerationSoftware,KiCad,Pcbnew,5.0.0-rc2+dfsg1-3*
G04 #@! TF.CreationDate,2018-08-01T13:56:14+02:00*
G04 #@! TF.ProjectId,reform-trackball,7265666F726D2D747261636B62616C6C,rev?*
G04 #@! TF.SameCoordinates,Original*
G04 #@! TF.FileFunction,Soldermask,Top*
G04 #@! TF.FilePolarity,Negative*
%FSLAX46Y46*%
G04 Gerber Fmt 4.6, Leading zero omitted, Abs format (unit mm)*
G04 Created by KiCad (PCBNEW 5.0.0-rc2+dfsg1-3) date Wed Aug  1 13:56:14 2018*
%MOMM*%
%LPD*%
G01*
G04 APERTURE LIST*
%ADD10R,0.750000X1.200000*%
%ADD11R,1.200000X0.750000*%
%ADD12R,2.100000X1.800000*%
%ADD13C,2.200000*%
%ADD14C,3.200000*%
%ADD15C,4.000000*%
%ADD16O,1.700000X1.700000*%
%ADD17R,1.700000X1.700000*%
%ADD18O,1.350000X1.350000*%
%ADD19R,1.350000X1.350000*%
%ADD20R,0.900000X1.200000*%
%ADD21C,2.600000*%
%ADD22C,1.550000*%
%ADD23C,1.800000*%
%ADD24R,1.600000X0.550000*%
%ADD25R,0.550000X1.600000*%
G04 APERTURE END LIST*
D10*
G04 #@! TO.C,C1*
X116200000Y-95450000D03*
X116200000Y-93550000D03*
G04 #@! TD*
G04 #@! TO.C,C2*
X124000000Y-93550000D03*
X124000000Y-95450000D03*
G04 #@! TD*
D11*
G04 #@! TO.C,C3*
X106050000Y-102500000D03*
X107950000Y-102500000D03*
G04 #@! TD*
D10*
G04 #@! TO.C,C4*
X99300000Y-104550000D03*
X99300000Y-102650000D03*
G04 #@! TD*
D12*
G04 #@! TO.C,Y1*
X118550000Y-93350000D03*
X121450000Y-93350000D03*
X121450000Y-95650000D03*
X118550000Y-95650000D03*
G04 #@! TD*
D13*
G04 #@! TO.C,MK2*
X155800000Y-102800000D03*
G04 #@! TD*
G04 #@! TO.C,MK3*
X102600000Y-123300000D03*
G04 #@! TD*
G04 #@! TO.C,MK4*
X155800000Y-123300000D03*
G04 #@! TD*
D14*
G04 #@! TO.C,MK11*
X114700000Y-124300000D03*
G04 #@! TD*
G04 #@! TO.C,MK9*
X114700000Y-101800000D03*
G04 #@! TD*
G04 #@! TO.C,MK10*
X143600000Y-101800000D03*
G04 #@! TD*
G04 #@! TO.C,MK12*
X143600000Y-124300000D03*
G04 #@! TD*
D15*
G04 #@! TO.C,MK8*
X146800000Y-129300000D03*
G04 #@! TD*
G04 #@! TO.C,MK7*
X111600000Y-129300000D03*
G04 #@! TD*
G04 #@! TO.C,MK6*
X146800000Y-96900000D03*
G04 #@! TD*
G04 #@! TO.C,MK5*
X111600000Y-96800000D03*
G04 #@! TD*
D16*
G04 #@! TO.C,J6*
X138060000Y-92400000D03*
D17*
X140600000Y-92400000D03*
G04 #@! TD*
G04 #@! TO.C,J3*
X108900000Y-116600000D03*
D16*
X108900000Y-119140000D03*
G04 #@! TD*
G04 #@! TO.C,J7*
X100600000Y-119140000D03*
D17*
X100600000Y-116600000D03*
G04 #@! TD*
D18*
G04 #@! TO.C,J1*
X133500000Y-92500000D03*
X131500000Y-92500000D03*
X129500000Y-92500000D03*
D19*
X127500000Y-92500000D03*
G04 #@! TD*
D16*
G04 #@! TO.C,J2*
X138080000Y-131300000D03*
X135540000Y-131300000D03*
X133000000Y-131300000D03*
X130460000Y-131300000D03*
X127920000Y-131300000D03*
X125380000Y-131300000D03*
X122840000Y-131300000D03*
D17*
X120300000Y-131300000D03*
G04 #@! TD*
D20*
G04 #@! TO.C,R1*
X111300000Y-119100000D03*
X111300000Y-116900000D03*
G04 #@! TD*
G04 #@! TO.C,R2*
X102700000Y-116900000D03*
X102700000Y-119100000D03*
G04 #@! TD*
D21*
G04 #@! TO.C,SW2*
X153200000Y-112850000D03*
D22*
X158300000Y-112850000D03*
X148100000Y-112850000D03*
D23*
X153200000Y-117956000D03*
X153200000Y-109048000D03*
X158310000Y-109048000D03*
X148140000Y-109048000D03*
G04 #@! TD*
G04 #@! TO.C,SW1*
X100040000Y-109048000D03*
X110210000Y-109048000D03*
X105100000Y-109048000D03*
X105100000Y-117956000D03*
D22*
X100000000Y-112850000D03*
X110200000Y-112850000D03*
D21*
X105100000Y-112850000D03*
G04 #@! TD*
D24*
G04 #@! TO.C,U1*
X107650000Y-98600000D03*
X107650000Y-97800000D03*
X107650000Y-97000000D03*
X107650000Y-96200000D03*
X107650000Y-95400000D03*
X107650000Y-94600000D03*
X107650000Y-93800000D03*
X107650000Y-93000000D03*
D25*
X106200000Y-91550000D03*
X105400000Y-91550000D03*
X104600000Y-91550000D03*
X103800000Y-91550000D03*
X103000000Y-91550000D03*
X102200000Y-91550000D03*
X101400000Y-91550000D03*
X100600000Y-91550000D03*
D24*
X99150000Y-93000000D03*
X99150000Y-93800000D03*
X99150000Y-94600000D03*
X99150000Y-95400000D03*
X99150000Y-96200000D03*
X99150000Y-97000000D03*
X99150000Y-97800000D03*
X99150000Y-98600000D03*
D25*
X100600000Y-100050000D03*
X101400000Y-100050000D03*
X102200000Y-100050000D03*
X103000000Y-100050000D03*
X103800000Y-100050000D03*
X104600000Y-100050000D03*
X105400000Y-100050000D03*
X106200000Y-100050000D03*
G04 #@! TD*
M02*
