G04 #@! TF.GenerationSoftware,KiCad,Pcbnew,5.0.0-rc2+dfsg1-3*
G04 #@! TF.CreationDate,2018-08-01T13:56:14+02:00*
G04 #@! TF.ProjectId,reform-trackball,7265666F726D2D747261636B62616C6C,rev?*
G04 #@! TF.SameCoordinates,Original*
G04 #@! TF.FileFunction,Legend,Top*
G04 #@! TF.FilePolarity,Positive*
%FSLAX46Y46*%
G04 Gerber Fmt 4.6, Leading zero omitted, Abs format (unit mm)*
G04 Created by KiCad (PCBNEW 5.0.0-rc2+dfsg1-3) date Wed Aug  1 13:56:14 2018*
%MOMM*%
%LPD*%
G01*
G04 APERTURE LIST*
%ADD10C,0.150000*%
%ADD11C,0.300000*%
%ADD12C,0.010000*%
%ADD13C,0.120000*%
G04 APERTURE END LIST*
D10*
X126961904Y-93900000D02*
X126866666Y-93852380D01*
X126723809Y-93852380D01*
X126580952Y-93900000D01*
X126485714Y-93995238D01*
X126438095Y-94090476D01*
X126390476Y-94280952D01*
X126390476Y-94423809D01*
X126438095Y-94614285D01*
X126485714Y-94709523D01*
X126580952Y-94804761D01*
X126723809Y-94852380D01*
X126819047Y-94852380D01*
X126961904Y-94804761D01*
X127009523Y-94757142D01*
X127009523Y-94423809D01*
X126819047Y-94423809D01*
X127438095Y-94852380D02*
X127438095Y-93852380D01*
X127676190Y-93852380D01*
X127819047Y-93900000D01*
X127914285Y-93995238D01*
X127961904Y-94090476D01*
X128009523Y-94280952D01*
X128009523Y-94423809D01*
X127961904Y-94614285D01*
X127914285Y-94709523D01*
X127819047Y-94804761D01*
X127676190Y-94852380D01*
X127438095Y-94852380D01*
X128695238Y-94852380D02*
X128695238Y-93852380D01*
X128933333Y-93852380D01*
X129076190Y-93900000D01*
X129171428Y-93995238D01*
X129219047Y-94090476D01*
X129266666Y-94280952D01*
X129266666Y-94423809D01*
X129219047Y-94614285D01*
X129171428Y-94709523D01*
X129076190Y-94804761D01*
X128933333Y-94852380D01*
X128695238Y-94852380D01*
X129695238Y-94471428D02*
X130457142Y-94471428D01*
X130933333Y-94852380D02*
X130933333Y-93852380D01*
X131171428Y-93852380D01*
X131314285Y-93900000D01*
X131409523Y-93995238D01*
X131457142Y-94090476D01*
X131504761Y-94280952D01*
X131504761Y-94423809D01*
X131457142Y-94614285D01*
X131409523Y-94709523D01*
X131314285Y-94804761D01*
X131171428Y-94852380D01*
X130933333Y-94852380D01*
X131933333Y-94471428D02*
X132695238Y-94471428D01*
X132314285Y-94852380D02*
X132314285Y-94090476D01*
X133647619Y-93852380D02*
X133171428Y-93852380D01*
X133123809Y-94328571D01*
X133171428Y-94280952D01*
X133266666Y-94233333D01*
X133504761Y-94233333D01*
X133600000Y-94280952D01*
X133647619Y-94328571D01*
X133695238Y-94423809D01*
X133695238Y-94661904D01*
X133647619Y-94757142D01*
X133600000Y-94804761D01*
X133504761Y-94852380D01*
X133266666Y-94852380D01*
X133171428Y-94804761D01*
X133123809Y-94757142D01*
X133980952Y-93852380D02*
X134314285Y-94852380D01*
X134647619Y-93852380D01*
X99242857Y-121952380D02*
X99242857Y-120952380D01*
X99242857Y-121428571D02*
X99814285Y-121428571D01*
X99814285Y-121952380D02*
X99814285Y-120952380D01*
X100195238Y-120952380D02*
X100433333Y-121952380D01*
X100623809Y-121238095D01*
X100814285Y-121952380D01*
X101052380Y-120952380D01*
X101766666Y-121428571D02*
X101909523Y-121476190D01*
X101957142Y-121523809D01*
X102004761Y-121619047D01*
X102004761Y-121761904D01*
X101957142Y-121857142D01*
X101909523Y-121904761D01*
X101814285Y-121952380D01*
X101433333Y-121952380D01*
X101433333Y-120952380D01*
X101766666Y-120952380D01*
X101861904Y-121000000D01*
X101909523Y-121047619D01*
X101957142Y-121142857D01*
X101957142Y-121238095D01*
X101909523Y-121333333D01*
X101861904Y-121380952D01*
X101766666Y-121428571D01*
X101433333Y-121428571D01*
X108352380Y-121952380D02*
X108019047Y-121476190D01*
X107780952Y-121952380D02*
X107780952Y-120952380D01*
X108161904Y-120952380D01*
X108257142Y-121000000D01*
X108304761Y-121047619D01*
X108352380Y-121142857D01*
X108352380Y-121285714D01*
X108304761Y-121380952D01*
X108257142Y-121428571D01*
X108161904Y-121476190D01*
X107780952Y-121476190D01*
X108733333Y-121904761D02*
X108876190Y-121952380D01*
X109114285Y-121952380D01*
X109209523Y-121904761D01*
X109257142Y-121857142D01*
X109304761Y-121761904D01*
X109304761Y-121666666D01*
X109257142Y-121571428D01*
X109209523Y-121523809D01*
X109114285Y-121476190D01*
X108923809Y-121428571D01*
X108828571Y-121380952D01*
X108780952Y-121333333D01*
X108733333Y-121238095D01*
X108733333Y-121142857D01*
X108780952Y-121047619D01*
X108828571Y-121000000D01*
X108923809Y-120952380D01*
X109161904Y-120952380D01*
X109304761Y-121000000D01*
X109590476Y-120952380D02*
X110161904Y-120952380D01*
X109876190Y-121952380D02*
X109876190Y-120952380D01*
X137204761Y-93952380D02*
X136728571Y-93952380D01*
X136680952Y-94428571D01*
X136728571Y-94380952D01*
X136823809Y-94333333D01*
X137061904Y-94333333D01*
X137157142Y-94380952D01*
X137204761Y-94428571D01*
X137252380Y-94523809D01*
X137252380Y-94761904D01*
X137204761Y-94857142D01*
X137157142Y-94904761D01*
X137061904Y-94952380D01*
X136823809Y-94952380D01*
X136728571Y-94904761D01*
X136680952Y-94857142D01*
X137538095Y-93952380D02*
X137871428Y-94952380D01*
X138204761Y-93952380D01*
X139823809Y-94000000D02*
X139728571Y-93952380D01*
X139585714Y-93952380D01*
X139442857Y-94000000D01*
X139347619Y-94095238D01*
X139300000Y-94190476D01*
X139252380Y-94380952D01*
X139252380Y-94523809D01*
X139300000Y-94714285D01*
X139347619Y-94809523D01*
X139442857Y-94904761D01*
X139585714Y-94952380D01*
X139680952Y-94952380D01*
X139823809Y-94904761D01*
X139871428Y-94857142D01*
X139871428Y-94523809D01*
X139680952Y-94523809D01*
X140300000Y-94952380D02*
X140300000Y-93952380D01*
X140871428Y-94952380D01*
X140871428Y-93952380D01*
X141347619Y-94952380D02*
X141347619Y-93952380D01*
X141585714Y-93952380D01*
X141728571Y-94000000D01*
X141823809Y-94095238D01*
X141871428Y-94190476D01*
X141919047Y-94380952D01*
X141919047Y-94523809D01*
X141871428Y-94714285D01*
X141823809Y-94809523D01*
X141728571Y-94904761D01*
X141585714Y-94952380D01*
X141347619Y-94952380D01*
X119752380Y-133052380D02*
X119276190Y-133052380D01*
X119228571Y-133528571D01*
X119276190Y-133480952D01*
X119371428Y-133433333D01*
X119609523Y-133433333D01*
X119704761Y-133480952D01*
X119752380Y-133528571D01*
X119800000Y-133623809D01*
X119800000Y-133861904D01*
X119752380Y-133957142D01*
X119704761Y-134004761D01*
X119609523Y-134052380D01*
X119371428Y-134052380D01*
X119276190Y-134004761D01*
X119228571Y-133957142D01*
X120085714Y-133052380D02*
X120419047Y-134052380D01*
X120752380Y-133052380D01*
X121847619Y-134052380D02*
X121847619Y-133052380D01*
X122180952Y-133766666D01*
X122514285Y-133052380D01*
X122514285Y-134052380D01*
X122990476Y-134052380D02*
X122990476Y-133052380D01*
X124228571Y-134052380D02*
X124228571Y-133052380D01*
X124561904Y-133766666D01*
X124895238Y-133052380D01*
X124895238Y-134052380D01*
X125561904Y-133052380D02*
X125752380Y-133052380D01*
X125847619Y-133100000D01*
X125942857Y-133195238D01*
X125990476Y-133385714D01*
X125990476Y-133719047D01*
X125942857Y-133909523D01*
X125847619Y-134004761D01*
X125752380Y-134052380D01*
X125561904Y-134052380D01*
X125466666Y-134004761D01*
X125371428Y-133909523D01*
X125323809Y-133719047D01*
X125323809Y-133385714D01*
X125371428Y-133195238D01*
X125466666Y-133100000D01*
X125561904Y-133052380D01*
X127133333Y-134004761D02*
X127276190Y-134052380D01*
X127514285Y-134052380D01*
X127609523Y-134004761D01*
X127657142Y-133957142D01*
X127704761Y-133861904D01*
X127704761Y-133766666D01*
X127657142Y-133671428D01*
X127609523Y-133623809D01*
X127514285Y-133576190D01*
X127323809Y-133528571D01*
X127228571Y-133480952D01*
X127180952Y-133433333D01*
X127133333Y-133338095D01*
X127133333Y-133242857D01*
X127180952Y-133147619D01*
X127228571Y-133100000D01*
X127323809Y-133052380D01*
X127561904Y-133052380D01*
X127704761Y-133100000D01*
X128704761Y-133957142D02*
X128657142Y-134004761D01*
X128514285Y-134052380D01*
X128419047Y-134052380D01*
X128276190Y-134004761D01*
X128180952Y-133909523D01*
X128133333Y-133814285D01*
X128085714Y-133623809D01*
X128085714Y-133480952D01*
X128133333Y-133290476D01*
X128180952Y-133195238D01*
X128276190Y-133100000D01*
X128419047Y-133052380D01*
X128514285Y-133052380D01*
X128657142Y-133100000D01*
X128704761Y-133147619D01*
X129847619Y-134004761D02*
X129990476Y-134052380D01*
X130228571Y-134052380D01*
X130323809Y-134004761D01*
X130371428Y-133957142D01*
X130419047Y-133861904D01*
X130419047Y-133766666D01*
X130371428Y-133671428D01*
X130323809Y-133623809D01*
X130228571Y-133576190D01*
X130038095Y-133528571D01*
X129942857Y-133480952D01*
X129895238Y-133433333D01*
X129847619Y-133338095D01*
X129847619Y-133242857D01*
X129895238Y-133147619D01*
X129942857Y-133100000D01*
X130038095Y-133052380D01*
X130276190Y-133052380D01*
X130419047Y-133100000D01*
X131323809Y-134052380D02*
X130847619Y-134052380D01*
X130847619Y-133052380D01*
X132419047Y-134052380D02*
X132419047Y-133052380D01*
X132752380Y-133766666D01*
X133085714Y-133052380D01*
X133085714Y-134052380D01*
X133419047Y-133052380D02*
X133990476Y-133052380D01*
X133704761Y-134052380D02*
X133704761Y-133052380D01*
X135609523Y-133100000D02*
X135514285Y-133052380D01*
X135371428Y-133052380D01*
X135228571Y-133100000D01*
X135133333Y-133195238D01*
X135085714Y-133290476D01*
X135038095Y-133480952D01*
X135038095Y-133623809D01*
X135085714Y-133814285D01*
X135133333Y-133909523D01*
X135228571Y-134004761D01*
X135371428Y-134052380D01*
X135466666Y-134052380D01*
X135609523Y-134004761D01*
X135657142Y-133957142D01*
X135657142Y-133623809D01*
X135466666Y-133623809D01*
X136085714Y-134052380D02*
X136085714Y-133052380D01*
X136323809Y-133052380D01*
X136466666Y-133100000D01*
X136561904Y-133195238D01*
X136609523Y-133290476D01*
X136657142Y-133480952D01*
X136657142Y-133623809D01*
X136609523Y-133814285D01*
X136561904Y-133909523D01*
X136466666Y-134004761D01*
X136323809Y-134052380D01*
X136085714Y-134052380D01*
X138419047Y-134052380D02*
X138085714Y-133576190D01*
X137847619Y-134052380D02*
X137847619Y-133052380D01*
X138228571Y-133052380D01*
X138323809Y-133100000D01*
X138371428Y-133147619D01*
X138419047Y-133242857D01*
X138419047Y-133385714D01*
X138371428Y-133480952D01*
X138323809Y-133528571D01*
X138228571Y-133576190D01*
X137847619Y-133576190D01*
X138800000Y-134004761D02*
X138942857Y-134052380D01*
X139180952Y-134052380D01*
X139276190Y-134004761D01*
X139323809Y-133957142D01*
X139371428Y-133861904D01*
X139371428Y-133766666D01*
X139323809Y-133671428D01*
X139276190Y-133623809D01*
X139180952Y-133576190D01*
X138990476Y-133528571D01*
X138895238Y-133480952D01*
X138847619Y-133433333D01*
X138800000Y-133338095D01*
X138800000Y-133242857D01*
X138847619Y-133147619D01*
X138895238Y-133100000D01*
X138990476Y-133052380D01*
X139228571Y-133052380D01*
X139371428Y-133100000D01*
D11*
X85721428Y-107750000D02*
X84721428Y-107750000D01*
X86292857Y-107392857D02*
X85221428Y-107035714D01*
X85221428Y-107964285D01*
X86221428Y-109178571D02*
X86221428Y-108892857D01*
X86150000Y-108750000D01*
X86078571Y-108678571D01*
X85864285Y-108535714D01*
X85578571Y-108464285D01*
X85007142Y-108464285D01*
X84864285Y-108535714D01*
X84792857Y-108607142D01*
X84721428Y-108750000D01*
X84721428Y-109035714D01*
X84792857Y-109178571D01*
X84864285Y-109250000D01*
X85007142Y-109321428D01*
X85364285Y-109321428D01*
X85507142Y-109250000D01*
X85578571Y-109178571D01*
X85650000Y-109035714D01*
X85650000Y-108750000D01*
X85578571Y-108607142D01*
X85507142Y-108535714D01*
X85364285Y-108464285D01*
X84864285Y-109964285D02*
X84792857Y-110035714D01*
X84721428Y-109964285D01*
X84792857Y-109892857D01*
X84864285Y-109964285D01*
X84721428Y-109964285D01*
X86221428Y-111392857D02*
X86221428Y-110678571D01*
X85507142Y-110607142D01*
X85578571Y-110678571D01*
X85650000Y-110821428D01*
X85650000Y-111178571D01*
X85578571Y-111321428D01*
X85507142Y-111392857D01*
X85364285Y-111464285D01*
X85007142Y-111464285D01*
X84864285Y-111392857D01*
X84792857Y-111321428D01*
X84721428Y-111178571D01*
X84721428Y-110821428D01*
X84792857Y-110678571D01*
X84864285Y-110607142D01*
X86221428Y-112392857D02*
X86221428Y-112535714D01*
X86150000Y-112678571D01*
X86078571Y-112750000D01*
X85935714Y-112821428D01*
X85650000Y-112892857D01*
X85292857Y-112892857D01*
X85007142Y-112821428D01*
X84864285Y-112750000D01*
X84792857Y-112678571D01*
X84721428Y-112535714D01*
X84721428Y-112392857D01*
X84792857Y-112250000D01*
X84864285Y-112178571D01*
X85007142Y-112107142D01*
X85292857Y-112035714D01*
X85650000Y-112035714D01*
X85935714Y-112107142D01*
X86078571Y-112178571D01*
X86150000Y-112250000D01*
X86221428Y-112392857D01*
X86221428Y-113821428D02*
X86221428Y-113964285D01*
X86150000Y-114107142D01*
X86078571Y-114178571D01*
X85935714Y-114250000D01*
X85650000Y-114321428D01*
X85292857Y-114321428D01*
X85007142Y-114250000D01*
X84864285Y-114178571D01*
X84792857Y-114107142D01*
X84721428Y-113964285D01*
X84721428Y-113821428D01*
X84792857Y-113678571D01*
X84864285Y-113607142D01*
X85007142Y-113535714D01*
X85292857Y-113464285D01*
X85650000Y-113464285D01*
X85935714Y-113535714D01*
X86078571Y-113607142D01*
X86150000Y-113678571D01*
X86221428Y-113821428D01*
X84721428Y-116107142D02*
X85721428Y-116107142D01*
X85578571Y-116107142D02*
X85650000Y-116178571D01*
X85721428Y-116321428D01*
X85721428Y-116535714D01*
X85650000Y-116678571D01*
X85507142Y-116750000D01*
X84721428Y-116750000D01*
X85507142Y-116750000D02*
X85650000Y-116821428D01*
X85721428Y-116964285D01*
X85721428Y-117178571D01*
X85650000Y-117321428D01*
X85507142Y-117392857D01*
X84721428Y-117392857D01*
X84721428Y-118107142D02*
X85721428Y-118107142D01*
X85578571Y-118107142D02*
X85650000Y-118178571D01*
X85721428Y-118321428D01*
X85721428Y-118535714D01*
X85650000Y-118678571D01*
X85507142Y-118750000D01*
X84721428Y-118750000D01*
X85507142Y-118750000D02*
X85650000Y-118821428D01*
X85721428Y-118964285D01*
X85721428Y-119178571D01*
X85650000Y-119321428D01*
X85507142Y-119392857D01*
X84721428Y-119392857D01*
X87500000Y-90000000D02*
X87500000Y-136500000D01*
X97500000Y-90000000D02*
X86913579Y-90000000D01*
X97500000Y-136500000D02*
X86913579Y-136500000D01*
X87500000Y-136500000D02*
X86913579Y-135373496D01*
X87500000Y-136500000D02*
X88086421Y-135373496D01*
X87500000Y-90000000D02*
X86913579Y-91126504D01*
X87500000Y-90000000D02*
X88086421Y-91126504D01*
X123625000Y-78078571D02*
X123339285Y-78078571D01*
X123196428Y-78150000D01*
X123125000Y-78221428D01*
X122982142Y-78435714D01*
X122910714Y-78721428D01*
X122910714Y-79292857D01*
X122982142Y-79435714D01*
X123053571Y-79507142D01*
X123196428Y-79578571D01*
X123482142Y-79578571D01*
X123625000Y-79507142D01*
X123696428Y-79435714D01*
X123767857Y-79292857D01*
X123767857Y-78935714D01*
X123696428Y-78792857D01*
X123625000Y-78721428D01*
X123482142Y-78650000D01*
X123196428Y-78650000D01*
X123053571Y-78721428D01*
X122982142Y-78792857D01*
X122910714Y-78935714D01*
X124267857Y-78078571D02*
X125196428Y-78078571D01*
X124696428Y-78650000D01*
X124910714Y-78650000D01*
X125053571Y-78721428D01*
X125125000Y-78792857D01*
X125196428Y-78935714D01*
X125196428Y-79292857D01*
X125125000Y-79435714D01*
X125053571Y-79507142D01*
X124910714Y-79578571D01*
X124482142Y-79578571D01*
X124339285Y-79507142D01*
X124267857Y-79435714D01*
X125839285Y-79435714D02*
X125910714Y-79507142D01*
X125839285Y-79578571D01*
X125767857Y-79507142D01*
X125839285Y-79435714D01*
X125839285Y-79578571D01*
X126482142Y-78221428D02*
X126553571Y-78150000D01*
X126696428Y-78078571D01*
X127053571Y-78078571D01*
X127196428Y-78150000D01*
X127267857Y-78221428D01*
X127339285Y-78364285D01*
X127339285Y-78507142D01*
X127267857Y-78721428D01*
X126410714Y-79578571D01*
X127339285Y-79578571D01*
X128696428Y-78078571D02*
X127982142Y-78078571D01*
X127910714Y-78792857D01*
X127982142Y-78721428D01*
X128125000Y-78650000D01*
X128482142Y-78650000D01*
X128625000Y-78721428D01*
X128696428Y-78792857D01*
X128767857Y-78935714D01*
X128767857Y-79292857D01*
X128696428Y-79435714D01*
X128625000Y-79507142D01*
X128482142Y-79578571D01*
X128125000Y-79578571D01*
X127982142Y-79507142D01*
X127910714Y-79435714D01*
X129696428Y-78078571D02*
X129839285Y-78078571D01*
X129982142Y-78150000D01*
X130053571Y-78221428D01*
X130125000Y-78364285D01*
X130196428Y-78650000D01*
X130196428Y-79007142D01*
X130125000Y-79292857D01*
X130053571Y-79435714D01*
X129982142Y-79507142D01*
X129839285Y-79578571D01*
X129696428Y-79578571D01*
X129553571Y-79507142D01*
X129482142Y-79435714D01*
X129410714Y-79292857D01*
X129339285Y-79007142D01*
X129339285Y-78650000D01*
X129410714Y-78364285D01*
X129482142Y-78221428D01*
X129553571Y-78150000D01*
X129696428Y-78078571D01*
X131982142Y-79578571D02*
X131982142Y-78578571D01*
X131982142Y-78721428D02*
X132053571Y-78650000D01*
X132196428Y-78578571D01*
X132410714Y-78578571D01*
X132553571Y-78650000D01*
X132625000Y-78792857D01*
X132625000Y-79578571D01*
X132625000Y-78792857D02*
X132696428Y-78650000D01*
X132839285Y-78578571D01*
X133053571Y-78578571D01*
X133196428Y-78650000D01*
X133267857Y-78792857D01*
X133267857Y-79578571D01*
X133982142Y-79578571D02*
X133982142Y-78578571D01*
X133982142Y-78721428D02*
X134053571Y-78650000D01*
X134196428Y-78578571D01*
X134410714Y-78578571D01*
X134553571Y-78650000D01*
X134625000Y-78792857D01*
X134625000Y-79578571D01*
X134625000Y-78792857D02*
X134696428Y-78650000D01*
X134839285Y-78578571D01*
X135053571Y-78578571D01*
X135196428Y-78650000D01*
X135267857Y-78792857D01*
X135267857Y-79578571D01*
X97500000Y-81000000D02*
X160750000Y-81000000D01*
X97500000Y-90000000D02*
X97500000Y-80413579D01*
X160750000Y-90000000D02*
X160750000Y-80413579D01*
X160750000Y-81000000D02*
X159623496Y-81586421D01*
X160750000Y-81000000D02*
X159623496Y-80413579D01*
X97500000Y-81000000D02*
X98626504Y-81586421D01*
X97500000Y-81000000D02*
X98626504Y-80413579D01*
D12*
G04 #@! TO.C,MK13*
G36*
X146900833Y-125257750D02*
X148392971Y-123765500D01*
X146916652Y-123765500D01*
X146670887Y-123765279D01*
X146437923Y-123764641D01*
X146221152Y-123763622D01*
X146023969Y-123762259D01*
X145849765Y-123760587D01*
X145701934Y-123758644D01*
X145583870Y-123756465D01*
X145498966Y-123754087D01*
X145450614Y-123751547D01*
X145440334Y-123749681D01*
X145454981Y-123732809D01*
X145497576Y-123688079D01*
X145566098Y-123617536D01*
X145658525Y-123523222D01*
X145772836Y-123407180D01*
X145907011Y-123271453D01*
X146059028Y-123118084D01*
X146226866Y-122949115D01*
X146408503Y-122766590D01*
X146601920Y-122572551D01*
X146805095Y-122369042D01*
X146916652Y-122257431D01*
X148392970Y-120781000D01*
X146916652Y-120781000D01*
X146670887Y-120780778D01*
X146437923Y-120780135D01*
X146221152Y-120779109D01*
X146023968Y-120777736D01*
X145849765Y-120776052D01*
X145701934Y-120774095D01*
X145583870Y-120771900D01*
X145498966Y-120769505D01*
X145450614Y-120766947D01*
X145440334Y-120765068D01*
X145454982Y-120748177D01*
X145497576Y-120703436D01*
X145566092Y-120632891D01*
X145658505Y-120538590D01*
X145772789Y-120422578D01*
X145906920Y-120286904D01*
X146058873Y-120133613D01*
X146226622Y-119964752D01*
X146408143Y-119782367D01*
X146601411Y-119588507D01*
X146804400Y-119385217D01*
X146911417Y-119278166D01*
X147118599Y-119070841D01*
X147317097Y-118871898D01*
X147504884Y-118683383D01*
X147679936Y-118507344D01*
X147840228Y-118345827D01*
X147983735Y-118200879D01*
X148108431Y-118074546D01*
X148212293Y-117968876D01*
X148293295Y-117885914D01*
X148349412Y-117827709D01*
X148378619Y-117796306D01*
X148382500Y-117791265D01*
X148362038Y-117787983D01*
X148303467Y-117784929D01*
X148211011Y-117782173D01*
X148088896Y-117779787D01*
X147941345Y-117777841D01*
X147772582Y-117776405D01*
X147586833Y-117775551D01*
X147430000Y-117775333D01*
X146477500Y-117775333D01*
X146477500Y-114050000D01*
X147958793Y-114050000D01*
X147964271Y-115166541D01*
X147969750Y-116283083D01*
X149991003Y-116288483D01*
X152012256Y-116293882D01*
X149028196Y-119278166D01*
X152012471Y-119278166D01*
X149028485Y-122262378D01*
X150515264Y-122267814D01*
X152002044Y-122273250D01*
X150515082Y-123760208D01*
X149028121Y-125247166D01*
X150202834Y-125247166D01*
X150202834Y-126750000D01*
X145408696Y-126750000D01*
X146900833Y-125257750D01*
X146900833Y-125257750D01*
G37*
X146900833Y-125257750D02*
X148392971Y-123765500D01*
X146916652Y-123765500D01*
X146670887Y-123765279D01*
X146437923Y-123764641D01*
X146221152Y-123763622D01*
X146023969Y-123762259D01*
X145849765Y-123760587D01*
X145701934Y-123758644D01*
X145583870Y-123756465D01*
X145498966Y-123754087D01*
X145450614Y-123751547D01*
X145440334Y-123749681D01*
X145454981Y-123732809D01*
X145497576Y-123688079D01*
X145566098Y-123617536D01*
X145658525Y-123523222D01*
X145772836Y-123407180D01*
X145907011Y-123271453D01*
X146059028Y-123118084D01*
X146226866Y-122949115D01*
X146408503Y-122766590D01*
X146601920Y-122572551D01*
X146805095Y-122369042D01*
X146916652Y-122257431D01*
X148392970Y-120781000D01*
X146916652Y-120781000D01*
X146670887Y-120780778D01*
X146437923Y-120780135D01*
X146221152Y-120779109D01*
X146023968Y-120777736D01*
X145849765Y-120776052D01*
X145701934Y-120774095D01*
X145583870Y-120771900D01*
X145498966Y-120769505D01*
X145450614Y-120766947D01*
X145440334Y-120765068D01*
X145454982Y-120748177D01*
X145497576Y-120703436D01*
X145566092Y-120632891D01*
X145658505Y-120538590D01*
X145772789Y-120422578D01*
X145906920Y-120286904D01*
X146058873Y-120133613D01*
X146226622Y-119964752D01*
X146408143Y-119782367D01*
X146601411Y-119588507D01*
X146804400Y-119385217D01*
X146911417Y-119278166D01*
X147118599Y-119070841D01*
X147317097Y-118871898D01*
X147504884Y-118683383D01*
X147679936Y-118507344D01*
X147840228Y-118345827D01*
X147983735Y-118200879D01*
X148108431Y-118074546D01*
X148212293Y-117968876D01*
X148293295Y-117885914D01*
X148349412Y-117827709D01*
X148378619Y-117796306D01*
X148382500Y-117791265D01*
X148362038Y-117787983D01*
X148303467Y-117784929D01*
X148211011Y-117782173D01*
X148088896Y-117779787D01*
X147941345Y-117777841D01*
X147772582Y-117776405D01*
X147586833Y-117775551D01*
X147430000Y-117775333D01*
X146477500Y-117775333D01*
X146477500Y-114050000D01*
X147958793Y-114050000D01*
X147964271Y-115166541D01*
X147969750Y-116283083D01*
X149991003Y-116288483D01*
X152012256Y-116293882D01*
X149028196Y-119278166D01*
X152012471Y-119278166D01*
X149028485Y-122262378D01*
X150515264Y-122267814D01*
X152002044Y-122273250D01*
X150515082Y-123760208D01*
X149028121Y-125247166D01*
X150202834Y-125247166D01*
X150202834Y-126750000D01*
X145408696Y-126750000D01*
X146900833Y-125257750D01*
G04 #@! TO.C,MK14*
G36*
X152478000Y-97198333D02*
X152478000Y-115359333D01*
X151599583Y-115359333D01*
X151599583Y-114555565D01*
X151649520Y-114535575D01*
X151670889Y-114463461D01*
X151673666Y-114389492D01*
X151673666Y-114223983D01*
X151366750Y-114175088D01*
X151178533Y-114144352D01*
X151058490Y-114118480D01*
X150991297Y-114088287D01*
X150961635Y-114044590D01*
X150954183Y-113978205D01*
X150954000Y-113927677D01*
X150954000Y-113763363D01*
X151303250Y-113659421D01*
X151472051Y-113607665D01*
X151576121Y-113567994D01*
X151632134Y-113529231D01*
X151656766Y-113480195D01*
X151666066Y-113416210D01*
X151673301Y-113297085D01*
X151658193Y-113226021D01*
X151621912Y-113206442D01*
X151621912Y-112902828D01*
X151643803Y-112884402D01*
X151658175Y-112821143D01*
X151665752Y-112702768D01*
X151667257Y-112518990D01*
X151664245Y-112300750D01*
X151652500Y-111697500D01*
X151633488Y-111695927D01*
X151633488Y-111374272D01*
X151665869Y-111352240D01*
X151670411Y-111277509D01*
X151665709Y-111204024D01*
X151652500Y-111020167D01*
X151271500Y-110955334D01*
X151018078Y-110912210D01*
X151018078Y-109841785D01*
X151153158Y-109817088D01*
X151323218Y-109747146D01*
X151480316Y-109641370D01*
X151596787Y-109520519D01*
X151632651Y-109457286D01*
X151664764Y-109307433D01*
X151666698Y-109122083D01*
X151639734Y-108944345D01*
X151633621Y-108925908D01*
X151633621Y-108114647D01*
X151665946Y-108092393D01*
X151670350Y-108017280D01*
X151665709Y-107945359D01*
X151652500Y-107762504D01*
X151301135Y-107702039D01*
X150949771Y-107641575D01*
X150962469Y-107470978D01*
X150975166Y-107300381D01*
X151652500Y-107083167D01*
X151665517Y-106903250D01*
X151664668Y-106791654D01*
X151646434Y-106729019D01*
X151637837Y-106724356D01*
X151637837Y-106433746D01*
X151655039Y-106431516D01*
X151666907Y-106378173D01*
X151666421Y-106276916D01*
X151665098Y-106259180D01*
X151652500Y-106109500D01*
X151250333Y-106033403D01*
X151038470Y-105992735D01*
X150823664Y-105950543D01*
X150642609Y-105914064D01*
X150594166Y-105904019D01*
X150340166Y-105850732D01*
X150985750Y-105750381D01*
X151631333Y-105650030D01*
X151631333Y-105512380D01*
X151628641Y-105460613D01*
X151613514Y-105416416D01*
X151575373Y-105371955D01*
X151503639Y-105319396D01*
X151387733Y-105250906D01*
X151217077Y-105158648D01*
X150999212Y-105044264D01*
X150791444Y-104934972D01*
X150613330Y-104839994D01*
X150476936Y-104765869D01*
X150394327Y-104719134D01*
X150374965Y-104705924D01*
X150417038Y-104710277D01*
X150526696Y-104727740D01*
X150688333Y-104755680D01*
X150886343Y-104791463D01*
X150933002Y-104800082D01*
X151197390Y-104848642D01*
X151389927Y-104881084D01*
X151522006Y-104896750D01*
X151605022Y-104894983D01*
X151650366Y-104875125D01*
X151669431Y-104836518D01*
X151673612Y-104778506D01*
X151673666Y-104757332D01*
X151664655Y-104653528D01*
X151642640Y-104593126D01*
X151639434Y-104590507D01*
X151587698Y-104576386D01*
X151467545Y-104551230D01*
X151294109Y-104517707D01*
X151082526Y-104478483D01*
X150847928Y-104436224D01*
X150605451Y-104393598D01*
X150370228Y-104353269D01*
X150157393Y-104317906D01*
X149982081Y-104290175D01*
X149859427Y-104272741D01*
X149809028Y-104268000D01*
X149758602Y-104276645D01*
X149734853Y-104316384D01*
X149730855Y-104407926D01*
X149734704Y-104490250D01*
X149747500Y-104712500D01*
X150319000Y-105009887D01*
X150528916Y-105119318D01*
X150721168Y-105219906D01*
X150878966Y-105302840D01*
X150985524Y-105359311D01*
X151011136Y-105373114D01*
X151061933Y-105402867D01*
X151078255Y-105424890D01*
X151049347Y-105443852D01*
X150964455Y-105464426D01*
X150812823Y-105491280D01*
X150693636Y-105510985D01*
X150474462Y-105547205D01*
X150252842Y-105584143D01*
X150063163Y-105616054D01*
X149990916Y-105628353D01*
X149726333Y-105673692D01*
X149726333Y-106123017D01*
X150033250Y-106174783D01*
X150187873Y-106201191D01*
X150401148Y-106238063D01*
X150648359Y-106281106D01*
X150904786Y-106326024D01*
X150986274Y-106340361D01*
X151209752Y-106378095D01*
X151402714Y-106407583D01*
X151550347Y-106426806D01*
X151637837Y-106433746D01*
X151637837Y-106724356D01*
X151635952Y-106723333D01*
X151578347Y-106735401D01*
X151461768Y-106767561D01*
X151307767Y-106813754D01*
X151247950Y-106832452D01*
X150902529Y-106941570D01*
X150764936Y-106791354D01*
X150588882Y-106646640D01*
X150397958Y-106568388D01*
X150207171Y-106554551D01*
X150031529Y-106603079D01*
X149886039Y-106711925D01*
X149785708Y-106879039D01*
X149770141Y-106927138D01*
X149749289Y-107045247D01*
X149733861Y-107214537D01*
X149726744Y-107401559D01*
X149726569Y-107431610D01*
X149728046Y-107603545D01*
X149735859Y-107708887D01*
X149754648Y-107765692D01*
X149789055Y-107792016D01*
X149821583Y-107801243D01*
X149892884Y-107814942D01*
X150032332Y-107839960D01*
X150224570Y-107873605D01*
X150454245Y-107913189D01*
X150678833Y-107951425D01*
X150931119Y-107994333D01*
X151161748Y-108033933D01*
X151354769Y-108067456D01*
X151494233Y-108092136D01*
X151559876Y-108104316D01*
X151633621Y-108114647D01*
X151633621Y-108925908D01*
X151615214Y-108870390D01*
X151482699Y-108663970D01*
X151285049Y-108492484D01*
X151037605Y-108364566D01*
X150755710Y-108288849D01*
X150551104Y-108271573D01*
X150255176Y-108294999D01*
X150024398Y-108371893D01*
X149859107Y-108501990D01*
X149759640Y-108685025D01*
X149726333Y-108920733D01*
X149726333Y-108921183D01*
X149746960Y-109130419D01*
X149817734Y-109303342D01*
X149951990Y-109469767D01*
X149987304Y-109504582D01*
X150203523Y-109662063D01*
X150465097Y-109775503D01*
X150745467Y-109837783D01*
X151018078Y-109841785D01*
X151018078Y-110912210D01*
X150890500Y-110890500D01*
X150878176Y-110540874D01*
X150870406Y-110368144D01*
X150858146Y-110260988D01*
X150835569Y-110200322D01*
X150796848Y-110167063D01*
X150759004Y-110150624D01*
X150654245Y-110115450D01*
X150587646Y-110114372D01*
X150550596Y-110159536D01*
X150534485Y-110263085D01*
X150530703Y-110437165D01*
X150530666Y-110472686D01*
X150528998Y-110648114D01*
X150521801Y-110754091D01*
X150505781Y-110805803D01*
X150477647Y-110818435D01*
X150456583Y-110814445D01*
X150368761Y-110794833D01*
X150241271Y-110771757D01*
X150202583Y-110765538D01*
X150022666Y-110737558D01*
X150022666Y-110322475D01*
X150020165Y-110118487D01*
X150008171Y-109984512D01*
X149979946Y-109905941D01*
X149928753Y-109868166D01*
X149847854Y-109856577D01*
X149807537Y-109856000D01*
X149775301Y-109861167D01*
X149752932Y-109885337D01*
X149738642Y-109941512D01*
X149730640Y-110042693D01*
X149727134Y-110201884D01*
X149726334Y-110432086D01*
X149726333Y-110445665D01*
X149726333Y-111035331D01*
X149948583Y-111079141D01*
X150070954Y-111102140D01*
X150254971Y-111135328D01*
X150478792Y-111174826D01*
X150720573Y-111216757D01*
X150805833Y-111231364D01*
X151037462Y-111271150D01*
X151247929Y-111307745D01*
X151419103Y-111337964D01*
X151532847Y-111358621D01*
X151559876Y-111363829D01*
X151633488Y-111374272D01*
X151633488Y-111695927D01*
X151493750Y-111684361D01*
X151335000Y-111671223D01*
X151335000Y-112075945D01*
X151334467Y-112269896D01*
X151325498Y-112392824D01*
X151297034Y-112458333D01*
X151238017Y-112480027D01*
X151137388Y-112471507D01*
X151028083Y-112453495D01*
X150869333Y-112427256D01*
X150869333Y-112071913D01*
X150867963Y-111898031D01*
X150860400Y-111789892D01*
X150841465Y-111728579D01*
X150805979Y-111695177D01*
X150760744Y-111675286D01*
X150655271Y-111639764D01*
X150588186Y-111638269D01*
X150550835Y-111682926D01*
X150534560Y-111785856D01*
X150530708Y-111959185D01*
X150530666Y-111997555D01*
X150530666Y-112361109D01*
X150350750Y-112333129D01*
X150203546Y-112309992D01*
X150108487Y-112284458D01*
X150054221Y-112239730D01*
X150029394Y-112159012D01*
X150022653Y-112025508D01*
X150022666Y-111847751D01*
X150021540Y-111656911D01*
X150015776Y-111534160D01*
X150001795Y-111462927D01*
X149976019Y-111426643D01*
X149934869Y-111408736D01*
X149927416Y-111406682D01*
X149848796Y-111387159D01*
X149793769Y-111385471D01*
X149758466Y-111413213D01*
X149739016Y-111481981D01*
X149731551Y-111603370D01*
X149732199Y-111788974D01*
X149735754Y-111980947D01*
X149747500Y-112581894D01*
X150657666Y-112741775D01*
X150927077Y-112788732D01*
X151169829Y-112830344D01*
X151373016Y-112864457D01*
X151523734Y-112888915D01*
X151609076Y-112901561D01*
X151621912Y-112902828D01*
X151621912Y-113206442D01*
X151607766Y-113198808D01*
X151509043Y-113211233D01*
X151349048Y-113259085D01*
X151266747Y-113286607D01*
X150897985Y-113411256D01*
X150757937Y-113247642D01*
X150600885Y-113114401D01*
X150412898Y-113030432D01*
X150222567Y-113006537D01*
X150147991Y-113017210D01*
X150003149Y-113088946D01*
X149871918Y-113216267D01*
X149781374Y-113371169D01*
X149768634Y-113409594D01*
X149748351Y-113525528D01*
X149733417Y-113692587D01*
X149726692Y-113877264D01*
X149726569Y-113902041D01*
X149726333Y-114243915D01*
X150625916Y-114400022D01*
X150895300Y-114446167D01*
X151139438Y-114486847D01*
X151344959Y-114519928D01*
X151498496Y-114543273D01*
X151586680Y-114554748D01*
X151599583Y-114555565D01*
X151599583Y-115359333D01*
X149721893Y-115359333D01*
X149721893Y-103416452D01*
X150653038Y-103105380D01*
X150920339Y-103015526D01*
X151161732Y-102933325D01*
X151365277Y-102862930D01*
X151519028Y-102808493D01*
X151611043Y-102774168D01*
X151631169Y-102765268D01*
X151657772Y-102708265D01*
X151667022Y-102600864D01*
X151665327Y-102560198D01*
X151652500Y-102384167D01*
X150700000Y-102058326D01*
X150538824Y-102003243D01*
X150538824Y-101557489D01*
X150754452Y-101552376D01*
X150974535Y-101542871D01*
X151130157Y-101528721D01*
X151241516Y-101506367D01*
X151328812Y-101472255D01*
X151382756Y-101441758D01*
X151541723Y-101296684D01*
X151640137Y-101107116D01*
X151673116Y-100892351D01*
X151635777Y-100671684D01*
X151599517Y-100585000D01*
X151504389Y-100448466D01*
X151403288Y-100375377D01*
X151403288Y-100051813D01*
X151488128Y-100050073D01*
X151576354Y-100011810D01*
X151650497Y-99922012D01*
X151664921Y-99810740D01*
X151618750Y-99711308D01*
X151584968Y-99683453D01*
X151482485Y-99659131D01*
X151370562Y-99684626D01*
X151292666Y-99744337D01*
X151292666Y-99399667D01*
X151292666Y-98553000D01*
X151483166Y-98553000D01*
X151600218Y-98549837D01*
X151655645Y-98528400D01*
X151672491Y-98470768D01*
X151673666Y-98404833D01*
X151669599Y-98313793D01*
X151642038Y-98270683D01*
X151567939Y-98257581D01*
X151483166Y-98256667D01*
X151366115Y-98253504D01*
X151310687Y-98232067D01*
X151293841Y-98174435D01*
X151292666Y-98108500D01*
X151286056Y-98009175D01*
X151249244Y-97968439D01*
X151156752Y-97960348D01*
X151147182Y-97960333D01*
X151047731Y-97968547D01*
X151004001Y-98009682D01*
X150988432Y-98097917D01*
X150975166Y-98235500D01*
X150348371Y-98247229D01*
X149721577Y-98258957D01*
X149734538Y-98434669D01*
X149747500Y-98610380D01*
X150382500Y-99004043D01*
X150649381Y-99165927D01*
X150855082Y-99282201D01*
X151007139Y-99356713D01*
X151113090Y-99393315D01*
X151155083Y-99398687D01*
X151292666Y-99399667D01*
X151292666Y-99744337D01*
X151287656Y-99748178D01*
X151271976Y-99779166D01*
X151273373Y-99897498D01*
X151334568Y-100004759D01*
X151403288Y-100051813D01*
X151403288Y-100375377D01*
X151368767Y-100350420D01*
X151181817Y-100286831D01*
X150932709Y-100253670D01*
X150689343Y-100246333D01*
X150467920Y-100249223D01*
X150309507Y-100259868D01*
X150192587Y-100281227D01*
X150095638Y-100316263D01*
X150061652Y-100332708D01*
X149880112Y-100466225D01*
X149768880Y-100646395D01*
X149727052Y-100874758D01*
X149726649Y-100902500D01*
X149757983Y-101129276D01*
X149855781Y-101306195D01*
X150025734Y-101442351D01*
X150083566Y-101472741D01*
X150179920Y-101514902D01*
X150273339Y-101541350D01*
X150385687Y-101554681D01*
X150538824Y-101557489D01*
X150538824Y-102003243D01*
X150432471Y-101966895D01*
X150192900Y-101885185D01*
X149992481Y-101817002D01*
X149842408Y-101766149D01*
X149753874Y-101736431D01*
X149734597Y-101730243D01*
X149729514Y-101766739D01*
X149731037Y-101862138D01*
X149734597Y-101929032D01*
X149747500Y-102130064D01*
X150467166Y-102348569D01*
X150745981Y-102435577D01*
X150945339Y-102503324D01*
X151067973Y-102552872D01*
X151116617Y-102585282D01*
X151109237Y-102597914D01*
X151043309Y-102620492D01*
X150912254Y-102662578D01*
X150731983Y-102719158D01*
X150518407Y-102785219D01*
X150389571Y-102824675D01*
X149747500Y-103020595D01*
X149734696Y-103218524D01*
X149721893Y-103416452D01*
X149721893Y-115359333D01*
X148922000Y-115359333D01*
X148922000Y-97198333D01*
X152478000Y-97198333D01*
X152478000Y-97198333D01*
G37*
X152478000Y-97198333D02*
X152478000Y-115359333D01*
X151599583Y-115359333D01*
X151599583Y-114555565D01*
X151649520Y-114535575D01*
X151670889Y-114463461D01*
X151673666Y-114389492D01*
X151673666Y-114223983D01*
X151366750Y-114175088D01*
X151178533Y-114144352D01*
X151058490Y-114118480D01*
X150991297Y-114088287D01*
X150961635Y-114044590D01*
X150954183Y-113978205D01*
X150954000Y-113927677D01*
X150954000Y-113763363D01*
X151303250Y-113659421D01*
X151472051Y-113607665D01*
X151576121Y-113567994D01*
X151632134Y-113529231D01*
X151656766Y-113480195D01*
X151666066Y-113416210D01*
X151673301Y-113297085D01*
X151658193Y-113226021D01*
X151621912Y-113206442D01*
X151621912Y-112902828D01*
X151643803Y-112884402D01*
X151658175Y-112821143D01*
X151665752Y-112702768D01*
X151667257Y-112518990D01*
X151664245Y-112300750D01*
X151652500Y-111697500D01*
X151633488Y-111695927D01*
X151633488Y-111374272D01*
X151665869Y-111352240D01*
X151670411Y-111277509D01*
X151665709Y-111204024D01*
X151652500Y-111020167D01*
X151271500Y-110955334D01*
X151018078Y-110912210D01*
X151018078Y-109841785D01*
X151153158Y-109817088D01*
X151323218Y-109747146D01*
X151480316Y-109641370D01*
X151596787Y-109520519D01*
X151632651Y-109457286D01*
X151664764Y-109307433D01*
X151666698Y-109122083D01*
X151639734Y-108944345D01*
X151633621Y-108925908D01*
X151633621Y-108114647D01*
X151665946Y-108092393D01*
X151670350Y-108017280D01*
X151665709Y-107945359D01*
X151652500Y-107762504D01*
X151301135Y-107702039D01*
X150949771Y-107641575D01*
X150962469Y-107470978D01*
X150975166Y-107300381D01*
X151652500Y-107083167D01*
X151665517Y-106903250D01*
X151664668Y-106791654D01*
X151646434Y-106729019D01*
X151637837Y-106724356D01*
X151637837Y-106433746D01*
X151655039Y-106431516D01*
X151666907Y-106378173D01*
X151666421Y-106276916D01*
X151665098Y-106259180D01*
X151652500Y-106109500D01*
X151250333Y-106033403D01*
X151038470Y-105992735D01*
X150823664Y-105950543D01*
X150642609Y-105914064D01*
X150594166Y-105904019D01*
X150340166Y-105850732D01*
X150985750Y-105750381D01*
X151631333Y-105650030D01*
X151631333Y-105512380D01*
X151628641Y-105460613D01*
X151613514Y-105416416D01*
X151575373Y-105371955D01*
X151503639Y-105319396D01*
X151387733Y-105250906D01*
X151217077Y-105158648D01*
X150999212Y-105044264D01*
X150791444Y-104934972D01*
X150613330Y-104839994D01*
X150476936Y-104765869D01*
X150394327Y-104719134D01*
X150374965Y-104705924D01*
X150417038Y-104710277D01*
X150526696Y-104727740D01*
X150688333Y-104755680D01*
X150886343Y-104791463D01*
X150933002Y-104800082D01*
X151197390Y-104848642D01*
X151389927Y-104881084D01*
X151522006Y-104896750D01*
X151605022Y-104894983D01*
X151650366Y-104875125D01*
X151669431Y-104836518D01*
X151673612Y-104778506D01*
X151673666Y-104757332D01*
X151664655Y-104653528D01*
X151642640Y-104593126D01*
X151639434Y-104590507D01*
X151587698Y-104576386D01*
X151467545Y-104551230D01*
X151294109Y-104517707D01*
X151082526Y-104478483D01*
X150847928Y-104436224D01*
X150605451Y-104393598D01*
X150370228Y-104353269D01*
X150157393Y-104317906D01*
X149982081Y-104290175D01*
X149859427Y-104272741D01*
X149809028Y-104268000D01*
X149758602Y-104276645D01*
X149734853Y-104316384D01*
X149730855Y-104407926D01*
X149734704Y-104490250D01*
X149747500Y-104712500D01*
X150319000Y-105009887D01*
X150528916Y-105119318D01*
X150721168Y-105219906D01*
X150878966Y-105302840D01*
X150985524Y-105359311D01*
X151011136Y-105373114D01*
X151061933Y-105402867D01*
X151078255Y-105424890D01*
X151049347Y-105443852D01*
X150964455Y-105464426D01*
X150812823Y-105491280D01*
X150693636Y-105510985D01*
X150474462Y-105547205D01*
X150252842Y-105584143D01*
X150063163Y-105616054D01*
X149990916Y-105628353D01*
X149726333Y-105673692D01*
X149726333Y-106123017D01*
X150033250Y-106174783D01*
X150187873Y-106201191D01*
X150401148Y-106238063D01*
X150648359Y-106281106D01*
X150904786Y-106326024D01*
X150986274Y-106340361D01*
X151209752Y-106378095D01*
X151402714Y-106407583D01*
X151550347Y-106426806D01*
X151637837Y-106433746D01*
X151637837Y-106724356D01*
X151635952Y-106723333D01*
X151578347Y-106735401D01*
X151461768Y-106767561D01*
X151307767Y-106813754D01*
X151247950Y-106832452D01*
X150902529Y-106941570D01*
X150764936Y-106791354D01*
X150588882Y-106646640D01*
X150397958Y-106568388D01*
X150207171Y-106554551D01*
X150031529Y-106603079D01*
X149886039Y-106711925D01*
X149785708Y-106879039D01*
X149770141Y-106927138D01*
X149749289Y-107045247D01*
X149733861Y-107214537D01*
X149726744Y-107401559D01*
X149726569Y-107431610D01*
X149728046Y-107603545D01*
X149735859Y-107708887D01*
X149754648Y-107765692D01*
X149789055Y-107792016D01*
X149821583Y-107801243D01*
X149892884Y-107814942D01*
X150032332Y-107839960D01*
X150224570Y-107873605D01*
X150454245Y-107913189D01*
X150678833Y-107951425D01*
X150931119Y-107994333D01*
X151161748Y-108033933D01*
X151354769Y-108067456D01*
X151494233Y-108092136D01*
X151559876Y-108104316D01*
X151633621Y-108114647D01*
X151633621Y-108925908D01*
X151615214Y-108870390D01*
X151482699Y-108663970D01*
X151285049Y-108492484D01*
X151037605Y-108364566D01*
X150755710Y-108288849D01*
X150551104Y-108271573D01*
X150255176Y-108294999D01*
X150024398Y-108371893D01*
X149859107Y-108501990D01*
X149759640Y-108685025D01*
X149726333Y-108920733D01*
X149726333Y-108921183D01*
X149746960Y-109130419D01*
X149817734Y-109303342D01*
X149951990Y-109469767D01*
X149987304Y-109504582D01*
X150203523Y-109662063D01*
X150465097Y-109775503D01*
X150745467Y-109837783D01*
X151018078Y-109841785D01*
X151018078Y-110912210D01*
X150890500Y-110890500D01*
X150878176Y-110540874D01*
X150870406Y-110368144D01*
X150858146Y-110260988D01*
X150835569Y-110200322D01*
X150796848Y-110167063D01*
X150759004Y-110150624D01*
X150654245Y-110115450D01*
X150587646Y-110114372D01*
X150550596Y-110159536D01*
X150534485Y-110263085D01*
X150530703Y-110437165D01*
X150530666Y-110472686D01*
X150528998Y-110648114D01*
X150521801Y-110754091D01*
X150505781Y-110805803D01*
X150477647Y-110818435D01*
X150456583Y-110814445D01*
X150368761Y-110794833D01*
X150241271Y-110771757D01*
X150202583Y-110765538D01*
X150022666Y-110737558D01*
X150022666Y-110322475D01*
X150020165Y-110118487D01*
X150008171Y-109984512D01*
X149979946Y-109905941D01*
X149928753Y-109868166D01*
X149847854Y-109856577D01*
X149807537Y-109856000D01*
X149775301Y-109861167D01*
X149752932Y-109885337D01*
X149738642Y-109941512D01*
X149730640Y-110042693D01*
X149727134Y-110201884D01*
X149726334Y-110432086D01*
X149726333Y-110445665D01*
X149726333Y-111035331D01*
X149948583Y-111079141D01*
X150070954Y-111102140D01*
X150254971Y-111135328D01*
X150478792Y-111174826D01*
X150720573Y-111216757D01*
X150805833Y-111231364D01*
X151037462Y-111271150D01*
X151247929Y-111307745D01*
X151419103Y-111337964D01*
X151532847Y-111358621D01*
X151559876Y-111363829D01*
X151633488Y-111374272D01*
X151633488Y-111695927D01*
X151493750Y-111684361D01*
X151335000Y-111671223D01*
X151335000Y-112075945D01*
X151334467Y-112269896D01*
X151325498Y-112392824D01*
X151297034Y-112458333D01*
X151238017Y-112480027D01*
X151137388Y-112471507D01*
X151028083Y-112453495D01*
X150869333Y-112427256D01*
X150869333Y-112071913D01*
X150867963Y-111898031D01*
X150860400Y-111789892D01*
X150841465Y-111728579D01*
X150805979Y-111695177D01*
X150760744Y-111675286D01*
X150655271Y-111639764D01*
X150588186Y-111638269D01*
X150550835Y-111682926D01*
X150534560Y-111785856D01*
X150530708Y-111959185D01*
X150530666Y-111997555D01*
X150530666Y-112361109D01*
X150350750Y-112333129D01*
X150203546Y-112309992D01*
X150108487Y-112284458D01*
X150054221Y-112239730D01*
X150029394Y-112159012D01*
X150022653Y-112025508D01*
X150022666Y-111847751D01*
X150021540Y-111656911D01*
X150015776Y-111534160D01*
X150001795Y-111462927D01*
X149976019Y-111426643D01*
X149934869Y-111408736D01*
X149927416Y-111406682D01*
X149848796Y-111387159D01*
X149793769Y-111385471D01*
X149758466Y-111413213D01*
X149739016Y-111481981D01*
X149731551Y-111603370D01*
X149732199Y-111788974D01*
X149735754Y-111980947D01*
X149747500Y-112581894D01*
X150657666Y-112741775D01*
X150927077Y-112788732D01*
X151169829Y-112830344D01*
X151373016Y-112864457D01*
X151523734Y-112888915D01*
X151609076Y-112901561D01*
X151621912Y-112902828D01*
X151621912Y-113206442D01*
X151607766Y-113198808D01*
X151509043Y-113211233D01*
X151349048Y-113259085D01*
X151266747Y-113286607D01*
X150897985Y-113411256D01*
X150757937Y-113247642D01*
X150600885Y-113114401D01*
X150412898Y-113030432D01*
X150222567Y-113006537D01*
X150147991Y-113017210D01*
X150003149Y-113088946D01*
X149871918Y-113216267D01*
X149781374Y-113371169D01*
X149768634Y-113409594D01*
X149748351Y-113525528D01*
X149733417Y-113692587D01*
X149726692Y-113877264D01*
X149726569Y-113902041D01*
X149726333Y-114243915D01*
X150625916Y-114400022D01*
X150895300Y-114446167D01*
X151139438Y-114486847D01*
X151344959Y-114519928D01*
X151498496Y-114543273D01*
X151586680Y-114554748D01*
X151599583Y-114555565D01*
X151599583Y-115359333D01*
X149721893Y-115359333D01*
X149721893Y-103416452D01*
X150653038Y-103105380D01*
X150920339Y-103015526D01*
X151161732Y-102933325D01*
X151365277Y-102862930D01*
X151519028Y-102808493D01*
X151611043Y-102774168D01*
X151631169Y-102765268D01*
X151657772Y-102708265D01*
X151667022Y-102600864D01*
X151665327Y-102560198D01*
X151652500Y-102384167D01*
X150700000Y-102058326D01*
X150538824Y-102003243D01*
X150538824Y-101557489D01*
X150754452Y-101552376D01*
X150974535Y-101542871D01*
X151130157Y-101528721D01*
X151241516Y-101506367D01*
X151328812Y-101472255D01*
X151382756Y-101441758D01*
X151541723Y-101296684D01*
X151640137Y-101107116D01*
X151673116Y-100892351D01*
X151635777Y-100671684D01*
X151599517Y-100585000D01*
X151504389Y-100448466D01*
X151403288Y-100375377D01*
X151403288Y-100051813D01*
X151488128Y-100050073D01*
X151576354Y-100011810D01*
X151650497Y-99922012D01*
X151664921Y-99810740D01*
X151618750Y-99711308D01*
X151584968Y-99683453D01*
X151482485Y-99659131D01*
X151370562Y-99684626D01*
X151292666Y-99744337D01*
X151292666Y-99399667D01*
X151292666Y-98553000D01*
X151483166Y-98553000D01*
X151600218Y-98549837D01*
X151655645Y-98528400D01*
X151672491Y-98470768D01*
X151673666Y-98404833D01*
X151669599Y-98313793D01*
X151642038Y-98270683D01*
X151567939Y-98257581D01*
X151483166Y-98256667D01*
X151366115Y-98253504D01*
X151310687Y-98232067D01*
X151293841Y-98174435D01*
X151292666Y-98108500D01*
X151286056Y-98009175D01*
X151249244Y-97968439D01*
X151156752Y-97960348D01*
X151147182Y-97960333D01*
X151047731Y-97968547D01*
X151004001Y-98009682D01*
X150988432Y-98097917D01*
X150975166Y-98235500D01*
X150348371Y-98247229D01*
X149721577Y-98258957D01*
X149734538Y-98434669D01*
X149747500Y-98610380D01*
X150382500Y-99004043D01*
X150649381Y-99165927D01*
X150855082Y-99282201D01*
X151007139Y-99356713D01*
X151113090Y-99393315D01*
X151155083Y-99398687D01*
X151292666Y-99399667D01*
X151292666Y-99744337D01*
X151287656Y-99748178D01*
X151271976Y-99779166D01*
X151273373Y-99897498D01*
X151334568Y-100004759D01*
X151403288Y-100051813D01*
X151403288Y-100375377D01*
X151368767Y-100350420D01*
X151181817Y-100286831D01*
X150932709Y-100253670D01*
X150689343Y-100246333D01*
X150467920Y-100249223D01*
X150309507Y-100259868D01*
X150192587Y-100281227D01*
X150095638Y-100316263D01*
X150061652Y-100332708D01*
X149880112Y-100466225D01*
X149768880Y-100646395D01*
X149727052Y-100874758D01*
X149726649Y-100902500D01*
X149757983Y-101129276D01*
X149855781Y-101306195D01*
X150025734Y-101442351D01*
X150083566Y-101472741D01*
X150179920Y-101514902D01*
X150273339Y-101541350D01*
X150385687Y-101554681D01*
X150538824Y-101557489D01*
X150538824Y-102003243D01*
X150432471Y-101966895D01*
X150192900Y-101885185D01*
X149992481Y-101817002D01*
X149842408Y-101766149D01*
X149753874Y-101736431D01*
X149734597Y-101730243D01*
X149729514Y-101766739D01*
X149731037Y-101862138D01*
X149734597Y-101929032D01*
X149747500Y-102130064D01*
X150467166Y-102348569D01*
X150745981Y-102435577D01*
X150945339Y-102503324D01*
X151067973Y-102552872D01*
X151116617Y-102585282D01*
X151109237Y-102597914D01*
X151043309Y-102620492D01*
X150912254Y-102662578D01*
X150731983Y-102719158D01*
X150518407Y-102785219D01*
X150389571Y-102824675D01*
X149747500Y-103020595D01*
X149734696Y-103218524D01*
X149721893Y-103416452D01*
X149721893Y-115359333D01*
X148922000Y-115359333D01*
X148922000Y-97198333D01*
X152478000Y-97198333D01*
G36*
X150049377Y-113726754D02*
X150049699Y-113715641D01*
X150068216Y-113538426D01*
X150118291Y-113430312D01*
X150208981Y-113378780D01*
X150299944Y-113369667D01*
X150448007Y-113405587D01*
X150550774Y-113511198D01*
X150605979Y-113683275D01*
X150615333Y-113818818D01*
X150615333Y-114044883D01*
X150477750Y-114019637D01*
X150283805Y-113984420D01*
X150158090Y-113957406D01*
X150086196Y-113928364D01*
X150053717Y-113887063D01*
X150046247Y-113823270D01*
X150049377Y-113726754D01*
X150049377Y-113726754D01*
G37*
X150049377Y-113726754D02*
X150049699Y-113715641D01*
X150068216Y-113538426D01*
X150118291Y-113430312D01*
X150208981Y-113378780D01*
X150299944Y-113369667D01*
X150448007Y-113405587D01*
X150550774Y-113511198D01*
X150605979Y-113683275D01*
X150615333Y-113818818D01*
X150615333Y-114044883D01*
X150477750Y-114019637D01*
X150283805Y-113984420D01*
X150158090Y-113957406D01*
X150086196Y-113928364D01*
X150053717Y-113887063D01*
X150046247Y-113823270D01*
X150049377Y-113726754D01*
G36*
X150047455Y-108861805D02*
X150103658Y-108745391D01*
X150209671Y-108671726D01*
X150376708Y-108635401D01*
X150529502Y-108629263D01*
X150814406Y-108659713D01*
X151056258Y-108745662D01*
X151240967Y-108882061D01*
X151244196Y-108885498D01*
X151314609Y-109008120D01*
X151339385Y-109155214D01*
X151318714Y-109296056D01*
X151252790Y-109399921D01*
X151240913Y-109409100D01*
X151116854Y-109455189D01*
X150916951Y-109474443D01*
X150868225Y-109475000D01*
X150619966Y-109450075D01*
X150401806Y-109380939D01*
X150225063Y-109276048D01*
X150101058Y-109143860D01*
X150041111Y-108992831D01*
X150047455Y-108861805D01*
X150047455Y-108861805D01*
G37*
X150047455Y-108861805D02*
X150103658Y-108745391D01*
X150209671Y-108671726D01*
X150376708Y-108635401D01*
X150529502Y-108629263D01*
X150814406Y-108659713D01*
X151056258Y-108745662D01*
X151240967Y-108882061D01*
X151244196Y-108885498D01*
X151314609Y-109008120D01*
X151339385Y-109155214D01*
X151318714Y-109296056D01*
X151252790Y-109399921D01*
X151240913Y-109409100D01*
X151116854Y-109455189D01*
X150916951Y-109474443D01*
X150868225Y-109475000D01*
X150619966Y-109450075D01*
X150401806Y-109380939D01*
X150225063Y-109276048D01*
X150101058Y-109143860D01*
X150041111Y-108992831D01*
X150047455Y-108861805D01*
G36*
X150040680Y-107172428D02*
X150088209Y-107029607D01*
X150155480Y-106934969D01*
X150191938Y-106913853D01*
X150331448Y-106907651D01*
X150470214Y-106959271D01*
X150552820Y-107033923D01*
X150591750Y-107134880D01*
X150613194Y-107284865D01*
X150615333Y-107351393D01*
X150615333Y-107579614D01*
X150414250Y-107550602D01*
X150231358Y-107522532D01*
X150116596Y-107496739D01*
X150054124Y-107464659D01*
X150028100Y-107417727D01*
X150022684Y-107347380D01*
X150022666Y-107338895D01*
X150040680Y-107172428D01*
X150040680Y-107172428D01*
G37*
X150040680Y-107172428D02*
X150088209Y-107029607D01*
X150155480Y-106934969D01*
X150191938Y-106913853D01*
X150331448Y-106907651D01*
X150470214Y-106959271D01*
X150552820Y-107033923D01*
X150591750Y-107134880D01*
X150613194Y-107284865D01*
X150615333Y-107351393D01*
X150615333Y-107579614D01*
X150414250Y-107550602D01*
X150231358Y-107522532D01*
X150116596Y-107496739D01*
X150054124Y-107464659D01*
X150028100Y-107417727D01*
X150022684Y-107347380D01*
X150022666Y-107338895D01*
X150040680Y-107172428D01*
G36*
X150043927Y-100767754D02*
X150114254Y-100683063D01*
X150243463Y-100628380D01*
X150441371Y-100598263D01*
X150557853Y-100591173D01*
X150744701Y-100587426D01*
X150917799Y-100591019D01*
X151045247Y-100601134D01*
X151063800Y-100604118D01*
X151228136Y-100663911D01*
X151332957Y-100761312D01*
X151371906Y-100881399D01*
X151338624Y-101009250D01*
X151271929Y-101092597D01*
X151201129Y-101145740D01*
X151111330Y-101179438D01*
X150978936Y-101200022D01*
X150830394Y-101211077D01*
X150528438Y-101215140D01*
X150301030Y-101186730D01*
X150143827Y-101124107D01*
X150052488Y-101025534D01*
X150022668Y-100889275D01*
X150022666Y-100887895D01*
X150043927Y-100767754D01*
X150043927Y-100767754D01*
G37*
X150043927Y-100767754D02*
X150114254Y-100683063D01*
X150243463Y-100628380D01*
X150441371Y-100598263D01*
X150557853Y-100591173D01*
X150744701Y-100587426D01*
X150917799Y-100591019D01*
X151045247Y-100601134D01*
X151063800Y-100604118D01*
X151228136Y-100663911D01*
X151332957Y-100761312D01*
X151371906Y-100881399D01*
X151338624Y-101009250D01*
X151271929Y-101092597D01*
X151201129Y-101145740D01*
X151111330Y-101179438D01*
X150978936Y-101200022D01*
X150830394Y-101211077D01*
X150528438Y-101215140D01*
X150301030Y-101186730D01*
X150143827Y-101124107D01*
X150052488Y-101025534D01*
X150022668Y-100889275D01*
X150022666Y-100887895D01*
X150043927Y-100767754D01*
G36*
X150549420Y-98561680D02*
X150714870Y-98558374D01*
X150850750Y-98560934D01*
X150932094Y-98568767D01*
X150939674Y-98570934D01*
X150978848Y-98630139D01*
X150995742Y-98765697D01*
X150996333Y-98805672D01*
X150993123Y-98926892D01*
X150984911Y-99004039D01*
X150978394Y-99018667D01*
X150936845Y-98998327D01*
X150838933Y-98943431D01*
X150700786Y-98863163D01*
X150588140Y-98796417D01*
X150215824Y-98574167D01*
X150549420Y-98561680D01*
X150549420Y-98561680D01*
G37*
X150549420Y-98561680D02*
X150714870Y-98558374D01*
X150850750Y-98560934D01*
X150932094Y-98568767D01*
X150939674Y-98570934D01*
X150978848Y-98630139D01*
X150995742Y-98765697D01*
X150996333Y-98805672D01*
X150993123Y-98926892D01*
X150984911Y-99004039D01*
X150978394Y-99018667D01*
X150936845Y-98998327D01*
X150838933Y-98943431D01*
X150700786Y-98863163D01*
X150588140Y-98796417D01*
X150215824Y-98574167D01*
X150549420Y-98561680D01*
D13*
G04 #@! TO.C,C1*
X115600000Y-94850000D02*
X115600000Y-94150000D01*
X116800000Y-94150000D02*
X116800000Y-94850000D01*
G04 #@! TO.C,C2*
X124600000Y-94150000D02*
X124600000Y-94850000D01*
X123400000Y-94850000D02*
X123400000Y-94150000D01*
G04 #@! TO.C,C3*
X106650000Y-101900000D02*
X107350000Y-101900000D01*
X107350000Y-103100000D02*
X106650000Y-103100000D01*
G04 #@! TO.C,C4*
X98700000Y-103950000D02*
X98700000Y-103250000D01*
X99900000Y-103250000D02*
X99900000Y-103950000D01*
G04 #@! TO.C,Y1*
X117300000Y-96750000D02*
X122700000Y-96750000D01*
X117300000Y-92250000D02*
X117300000Y-96750000D01*
G04 #@! TO.C,J6*
X141930000Y-91070000D02*
X141930000Y-92400000D01*
X140600000Y-91070000D02*
X141930000Y-91070000D01*
X139330000Y-91070000D02*
X139330000Y-93730000D01*
X139330000Y-93730000D02*
X136730000Y-93730000D01*
X139330000Y-91070000D02*
X136730000Y-91070000D01*
X136730000Y-91070000D02*
X136730000Y-93730000D01*
G04 #@! TO.C,J3*
X107570000Y-120470000D02*
X110230000Y-120470000D01*
X107570000Y-117870000D02*
X107570000Y-120470000D01*
X110230000Y-117870000D02*
X110230000Y-120470000D01*
X107570000Y-117870000D02*
X110230000Y-117870000D01*
X107570000Y-116600000D02*
X107570000Y-115270000D01*
X107570000Y-115270000D02*
X108900000Y-115270000D01*
G04 #@! TO.C,J7*
X99270000Y-115270000D02*
X100600000Y-115270000D01*
X99270000Y-116600000D02*
X99270000Y-115270000D01*
X99270000Y-117870000D02*
X101930000Y-117870000D01*
X101930000Y-117870000D02*
X101930000Y-120470000D01*
X99270000Y-117870000D02*
X99270000Y-120470000D01*
X99270000Y-120470000D02*
X101930000Y-120470000D01*
G04 #@! TO.C,J1*
X126440000Y-93560000D02*
X126440000Y-92500000D01*
X127500000Y-93560000D02*
X126440000Y-93560000D01*
X128500000Y-93560000D02*
X128500000Y-91440000D01*
X128500000Y-91440000D02*
X134560000Y-91440000D01*
X128500000Y-93560000D02*
X134560000Y-93560000D01*
X134560000Y-93560000D02*
X134560000Y-91440000D01*
G04 #@! TO.C,J2*
X118970000Y-132630000D02*
X118970000Y-131300000D01*
X120300000Y-132630000D02*
X118970000Y-132630000D01*
X121570000Y-132630000D02*
X121570000Y-129970000D01*
X121570000Y-129970000D02*
X139410000Y-129970000D01*
X121570000Y-132630000D02*
X139410000Y-132630000D01*
X139410000Y-132630000D02*
X139410000Y-129970000D01*
G04 #@! TO.C,R1*
X111980000Y-117500000D02*
X111980000Y-118500000D01*
X110620000Y-118500000D02*
X110620000Y-117500000D01*
G04 #@! TO.C,R2*
X102020000Y-118500000D02*
X102020000Y-117500000D01*
X103380000Y-117500000D02*
X103380000Y-118500000D01*
D10*
G04 #@! TO.C,SW2*
X147200000Y-107800000D02*
X159200000Y-107800000D01*
X159200000Y-107800000D02*
X159200000Y-119200000D01*
X159200000Y-119200000D02*
X147200000Y-119200000D01*
X147200000Y-119200000D02*
X147200000Y-107800000D01*
G04 #@! TO.C,SW1*
X99100000Y-119200000D02*
X99100000Y-107800000D01*
X111100000Y-119200000D02*
X99100000Y-119200000D01*
X111100000Y-107800000D02*
X111100000Y-119200000D01*
X99100000Y-107800000D02*
X111100000Y-107800000D01*
G04 #@! TO.C,U1*
X107025000Y-99425000D02*
X107025000Y-99200000D01*
X99775000Y-99425000D02*
X99775000Y-99100000D01*
X99775000Y-92175000D02*
X99775000Y-92500000D01*
X107025000Y-92175000D02*
X107025000Y-92500000D01*
X107025000Y-99425000D02*
X106700000Y-99425000D01*
X107025000Y-92175000D02*
X106700000Y-92175000D01*
X99775000Y-92175000D02*
X100100000Y-92175000D01*
X99775000Y-99425000D02*
X100100000Y-99425000D01*
X107025000Y-99200000D02*
X108450000Y-99200000D01*
G04 #@! TO.C,C1*
X115257142Y-95666666D02*
X115304761Y-95714285D01*
X115352380Y-95857142D01*
X115352380Y-95952380D01*
X115304761Y-96095238D01*
X115209523Y-96190476D01*
X115114285Y-96238095D01*
X114923809Y-96285714D01*
X114780952Y-96285714D01*
X114590476Y-96238095D01*
X114495238Y-96190476D01*
X114400000Y-96095238D01*
X114352380Y-95952380D01*
X114352380Y-95857142D01*
X114400000Y-95714285D01*
X114447619Y-95666666D01*
X115352380Y-94714285D02*
X115352380Y-95285714D01*
X115352380Y-95000000D02*
X114352380Y-95000000D01*
X114495238Y-95095238D01*
X114590476Y-95190476D01*
X114638095Y-95285714D01*
G04 #@! TO.C,C2*
X125757142Y-95666666D02*
X125804761Y-95714285D01*
X125852380Y-95857142D01*
X125852380Y-95952380D01*
X125804761Y-96095238D01*
X125709523Y-96190476D01*
X125614285Y-96238095D01*
X125423809Y-96285714D01*
X125280952Y-96285714D01*
X125090476Y-96238095D01*
X124995238Y-96190476D01*
X124900000Y-96095238D01*
X124852380Y-95952380D01*
X124852380Y-95857142D01*
X124900000Y-95714285D01*
X124947619Y-95666666D01*
X124947619Y-95285714D02*
X124900000Y-95238095D01*
X124852380Y-95142857D01*
X124852380Y-94904761D01*
X124900000Y-94809523D01*
X124947619Y-94761904D01*
X125042857Y-94714285D01*
X125138095Y-94714285D01*
X125280952Y-94761904D01*
X125852380Y-95333333D01*
X125852380Y-94714285D01*
G04 #@! TO.C,C3*
X109733333Y-102957142D02*
X109685714Y-103004761D01*
X109542857Y-103052380D01*
X109447619Y-103052380D01*
X109304761Y-103004761D01*
X109209523Y-102909523D01*
X109161904Y-102814285D01*
X109114285Y-102623809D01*
X109114285Y-102480952D01*
X109161904Y-102290476D01*
X109209523Y-102195238D01*
X109304761Y-102100000D01*
X109447619Y-102052380D01*
X109542857Y-102052380D01*
X109685714Y-102100000D01*
X109733333Y-102147619D01*
X110066666Y-102052380D02*
X110685714Y-102052380D01*
X110352380Y-102433333D01*
X110495238Y-102433333D01*
X110590476Y-102480952D01*
X110638095Y-102528571D01*
X110685714Y-102623809D01*
X110685714Y-102861904D01*
X110638095Y-102957142D01*
X110590476Y-103004761D01*
X110495238Y-103052380D01*
X110209523Y-103052380D01*
X110114285Y-103004761D01*
X110066666Y-102957142D01*
G04 #@! TO.C,C4*
X101057142Y-103866666D02*
X101104761Y-103914285D01*
X101152380Y-104057142D01*
X101152380Y-104152380D01*
X101104761Y-104295238D01*
X101009523Y-104390476D01*
X100914285Y-104438095D01*
X100723809Y-104485714D01*
X100580952Y-104485714D01*
X100390476Y-104438095D01*
X100295238Y-104390476D01*
X100200000Y-104295238D01*
X100152380Y-104152380D01*
X100152380Y-104057142D01*
X100200000Y-103914285D01*
X100247619Y-103866666D01*
X100485714Y-103009523D02*
X101152380Y-103009523D01*
X100104761Y-103247619D02*
X100819047Y-103485714D01*
X100819047Y-102866666D01*
G04 #@! TO.C,Y1*
X119623809Y-97576190D02*
X119623809Y-98052380D01*
X119290476Y-97052380D02*
X119623809Y-97576190D01*
X119957142Y-97052380D01*
X120814285Y-98052380D02*
X120242857Y-98052380D01*
X120528571Y-98052380D02*
X120528571Y-97052380D01*
X120433333Y-97195238D01*
X120338095Y-97290476D01*
X120242857Y-97338095D01*
G04 #@! TO.C,J6*
X142382380Y-92733333D02*
X143096666Y-92733333D01*
X143239523Y-92780952D01*
X143334761Y-92876190D01*
X143382380Y-93019047D01*
X143382380Y-93114285D01*
X142382380Y-91828571D02*
X142382380Y-92019047D01*
X142430000Y-92114285D01*
X142477619Y-92161904D01*
X142620476Y-92257142D01*
X142810952Y-92304761D01*
X143191904Y-92304761D01*
X143287142Y-92257142D01*
X143334761Y-92209523D01*
X143382380Y-92114285D01*
X143382380Y-91923809D01*
X143334761Y-91828571D01*
X143287142Y-91780952D01*
X143191904Y-91733333D01*
X142953809Y-91733333D01*
X142858571Y-91780952D01*
X142810952Y-91828571D01*
X142763333Y-91923809D01*
X142763333Y-92114285D01*
X142810952Y-92209523D01*
X142858571Y-92257142D01*
X142953809Y-92304761D01*
G04 #@! TO.C,J3*
X106066666Y-115252380D02*
X106066666Y-115966666D01*
X106019047Y-116109523D01*
X105923809Y-116204761D01*
X105780952Y-116252380D01*
X105685714Y-116252380D01*
X106447619Y-115252380D02*
X107066666Y-115252380D01*
X106733333Y-115633333D01*
X106876190Y-115633333D01*
X106971428Y-115680952D01*
X107019047Y-115728571D01*
X107066666Y-115823809D01*
X107066666Y-116061904D01*
X107019047Y-116157142D01*
X106971428Y-116204761D01*
X106876190Y-116252380D01*
X106590476Y-116252380D01*
X106495238Y-116204761D01*
X106447619Y-116157142D01*
G04 #@! TO.C,J7*
X100866666Y-113752380D02*
X100866666Y-114466666D01*
X100819047Y-114609523D01*
X100723809Y-114704761D01*
X100580952Y-114752380D01*
X100485714Y-114752380D01*
X101247619Y-113752380D02*
X101914285Y-113752380D01*
X101485714Y-114752380D01*
G04 #@! TO.C,J1*
X124892380Y-92833333D02*
X125606666Y-92833333D01*
X125749523Y-92880952D01*
X125844761Y-92976190D01*
X125892380Y-93119047D01*
X125892380Y-93214285D01*
X125892380Y-91833333D02*
X125892380Y-92404761D01*
X125892380Y-92119047D02*
X124892380Y-92119047D01*
X125035238Y-92214285D01*
X125130476Y-92309523D01*
X125178095Y-92404761D01*
G04 #@! TO.C,J2*
X117422380Y-131633333D02*
X118136666Y-131633333D01*
X118279523Y-131680952D01*
X118374761Y-131776190D01*
X118422380Y-131919047D01*
X118422380Y-132014285D01*
X117517619Y-131204761D02*
X117470000Y-131157142D01*
X117422380Y-131061904D01*
X117422380Y-130823809D01*
X117470000Y-130728571D01*
X117517619Y-130680952D01*
X117612857Y-130633333D01*
X117708095Y-130633333D01*
X117850952Y-130680952D01*
X118422380Y-131252380D01*
X118422380Y-130633333D01*
G04 #@! TO.C,R1*
X113052380Y-120366666D02*
X112576190Y-120700000D01*
X113052380Y-120938095D02*
X112052380Y-120938095D01*
X112052380Y-120557142D01*
X112100000Y-120461904D01*
X112147619Y-120414285D01*
X112242857Y-120366666D01*
X112385714Y-120366666D01*
X112480952Y-120414285D01*
X112528571Y-120461904D01*
X112576190Y-120557142D01*
X112576190Y-120938095D01*
X113052380Y-119414285D02*
X113052380Y-119985714D01*
X113052380Y-119700000D02*
X112052380Y-119700000D01*
X112195238Y-119795238D01*
X112290476Y-119890476D01*
X112338095Y-119985714D01*
G04 #@! TO.C,R2*
X104452380Y-120366666D02*
X103976190Y-120700000D01*
X104452380Y-120938095D02*
X103452380Y-120938095D01*
X103452380Y-120557142D01*
X103500000Y-120461904D01*
X103547619Y-120414285D01*
X103642857Y-120366666D01*
X103785714Y-120366666D01*
X103880952Y-120414285D01*
X103928571Y-120461904D01*
X103976190Y-120557142D01*
X103976190Y-120938095D01*
X103547619Y-119985714D02*
X103500000Y-119938095D01*
X103452380Y-119842857D01*
X103452380Y-119604761D01*
X103500000Y-119509523D01*
X103547619Y-119461904D01*
X103642857Y-119414285D01*
X103738095Y-119414285D01*
X103880952Y-119461904D01*
X104452380Y-120033333D01*
X104452380Y-119414285D01*
G04 #@! TO.C,SW2*
X156304761Y-114133333D02*
X156352380Y-113990476D01*
X156352380Y-113752380D01*
X156304761Y-113657142D01*
X156257142Y-113609523D01*
X156161904Y-113561904D01*
X156066666Y-113561904D01*
X155971428Y-113609523D01*
X155923809Y-113657142D01*
X155876190Y-113752380D01*
X155828571Y-113942857D01*
X155780952Y-114038095D01*
X155733333Y-114085714D01*
X155638095Y-114133333D01*
X155542857Y-114133333D01*
X155447619Y-114085714D01*
X155400000Y-114038095D01*
X155352380Y-113942857D01*
X155352380Y-113704761D01*
X155400000Y-113561904D01*
X155352380Y-113228571D02*
X156352380Y-112990476D01*
X155638095Y-112800000D01*
X156352380Y-112609523D01*
X155352380Y-112371428D01*
X155447619Y-112038095D02*
X155400000Y-111990476D01*
X155352380Y-111895238D01*
X155352380Y-111657142D01*
X155400000Y-111561904D01*
X155447619Y-111514285D01*
X155542857Y-111466666D01*
X155638095Y-111466666D01*
X155780952Y-111514285D01*
X156352380Y-112085714D01*
X156352380Y-111466666D01*
G04 #@! TO.C,SW1*
X108104761Y-114033333D02*
X108152380Y-113890476D01*
X108152380Y-113652380D01*
X108104761Y-113557142D01*
X108057142Y-113509523D01*
X107961904Y-113461904D01*
X107866666Y-113461904D01*
X107771428Y-113509523D01*
X107723809Y-113557142D01*
X107676190Y-113652380D01*
X107628571Y-113842857D01*
X107580952Y-113938095D01*
X107533333Y-113985714D01*
X107438095Y-114033333D01*
X107342857Y-114033333D01*
X107247619Y-113985714D01*
X107200000Y-113938095D01*
X107152380Y-113842857D01*
X107152380Y-113604761D01*
X107200000Y-113461904D01*
X107152380Y-113128571D02*
X108152380Y-112890476D01*
X107438095Y-112700000D01*
X108152380Y-112509523D01*
X107152380Y-112271428D01*
X108152380Y-111366666D02*
X108152380Y-111938095D01*
X108152380Y-111652380D02*
X107152380Y-111652380D01*
X107295238Y-111747619D01*
X107390476Y-111842857D01*
X107438095Y-111938095D01*
G04 #@! TO.C,U1*
X103038095Y-101552380D02*
X103038095Y-102361904D01*
X103085714Y-102457142D01*
X103133333Y-102504761D01*
X103228571Y-102552380D01*
X103419047Y-102552380D01*
X103514285Y-102504761D01*
X103561904Y-102457142D01*
X103609523Y-102361904D01*
X103609523Y-101552380D01*
X104609523Y-102552380D02*
X104038095Y-102552380D01*
X104323809Y-102552380D02*
X104323809Y-101552380D01*
X104228571Y-101695238D01*
X104133333Y-101790476D01*
X104038095Y-101838095D01*
G04 #@! TD*
M02*
