  0
SECTION
  2
HEADER
  9
$ANGBASE
  50
0.0
  9
$ANGDIR
  70
  1
  9
$MEASUREMENT
  70
0
  0
ENDSEC
  0
SECTION
  2
TABLES
  0
TABLE
  2
LTYPE
  70
4
  0
LTYPE
  5
40F
  2
CONTINUOUS
  70
0
  3
Solid line
  72
65
  73
0
  40
0.0
  0
LTYPE
  5
410
  2
DASHDOT
 70
0
  3
Dash Dot ____ _ ____ _
 72
65
 73
4
 40
2.0
 49
1.25
 49
-0.25
 49
0.25
 49
-0.25
  0
LTYPE
  5
411
  2
DASHED
 70
0
  3
Dashed __ __ __ __ __
 72
65
 73
2
 40
0.75
 49
0.5
 49
-0.25
  0
LTYPE
  5
43B
  2
DOTTED
 70
0
  3
Dotted .  .  .  .
 72
65
 73
2
 40
0.2
 49
0.0
 49
-0.2
  0
ENDTAB
  0
TABLE
  2
STYLE
  70
4
  0
STYLE
  2
KICAD
  70
0
  40
0
  41
1
  42
1
  50
0
  71
0
  3
isocp.shx
  0
STYLE
  2
KICADB
  70
0
  40
0
  41
1
  42
1
  50
0
  71
0
  3
isocp.shx
  0
STYLE
  2
KICADI
  70
0
  40
0
  41
1
  42
1
  50
15
  71
0
  3
isocp.shx
  0
STYLE
  2
KICADBI
  70
0
  40
0
  41
1
  42
1
  50
15
  71
0
  3
isocp.shx
  0
ENDTAB
  0
TABLE
  2
LAYER
  70
30
  0
LAYER
  2
BLACK
  70
0
  62
7
  6
CONTINUOUS
  0
LAYER
  2
GRAY1
  70
0
  62
251
  6
CONTINUOUS
  0
LAYER
  2
GRAY2
  70
0
  62
8
  6
CONTINUOUS
  0
LAYER
  2
GRAY3
  70
0
  62
9
  6
CONTINUOUS
  0
LAYER
  2
WHITE
  70
0
  62
7
  6
CONTINUOUS
  0
LAYER
  2
LYELLOW
  70
0
  62
51
  6
CONTINUOUS
  0
LAYER
  2
BLUE1
  70
0
  62
178
  6
CONTINUOUS
  0
LAYER
  2
GREEN1
  70
0
  62
98
  6
CONTINUOUS
  0
LAYER
  2
CYAN1
  70
0
  62
138
  6
CONTINUOUS
  0
LAYER
  2
RED1
  70
0
  62
18
  6
CONTINUOUS
  0
LAYER
  2
MAGENTA1
  70
0
  62
228
  6
CONTINUOUS
  0
LAYER
  2
BROWN1
  70
0
  62
58
  6
CONTINUOUS
  0
LAYER
  2
BLUE2
  70
0
  62
5
  6
CONTINUOUS
  0
LAYER
  2
GREEN2
  70
0
  62
3
  6
CONTINUOUS
  0
LAYER
  2
CYAN2
  70
0
  62
4
  6
CONTINUOUS
  0
LAYER
  2
RED2
  70
0
  62
1
  6
CONTINUOUS
  0
LAYER
  2
MAGENTA2
  70
0
  62
6
  6
CONTINUOUS
  0
LAYER
  2
BROWN2
  70
0
  62
54
  6
CONTINUOUS
  0
LAYER
  2
BLUE3
  70
0
  62
171
  6
CONTINUOUS
  0
LAYER
  2
GREEN3
  70
0
  62
91
  6
CONTINUOUS
  0
LAYER
  2
CYAN3
  70
0
  62
131
  6
CONTINUOUS
  0
LAYER
  2
RED3
  70
0
  62
11
  6
CONTINUOUS
  0
LAYER
  2
MAGENTA3
  70
0
  62
221
  6
CONTINUOUS
  0
LAYER
  2
YELLOW3
  70
0
  62
2
  6
CONTINUOUS
  0
LAYER
  2
BLUE4
  70
0
  62
5
  6
CONTINUOUS
  0
LAYER
  2
GREEN4
  70
0
  62
3
  6
CONTINUOUS
  0
LAYER
  2
CYAN4
  70
0
  62
4
  6
CONTINUOUS
  0
LAYER
  2
RED4
  70
0
  62
1
  6
CONTINUOUS
  0
LAYER
  2
MAGENTA4
  70
0
  62
6
  6
CONTINUOUS
  0
LAYER
  2
YELLOW4
  70
0
  62
2
  6
CONTINUOUS
  0
ENDTAB
  0
ENDSEC
  0
SECTION
  2
ENTITIES
0
LINE
8
BLACK
6
CONTINUOUS
10
128.215
20
-130.489
11
128.475
21
-130.639
0
LINE
8
BLACK
6
CONTINUOUS
10
128.475
20
-130.639
11
128.667
21
-130.868
0
LINE
8
BLACK
6
CONTINUOUS
10
128.667
20
-130.868
11
128.77
21
-131.15
0
LINE
8
BLACK
6
CONTINUOUS
10
128.77
20
-131.15
11
128.77
21
-131.45
0
LINE
8
BLACK
6
CONTINUOUS
10
128.77
20
-131.45
11
128.667
21
-131.732
0
LINE
8
BLACK
6
CONTINUOUS
10
128.667
20
-131.732
11
128.475
21
-131.961
0
LINE
8
BLACK
6
CONTINUOUS
10
128.475
20
-131.961
11
128.215
21
-132.111
0
LINE
8
BLACK
6
CONTINUOUS
10
128.215
20
-132.111
11
127.994
21
-132.15
0
LINE
8
BLACK
6
CONTINUOUS
10
127.994
20
-132.15
11
127.846
21
-132.15
0
LINE
8
BLACK
6
CONTINUOUS
10
127.846
20
-132.15
11
127.625
21
-132.111
0
LINE
8
BLACK
6
CONTINUOUS
10
127.625
20
-132.111
11
127.365
21
-131.961
0
LINE
8
BLACK
6
CONTINUOUS
10
127.365
20
-131.961
11
127.173
21
-131.732
0
LINE
8
BLACK
6
CONTINUOUS
10
127.173
20
-131.732
11
127.07
21
-131.45
0
LINE
8
BLACK
6
CONTINUOUS
10
127.07
20
-131.45
11
127.07
21
-131.15
0
LINE
8
BLACK
6
CONTINUOUS
10
127.07
20
-131.15
11
127.173
21
-130.868
0
LINE
8
BLACK
6
CONTINUOUS
10
127.173
20
-130.868
11
127.365
21
-130.639
0
LINE
8
BLACK
6
CONTINUOUS
10
127.365
20
-130.639
11
127.625
21
-130.489
0
LINE
8
BLACK
6
CONTINUOUS
10
127.625
20
-130.489
11
127.846
21
-130.45
0
LINE
8
BLACK
6
CONTINUOUS
10
127.846
20
-130.45
11
127.994
21
-130.45
0
LINE
8
BLACK
6
CONTINUOUS
10
127.994
20
-130.45
11
128.215
21
-130.489
0
LINE
8
BLACK
6
CONTINUOUS
10
138.375
20
-130.489
11
138.635
21
-130.639
0
LINE
8
BLACK
6
CONTINUOUS
10
138.635
20
-130.639
11
138.827
21
-130.868
0
LINE
8
BLACK
6
CONTINUOUS
10
138.827
20
-130.868
11
138.93
21
-131.15
0
LINE
8
BLACK
6
CONTINUOUS
10
138.93
20
-131.15
11
138.93
21
-131.45
0
LINE
8
BLACK
6
CONTINUOUS
10
138.93
20
-131.45
11
138.827
21
-131.732
0
LINE
8
BLACK
6
CONTINUOUS
10
138.827
20
-131.732
11
138.635
21
-131.961
0
LINE
8
BLACK
6
CONTINUOUS
10
138.635
20
-131.961
11
138.375
21
-132.111
0
LINE
8
BLACK
6
CONTINUOUS
10
138.375
20
-132.111
11
138.154
21
-132.15
0
LINE
8
BLACK
6
CONTINUOUS
10
138.154
20
-132.15
11
138.006
21
-132.15
0
LINE
8
BLACK
6
CONTINUOUS
10
138.006
20
-132.15
11
137.785
21
-132.111
0
LINE
8
BLACK
6
CONTINUOUS
10
137.785
20
-132.111
11
137.525
21
-131.961
0
LINE
8
BLACK
6
CONTINUOUS
10
137.525
20
-131.961
11
137.333
21
-131.732
0
LINE
8
BLACK
6
CONTINUOUS
10
137.333
20
-131.732
11
137.23
21
-131.45
0
LINE
8
BLACK
6
CONTINUOUS
10
137.23
20
-131.45
11
137.23
21
-131.15
0
LINE
8
BLACK
6
CONTINUOUS
10
137.23
20
-131.15
11
137.333
21
-130.868
0
LINE
8
BLACK
6
CONTINUOUS
10
137.333
20
-130.868
11
137.525
21
-130.639
0
LINE
8
BLACK
6
CONTINUOUS
10
137.525
20
-130.639
11
137.785
21
-130.489
0
LINE
8
BLACK
6
CONTINUOUS
10
137.785
20
-130.489
11
138.006
21
-130.45
0
LINE
8
BLACK
6
CONTINUOUS
10
138.006
20
-130.45
11
138.154
21
-130.45
0
LINE
8
BLACK
6
CONTINUOUS
10
138.154
20
-130.45
11
138.375
21
-130.489
0
LINE
8
BLACK
6
CONTINUOUS
10
135.835
20
-130.489
11
136.095
21
-130.639
0
LINE
8
BLACK
6
CONTINUOUS
10
136.095
20
-130.639
11
136.287
21
-130.868
0
LINE
8
BLACK
6
CONTINUOUS
10
136.287
20
-130.868
11
136.39
21
-131.15
0
LINE
8
BLACK
6
CONTINUOUS
10
136.39
20
-131.15
11
136.39
21
-131.45
0
LINE
8
BLACK
6
CONTINUOUS
10
136.39
20
-131.45
11
136.287
21
-131.732
0
LINE
8
BLACK
6
CONTINUOUS
10
136.287
20
-131.732
11
136.095
21
-131.961
0
LINE
8
BLACK
6
CONTINUOUS
10
136.095
20
-131.961
11
135.835
21
-132.111
0
LINE
8
BLACK
6
CONTINUOUS
10
135.835
20
-132.111
11
135.614
21
-132.15
0
LINE
8
BLACK
6
CONTINUOUS
10
135.614
20
-132.15
11
135.466
21
-132.15
0
LINE
8
BLACK
6
CONTINUOUS
10
135.466
20
-132.15
11
135.245
21
-132.111
0
LINE
8
BLACK
6
CONTINUOUS
10
135.245
20
-132.111
11
134.985
21
-131.961
0
LINE
8
BLACK
6
CONTINUOUS
10
134.985
20
-131.961
11
134.793
21
-131.732
0
LINE
8
BLACK
6
CONTINUOUS
10
134.793
20
-131.732
11
134.69
21
-131.45
0
LINE
8
BLACK
6
CONTINUOUS
10
134.69
20
-131.45
11
134.69
21
-131.15
0
LINE
8
BLACK
6
CONTINUOUS
10
134.69
20
-131.15
11
134.793
21
-130.868
0
LINE
8
BLACK
6
CONTINUOUS
10
134.793
20
-130.868
11
134.985
21
-130.639
0
LINE
8
BLACK
6
CONTINUOUS
10
134.985
20
-130.639
11
135.245
21
-130.489
0
LINE
8
BLACK
6
CONTINUOUS
10
135.245
20
-130.489
11
135.466
21
-130.45
0
LINE
8
BLACK
6
CONTINUOUS
10
135.466
20
-130.45
11
135.614
21
-130.45
0
LINE
8
BLACK
6
CONTINUOUS
10
135.614
20
-130.45
11
135.835
21
-130.489
0
LINE
8
BLACK
6
CONTINUOUS
10
133.295
20
-130.489
11
133.555
21
-130.639
0
LINE
8
BLACK
6
CONTINUOUS
10
133.555
20
-130.639
11
133.747
21
-130.868
0
LINE
8
BLACK
6
CONTINUOUS
10
133.747
20
-130.868
11
133.85
21
-131.15
0
LINE
8
BLACK
6
CONTINUOUS
10
133.85
20
-131.15
11
133.85
21
-131.45
0
LINE
8
BLACK
6
CONTINUOUS
10
133.85
20
-131.45
11
133.747
21
-131.732
0
LINE
8
BLACK
6
CONTINUOUS
10
133.747
20
-131.732
11
133.555
21
-131.961
0
LINE
8
BLACK
6
CONTINUOUS
10
133.555
20
-131.961
11
133.295
21
-132.111
0
LINE
8
BLACK
6
CONTINUOUS
10
133.295
20
-132.111
11
133.074
21
-132.15
0
LINE
8
BLACK
6
CONTINUOUS
10
133.074
20
-132.15
11
132.926
21
-132.15
0
LINE
8
BLACK
6
CONTINUOUS
10
132.926
20
-132.15
11
132.705
21
-132.111
0
LINE
8
BLACK
6
CONTINUOUS
10
132.705
20
-132.111
11
132.445
21
-131.961
0
LINE
8
BLACK
6
CONTINUOUS
10
132.445
20
-131.961
11
132.253
21
-131.732
0
LINE
8
BLACK
6
CONTINUOUS
10
132.253
20
-131.732
11
132.15
21
-131.45
0
LINE
8
BLACK
6
CONTINUOUS
10
132.15
20
-131.45
11
132.15
21
-131.15
0
LINE
8
BLACK
6
CONTINUOUS
10
132.15
20
-131.15
11
132.253
21
-130.868
0
LINE
8
BLACK
6
CONTINUOUS
10
132.253
20
-130.868
11
132.445
21
-130.639
0
LINE
8
BLACK
6
CONTINUOUS
10
132.445
20
-130.639
11
132.705
21
-130.489
0
LINE
8
BLACK
6
CONTINUOUS
10
132.705
20
-130.489
11
132.926
21
-130.45
0
LINE
8
BLACK
6
CONTINUOUS
10
132.926
20
-130.45
11
133.074
21
-130.45
0
LINE
8
BLACK
6
CONTINUOUS
10
133.074
20
-130.45
11
133.295
21
-130.489
0
LINE
8
BLACK
6
CONTINUOUS
10
130.755
20
-130.489
11
131.015
21
-130.639
0
LINE
8
BLACK
6
CONTINUOUS
10
131.015
20
-130.639
11
131.207
21
-130.868
0
LINE
8
BLACK
6
CONTINUOUS
10
131.207
20
-130.868
11
131.31
21
-131.15
0
LINE
8
BLACK
6
CONTINUOUS
10
131.31
20
-131.15
11
131.31
21
-131.45
0
LINE
8
BLACK
6
CONTINUOUS
10
131.31
20
-131.45
11
131.207
21
-131.732
0
LINE
8
BLACK
6
CONTINUOUS
10
131.207
20
-131.732
11
131.015
21
-131.961
0
LINE
8
BLACK
6
CONTINUOUS
10
131.015
20
-131.961
11
130.755
21
-132.111
0
LINE
8
BLACK
6
CONTINUOUS
10
130.755
20
-132.111
11
130.534
21
-132.15
0
LINE
8
BLACK
6
CONTINUOUS
10
130.534
20
-132.15
11
130.386
21
-132.15
0
LINE
8
BLACK
6
CONTINUOUS
10
130.386
20
-132.15
11
130.165
21
-132.111
0
LINE
8
BLACK
6
CONTINUOUS
10
130.165
20
-132.111
11
129.905
21
-131.961
0
LINE
8
BLACK
6
CONTINUOUS
10
129.905
20
-131.961
11
129.713
21
-131.732
0
LINE
8
BLACK
6
CONTINUOUS
10
129.713
20
-131.732
11
129.61
21
-131.45
0
LINE
8
BLACK
6
CONTINUOUS
10
129.61
20
-131.45
11
129.61
21
-131.15
0
LINE
8
BLACK
6
CONTINUOUS
10
129.61
20
-131.15
11
129.713
21
-130.868
0
LINE
8
BLACK
6
CONTINUOUS
10
129.713
20
-130.868
11
129.905
21
-130.639
0
LINE
8
BLACK
6
CONTINUOUS
10
129.905
20
-130.639
11
130.165
21
-130.489
0
LINE
8
BLACK
6
CONTINUOUS
10
130.165
20
-130.489
11
130.386
21
-130.45
0
LINE
8
BLACK
6
CONTINUOUS
10
130.386
20
-130.45
11
130.534
21
-130.45
0
LINE
8
BLACK
6
CONTINUOUS
10
130.534
20
-130.45
11
130.755
21
-130.489
0
LINE
8
BLACK
6
CONTINUOUS
10
125.675
20
-130.489
11
125.935
21
-130.639
0
LINE
8
BLACK
6
CONTINUOUS
10
125.935
20
-130.639
11
126.127
21
-130.868
0
LINE
8
BLACK
6
CONTINUOUS
10
126.127
20
-130.868
11
126.23
21
-131.15
0
LINE
8
BLACK
6
CONTINUOUS
10
126.23
20
-131.15
11
126.23
21
-131.45
0
LINE
8
BLACK
6
CONTINUOUS
10
126.23
20
-131.45
11
126.127
21
-131.732
0
LINE
8
BLACK
6
CONTINUOUS
10
126.127
20
-131.732
11
125.935
21
-131.961
0
LINE
8
BLACK
6
CONTINUOUS
10
125.935
20
-131.961
11
125.675
21
-132.111
0
LINE
8
BLACK
6
CONTINUOUS
10
125.675
20
-132.111
11
125.454
21
-132.15
0
LINE
8
BLACK
6
CONTINUOUS
10
125.454
20
-132.15
11
125.306
21
-132.15
0
LINE
8
BLACK
6
CONTINUOUS
10
125.306
20
-132.15
11
125.085
21
-132.111
0
LINE
8
BLACK
6
CONTINUOUS
10
125.085
20
-132.111
11
124.825
21
-131.961
0
LINE
8
BLACK
6
CONTINUOUS
10
124.825
20
-131.961
11
124.633
21
-131.732
0
LINE
8
BLACK
6
CONTINUOUS
10
124.633
20
-131.732
11
124.53
21
-131.45
0
LINE
8
BLACK
6
CONTINUOUS
10
124.53
20
-131.45
11
124.53
21
-131.15
0
LINE
8
BLACK
6
CONTINUOUS
10
124.53
20
-131.15
11
124.633
21
-130.868
0
LINE
8
BLACK
6
CONTINUOUS
10
124.633
20
-130.868
11
124.825
21
-130.639
0
LINE
8
BLACK
6
CONTINUOUS
10
124.825
20
-130.639
11
125.085
21
-130.489
0
LINE
8
BLACK
6
CONTINUOUS
10
125.085
20
-130.489
11
125.306
21
-130.45
0
LINE
8
BLACK
6
CONTINUOUS
10
125.306
20
-130.45
11
125.454
21
-130.45
0
LINE
8
BLACK
6
CONTINUOUS
10
125.454
20
-130.45
11
125.675
21
-130.489
0
LINE
8
BLACK
6
CONTINUOUS
10
123.135
20
-130.489
11
123.395
21
-130.639
0
LINE
8
BLACK
6
CONTINUOUS
10
123.395
20
-130.639
11
123.587
21
-130.868
0
LINE
8
BLACK
6
CONTINUOUS
10
123.587
20
-130.868
11
123.69
21
-131.15
0
LINE
8
BLACK
6
CONTINUOUS
10
123.69
20
-131.15
11
123.69
21
-131.45
0
LINE
8
BLACK
6
CONTINUOUS
10
123.69
20
-131.45
11
123.587
21
-131.732
0
LINE
8
BLACK
6
CONTINUOUS
10
123.587
20
-131.732
11
123.395
21
-131.961
0
LINE
8
BLACK
6
CONTINUOUS
10
123.395
20
-131.961
11
123.135
21
-132.111
0
LINE
8
BLACK
6
CONTINUOUS
10
123.135
20
-132.111
11
122.914
21
-132.15
0
LINE
8
BLACK
6
CONTINUOUS
10
122.914
20
-132.15
11
122.766
21
-132.15
0
LINE
8
BLACK
6
CONTINUOUS
10
122.766
20
-132.15
11
122.545
21
-132.111
0
LINE
8
BLACK
6
CONTINUOUS
10
122.545
20
-132.111
11
122.285
21
-131.961
0
LINE
8
BLACK
6
CONTINUOUS
10
122.285
20
-131.961
11
122.093
21
-131.732
0
LINE
8
BLACK
6
CONTINUOUS
10
122.093
20
-131.732
11
121.99
21
-131.45
0
LINE
8
BLACK
6
CONTINUOUS
10
121.99
20
-131.45
11
121.99
21
-131.15
0
LINE
8
BLACK
6
CONTINUOUS
10
121.99
20
-131.15
11
122.093
21
-130.868
0
LINE
8
BLACK
6
CONTINUOUS
10
122.093
20
-130.868
11
122.285
21
-130.639
0
LINE
8
BLACK
6
CONTINUOUS
10
122.285
20
-130.639
11
122.545
21
-130.489
0
LINE
8
BLACK
6
CONTINUOUS
10
122.545
20
-130.489
11
122.766
21
-130.45
0
LINE
8
BLACK
6
CONTINUOUS
10
122.766
20
-130.45
11
122.914
21
-130.45
0
LINE
8
BLACK
6
CONTINUOUS
10
122.914
20
-130.45
11
123.135
21
-130.489
0
LINE
8
BLACK
6
CONTINUOUS
10
121.15
20
-132.15
11
119.45
21
-132.15
0
LINE
8
BLACK
6
CONTINUOUS
10
119.45
20
-132.15
11
119.45
21
-130.45
0
LINE
8
BLACK
6
CONTINUOUS
10
119.45
20
-130.45
11
121.15
21
-130.45
0
LINE
8
BLACK
6
CONTINUOUS
10
121.15
20
-130.45
11
121.15
21
-132.15
0
LINE
8
BLACK
6
CONTINUOUS
10
112.295
20
-127.392
11
112.905
21
-127.744
0
LINE
8
BLACK
6
CONTINUOUS
10
112.905
20
-127.744
11
113.359
21
-128.285
0
LINE
8
BLACK
6
CONTINUOUS
10
113.359
20
-128.285
11
113.6
21
-128.947
0
LINE
8
BLACK
6
CONTINUOUS
10
113.6
20
-128.947
11
113.6
21
-129.653
0
LINE
8
BLACK
6
CONTINUOUS
10
113.6
20
-129.653
11
113.359
21
-130.315
0
LINE
8
BLACK
6
CONTINUOUS
10
113.359
20
-130.315
11
112.905
21
-130.856
0
LINE
8
BLACK
6
CONTINUOUS
10
112.905
20
-130.856
11
112.295
21
-131.208
0
LINE
8
BLACK
6
CONTINUOUS
10
112.295
20
-131.208
11
111.6
21
-131.331
0
LINE
8
BLACK
6
CONTINUOUS
10
111.6
20
-131.331
11
110.905
21
-131.208
0
LINE
8
BLACK
6
CONTINUOUS
10
110.905
20
-131.208
11
110.295
21
-130.856
0
LINE
8
BLACK
6
CONTINUOUS
10
110.295
20
-130.856
11
109.841
21
-130.315
0
LINE
8
BLACK
6
CONTINUOUS
10
109.841
20
-130.315
11
109.6
21
-129.653
0
LINE
8
BLACK
6
CONTINUOUS
10
109.6
20
-129.653
11
109.6
21
-128.947
0
LINE
8
BLACK
6
CONTINUOUS
10
109.6
20
-128.947
11
109.841
21
-128.285
0
LINE
8
BLACK
6
CONTINUOUS
10
109.841
20
-128.285
11
110.295
21
-127.744
0
LINE
8
BLACK
6
CONTINUOUS
10
110.295
20
-127.744
11
110.905
21
-127.392
0
LINE
8
BLACK
6
CONTINUOUS
10
110.905
20
-127.392
11
111.6
21
-127.269
0
LINE
8
BLACK
6
CONTINUOUS
10
111.6
20
-127.269
11
112.295
21
-127.392
0
LINE
8
BLACK
6
CONTINUOUS
10
147.495
20
-127.392
11
148.105
21
-127.744
0
LINE
8
BLACK
6
CONTINUOUS
10
148.105
20
-127.744
11
148.559
21
-128.285
0
LINE
8
BLACK
6
CONTINUOUS
10
148.559
20
-128.285
11
148.8
21
-128.947
0
LINE
8
BLACK
6
CONTINUOUS
10
148.8
20
-128.947
11
148.8
21
-129.653
0
LINE
8
BLACK
6
CONTINUOUS
10
148.8
20
-129.653
11
148.559
21
-130.315
0
LINE
8
BLACK
6
CONTINUOUS
10
148.559
20
-130.315
11
148.105
21
-130.856
0
LINE
8
BLACK
6
CONTINUOUS
10
148.105
20
-130.856
11
147.495
21
-131.208
0
LINE
8
BLACK
6
CONTINUOUS
10
147.495
20
-131.208
11
146.8
21
-131.331
0
LINE
8
BLACK
6
CONTINUOUS
10
146.8
20
-131.331
11
146.105
21
-131.208
0
LINE
8
BLACK
6
CONTINUOUS
10
146.105
20
-131.208
11
145.495
21
-130.856
0
LINE
8
BLACK
6
CONTINUOUS
10
145.495
20
-130.856
11
145.041
21
-130.315
0
LINE
8
BLACK
6
CONTINUOUS
10
145.041
20
-130.315
11
144.8
21
-129.653
0
LINE
8
BLACK
6
CONTINUOUS
10
144.8
20
-129.653
11
144.8
21
-128.947
0
LINE
8
BLACK
6
CONTINUOUS
10
144.8
20
-128.947
11
145.041
21
-128.285
0
LINE
8
BLACK
6
CONTINUOUS
10
145.041
20
-128.285
11
145.495
21
-127.744
0
LINE
8
BLACK
6
CONTINUOUS
10
145.495
20
-127.744
11
146.105
21
-127.392
0
LINE
8
BLACK
6
CONTINUOUS
10
146.105
20
-127.392
11
146.8
21
-127.269
0
LINE
8
BLACK
6
CONTINUOUS
10
146.8
20
-127.269
11
147.495
21
-127.392
0
LINE
8
BLACK
6
CONTINUOUS
10
115.256
20
-122.773
11
115.744
21
-123.055
0
LINE
8
BLACK
6
CONTINUOUS
10
115.744
20
-123.055
11
116.107
21
-123.488
0
LINE
8
BLACK
6
CONTINUOUS
10
116.107
20
-123.488
11
116.3
21
-124.018
0
LINE
8
BLACK
6
CONTINUOUS
10
116.3
20
-124.018
11
116.3
21
-124.582
0
LINE
8
BLACK
6
CONTINUOUS
10
116.3
20
-124.582
11
116.107
21
-125.112
0
LINE
8
BLACK
6
CONTINUOUS
10
116.107
20
-125.112
11
115.744
21
-125.545
0
LINE
8
BLACK
6
CONTINUOUS
10
115.744
20
-125.545
11
115.256
21
-125.827
0
LINE
8
BLACK
6
CONTINUOUS
10
115.256
20
-125.827
11
114.7
21
-125.925
0
LINE
8
BLACK
6
CONTINUOUS
10
114.7
20
-125.925
11
114.144
21
-125.827
0
LINE
8
BLACK
6
CONTINUOUS
10
114.144
20
-125.827
11
113.656
21
-125.545
0
LINE
8
BLACK
6
CONTINUOUS
10
113.656
20
-125.545
11
113.293
21
-125.112
0
LINE
8
BLACK
6
CONTINUOUS
10
113.293
20
-125.112
11
113.1
21
-124.582
0
LINE
8
BLACK
6
CONTINUOUS
10
113.1
20
-124.582
11
113.1
21
-124.018
0
LINE
8
BLACK
6
CONTINUOUS
10
113.1
20
-124.018
11
113.293
21
-123.488
0
LINE
8
BLACK
6
CONTINUOUS
10
113.293
20
-123.488
11
113.656
21
-123.055
0
LINE
8
BLACK
6
CONTINUOUS
10
113.656
20
-123.055
11
114.144
21
-122.773
0
LINE
8
BLACK
6
CONTINUOUS
10
114.144
20
-122.773
11
114.7
21
-122.675
0
LINE
8
BLACK
6
CONTINUOUS
10
114.7
20
-122.675
11
115.256
21
-122.773
0
LINE
8
BLACK
6
CONTINUOUS
10
144.156
20
-122.773
11
144.644
21
-123.055
0
LINE
8
BLACK
6
CONTINUOUS
10
144.644
20
-123.055
11
145.007
21
-123.488
0
LINE
8
BLACK
6
CONTINUOUS
10
145.007
20
-123.488
11
145.2
21
-124.018
0
LINE
8
BLACK
6
CONTINUOUS
10
145.2
20
-124.018
11
145.2
21
-124.582
0
LINE
8
BLACK
6
CONTINUOUS
10
145.2
20
-124.582
11
145.007
21
-125.112
0
LINE
8
BLACK
6
CONTINUOUS
10
145.007
20
-125.112
11
144.644
21
-125.545
0
LINE
8
BLACK
6
CONTINUOUS
10
144.644
20
-125.545
11
144.156
21
-125.827
0
LINE
8
BLACK
6
CONTINUOUS
10
144.156
20
-125.827
11
143.6
21
-125.925
0
LINE
8
BLACK
6
CONTINUOUS
10
143.6
20
-125.925
11
143.044
21
-125.827
0
LINE
8
BLACK
6
CONTINUOUS
10
143.044
20
-125.827
11
142.556
21
-125.545
0
LINE
8
BLACK
6
CONTINUOUS
10
142.556
20
-125.545
11
142.193
21
-125.112
0
LINE
8
BLACK
6
CONTINUOUS
10
142.193
20
-125.112
11
142
21
-124.582
0
LINE
8
BLACK
6
CONTINUOUS
10
142
20
-124.582
11
142
21
-124.018
0
LINE
8
BLACK
6
CONTINUOUS
10
142
20
-124.018
11
142.193
21
-123.488
0
LINE
8
BLACK
6
CONTINUOUS
10
142.193
20
-123.488
11
142.556
21
-123.055
0
LINE
8
BLACK
6
CONTINUOUS
10
142.556
20
-123.055
11
143.044
21
-122.773
0
LINE
8
BLACK
6
CONTINUOUS
10
143.044
20
-122.773
11
143.6
21
-122.675
0
LINE
8
BLACK
6
CONTINUOUS
10
143.6
20
-122.675
11
144.156
21
-122.773
0
LINE
8
BLACK
6
CONTINUOUS
10
102.982
20
-122.25
11
103.318
21
-122.444
0
LINE
8
BLACK
6
CONTINUOUS
10
103.318
20
-122.444
11
103.567
21
-122.742
0
LINE
8
BLACK
6
CONTINUOUS
10
103.567
20
-122.742
11
103.7
21
-123.106
0
LINE
8
BLACK
6
CONTINUOUS
10
103.7
20
-123.106
11
103.7
21
-123.494
0
LINE
8
BLACK
6
CONTINUOUS
10
103.7
20
-123.494
11
103.567
21
-123.858
0
LINE
8
BLACK
6
CONTINUOUS
10
103.567
20
-123.858
11
103.318
21
-124.156
0
LINE
8
BLACK
6
CONTINUOUS
10
103.318
20
-124.156
11
102.982
21
-124.35
0
LINE
8
BLACK
6
CONTINUOUS
10
102.982
20
-124.35
11
102.6
21
-124.417
0
LINE
8
BLACK
6
CONTINUOUS
10
102.6
20
-124.417
11
102.218
21
-124.35
0
LINE
8
BLACK
6
CONTINUOUS
10
102.218
20
-124.35
11
101.882
21
-124.156
0
LINE
8
BLACK
6
CONTINUOUS
10
101.882
20
-124.156
11
101.633
21
-123.858
0
LINE
8
BLACK
6
CONTINUOUS
10
101.633
20
-123.858
11
101.5
21
-123.494
0
LINE
8
BLACK
6
CONTINUOUS
10
101.5
20
-123.494
11
101.5
21
-123.106
0
LINE
8
BLACK
6
CONTINUOUS
10
101.5
20
-123.106
11
101.633
21
-122.742
0
LINE
8
BLACK
6
CONTINUOUS
10
101.633
20
-122.742
11
101.882
21
-122.444
0
LINE
8
BLACK
6
CONTINUOUS
10
101.882
20
-122.444
11
102.218
21
-122.25
0
LINE
8
BLACK
6
CONTINUOUS
10
102.218
20
-122.25
11
102.6
21
-122.183
0
LINE
8
BLACK
6
CONTINUOUS
10
102.6
20
-122.183
11
102.982
21
-122.25
0
LINE
8
BLACK
6
CONTINUOUS
10
156.182
20
-122.25
11
156.518
21
-122.444
0
LINE
8
BLACK
6
CONTINUOUS
10
156.518
20
-122.444
11
156.767
21
-122.742
0
LINE
8
BLACK
6
CONTINUOUS
10
156.767
20
-122.742
11
156.9
21
-123.106
0
LINE
8
BLACK
6
CONTINUOUS
10
156.9
20
-123.106
11
156.9
21
-123.494
0
LINE
8
BLACK
6
CONTINUOUS
10
156.9
20
-123.494
11
156.767
21
-123.858
0
LINE
8
BLACK
6
CONTINUOUS
10
156.767
20
-123.858
11
156.518
21
-124.156
0
LINE
8
BLACK
6
CONTINUOUS
10
156.518
20
-124.156
11
156.182
21
-124.35
0
LINE
8
BLACK
6
CONTINUOUS
10
156.182
20
-124.35
11
155.8
21
-124.417
0
LINE
8
BLACK
6
CONTINUOUS
10
155.8
20
-124.417
11
155.418
21
-124.35
0
LINE
8
BLACK
6
CONTINUOUS
10
155.418
20
-124.35
11
155.082
21
-124.156
0
LINE
8
BLACK
6
CONTINUOUS
10
155.082
20
-124.156
11
154.833
21
-123.858
0
LINE
8
BLACK
6
CONTINUOUS
10
154.833
20
-123.858
11
154.7
21
-123.494
0
LINE
8
BLACK
6
CONTINUOUS
10
154.7
20
-123.494
11
154.7
21
-123.106
0
LINE
8
BLACK
6
CONTINUOUS
10
154.7
20
-123.106
11
154.833
21
-122.742
0
LINE
8
BLACK
6
CONTINUOUS
10
154.833
20
-122.742
11
155.082
21
-122.444
0
LINE
8
BLACK
6
CONTINUOUS
10
155.082
20
-122.444
11
155.418
21
-122.25
0
LINE
8
BLACK
6
CONTINUOUS
10
155.418
20
-122.25
11
155.8
21
-122.183
0
LINE
8
BLACK
6
CONTINUOUS
10
155.8
20
-122.183
11
156.182
21
-122.25
0
LINE
8
BLACK
6
CONTINUOUS
10
100.895
20
-118.329
11
101.155
21
-118.479
0
LINE
8
BLACK
6
CONTINUOUS
10
101.155
20
-118.479
11
101.347
21
-118.708
0
LINE
8
BLACK
6
CONTINUOUS
10
101.347
20
-118.708
11
101.45
21
-118.99
0
LINE
8
BLACK
6
CONTINUOUS
10
101.45
20
-118.99
11
101.45
21
-119.29
0
LINE
8
BLACK
6
CONTINUOUS
10
101.45
20
-119.29
11
101.347
21
-119.572
0
LINE
8
BLACK
6
CONTINUOUS
10
101.347
20
-119.572
11
101.155
21
-119.801
0
LINE
8
BLACK
6
CONTINUOUS
10
101.155
20
-119.801
11
100.895
21
-119.951
0
LINE
8
BLACK
6
CONTINUOUS
10
100.895
20
-119.951
11
100.674
21
-119.99
0
LINE
8
BLACK
6
CONTINUOUS
10
100.674
20
-119.99
11
100.526
21
-119.99
0
LINE
8
BLACK
6
CONTINUOUS
10
100.526
20
-119.99
11
100.305
21
-119.951
0
LINE
8
BLACK
6
CONTINUOUS
10
100.305
20
-119.951
11
100.045
21
-119.801
0
LINE
8
BLACK
6
CONTINUOUS
10
100.045
20
-119.801
11
99.8525
21
-119.572
0
LINE
8
BLACK
6
CONTINUOUS
10
99.8525
20
-119.572
11
99.75
21
-119.29
0
LINE
8
BLACK
6
CONTINUOUS
10
99.75
20
-119.29
11
99.75
21
-118.99
0
LINE
8
BLACK
6
CONTINUOUS
10
99.75
20
-118.99
11
99.8525
21
-118.708
0
LINE
8
BLACK
6
CONTINUOUS
10
99.8525
20
-118.708
11
100.045
21
-118.479
0
LINE
8
BLACK
6
CONTINUOUS
10
100.045
20
-118.479
11
100.305
21
-118.329
0
LINE
8
BLACK
6
CONTINUOUS
10
100.305
20
-118.329
11
100.526
21
-118.29
0
LINE
8
BLACK
6
CONTINUOUS
10
100.526
20
-118.29
11
100.674
21
-118.29
0
LINE
8
BLACK
6
CONTINUOUS
10
100.674
20
-118.29
11
100.895
21
-118.329
0
LINE
8
BLACK
6
CONTINUOUS
10
109.195
20
-118.329
11
109.455
21
-118.479
0
LINE
8
BLACK
6
CONTINUOUS
10
109.455
20
-118.479
11
109.647
21
-118.708
0
LINE
8
BLACK
6
CONTINUOUS
10
109.647
20
-118.708
11
109.75
21
-118.99
0
LINE
8
BLACK
6
CONTINUOUS
10
109.75
20
-118.99
11
109.75
21
-119.29
0
LINE
8
BLACK
6
CONTINUOUS
10
109.75
20
-119.29
11
109.647
21
-119.572
0
LINE
8
BLACK
6
CONTINUOUS
10
109.647
20
-119.572
11
109.455
21
-119.801
0
LINE
8
BLACK
6
CONTINUOUS
10
109.455
20
-119.801
11
109.195
21
-119.951
0
LINE
8
BLACK
6
CONTINUOUS
10
109.195
20
-119.951
11
108.974
21
-119.99
0
LINE
8
BLACK
6
CONTINUOUS
10
108.974
20
-119.99
11
108.826
21
-119.99
0
LINE
8
BLACK
6
CONTINUOUS
10
108.826
20
-119.99
11
108.605
21
-119.951
0
LINE
8
BLACK
6
CONTINUOUS
10
108.605
20
-119.951
11
108.345
21
-119.801
0
LINE
8
BLACK
6
CONTINUOUS
10
108.345
20
-119.801
11
108.153
21
-119.572
0
LINE
8
BLACK
6
CONTINUOUS
10
108.153
20
-119.572
11
108.05
21
-119.29
0
LINE
8
BLACK
6
CONTINUOUS
10
108.05
20
-119.29
11
108.05
21
-118.99
0
LINE
8
BLACK
6
CONTINUOUS
10
108.05
20
-118.99
11
108.153
21
-118.708
0
LINE
8
BLACK
6
CONTINUOUS
10
108.153
20
-118.708
11
108.345
21
-118.479
0
LINE
8
BLACK
6
CONTINUOUS
10
108.345
20
-118.479
11
108.605
21
-118.329
0
LINE
8
BLACK
6
CONTINUOUS
10
108.605
20
-118.329
11
108.826
21
-118.29
0
LINE
8
BLACK
6
CONTINUOUS
10
108.826
20
-118.29
11
108.974
21
-118.29
0
LINE
8
BLACK
6
CONTINUOUS
10
108.974
20
-118.29
11
109.195
21
-118.329
0
LINE
8
BLACK
6
CONTINUOUS
10
111.75
20
-119.7
11
110.85
21
-119.7
0
LINE
8
BLACK
6
CONTINUOUS
10
110.85
20
-119.7
11
110.85
21
-118.5
0
LINE
8
BLACK
6
CONTINUOUS
10
110.85
20
-118.5
11
111.75
21
-118.5
0
LINE
8
BLACK
6
CONTINUOUS
10
111.75
20
-118.5
11
111.75
21
-119.7
0
LINE
8
BLACK
6
CONTINUOUS
10
103.15
20
-119.7
11
102.25
21
-119.7
0
LINE
8
BLACK
6
CONTINUOUS
10
102.25
20
-119.7
11
102.25
21
-118.5
0
LINE
8
BLACK
6
CONTINUOUS
10
102.25
20
-118.5
11
103.15
21
-118.5
0
LINE
8
BLACK
6
CONTINUOUS
10
103.15
20
-118.5
11
103.15
21
-119.7
0
LINE
8
BLACK
6
CONTINUOUS
10
105.413
20
-117.097
11
105.687
21
-117.256
0
LINE
8
BLACK
6
CONTINUOUS
10
105.687
20
-117.256
11
105.891
21
-117.499
0
LINE
8
BLACK
6
CONTINUOUS
10
105.891
20
-117.499
11
106
21
-117.797
0
LINE
8
BLACK
6
CONTINUOUS
10
106
20
-117.797
11
106
21
-118.115
0
LINE
8
BLACK
6
CONTINUOUS
10
106
20
-118.115
11
105.891
21
-118.413
0
LINE
8
BLACK
6
CONTINUOUS
10
105.891
20
-118.413
11
105.687
21
-118.656
0
LINE
8
BLACK
6
CONTINUOUS
10
105.687
20
-118.656
11
105.413
21
-118.815
0
LINE
8
BLACK
6
CONTINUOUS
10
105.413
20
-118.815
11
105.1
21
-118.87
0
LINE
8
BLACK
6
CONTINUOUS
10
105.1
20
-118.87
11
104.787
21
-118.815
0
LINE
8
BLACK
6
CONTINUOUS
10
104.787
20
-118.815
11
104.513
21
-118.656
0
LINE
8
BLACK
6
CONTINUOUS
10
104.513
20
-118.656
11
104.309
21
-118.413
0
LINE
8
BLACK
6
CONTINUOUS
10
104.309
20
-118.413
11
104.2
21
-118.115
0
LINE
8
BLACK
6
CONTINUOUS
10
104.2
20
-118.115
11
104.2
21
-117.797
0
LINE
8
BLACK
6
CONTINUOUS
10
104.2
20
-117.797
11
104.309
21
-117.499
0
LINE
8
BLACK
6
CONTINUOUS
10
104.309
20
-117.499
11
104.513
21
-117.256
0
LINE
8
BLACK
6
CONTINUOUS
10
104.513
20
-117.256
11
104.787
21
-117.097
0
LINE
8
BLACK
6
CONTINUOUS
10
104.787
20
-117.097
11
105.1
21
-117.042
0
LINE
8
BLACK
6
CONTINUOUS
10
105.1
20
-117.042
11
105.413
21
-117.097
0
LINE
8
BLACK
6
CONTINUOUS
10
153.513
20
-117.097
11
153.787
21
-117.256
0
LINE
8
BLACK
6
CONTINUOUS
10
153.787
20
-117.256
11
153.991
21
-117.499
0
LINE
8
BLACK
6
CONTINUOUS
10
153.991
20
-117.499
11
154.1
21
-117.797
0
LINE
8
BLACK
6
CONTINUOUS
10
154.1
20
-117.797
11
154.1
21
-118.115
0
LINE
8
BLACK
6
CONTINUOUS
10
154.1
20
-118.115
11
153.991
21
-118.413
0
LINE
8
BLACK
6
CONTINUOUS
10
153.991
20
-118.413
11
153.787
21
-118.656
0
LINE
8
BLACK
6
CONTINUOUS
10
153.787
20
-118.656
11
153.513
21
-118.815
0
LINE
8
BLACK
6
CONTINUOUS
10
153.513
20
-118.815
11
153.2
21
-118.87
0
LINE
8
BLACK
6
CONTINUOUS
10
153.2
20
-118.87
11
152.887
21
-118.815
0
LINE
8
BLACK
6
CONTINUOUS
10
152.887
20
-118.815
11
152.613
21
-118.656
0
LINE
8
BLACK
6
CONTINUOUS
10
152.613
20
-118.656
11
152.409
21
-118.413
0
LINE
8
BLACK
6
CONTINUOUS
10
152.409
20
-118.413
11
152.3
21
-118.115
0
LINE
8
BLACK
6
CONTINUOUS
10
152.3
20
-118.115
11
152.3
21
-117.797
0
LINE
8
BLACK
6
CONTINUOUS
10
152.3
20
-117.797
11
152.409
21
-117.499
0
LINE
8
BLACK
6
CONTINUOUS
10
152.409
20
-117.499
11
152.613
21
-117.256
0
LINE
8
BLACK
6
CONTINUOUS
10
152.613
20
-117.256
11
152.887
21
-117.097
0
LINE
8
BLACK
6
CONTINUOUS
10
152.887
20
-117.097
11
153.2
21
-117.042
0
LINE
8
BLACK
6
CONTINUOUS
10
153.2
20
-117.042
11
153.513
21
-117.097
0
LINE
8
BLACK
6
CONTINUOUS
10
103.15
20
-117.5
11
102.25
21
-117.5
0
LINE
8
BLACK
6
CONTINUOUS
10
102.25
20
-117.5
11
102.25
21
-116.3
0
LINE
8
BLACK
6
CONTINUOUS
10
102.25
20
-116.3
11
103.15
21
-116.3
0
LINE
8
BLACK
6
CONTINUOUS
10
103.15
20
-116.3
11
103.15
21
-117.5
0
LINE
8
BLACK
6
CONTINUOUS
10
111.75
20
-117.5
11
110.85
21
-117.5
0
LINE
8
BLACK
6
CONTINUOUS
10
110.85
20
-117.5
11
110.85
21
-116.3
0
LINE
8
BLACK
6
CONTINUOUS
10
110.85
20
-116.3
11
111.75
21
-116.3
0
LINE
8
BLACK
6
CONTINUOUS
10
111.75
20
-116.3
11
111.75
21
-117.5
0
LINE
8
BLACK
6
CONTINUOUS
10
109.75
20
-117.45
11
108.05
21
-117.45
0
LINE
8
BLACK
6
CONTINUOUS
10
108.05
20
-117.45
11
108.05
21
-115.75
0
LINE
8
BLACK
6
CONTINUOUS
10
108.05
20
-115.75
11
109.75
21
-115.75
0
LINE
8
BLACK
6
CONTINUOUS
10
109.75
20
-115.75
11
109.75
21
-117.45
0
LINE
8
BLACK
6
CONTINUOUS
10
101.45
20
-117.45
11
99.75
21
-117.45
0
LINE
8
BLACK
6
CONTINUOUS
10
99.75
20
-117.45
11
99.75
21
-115.75
0
LINE
8
BLACK
6
CONTINUOUS
10
99.75
20
-115.75
11
101.45
21
-115.75
0
LINE
8
BLACK
6
CONTINUOUS
10
101.45
20
-115.75
11
101.45
21
-117.45
0
LINE
8
BLACK
6
CONTINUOUS
10
153.651
20
-111.61
11
154.049
21
-111.839
0
LINE
8
BLACK
6
CONTINUOUS
10
154.049
20
-111.839
11
154.343
21
-112.19
0
LINE
8
BLACK
6
CONTINUOUS
10
154.343
20
-112.19
11
154.5
21
-112.621
0
LINE
8
BLACK
6
CONTINUOUS
10
154.5
20
-112.621
11
154.5
21
-113.079
0
LINE
8
BLACK
6
CONTINUOUS
10
154.5
20
-113.079
11
154.343
21
-113.51
0
LINE
8
BLACK
6
CONTINUOUS
10
154.343
20
-113.51
11
154.049
21
-113.861
0
LINE
8
BLACK
6
CONTINUOUS
10
154.049
20
-113.861
11
153.651
21
-114.09
0
LINE
8
BLACK
6
CONTINUOUS
10
153.651
20
-114.09
11
153.2
21
-114.17
0
LINE
8
BLACK
6
CONTINUOUS
10
153.2
20
-114.17
11
152.749
21
-114.09
0
LINE
8
BLACK
6
CONTINUOUS
10
152.749
20
-114.09
11
152.351
21
-113.861
0
LINE
8
BLACK
6
CONTINUOUS
10
152.351
20
-113.861
11
152.057
21
-113.51
0
LINE
8
BLACK
6
CONTINUOUS
10
152.057
20
-113.51
11
151.9
21
-113.079
0
LINE
8
BLACK
6
CONTINUOUS
10
151.9
20
-113.079
11
151.9
21
-112.621
0
LINE
8
BLACK
6
CONTINUOUS
10
151.9
20
-112.621
11
152.057
21
-112.19
0
LINE
8
BLACK
6
CONTINUOUS
10
152.057
20
-112.19
11
152.351
21
-111.839
0
LINE
8
BLACK
6
CONTINUOUS
10
152.351
20
-111.839
11
152.749
21
-111.61
0
LINE
8
BLACK
6
CONTINUOUS
10
152.749
20
-111.61
11
153.2
21
-111.53
0
LINE
8
BLACK
6
CONTINUOUS
10
153.2
20
-111.53
11
153.651
21
-111.61
0
LINE
8
BLACK
6
CONTINUOUS
10
105.551
20
-111.61
11
105.949
21
-111.839
0
LINE
8
BLACK
6
CONTINUOUS
10
105.949
20
-111.839
11
106.243
21
-112.19
0
LINE
8
BLACK
6
CONTINUOUS
10
106.243
20
-112.19
11
106.4
21
-112.621
0
LINE
8
BLACK
6
CONTINUOUS
10
106.4
20
-112.621
11
106.4
21
-113.079
0
LINE
8
BLACK
6
CONTINUOUS
10
106.4
20
-113.079
11
106.243
21
-113.51
0
LINE
8
BLACK
6
CONTINUOUS
10
106.243
20
-113.51
11
105.949
21
-113.861
0
LINE
8
BLACK
6
CONTINUOUS
10
105.949
20
-113.861
11
105.551
21
-114.09
0
LINE
8
BLACK
6
CONTINUOUS
10
105.551
20
-114.09
11
105.1
21
-114.17
0
LINE
8
BLACK
6
CONTINUOUS
10
105.1
20
-114.17
11
104.649
21
-114.09
0
LINE
8
BLACK
6
CONTINUOUS
10
104.649
20
-114.09
11
104.251
21
-113.861
0
LINE
8
BLACK
6
CONTINUOUS
10
104.251
20
-113.861
11
103.957
21
-113.51
0
LINE
8
BLACK
6
CONTINUOUS
10
103.957
20
-113.51
11
103.8
21
-113.079
0
LINE
8
BLACK
6
CONTINUOUS
10
103.8
20
-113.079
11
103.8
21
-112.621
0
LINE
8
BLACK
6
CONTINUOUS
10
103.8
20
-112.621
11
103.957
21
-112.19
0
LINE
8
BLACK
6
CONTINUOUS
10
103.957
20
-112.19
11
104.251
21
-111.839
0
LINE
8
BLACK
6
CONTINUOUS
10
104.251
20
-111.839
11
104.649
21
-111.61
0
LINE
8
BLACK
6
CONTINUOUS
10
104.649
20
-111.61
11
105.1
21
-111.53
0
LINE
8
BLACK
6
CONTINUOUS
10
105.1
20
-111.53
11
105.551
21
-111.61
0
LINE
8
BLACK
6
CONTINUOUS
10
158.569
20
-112.111
11
158.806
21
-112.247
0
LINE
8
BLACK
6
CONTINUOUS
10
158.806
20
-112.247
11
158.982
21
-112.457
0
LINE
8
BLACK
6
CONTINUOUS
10
158.982
20
-112.457
11
159.075
21
-112.713
0
LINE
8
BLACK
6
CONTINUOUS
10
159.075
20
-112.713
11
159.075
21
-112.987
0
LINE
8
BLACK
6
CONTINUOUS
10
159.075
20
-112.987
11
158.982
21
-113.243
0
LINE
8
BLACK
6
CONTINUOUS
10
158.982
20
-113.243
11
158.806
21
-113.453
0
LINE
8
BLACK
6
CONTINUOUS
10
158.806
20
-113.453
11
158.569
21
-113.589
0
LINE
8
BLACK
6
CONTINUOUS
10
158.569
20
-113.589
11
158.3
21
-113.637
0
LINE
8
BLACK
6
CONTINUOUS
10
158.3
20
-113.637
11
158.031
21
-113.589
0
LINE
8
BLACK
6
CONTINUOUS
10
158.031
20
-113.589
11
157.794
21
-113.453
0
LINE
8
BLACK
6
CONTINUOUS
10
157.794
20
-113.453
11
157.618
21
-113.243
0
LINE
8
BLACK
6
CONTINUOUS
10
157.618
20
-113.243
11
157.525
21
-112.987
0
LINE
8
BLACK
6
CONTINUOUS
10
157.525
20
-112.987
11
157.525
21
-112.713
0
LINE
8
BLACK
6
CONTINUOUS
10
157.525
20
-112.713
11
157.618
21
-112.457
0
LINE
8
BLACK
6
CONTINUOUS
10
157.618
20
-112.457
11
157.794
21
-112.247
0
LINE
8
BLACK
6
CONTINUOUS
10
157.794
20
-112.247
11
158.031
21
-112.111
0
LINE
8
BLACK
6
CONTINUOUS
10
158.031
20
-112.111
11
158.3
21
-112.063
0
LINE
8
BLACK
6
CONTINUOUS
10
158.3
20
-112.063
11
158.569
21
-112.111
0
LINE
8
BLACK
6
CONTINUOUS
10
110.469
20
-112.111
11
110.706
21
-112.247
0
LINE
8
BLACK
6
CONTINUOUS
10
110.706
20
-112.247
11
110.882
21
-112.457
0
LINE
8
BLACK
6
CONTINUOUS
10
110.882
20
-112.457
11
110.975
21
-112.713
0
LINE
8
BLACK
6
CONTINUOUS
10
110.975
20
-112.713
11
110.975
21
-112.987
0
LINE
8
BLACK
6
CONTINUOUS
10
110.975
20
-112.987
11
110.882
21
-113.243
0
LINE
8
BLACK
6
CONTINUOUS
10
110.882
20
-113.243
11
110.706
21
-113.453
0
LINE
8
BLACK
6
CONTINUOUS
10
110.706
20
-113.453
11
110.469
21
-113.589
0
LINE
8
BLACK
6
CONTINUOUS
10
110.469
20
-113.589
11
110.2
21
-113.637
0
LINE
8
BLACK
6
CONTINUOUS
10
110.2
20
-113.637
11
109.931
21
-113.589
0
LINE
8
BLACK
6
CONTINUOUS
10
109.931
20
-113.589
11
109.694
21
-113.453
0
LINE
8
BLACK
6
CONTINUOUS
10
109.694
20
-113.453
11
109.518
21
-113.243
0
LINE
8
BLACK
6
CONTINUOUS
10
109.518
20
-113.243
11
109.425
21
-112.987
0
LINE
8
BLACK
6
CONTINUOUS
10
109.425
20
-112.987
11
109.425
21
-112.713
0
LINE
8
BLACK
6
CONTINUOUS
10
109.425
20
-112.713
11
109.518
21
-112.457
0
LINE
8
BLACK
6
CONTINUOUS
10
109.518
20
-112.457
11
109.694
21
-112.247
0
LINE
8
BLACK
6
CONTINUOUS
10
109.694
20
-112.247
11
109.931
21
-112.111
0
LINE
8
BLACK
6
CONTINUOUS
10
109.931
20
-112.111
11
110.2
21
-112.063
0
LINE
8
BLACK
6
CONTINUOUS
10
110.2
20
-112.063
11
110.469
21
-112.111
0
LINE
8
BLACK
6
CONTINUOUS
10
100.269
20
-112.111
11
100.506
21
-112.247
0
LINE
8
BLACK
6
CONTINUOUS
10
100.506
20
-112.247
11
100.682
21
-112.457
0
LINE
8
BLACK
6
CONTINUOUS
10
100.682
20
-112.457
11
100.775
21
-112.713
0
LINE
8
BLACK
6
CONTINUOUS
10
100.775
20
-112.713
11
100.775
21
-112.987
0
LINE
8
BLACK
6
CONTINUOUS
10
100.775
20
-112.987
11
100.682
21
-113.243
0
LINE
8
BLACK
6
CONTINUOUS
10
100.682
20
-113.243
11
100.506
21
-113.453
0
LINE
8
BLACK
6
CONTINUOUS
10
100.506
20
-113.453
11
100.269
21
-113.589
0
LINE
8
BLACK
6
CONTINUOUS
10
100.269
20
-113.589
11
100
21
-113.637
0
LINE
8
BLACK
6
CONTINUOUS
10
100
20
-113.637
11
99.7308
21
-113.589
0
LINE
8
BLACK
6
CONTINUOUS
10
99.7308
20
-113.589
11
99.4942
21
-113.453
0
LINE
8
BLACK
6
CONTINUOUS
10
99.4942
20
-113.453
11
99.3185
21
-113.243
0
LINE
8
BLACK
6
CONTINUOUS
10
99.3185
20
-113.243
11
99.225
21
-112.987
0
LINE
8
BLACK
6
CONTINUOUS
10
99.225
20
-112.987
11
99.225
21
-112.713
0
LINE
8
BLACK
6
CONTINUOUS
10
99.225
20
-112.713
11
99.3185
21
-112.457
0
LINE
8
BLACK
6
CONTINUOUS
10
99.3185
20
-112.457
11
99.4942
21
-112.247
0
LINE
8
BLACK
6
CONTINUOUS
10
99.4942
20
-112.247
11
99.7308
21
-112.111
0
LINE
8
BLACK
6
CONTINUOUS
10
99.7308
20
-112.111
11
100
21
-112.063
0
LINE
8
BLACK
6
CONTINUOUS
10
100
20
-112.063
11
100.269
21
-112.111
0
LINE
8
BLACK
6
CONTINUOUS
10
148.369
20
-112.111
11
148.606
21
-112.247
0
LINE
8
BLACK
6
CONTINUOUS
10
148.606
20
-112.247
11
148.782
21
-112.457
0
LINE
8
BLACK
6
CONTINUOUS
10
148.782
20
-112.457
11
148.875
21
-112.713
0
LINE
8
BLACK
6
CONTINUOUS
10
148.875
20
-112.713
11
148.875
21
-112.987
0
LINE
8
BLACK
6
CONTINUOUS
10
148.875
20
-112.987
11
148.782
21
-113.243
0
LINE
8
BLACK
6
CONTINUOUS
10
148.782
20
-113.243
11
148.606
21
-113.453
0
LINE
8
BLACK
6
CONTINUOUS
10
148.606
20
-113.453
11
148.369
21
-113.589
0
LINE
8
BLACK
6
CONTINUOUS
10
148.369
20
-113.589
11
148.1
21
-113.637
0
LINE
8
BLACK
6
CONTINUOUS
10
148.1
20
-113.637
11
147.831
21
-113.589
0
LINE
8
BLACK
6
CONTINUOUS
10
147.831
20
-113.589
11
147.594
21
-113.453
0
LINE
8
BLACK
6
CONTINUOUS
10
147.594
20
-113.453
11
147.418
21
-113.243
0
LINE
8
BLACK
6
CONTINUOUS
10
147.418
20
-113.243
11
147.325
21
-112.987
0
LINE
8
BLACK
6
CONTINUOUS
10
147.325
20
-112.987
11
147.325
21
-112.713
0
LINE
8
BLACK
6
CONTINUOUS
10
147.325
20
-112.713
11
147.418
21
-112.457
0
LINE
8
BLACK
6
CONTINUOUS
10
147.418
20
-112.457
11
147.594
21
-112.247
0
LINE
8
BLACK
6
CONTINUOUS
10
147.594
20
-112.247
11
147.831
21
-112.111
0
LINE
8
BLACK
6
CONTINUOUS
10
147.831
20
-112.111
11
148.1
21
-112.063
0
LINE
8
BLACK
6
CONTINUOUS
10
148.1
20
-112.063
11
148.369
21
-112.111
0
LINE
8
BLACK
6
CONTINUOUS
10
158.623
20
-108.189
11
158.897
21
-108.348
0
LINE
8
BLACK
6
CONTINUOUS
10
158.897
20
-108.348
11
159.101
21
-108.591
0
LINE
8
BLACK
6
CONTINUOUS
10
159.101
20
-108.591
11
159.21
21
-108.889
0
LINE
8
BLACK
6
CONTINUOUS
10
159.21
20
-108.889
11
159.21
21
-109.207
0
LINE
8
BLACK
6
CONTINUOUS
10
159.21
20
-109.207
11
159.101
21
-109.505
0
LINE
8
BLACK
6
CONTINUOUS
10
159.101
20
-109.505
11
158.897
21
-109.748
0
LINE
8
BLACK
6
CONTINUOUS
10
158.897
20
-109.748
11
158.623
21
-109.907
0
LINE
8
BLACK
6
CONTINUOUS
10
158.623
20
-109.907
11
158.31
21
-109.962
0
LINE
8
BLACK
6
CONTINUOUS
10
158.31
20
-109.962
11
157.997
21
-109.907
0
LINE
8
BLACK
6
CONTINUOUS
10
157.997
20
-109.907
11
157.723
21
-109.748
0
LINE
8
BLACK
6
CONTINUOUS
10
157.723
20
-109.748
11
157.519
21
-109.505
0
LINE
8
BLACK
6
CONTINUOUS
10
157.519
20
-109.505
11
157.41
21
-109.207
0
LINE
8
BLACK
6
CONTINUOUS
10
157.41
20
-109.207
11
157.41
21
-108.889
0
LINE
8
BLACK
6
CONTINUOUS
10
157.41
20
-108.889
11
157.519
21
-108.591
0
LINE
8
BLACK
6
CONTINUOUS
10
157.519
20
-108.591
11
157.723
21
-108.348
0
LINE
8
BLACK
6
CONTINUOUS
10
157.723
20
-108.348
11
157.997
21
-108.189
0
LINE
8
BLACK
6
CONTINUOUS
10
157.997
20
-108.189
11
158.31
21
-108.134
0
LINE
8
BLACK
6
CONTINUOUS
10
158.31
20
-108.134
11
158.623
21
-108.189
0
LINE
8
BLACK
6
CONTINUOUS
10
153.513
20
-108.189
11
153.787
21
-108.348
0
LINE
8
BLACK
6
CONTINUOUS
10
153.787
20
-108.348
11
153.991
21
-108.591
0
LINE
8
BLACK
6
CONTINUOUS
10
153.991
20
-108.591
11
154.1
21
-108.889
0
LINE
8
BLACK
6
CONTINUOUS
10
154.1
20
-108.889
11
154.1
21
-109.207
0
LINE
8
BLACK
6
CONTINUOUS
10
154.1
20
-109.207
11
153.991
21
-109.505
0
LINE
8
BLACK
6
CONTINUOUS
10
153.991
20
-109.505
11
153.787
21
-109.748
0
LINE
8
BLACK
6
CONTINUOUS
10
153.787
20
-109.748
11
153.513
21
-109.907
0
LINE
8
BLACK
6
CONTINUOUS
10
153.513
20
-109.907
11
153.2
21
-109.962
0
LINE
8
BLACK
6
CONTINUOUS
10
153.2
20
-109.962
11
152.887
21
-109.907
0
LINE
8
BLACK
6
CONTINUOUS
10
152.887
20
-109.907
11
152.613
21
-109.748
0
LINE
8
BLACK
6
CONTINUOUS
10
152.613
20
-109.748
11
152.409
21
-109.505
0
LINE
8
BLACK
6
CONTINUOUS
10
152.409
20
-109.505
11
152.3
21
-109.207
0
LINE
8
BLACK
6
CONTINUOUS
10
152.3
20
-109.207
11
152.3
21
-108.889
0
LINE
8
BLACK
6
CONTINUOUS
10
152.3
20
-108.889
11
152.409
21
-108.591
0
LINE
8
BLACK
6
CONTINUOUS
10
152.409
20
-108.591
11
152.613
21
-108.348
0
LINE
8
BLACK
6
CONTINUOUS
10
152.613
20
-108.348
11
152.887
21
-108.189
0
LINE
8
BLACK
6
CONTINUOUS
10
152.887
20
-108.189
11
153.2
21
-108.134
0
LINE
8
BLACK
6
CONTINUOUS
10
153.2
20
-108.134
11
153.513
21
-108.189
0
LINE
8
BLACK
6
CONTINUOUS
10
100.353
20
-108.189
11
100.627
21
-108.348
0
LINE
8
BLACK
6
CONTINUOUS
10
100.627
20
-108.348
11
100.831
21
-108.591
0
LINE
8
BLACK
6
CONTINUOUS
10
100.831
20
-108.591
11
100.94
21
-108.889
0
LINE
8
BLACK
6
CONTINUOUS
10
100.94
20
-108.889
11
100.94
21
-109.207
0
LINE
8
BLACK
6
CONTINUOUS
10
100.94
20
-109.207
11
100.831
21
-109.505
0
LINE
8
BLACK
6
CONTINUOUS
10
100.831
20
-109.505
11
100.627
21
-109.748
0
LINE
8
BLACK
6
CONTINUOUS
10
100.627
20
-109.748
11
100.353
21
-109.907
0
LINE
8
BLACK
6
CONTINUOUS
10
100.353
20
-109.907
11
100.04
21
-109.962
0
LINE
8
BLACK
6
CONTINUOUS
10
100.04
20
-109.962
11
99.7274
21
-109.907
0
LINE
8
BLACK
6
CONTINUOUS
10
99.7274
20
-109.907
11
99.4526
21
-109.748
0
LINE
8
BLACK
6
CONTINUOUS
10
99.4526
20
-109.748
11
99.2486
21
-109.505
0
LINE
8
BLACK
6
CONTINUOUS
10
99.2486
20
-109.505
11
99.14
21
-109.207
0
LINE
8
BLACK
6
CONTINUOUS
10
99.14
20
-109.207
11
99.14
21
-108.889
0
LINE
8
BLACK
6
CONTINUOUS
10
99.14
20
-108.889
11
99.2486
21
-108.591
0
LINE
8
BLACK
6
CONTINUOUS
10
99.2486
20
-108.591
11
99.4526
21
-108.348
0
LINE
8
BLACK
6
CONTINUOUS
10
99.4526
20
-108.348
11
99.7274
21
-108.189
0
LINE
8
BLACK
6
CONTINUOUS
10
99.7274
20
-108.189
11
100.04
21
-108.134
0
LINE
8
BLACK
6
CONTINUOUS
10
100.04
20
-108.134
11
100.353
21
-108.189
0
LINE
8
BLACK
6
CONTINUOUS
10
110.523
20
-108.189
11
110.797
21
-108.348
0
LINE
8
BLACK
6
CONTINUOUS
10
110.797
20
-108.348
11
111.001
21
-108.591
0
LINE
8
BLACK
6
CONTINUOUS
10
111.001
20
-108.591
11
111.11
21
-108.889
0
LINE
8
BLACK
6
CONTINUOUS
10
111.11
20
-108.889
11
111.11
21
-109.207
0
LINE
8
BLACK
6
CONTINUOUS
10
111.11
20
-109.207
11
111.001
21
-109.505
0
LINE
8
BLACK
6
CONTINUOUS
10
111.001
20
-109.505
11
110.797
21
-109.748
0
LINE
8
BLACK
6
CONTINUOUS
10
110.797
20
-109.748
11
110.523
21
-109.907
0
LINE
8
BLACK
6
CONTINUOUS
10
110.523
20
-109.907
11
110.21
21
-109.962
0
LINE
8
BLACK
6
CONTINUOUS
10
110.21
20
-109.962
11
109.897
21
-109.907
0
LINE
8
BLACK
6
CONTINUOUS
10
109.897
20
-109.907
11
109.623
21
-109.748
0
LINE
8
BLACK
6
CONTINUOUS
10
109.623
20
-109.748
11
109.419
21
-109.505
0
LINE
8
BLACK
6
CONTINUOUS
10
109.419
20
-109.505
11
109.31
21
-109.207
0
LINE
8
BLACK
6
CONTINUOUS
10
109.31
20
-109.207
11
109.31
21
-108.889
0
LINE
8
BLACK
6
CONTINUOUS
10
109.31
20
-108.889
11
109.419
21
-108.591
0
LINE
8
BLACK
6
CONTINUOUS
10
109.419
20
-108.591
11
109.623
21
-108.348
0
LINE
8
BLACK
6
CONTINUOUS
10
109.623
20
-108.348
11
109.897
21
-108.189
0
LINE
8
BLACK
6
CONTINUOUS
10
109.897
20
-108.189
11
110.21
21
-108.134
0
LINE
8
BLACK
6
CONTINUOUS
10
110.21
20
-108.134
11
110.523
21
-108.189
0
LINE
8
BLACK
6
CONTINUOUS
10
105.413
20
-108.189
11
105.687
21
-108.348
0
LINE
8
BLACK
6
CONTINUOUS
10
105.687
20
-108.348
11
105.891
21
-108.591
0
LINE
8
BLACK
6
CONTINUOUS
10
105.891
20
-108.591
11
106
21
-108.889
0
LINE
8
BLACK
6
CONTINUOUS
10
106
20
-108.889
11
106
21
-109.207
0
LINE
8
BLACK
6
CONTINUOUS
10
106
20
-109.207
11
105.891
21
-109.505
0
LINE
8
BLACK
6
CONTINUOUS
10
105.891
20
-109.505
11
105.687
21
-109.748
0
LINE
8
BLACK
6
CONTINUOUS
10
105.687
20
-109.748
11
105.413
21
-109.907
0
LINE
8
BLACK
6
CONTINUOUS
10
105.413
20
-109.907
11
105.1
21
-109.962
0
LINE
8
BLACK
6
CONTINUOUS
10
105.1
20
-109.962
11
104.787
21
-109.907
0
LINE
8
BLACK
6
CONTINUOUS
10
104.787
20
-109.907
11
104.513
21
-109.748
0
LINE
8
BLACK
6
CONTINUOUS
10
104.513
20
-109.748
11
104.309
21
-109.505
0
LINE
8
BLACK
6
CONTINUOUS
10
104.309
20
-109.505
11
104.2
21
-109.207
0
LINE
8
BLACK
6
CONTINUOUS
10
104.2
20
-109.207
11
104.2
21
-108.889
0
LINE
8
BLACK
6
CONTINUOUS
10
104.2
20
-108.889
11
104.309
21
-108.591
0
LINE
8
BLACK
6
CONTINUOUS
10
104.309
20
-108.591
11
104.513
21
-108.348
0
LINE
8
BLACK
6
CONTINUOUS
10
104.513
20
-108.348
11
104.787
21
-108.189
0
LINE
8
BLACK
6
CONTINUOUS
10
104.787
20
-108.189
11
105.1
21
-108.134
0
LINE
8
BLACK
6
CONTINUOUS
10
105.1
20
-108.134
11
105.413
21
-108.189
0
LINE
8
BLACK
6
CONTINUOUS
10
148.453
20
-108.189
11
148.727
21
-108.348
0
LINE
8
BLACK
6
CONTINUOUS
10
148.727
20
-108.348
11
148.931
21
-108.591
0
LINE
8
BLACK
6
CONTINUOUS
10
148.931
20
-108.591
11
149.04
21
-108.889
0
LINE
8
BLACK
6
CONTINUOUS
10
149.04
20
-108.889
11
149.04
21
-109.207
0
LINE
8
BLACK
6
CONTINUOUS
10
149.04
20
-109.207
11
148.931
21
-109.505
0
LINE
8
BLACK
6
CONTINUOUS
10
148.931
20
-109.505
11
148.727
21
-109.748
0
LINE
8
BLACK
6
CONTINUOUS
10
148.727
20
-109.748
11
148.453
21
-109.907
0
LINE
8
BLACK
6
CONTINUOUS
10
148.453
20
-109.907
11
148.14
21
-109.962
0
LINE
8
BLACK
6
CONTINUOUS
10
148.14
20
-109.962
11
147.827
21
-109.907
0
LINE
8
BLACK
6
CONTINUOUS
10
147.827
20
-109.907
11
147.553
21
-109.748
0
LINE
8
BLACK
6
CONTINUOUS
10
147.553
20
-109.748
11
147.349
21
-109.505
0
LINE
8
BLACK
6
CONTINUOUS
10
147.349
20
-109.505
11
147.24
21
-109.207
0
LINE
8
BLACK
6
CONTINUOUS
10
147.24
20
-109.207
11
147.24
21
-108.889
0
LINE
8
BLACK
6
CONTINUOUS
10
147.24
20
-108.889
11
147.349
21
-108.591
0
LINE
8
BLACK
6
CONTINUOUS
10
147.349
20
-108.591
11
147.553
21
-108.348
0
LINE
8
BLACK
6
CONTINUOUS
10
147.553
20
-108.348
11
147.827
21
-108.189
0
LINE
8
BLACK
6
CONTINUOUS
10
147.827
20
-108.189
11
148.14
21
-108.134
0
LINE
8
BLACK
6
CONTINUOUS
10
148.14
20
-108.134
11
148.453
21
-108.189
0
LINE
8
BLACK
6
CONTINUOUS
10
99.675
20
-105.15
11
98.925
21
-105.15
0
LINE
8
BLACK
6
CONTINUOUS
10
98.925
20
-105.15
11
98.925
21
-103.95
0
LINE
8
BLACK
6
CONTINUOUS
10
98.925
20
-103.95
11
99.675
21
-103.95
0
LINE
8
BLACK
6
CONTINUOUS
10
99.675
20
-103.95
11
99.675
21
-105.15
0
LINE
8
BLACK
6
CONTINUOUS
10
156.182
20
-101.75
11
156.518
21
-101.944
0
LINE
8
BLACK
6
CONTINUOUS
10
156.518
20
-101.944
11
156.767
21
-102.242
0
LINE
8
BLACK
6
CONTINUOUS
10
156.767
20
-102.242
11
156.9
21
-102.606
0
LINE
8
BLACK
6
CONTINUOUS
10
156.9
20
-102.606
11
156.9
21
-102.994
0
LINE
8
BLACK
6
CONTINUOUS
10
156.9
20
-102.994
11
156.767
21
-103.358
0
LINE
8
BLACK
6
CONTINUOUS
10
156.767
20
-103.358
11
156.518
21
-103.656
0
LINE
8
BLACK
6
CONTINUOUS
10
156.518
20
-103.656
11
156.182
21
-103.85
0
LINE
8
BLACK
6
CONTINUOUS
10
156.182
20
-103.85
11
155.8
21
-103.917
0
LINE
8
BLACK
6
CONTINUOUS
10
155.8
20
-103.917
11
155.418
21
-103.85
0
LINE
8
BLACK
6
CONTINUOUS
10
155.418
20
-103.85
11
155.082
21
-103.656
0
LINE
8
BLACK
6
CONTINUOUS
10
155.082
20
-103.656
11
154.833
21
-103.358
0
LINE
8
BLACK
6
CONTINUOUS
10
154.833
20
-103.358
11
154.7
21
-102.994
0
LINE
8
BLACK
6
CONTINUOUS
10
154.7
20
-102.994
11
154.7
21
-102.606
0
LINE
8
BLACK
6
CONTINUOUS
10
154.7
20
-102.606
11
154.833
21
-102.242
0
LINE
8
BLACK
6
CONTINUOUS
10
154.833
20
-102.242
11
155.082
21
-101.944
0
LINE
8
BLACK
6
CONTINUOUS
10
155.082
20
-101.944
11
155.418
21
-101.75
0
LINE
8
BLACK
6
CONTINUOUS
10
155.418
20
-101.75
11
155.8
21
-101.683
0
LINE
8
BLACK
6
CONTINUOUS
10
155.8
20
-101.683
11
156.182
21
-101.75
0
LINE
8
BLACK
6
CONTINUOUS
10
144.156
20
-100.273
11
144.644
21
-100.555
0
LINE
8
BLACK
6
CONTINUOUS
10
144.644
20
-100.555
11
145.007
21
-100.988
0
LINE
8
BLACK
6
CONTINUOUS
10
145.007
20
-100.988
11
145.2
21
-101.518
0
LINE
8
BLACK
6
CONTINUOUS
10
145.2
20
-101.518
11
145.2
21
-102.082
0
LINE
8
BLACK
6
CONTINUOUS
10
145.2
20
-102.082
11
145.007
21
-102.612
0
LINE
8
BLACK
6
CONTINUOUS
10
145.007
20
-102.612
11
144.644
21
-103.045
0
LINE
8
BLACK
6
CONTINUOUS
10
144.644
20
-103.045
11
144.156
21
-103.327
0
LINE
8
BLACK
6
CONTINUOUS
10
144.156
20
-103.327
11
143.6
21
-103.425
0
LINE
8
BLACK
6
CONTINUOUS
10
143.6
20
-103.425
11
143.044
21
-103.327
0
LINE
8
BLACK
6
CONTINUOUS
10
143.044
20
-103.327
11
142.556
21
-103.045
0
LINE
8
BLACK
6
CONTINUOUS
10
142.556
20
-103.045
11
142.193
21
-102.612
0
LINE
8
BLACK
6
CONTINUOUS
10
142.193
20
-102.612
11
142
21
-102.082
0
LINE
8
BLACK
6
CONTINUOUS
10
142
20
-102.082
11
142
21
-101.518
0
LINE
8
BLACK
6
CONTINUOUS
10
142
20
-101.518
11
142.193
21
-100.988
0
LINE
8
BLACK
6
CONTINUOUS
10
142.193
20
-100.988
11
142.556
21
-100.555
0
LINE
8
BLACK
6
CONTINUOUS
10
142.556
20
-100.555
11
143.044
21
-100.273
0
LINE
8
BLACK
6
CONTINUOUS
10
143.044
20
-100.273
11
143.6
21
-100.175
0
LINE
8
BLACK
6
CONTINUOUS
10
143.6
20
-100.175
11
144.156
21
-100.273
0
LINE
8
BLACK
6
CONTINUOUS
10
115.256
20
-100.273
11
115.744
21
-100.555
0
LINE
8
BLACK
6
CONTINUOUS
10
115.744
20
-100.555
11
116.107
21
-100.988
0
LINE
8
BLACK
6
CONTINUOUS
10
116.107
20
-100.988
11
116.3
21
-101.518
0
LINE
8
BLACK
6
CONTINUOUS
10
116.3
20
-101.518
11
116.3
21
-102.082
0
LINE
8
BLACK
6
CONTINUOUS
10
116.3
20
-102.082
11
116.107
21
-102.612
0
LINE
8
BLACK
6
CONTINUOUS
10
116.107
20
-102.612
11
115.744
21
-103.045
0
LINE
8
BLACK
6
CONTINUOUS
10
115.744
20
-103.045
11
115.256
21
-103.327
0
LINE
8
BLACK
6
CONTINUOUS
10
115.256
20
-103.327
11
114.7
21
-103.425
0
LINE
8
BLACK
6
CONTINUOUS
10
114.7
20
-103.425
11
114.144
21
-103.327
0
LINE
8
BLACK
6
CONTINUOUS
10
114.144
20
-103.327
11
113.656
21
-103.045
0
LINE
8
BLACK
6
CONTINUOUS
10
113.656
20
-103.045
11
113.293
21
-102.612
0
LINE
8
BLACK
6
CONTINUOUS
10
113.293
20
-102.612
11
113.1
21
-102.082
0
LINE
8
BLACK
6
CONTINUOUS
10
113.1
20
-102.082
11
113.1
21
-101.518
0
LINE
8
BLACK
6
CONTINUOUS
10
113.1
20
-101.518
11
113.293
21
-100.988
0
LINE
8
BLACK
6
CONTINUOUS
10
113.293
20
-100.988
11
113.656
21
-100.555
0
LINE
8
BLACK
6
CONTINUOUS
10
113.656
20
-100.555
11
114.144
21
-100.273
0
LINE
8
BLACK
6
CONTINUOUS
10
114.144
20
-100.273
11
114.7
21
-100.175
0
LINE
8
BLACK
6
CONTINUOUS
10
114.7
20
-100.175
11
115.256
21
-100.273
0
LINE
8
BLACK
6
CONTINUOUS
10
99.675
20
-103.25
11
98.925
21
-103.25
0
LINE
8
BLACK
6
CONTINUOUS
10
98.925
20
-103.25
11
98.925
21
-102.05
0
LINE
8
BLACK
6
CONTINUOUS
10
98.925
20
-102.05
11
99.675
21
-102.05
0
LINE
8
BLACK
6
CONTINUOUS
10
99.675
20
-102.05
11
99.675
21
-103.25
0
LINE
8
BLACK
6
CONTINUOUS
10
108.55
20
-102.875
11
107.35
21
-102.875
0
LINE
8
BLACK
6
CONTINUOUS
10
107.35
20
-102.875
11
107.35
21
-102.125
0
LINE
8
BLACK
6
CONTINUOUS
10
107.35
20
-102.125
11
108.55
21
-102.125
0
LINE
8
BLACK
6
CONTINUOUS
10
108.55
20
-102.125
11
108.55
21
-102.875
0
LINE
8
BLACK
6
CONTINUOUS
10
106.65
20
-102.875
11
105.45
21
-102.875
0
LINE
8
BLACK
6
CONTINUOUS
10
105.45
20
-102.875
11
105.45
21
-102.125
0
LINE
8
BLACK
6
CONTINUOUS
10
105.45
20
-102.125
11
106.65
21
-102.125
0
LINE
8
BLACK
6
CONTINUOUS
10
106.65
20
-102.125
11
106.65
21
-102.875
0
LINE
8
BLACK
6
CONTINUOUS
10
106.475
20
-100.85
11
105.925
21
-100.85
0
LINE
8
BLACK
6
CONTINUOUS
10
105.925
20
-100.85
11
105.925
21
-99.25
0
LINE
8
BLACK
6
CONTINUOUS
10
105.925
20
-99.25
11
106.475
21
-99.25
0
LINE
8
BLACK
6
CONTINUOUS
10
106.475
20
-99.25
11
106.475
21
-100.85
0
LINE
8
BLACK
6
CONTINUOUS
10
105.675
20
-100.85
11
105.125
21
-100.85
0
LINE
8
BLACK
6
CONTINUOUS
10
105.125
20
-100.85
11
105.125
21
-99.25
0
LINE
8
BLACK
6
CONTINUOUS
10
105.125
20
-99.25
11
105.675
21
-99.25
0
LINE
8
BLACK
6
CONTINUOUS
10
105.675
20
-99.25
11
105.675
21
-100.85
0
LINE
8
BLACK
6
CONTINUOUS
10
104.875
20
-100.85
11
104.325
21
-100.85
0
LINE
8
BLACK
6
CONTINUOUS
10
104.325
20
-100.85
11
104.325
21
-99.25
0
LINE
8
BLACK
6
CONTINUOUS
10
104.325
20
-99.25
11
104.875
21
-99.25
0
LINE
8
BLACK
6
CONTINUOUS
10
104.875
20
-99.25
11
104.875
21
-100.85
0
LINE
8
BLACK
6
CONTINUOUS
10
104.075
20
-100.85
11
103.525
21
-100.85
0
LINE
8
BLACK
6
CONTINUOUS
10
103.525
20
-100.85
11
103.525
21
-99.25
0
LINE
8
BLACK
6
CONTINUOUS
10
103.525
20
-99.25
11
104.075
21
-99.25
0
LINE
8
BLACK
6
CONTINUOUS
10
104.075
20
-99.25
11
104.075
21
-100.85
0
LINE
8
BLACK
6
CONTINUOUS
10
103.275
20
-100.85
11
102.725
21
-100.85
0
LINE
8
BLACK
6
CONTINUOUS
10
102.725
20
-100.85
11
102.725
21
-99.25
0
LINE
8
BLACK
6
CONTINUOUS
10
102.725
20
-99.25
11
103.275
21
-99.25
0
LINE
8
BLACK
6
CONTINUOUS
10
103.275
20
-99.25
11
103.275
21
-100.85
0
LINE
8
BLACK
6
CONTINUOUS
10
102.475
20
-100.85
11
101.925
21
-100.85
0
LINE
8
BLACK
6
CONTINUOUS
10
101.925
20
-100.85
11
101.925
21
-99.25
0
LINE
8
BLACK
6
CONTINUOUS
10
101.925
20
-99.25
11
102.475
21
-99.25
0
LINE
8
BLACK
6
CONTINUOUS
10
102.475
20
-99.25
11
102.475
21
-100.85
0
LINE
8
BLACK
6
CONTINUOUS
10
101.675
20
-100.85
11
101.125
21
-100.85
0
LINE
8
BLACK
6
CONTINUOUS
10
101.125
20
-100.85
11
101.125
21
-99.25
0
LINE
8
BLACK
6
CONTINUOUS
10
101.125
20
-99.25
11
101.675
21
-99.25
0
LINE
8
BLACK
6
CONTINUOUS
10
101.675
20
-99.25
11
101.675
21
-100.85
0
LINE
8
BLACK
6
CONTINUOUS
10
100.875
20
-100.85
11
100.325
21
-100.85
0
LINE
8
BLACK
6
CONTINUOUS
10
100.325
20
-100.85
11
100.325
21
-99.25
0
LINE
8
BLACK
6
CONTINUOUS
10
100.325
20
-99.25
11
100.875
21
-99.25
0
LINE
8
BLACK
6
CONTINUOUS
10
100.875
20
-99.25
11
100.875
21
-100.85
0
LINE
8
BLACK
6
CONTINUOUS
10
147.495
20
-94.9916
11
148.105
21
-95.3443
0
LINE
8
BLACK
6
CONTINUOUS
10
148.105
20
-95.3443
11
148.559
21
-95.8846
0
LINE
8
BLACK
6
CONTINUOUS
10
148.559
20
-95.8846
11
148.8
21
-96.5473
0
LINE
8
BLACK
6
CONTINUOUS
10
148.8
20
-96.5473
11
148.8
21
-97.2527
0
LINE
8
BLACK
6
CONTINUOUS
10
148.8
20
-97.2527
11
148.559
21
-97.9154
0
LINE
8
BLACK
6
CONTINUOUS
10
148.559
20
-97.9154
11
148.105
21
-98.4557
0
LINE
8
BLACK
6
CONTINUOUS
10
148.105
20
-98.4557
11
147.495
21
-98.8084
0
LINE
8
BLACK
6
CONTINUOUS
10
147.495
20
-98.8084
11
146.8
21
-98.9309
0
LINE
8
BLACK
6
CONTINUOUS
10
146.8
20
-98.9309
11
146.105
21
-98.8084
0
LINE
8
BLACK
6
CONTINUOUS
10
146.105
20
-98.8084
11
145.495
21
-98.4557
0
LINE
8
BLACK
6
CONTINUOUS
10
145.495
20
-98.4557
11
145.041
21
-97.9154
0
LINE
8
BLACK
6
CONTINUOUS
10
145.041
20
-97.9154
11
144.8
21
-97.2527
0
LINE
8
BLACK
6
CONTINUOUS
10
144.8
20
-97.2527
11
144.8
21
-96.5473
0
LINE
8
BLACK
6
CONTINUOUS
10
144.8
20
-96.5473
11
145.041
21
-95.8846
0
LINE
8
BLACK
6
CONTINUOUS
10
145.041
20
-95.8846
11
145.495
21
-95.3443
0
LINE
8
BLACK
6
CONTINUOUS
10
145.495
20
-95.3443
11
146.105
21
-94.9916
0
LINE
8
BLACK
6
CONTINUOUS
10
146.105
20
-94.9916
11
146.8
21
-94.8691
0
LINE
8
BLACK
6
CONTINUOUS
10
146.8
20
-94.8691
11
147.495
21
-94.9916
0
LINE
8
BLACK
6
CONTINUOUS
10
99.95
20
-98.875
11
98.35
21
-98.875
0
LINE
8
BLACK
6
CONTINUOUS
10
98.35
20
-98.875
11
98.35
21
-98.325
0
LINE
8
BLACK
6
CONTINUOUS
10
98.35
20
-98.325
11
99.95
21
-98.325
0
LINE
8
BLACK
6
CONTINUOUS
10
99.95
20
-98.325
11
99.95
21
-98.875
0
LINE
8
BLACK
6
CONTINUOUS
10
108.45
20
-98.875
11
106.85
21
-98.875
0
LINE
8
BLACK
6
CONTINUOUS
10
106.85
20
-98.875
11
106.85
21
-98.325
0
LINE
8
BLACK
6
CONTINUOUS
10
106.85
20
-98.325
11
108.45
21
-98.325
0
LINE
8
BLACK
6
CONTINUOUS
10
108.45
20
-98.325
11
108.45
21
-98.875
0
LINE
8
BLACK
6
CONTINUOUS
10
112.295
20
-94.8916
11
112.905
21
-95.2443
0
LINE
8
BLACK
6
CONTINUOUS
10
112.905
20
-95.2443
11
113.359
21
-95.7846
0
LINE
8
BLACK
6
CONTINUOUS
10
113.359
20
-95.7846
11
113.6
21
-96.4473
0
LINE
8
BLACK
6
CONTINUOUS
10
113.6
20
-96.4473
11
113.6
21
-97.1527
0
LINE
8
BLACK
6
CONTINUOUS
10
113.6
20
-97.1527
11
113.359
21
-97.8154
0
LINE
8
BLACK
6
CONTINUOUS
10
113.359
20
-97.8154
11
112.905
21
-98.3557
0
LINE
8
BLACK
6
CONTINUOUS
10
112.905
20
-98.3557
11
112.295
21
-98.7084
0
LINE
8
BLACK
6
CONTINUOUS
10
112.295
20
-98.7084
11
111.6
21
-98.8309
0
LINE
8
BLACK
6
CONTINUOUS
10
111.6
20
-98.8309
11
110.905
21
-98.7084
0
LINE
8
BLACK
6
CONTINUOUS
10
110.905
20
-98.7084
11
110.295
21
-98.3557
0
LINE
8
BLACK
6
CONTINUOUS
10
110.295
20
-98.3557
11
109.841
21
-97.8154
0
LINE
8
BLACK
6
CONTINUOUS
10
109.841
20
-97.8154
11
109.6
21
-97.1527
0
LINE
8
BLACK
6
CONTINUOUS
10
109.6
20
-97.1527
11
109.6
21
-96.4473
0
LINE
8
BLACK
6
CONTINUOUS
10
109.6
20
-96.4473
11
109.841
21
-95.7846
0
LINE
8
BLACK
6
CONTINUOUS
10
109.841
20
-95.7846
11
110.295
21
-95.2443
0
LINE
8
BLACK
6
CONTINUOUS
10
110.295
20
-95.2443
11
110.905
21
-94.8916
0
LINE
8
BLACK
6
CONTINUOUS
10
110.905
20
-94.8916
11
111.6
21
-94.7691
0
LINE
8
BLACK
6
CONTINUOUS
10
111.6
20
-94.7691
11
112.295
21
-94.8916
0
LINE
8
BLACK
6
CONTINUOUS
10
99.95
20
-98.075
11
98.35
21
-98.075
0
LINE
8
BLACK
6
CONTINUOUS
10
98.35
20
-98.075
11
98.35
21
-97.525
0
LINE
8
BLACK
6
CONTINUOUS
10
98.35
20
-97.525
11
99.95
21
-97.525
0
LINE
8
BLACK
6
CONTINUOUS
10
99.95
20
-97.525
11
99.95
21
-98.075
0
LINE
8
BLACK
6
CONTINUOUS
10
108.45
20
-98.075
11
106.85
21
-98.075
0
LINE
8
BLACK
6
CONTINUOUS
10
106.85
20
-98.075
11
106.85
21
-97.525
0
LINE
8
BLACK
6
CONTINUOUS
10
106.85
20
-97.525
11
108.45
21
-97.525
0
LINE
8
BLACK
6
CONTINUOUS
10
108.45
20
-97.525
11
108.45
21
-98.075
0
LINE
8
BLACK
6
CONTINUOUS
10
99.95
20
-97.275
11
98.35
21
-97.275
0
LINE
8
BLACK
6
CONTINUOUS
10
98.35
20
-97.275
11
98.35
21
-96.725
0
LINE
8
BLACK
6
CONTINUOUS
10
98.35
20
-96.725
11
99.95
21
-96.725
0
LINE
8
BLACK
6
CONTINUOUS
10
99.95
20
-96.725
11
99.95
21
-97.275
0
LINE
8
BLACK
6
CONTINUOUS
10
108.45
20
-97.275
11
106.85
21
-97.275
0
LINE
8
BLACK
6
CONTINUOUS
10
106.85
20
-97.275
11
106.85
21
-96.725
0
LINE
8
BLACK
6
CONTINUOUS
10
106.85
20
-96.725
11
108.45
21
-96.725
0
LINE
8
BLACK
6
CONTINUOUS
10
108.45
20
-96.725
11
108.45
21
-97.275
0
LINE
8
BLACK
6
CONTINUOUS
10
119.6
20
-96.55
11
117.5
21
-96.55
0
LINE
8
BLACK
6
CONTINUOUS
10
117.5
20
-96.55
11
117.5
21
-94.75
0
LINE
8
BLACK
6
CONTINUOUS
10
117.5
20
-94.75
11
119.6
21
-94.75
0
LINE
8
BLACK
6
CONTINUOUS
10
119.6
20
-94.75
11
119.6
21
-96.55
0
LINE
8
BLACK
6
CONTINUOUS
10
122.5
20
-96.55
11
120.4
21
-96.55
0
LINE
8
BLACK
6
CONTINUOUS
10
120.4
20
-96.55
11
120.4
21
-94.75
0
LINE
8
BLACK
6
CONTINUOUS
10
120.4
20
-94.75
11
122.5
21
-94.75
0
LINE
8
BLACK
6
CONTINUOUS
10
122.5
20
-94.75
11
122.5
21
-96.55
0
LINE
8
BLACK
6
CONTINUOUS
10
99.95
20
-96.475
11
98.35
21
-96.475
0
LINE
8
BLACK
6
CONTINUOUS
10
98.35
20
-96.475
11
98.35
21
-95.925
0
LINE
8
BLACK
6
CONTINUOUS
10
98.35
20
-95.925
11
99.95
21
-95.925
0
LINE
8
BLACK
6
CONTINUOUS
10
99.95
20
-95.925
11
99.95
21
-96.475
0
LINE
8
BLACK
6
CONTINUOUS
10
108.45
20
-96.475
11
106.85
21
-96.475
0
LINE
8
BLACK
6
CONTINUOUS
10
106.85
20
-96.475
11
106.85
21
-95.925
0
LINE
8
BLACK
6
CONTINUOUS
10
106.85
20
-95.925
11
108.45
21
-95.925
0
LINE
8
BLACK
6
CONTINUOUS
10
108.45
20
-95.925
11
108.45
21
-96.475
0
LINE
8
BLACK
6
CONTINUOUS
10
116.575
20
-96.05
11
115.825
21
-96.05
0
LINE
8
BLACK
6
CONTINUOUS
10
115.825
20
-96.05
11
115.825
21
-94.85
0
LINE
8
BLACK
6
CONTINUOUS
10
115.825
20
-94.85
11
116.575
21
-94.85
0
LINE
8
BLACK
6
CONTINUOUS
10
116.575
20
-94.85
11
116.575
21
-96.05
0
LINE
8
BLACK
6
CONTINUOUS
10
124.375
20
-96.05
11
123.625
21
-96.05
0
LINE
8
BLACK
6
CONTINUOUS
10
123.625
20
-96.05
11
123.625
21
-94.85
0
LINE
8
BLACK
6
CONTINUOUS
10
123.625
20
-94.85
11
124.375
21
-94.85
0
LINE
8
BLACK
6
CONTINUOUS
10
124.375
20
-94.85
11
124.375
21
-96.05
0
LINE
8
BLACK
6
CONTINUOUS
10
108.45
20
-95.675
11
106.85
21
-95.675
0
LINE
8
BLACK
6
CONTINUOUS
10
106.85
20
-95.675
11
106.85
21
-95.125
0
LINE
8
BLACK
6
CONTINUOUS
10
106.85
20
-95.125
11
108.45
21
-95.125
0
LINE
8
BLACK
6
CONTINUOUS
10
108.45
20
-95.125
11
108.45
21
-95.675
0
LINE
8
BLACK
6
CONTINUOUS
10
99.95
20
-95.675
11
98.35
21
-95.675
0
LINE
8
BLACK
6
CONTINUOUS
10
98.35
20
-95.675
11
98.35
21
-95.125
0
LINE
8
BLACK
6
CONTINUOUS
10
98.35
20
-95.125
11
99.95
21
-95.125
0
LINE
8
BLACK
6
CONTINUOUS
10
99.95
20
-95.125
11
99.95
21
-95.675
0
LINE
8
BLACK
6
CONTINUOUS
10
108.45
20
-94.875
11
106.85
21
-94.875
0
LINE
8
BLACK
6
CONTINUOUS
10
106.85
20
-94.875
11
106.85
21
-94.325
0
LINE
8
BLACK
6
CONTINUOUS
10
106.85
20
-94.325
11
108.45
21
-94.325
0
LINE
8
BLACK
6
CONTINUOUS
10
108.45
20
-94.325
11
108.45
21
-94.875
0
LINE
8
BLACK
6
CONTINUOUS
10
99.95
20
-94.875
11
98.35
21
-94.875
0
LINE
8
BLACK
6
CONTINUOUS
10
98.35
20
-94.875
11
98.35
21
-94.325
0
LINE
8
BLACK
6
CONTINUOUS
10
98.35
20
-94.325
11
99.95
21
-94.325
0
LINE
8
BLACK
6
CONTINUOUS
10
99.95
20
-94.325
11
99.95
21
-94.875
0
LINE
8
BLACK
6
CONTINUOUS
10
119.6
20
-94.25
11
117.5
21
-94.25
0
LINE
8
BLACK
6
CONTINUOUS
10
117.5
20
-94.25
11
117.5
21
-92.45
0
LINE
8
BLACK
6
CONTINUOUS
10
117.5
20
-92.45
11
119.6
21
-92.45
0
LINE
8
BLACK
6
CONTINUOUS
10
119.6
20
-92.45
11
119.6
21
-94.25
0
LINE
8
BLACK
6
CONTINUOUS
10
122.5
20
-94.25
11
120.4
21
-94.25
0
LINE
8
BLACK
6
CONTINUOUS
10
120.4
20
-94.25
11
120.4
21
-92.45
0
LINE
8
BLACK
6
CONTINUOUS
10
120.4
20
-92.45
11
122.5
21
-92.45
0
LINE
8
BLACK
6
CONTINUOUS
10
122.5
20
-92.45
11
122.5
21
-94.25
0
LINE
8
BLACK
6
CONTINUOUS
10
124.375
20
-94.15
11
123.625
21
-94.15
0
LINE
8
BLACK
6
CONTINUOUS
10
123.625
20
-94.15
11
123.625
21
-92.95
0
LINE
8
BLACK
6
CONTINUOUS
10
123.625
20
-92.95
11
124.375
21
-92.95
0
LINE
8
BLACK
6
CONTINUOUS
10
124.375
20
-92.95
11
124.375
21
-94.15
0
LINE
8
BLACK
6
CONTINUOUS
10
116.575
20
-94.15
11
115.825
21
-94.15
0
LINE
8
BLACK
6
CONTINUOUS
10
115.825
20
-94.15
11
115.825
21
-92.95
0
LINE
8
BLACK
6
CONTINUOUS
10
115.825
20
-92.95
11
116.575
21
-92.95
0
LINE
8
BLACK
6
CONTINUOUS
10
116.575
20
-92.95
11
116.575
21
-94.15
0
LINE
8
BLACK
6
CONTINUOUS
10
108.45
20
-94.075
11
106.85
21
-94.075
0
LINE
8
BLACK
6
CONTINUOUS
10
106.85
20
-94.075
11
106.85
21
-93.525
0
LINE
8
BLACK
6
CONTINUOUS
10
106.85
20
-93.525
11
108.45
21
-93.525
0
LINE
8
BLACK
6
CONTINUOUS
10
108.45
20
-93.525
11
108.45
21
-94.075
0
LINE
8
BLACK
6
CONTINUOUS
10
99.95
20
-94.075
11
98.35
21
-94.075
0
LINE
8
BLACK
6
CONTINUOUS
10
98.35
20
-94.075
11
98.35
21
-93.525
0
LINE
8
BLACK
6
CONTINUOUS
10
98.35
20
-93.525
11
99.95
21
-93.525
0
LINE
8
BLACK
6
CONTINUOUS
10
99.95
20
-93.525
11
99.95
21
-94.075
0
LINE
8
BLACK
6
CONTINUOUS
10
108.45
20
-93.275
11
106.85
21
-93.275
0
LINE
8
BLACK
6
CONTINUOUS
10
106.85
20
-93.275
11
106.85
21
-92.725
0
LINE
8
BLACK
6
CONTINUOUS
10
106.85
20
-92.725
11
108.45
21
-92.725
0
LINE
8
BLACK
6
CONTINUOUS
10
108.45
20
-92.725
11
108.45
21
-93.275
0
LINE
8
BLACK
6
CONTINUOUS
10
99.95
20
-93.275
11
98.35
21
-93.275
0
LINE
8
BLACK
6
CONTINUOUS
10
98.35
20
-93.275
11
98.35
21
-92.725
0
LINE
8
BLACK
6
CONTINUOUS
10
98.35
20
-92.725
11
99.95
21
-92.725
0
LINE
8
BLACK
6
CONTINUOUS
10
99.95
20
-92.725
11
99.95
21
-93.275
0
LINE
8
BLACK
6
CONTINUOUS
10
138.355
20
-91.5889
11
138.615
21
-91.7388
0
LINE
8
BLACK
6
CONTINUOUS
10
138.615
20
-91.7388
11
138.807
21
-91.9684
0
LINE
8
BLACK
6
CONTINUOUS
10
138.807
20
-91.9684
11
138.91
21
-92.2501
0
LINE
8
BLACK
6
CONTINUOUS
10
138.91
20
-92.2501
11
138.91
21
-92.5499
0
LINE
8
BLACK
6
CONTINUOUS
10
138.91
20
-92.5499
11
138.807
21
-92.8316
0
LINE
8
BLACK
6
CONTINUOUS
10
138.807
20
-92.8316
11
138.615
21
-93.0612
0
LINE
8
BLACK
6
CONTINUOUS
10
138.615
20
-93.0612
11
138.355
21
-93.2111
0
LINE
8
BLACK
6
CONTINUOUS
10
138.355
20
-93.2111
11
138.134
21
-93.25
0
LINE
8
BLACK
6
CONTINUOUS
10
138.134
20
-93.25
11
137.986
21
-93.25
0
LINE
8
BLACK
6
CONTINUOUS
10
137.986
20
-93.25
11
137.765
21
-93.2111
0
LINE
8
BLACK
6
CONTINUOUS
10
137.765
20
-93.2111
11
137.505
21
-93.0612
0
LINE
8
BLACK
6
CONTINUOUS
10
137.505
20
-93.0612
11
137.313
21
-92.8316
0
LINE
8
BLACK
6
CONTINUOUS
10
137.313
20
-92.8316
11
137.21
21
-92.5499
0
LINE
8
BLACK
6
CONTINUOUS
10
137.21
20
-92.5499
11
137.21
21
-92.2501
0
LINE
8
BLACK
6
CONTINUOUS
10
137.21
20
-92.2501
11
137.313
21
-91.9684
0
LINE
8
BLACK
6
CONTINUOUS
10
137.313
20
-91.9684
11
137.505
21
-91.7388
0
LINE
8
BLACK
6
CONTINUOUS
10
137.505
20
-91.7388
11
137.765
21
-91.5889
0
LINE
8
BLACK
6
CONTINUOUS
10
137.765
20
-91.5889
11
137.986
21
-91.55
0
LINE
8
BLACK
6
CONTINUOUS
10
137.986
20
-91.55
11
138.134
21
-91.55
0
LINE
8
BLACK
6
CONTINUOUS
10
138.134
20
-91.55
11
138.355
21
-91.5889
0
LINE
8
BLACK
6
CONTINUOUS
10
141.45
20
-93.25
11
139.75
21
-93.25
0
LINE
8
BLACK
6
CONTINUOUS
10
139.75
20
-93.25
11
139.75
21
-91.55
0
LINE
8
BLACK
6
CONTINUOUS
10
139.75
20
-91.55
11
141.45
21
-91.55
0
LINE
8
BLACK
6
CONTINUOUS
10
141.45
20
-91.55
11
141.45
21
-93.25
0
LINE
8
BLACK
6
CONTINUOUS
10
129.734
20
-91.8559
11
129.941
21
-91.9749
0
LINE
8
BLACK
6
CONTINUOUS
10
129.941
20
-91.9749
11
130.094
21
-92.1573
0
LINE
8
BLACK
6
CONTINUOUS
10
130.094
20
-92.1573
11
130.175
21
-92.381
0
LINE
8
BLACK
6
CONTINUOUS
10
130.175
20
-92.381
11
130.175
21
-92.619
0
LINE
8
BLACK
6
CONTINUOUS
10
130.175
20
-92.619
11
130.094
21
-92.8427
0
LINE
8
BLACK
6
CONTINUOUS
10
130.094
20
-92.8427
11
129.941
21
-93.0251
0
LINE
8
BLACK
6
CONTINUOUS
10
129.941
20
-93.0251
11
129.734
21
-93.1441
0
LINE
8
BLACK
6
CONTINUOUS
10
129.734
20
-93.1441
11
129.559
21
-93.175
0
LINE
8
BLACK
6
CONTINUOUS
10
129.559
20
-93.175
11
129.441
21
-93.175
0
LINE
8
BLACK
6
CONTINUOUS
10
129.441
20
-93.175
11
129.266
21
-93.1441
0
LINE
8
BLACK
6
CONTINUOUS
10
129.266
20
-93.1441
11
129.059
21
-93.0251
0
LINE
8
BLACK
6
CONTINUOUS
10
129.059
20
-93.0251
11
128.906
21
-92.8427
0
LINE
8
BLACK
6
CONTINUOUS
10
128.906
20
-92.8427
11
128.825
21
-92.619
0
LINE
8
BLACK
6
CONTINUOUS
10
128.825
20
-92.619
11
128.825
21
-92.381
0
LINE
8
BLACK
6
CONTINUOUS
10
128.825
20
-92.381
11
128.906
21
-92.1573
0
LINE
8
BLACK
6
CONTINUOUS
10
128.906
20
-92.1573
11
129.059
21
-91.9749
0
LINE
8
BLACK
6
CONTINUOUS
10
129.059
20
-91.9749
11
129.266
21
-91.8559
0
LINE
8
BLACK
6
CONTINUOUS
10
129.266
20
-91.8559
11
129.441
21
-91.825
0
LINE
8
BLACK
6
CONTINUOUS
10
129.441
20
-91.825
11
129.559
21
-91.825
0
LINE
8
BLACK
6
CONTINUOUS
10
129.559
20
-91.825
11
129.734
21
-91.8559
0
LINE
8
BLACK
6
CONTINUOUS
10
133.734
20
-91.8559
11
133.941
21
-91.9749
0
LINE
8
BLACK
6
CONTINUOUS
10
133.941
20
-91.9749
11
134.094
21
-92.1573
0
LINE
8
BLACK
6
CONTINUOUS
10
134.094
20
-92.1573
11
134.175
21
-92.381
0
LINE
8
BLACK
6
CONTINUOUS
10
134.175
20
-92.381
11
134.175
21
-92.619
0
LINE
8
BLACK
6
CONTINUOUS
10
134.175
20
-92.619
11
134.094
21
-92.8427
0
LINE
8
BLACK
6
CONTINUOUS
10
134.094
20
-92.8427
11
133.941
21
-93.0251
0
LINE
8
BLACK
6
CONTINUOUS
10
133.941
20
-93.0251
11
133.734
21
-93.1441
0
LINE
8
BLACK
6
CONTINUOUS
10
133.734
20
-93.1441
11
133.559
21
-93.175
0
LINE
8
BLACK
6
CONTINUOUS
10
133.559
20
-93.175
11
133.441
21
-93.175
0
LINE
8
BLACK
6
CONTINUOUS
10
133.441
20
-93.175
11
133.266
21
-93.1441
0
LINE
8
BLACK
6
CONTINUOUS
10
133.266
20
-93.1441
11
133.059
21
-93.0251
0
LINE
8
BLACK
6
CONTINUOUS
10
133.059
20
-93.0251
11
132.906
21
-92.8427
0
LINE
8
BLACK
6
CONTINUOUS
10
132.906
20
-92.8427
11
132.825
21
-92.619
0
LINE
8
BLACK
6
CONTINUOUS
10
132.825
20
-92.619
11
132.825
21
-92.381
0
LINE
8
BLACK
6
CONTINUOUS
10
132.825
20
-92.381
11
132.906
21
-92.1573
0
LINE
8
BLACK
6
CONTINUOUS
10
132.906
20
-92.1573
11
133.059
21
-91.9749
0
LINE
8
BLACK
6
CONTINUOUS
10
133.059
20
-91.9749
11
133.266
21
-91.8559
0
LINE
8
BLACK
6
CONTINUOUS
10
133.266
20
-91.8559
11
133.441
21
-91.825
0
LINE
8
BLACK
6
CONTINUOUS
10
133.441
20
-91.825
11
133.559
21
-91.825
0
LINE
8
BLACK
6
CONTINUOUS
10
133.559
20
-91.825
11
133.734
21
-91.8559
0
LINE
8
BLACK
6
CONTINUOUS
10
131.734
20
-91.8559
11
131.941
21
-91.9749
0
LINE
8
BLACK
6
CONTINUOUS
10
131.941
20
-91.9749
11
132.094
21
-92.1573
0
LINE
8
BLACK
6
CONTINUOUS
10
132.094
20
-92.1573
11
132.175
21
-92.381
0
LINE
8
BLACK
6
CONTINUOUS
10
132.175
20
-92.381
11
132.175
21
-92.619
0
LINE
8
BLACK
6
CONTINUOUS
10
132.175
20
-92.619
11
132.094
21
-92.8427
0
LINE
8
BLACK
6
CONTINUOUS
10
132.094
20
-92.8427
11
131.941
21
-93.0251
0
LINE
8
BLACK
6
CONTINUOUS
10
131.941
20
-93.0251
11
131.734
21
-93.1441
0
LINE
8
BLACK
6
CONTINUOUS
10
131.734
20
-93.1441
11
131.559
21
-93.175
0
LINE
8
BLACK
6
CONTINUOUS
10
131.559
20
-93.175
11
131.441
21
-93.175
0
LINE
8
BLACK
6
CONTINUOUS
10
131.441
20
-93.175
11
131.266
21
-93.1441
0
LINE
8
BLACK
6
CONTINUOUS
10
131.266
20
-93.1441
11
131.059
21
-93.0251
0
LINE
8
BLACK
6
CONTINUOUS
10
131.059
20
-93.0251
11
130.906
21
-92.8427
0
LINE
8
BLACK
6
CONTINUOUS
10
130.906
20
-92.8427
11
130.825
21
-92.619
0
LINE
8
BLACK
6
CONTINUOUS
10
130.825
20
-92.619
11
130.825
21
-92.381
0
LINE
8
BLACK
6
CONTINUOUS
10
130.825
20
-92.381
11
130.906
21
-92.1573
0
LINE
8
BLACK
6
CONTINUOUS
10
130.906
20
-92.1573
11
131.059
21
-91.9749
0
LINE
8
BLACK
6
CONTINUOUS
10
131.059
20
-91.9749
11
131.266
21
-91.8559
0
LINE
8
BLACK
6
CONTINUOUS
10
131.266
20
-91.8559
11
131.441
21
-91.825
0
LINE
8
BLACK
6
CONTINUOUS
10
131.441
20
-91.825
11
131.559
21
-91.825
0
LINE
8
BLACK
6
CONTINUOUS
10
131.559
20
-91.825
11
131.734
21
-91.8559
0
LINE
8
BLACK
6
CONTINUOUS
10
128.175
20
-93.175
11
126.825
21
-93.175
0
LINE
8
BLACK
6
CONTINUOUS
10
126.825
20
-93.175
11
126.825
21
-91.825
0
LINE
8
BLACK
6
CONTINUOUS
10
126.825
20
-91.825
11
128.175
21
-91.825
0
LINE
8
BLACK
6
CONTINUOUS
10
128.175
20
-91.825
11
128.175
21
-93.175
0
LINE
8
BLACK
6
CONTINUOUS
10
100.875
20
-92.35
11
100.325
21
-92.35
0
LINE
8
BLACK
6
CONTINUOUS
10
100.325
20
-92.35
11
100.325
21
-90.75
0
LINE
8
BLACK
6
CONTINUOUS
10
100.325
20
-90.75
11
100.875
21
-90.75
0
LINE
8
BLACK
6
CONTINUOUS
10
100.875
20
-90.75
11
100.875
21
-92.35
0
LINE
8
BLACK
6
CONTINUOUS
10
101.675
20
-92.35
11
101.125
21
-92.35
0
LINE
8
BLACK
6
CONTINUOUS
10
101.125
20
-92.35
11
101.125
21
-90.75
0
LINE
8
BLACK
6
CONTINUOUS
10
101.125
20
-90.75
11
101.675
21
-90.75
0
LINE
8
BLACK
6
CONTINUOUS
10
101.675
20
-90.75
11
101.675
21
-92.35
0
LINE
8
BLACK
6
CONTINUOUS
10
102.475
20
-92.35
11
101.925
21
-92.35
0
LINE
8
BLACK
6
CONTINUOUS
10
101.925
20
-92.35
11
101.925
21
-90.75
0
LINE
8
BLACK
6
CONTINUOUS
10
101.925
20
-90.75
11
102.475
21
-90.75
0
LINE
8
BLACK
6
CONTINUOUS
10
102.475
20
-90.75
11
102.475
21
-92.35
0
LINE
8
BLACK
6
CONTINUOUS
10
103.275
20
-92.35
11
102.725
21
-92.35
0
LINE
8
BLACK
6
CONTINUOUS
10
102.725
20
-92.35
11
102.725
21
-90.75
0
LINE
8
BLACK
6
CONTINUOUS
10
102.725
20
-90.75
11
103.275
21
-90.75
0
LINE
8
BLACK
6
CONTINUOUS
10
103.275
20
-90.75
11
103.275
21
-92.35
0
LINE
8
BLACK
6
CONTINUOUS
10
104.075
20
-92.35
11
103.525
21
-92.35
0
LINE
8
BLACK
6
CONTINUOUS
10
103.525
20
-92.35
11
103.525
21
-90.75
0
LINE
8
BLACK
6
CONTINUOUS
10
103.525
20
-90.75
11
104.075
21
-90.75
0
LINE
8
BLACK
6
CONTINUOUS
10
104.075
20
-90.75
11
104.075
21
-92.35
0
LINE
8
BLACK
6
CONTINUOUS
10
104.875
20
-92.35
11
104.325
21
-92.35
0
LINE
8
BLACK
6
CONTINUOUS
10
104.325
20
-92.35
11
104.325
21
-90.75
0
LINE
8
BLACK
6
CONTINUOUS
10
104.325
20
-90.75
11
104.875
21
-90.75
0
LINE
8
BLACK
6
CONTINUOUS
10
104.875
20
-90.75
11
104.875
21
-92.35
0
LINE
8
BLACK
6
CONTINUOUS
10
105.675
20
-92.35
11
105.125
21
-92.35
0
LINE
8
BLACK
6
CONTINUOUS
10
105.125
20
-92.35
11
105.125
21
-90.75
0
LINE
8
BLACK
6
CONTINUOUS
10
105.125
20
-90.75
11
105.675
21
-90.75
0
LINE
8
BLACK
6
CONTINUOUS
10
105.675
20
-90.75
11
105.675
21
-92.35
0
LINE
8
BLACK
6
CONTINUOUS
10
106.475
20
-92.35
11
105.925
21
-92.35
0
LINE
8
BLACK
6
CONTINUOUS
10
105.925
20
-92.35
11
105.925
21
-90.75
0
LINE
8
BLACK
6
CONTINUOUS
10
105.925
20
-90.75
11
106.475
21
-90.75
0
LINE
8
BLACK
6
CONTINUOUS
10
106.475
20
-90.75
11
106.475
21
-92.35
  0
ENDSEC
  0
EOF
