<?xml version="1.0" encoding="UTF-8" standalone="no"?>
<!-- Generator: Adobe Illustrator 16.0.0, SVG Export Plug-In . SVG Version: 6.00 Build 0)  -->

<svg
   xmlns:dc="http://purl.org/dc/elements/1.1/"
   xmlns:cc="http://creativecommons.org/ns#"
   xmlns:rdf="http://www.w3.org/1999/02/22-rdf-syntax-ns#"
   xmlns:svg="http://www.w3.org/2000/svg"
   xmlns="http://www.w3.org/2000/svg"
   xmlns:sodipodi="http://sodipodi.sourceforge.net/DTD/sodipodi-0.dtd"
   xmlns:inkscape="http://www.inkscape.org/namespaces/inkscape"
   version="1.1"
   id="Layer_1"
   x="0px"
   y="0px"
   width="841.89px"
   height="595.276px"
   viewBox="0 0 841.89 595.276"
   enable-background="new 0 0 841.89 595.276"
   xml:space="preserve"
   sodipodi:docname="pcb tracking ball_shape.svg"
   inkscape:version="0.92.3 (2405546, 2018-03-11)"><metadata
   id="metadata9"><rdf:RDF><cc:Work
       rdf:about=""><dc:format>image/svg+xml</dc:format><dc:type
         rdf:resource="http://purl.org/dc/dcmitype/StillImage" /><dc:title></dc:title></cc:Work></rdf:RDF></metadata><defs
   id="defs7" /><sodipodi:namedview
   pagecolor="#ffffff"
   bordercolor="#666666"
   borderopacity="1"
   objecttolerance="10"
   gridtolerance="10"
   guidetolerance="10"
   inkscape:pageopacity="0"
   inkscape:pageshadow="2"
   inkscape:window-width="2560"
   inkscape:window-height="1376"
   id="namedview5"
   showgrid="false"
   inkscape:zoom="0.27716832"
   inkscape:cx="1108.3969"
   inkscape:cy="1428.3702"
   inkscape:window-x="0"
   inkscape:window-y="27"
   inkscape:window-maximized="1"
   inkscape:current-layer="Layer_1" />
<path
   stroke-miterlimit="10"
   d="m 1924.8464,-3610.1692 -3.51,31.611 -7.02,31.613 -14.05,31.612 -17.562,28.099 -21.074,24.587 -28.1,17.562 -28.099,17.563 -31.612,10.537 -31.612,3.51 h -31.612 l -35.125,-3.51 -28.099,-10.537 -31.612,-17.563 -24.587,-17.562 -21.075,-24.587 -21.074,-28.099 -10.538,-31.612 -10.537,-31.613 v -31.611 -31.612 l 10.537,-31.612 10.538,-31.612 21.074,-28.1 21.075,-24.587 24.587,-21.074 31.612,-14.05 28.099,-10.537 35.125,-7.02 h 31.612 l 31.612,7.02 31.612,10.537 28.099,14.05 28.1,21.074 21.074,24.587 17.562,28.1 14.05,31.612 7.02,31.612 3.51,31.612 m 0,3238.46676 -3.51,31.577 -7.02,31.612 -14.05,31.57699 -17.562,28.134 -21.074,24.552 -28.1,17.563 -28.099,17.562 -31.612,10.572 -31.612,3.51 h -31.612 l -35.125,-3.51 -28.099,-10.572 -31.612,-17.562 -24.587,-17.563 -21.075,-24.552 -21.074,-28.134 -10.538,-31.57699 -10.537,-31.612 v -31.577 -31.612 l 10.537,-31.612 10.538,-31.57699 21.074,-28.099 21.075,-24.587 24.587,-21.11 31.612,-14.014 28.099,-10.538 35.125,-7.02 h 31.612 l 31.612,7.02 31.612,10.538 28.099,14.014 28.1,21.11 21.074,24.587 17.562,28.099 14.05,31.57699 7.02,31.612 3.51,31.612 m 3112.0198,0 3.51,-31.612 7.03,-31.612 14.014,-31.57699 17.562,-28.099 21.11,-24.587 28.1,-21.11 28.099,-14.014 31.612,-10.538 31.577,-7.02 h 35.124 l 31.612,7.02 31.612,10.538 28.1,14.014 24.587,21.11 24.552,24.587 17.562,28.099 14.049,31.57699 7.02,31.612 3.51,31.612 -3.51,31.577 -7.02,31.612 -14.049,31.57699 -17.562,28.134 -24.552,24.552 -24.587,17.563 -28.1,17.562 -31.612,10.572 -31.612,3.51 h -35.124 l -31.577,-3.51 -31.612,-10.572 -28.099,-17.562 -28.1,-17.563 -21.11,-24.552 -17.562,-28.134 -14.014,-31.57699 -7.03,-31.612 -3.51,-31.577 m 0,-3238.46676 3.51,-31.612 7.03,-31.612 14.014,-31.612 17.562,-28.1 21.11,-24.587 28.1,-21.074 28.099,-14.05 31.612,-10.537 31.577,-7.02 h 35.124 l 31.612,7.02 31.612,10.537 28.1,14.05 24.587,21.074 24.552,24.587 17.562,28.1 14.049,31.612 7.02,31.612 3.51,31.612 -3.51,31.611 -7.02,31.613 -14.049,31.612 -17.562,28.099 -24.552,24.587 -24.587,17.562 -28.1,17.563 -31.612,10.537 -31.612,3.51 h -35.124 l -31.577,-3.51 -31.612,-10.537 -28.099,-17.563 -28.1,-17.562 -21.11,-24.587 -17.562,-28.099 -14.014,-31.612 -7.03,-31.613 -3.51,-31.611 m 1187.2039,2641.3528 -3.55,-24.587 -10.537,-17.562 -10.537,-21.075 -17.562,-14.05 -21.075,-7.02 -21.11,-7.03 -24.587,3.51 -21.074,7.02 -17.562,10.537 -17.563,17.562 -10.537,17.562 -3.55,24.587 v 21.11 l 3.55,21.075 10.537,21.10999 17.563,14.014 17.562,14.05 21.074,7.03 h 24.587 l 21.11,-3.55 21.075,-10.537 17.562,-14.05 10.537,-17.56199 10.537,-21.075 3.55,-21.074 m 0,-2044.2389 -3.55,-21.075 -10.537,-21.074 -10.537,-17.562 -17.562,-17.563 -21.075,-7.02 -21.11,-3.51 h -24.587 l -21.074,7.02 -17.562,10.537 -17.563,17.563 -10.537,21.074 -3.55,21.075 v 21.074 l 3.55,21.075 10.537,21.075 17.563,17.562 17.562,10.537 21.074,7.02 h 24.587 l 21.11,-3.51 21.075,-7.02 17.562,-17.563 10.537,-17.562 10.537,-21.074 3.55,-21.075 m -5303.78062,2044.2389 -3.51,-24.587 -7.02,-17.562 -14.05,-21.075 -17.562,-14.05 -21.075,-7.02 -21.074,-7.03 -24.587,3.51 -21.07499,7.02 -17.562,10.537 -14.05,17.562 -10.537,17.562 -7.02,24.587 v 21.11 l 7.02,21.075 10.537,21.10999 14.05,14.014 17.562,14.05 21.07499,7.03 h 24.587 l 21.074,-3.55 21.075,-10.537 17.562,-14.05 14.05,-17.56199 7.02,-21.075 3.51,-21.074 m 0,-2044.2389 -3.51,-21.075 -7.02,-21.074 -14.05,-17.562 -17.562,-17.563 -21.075,-7.02 -21.074,-3.51 h -24.587 l -21.07499,7.02 -17.562,10.537 -14.05,17.563 -10.537,21.074 -7.02,21.075 v 21.074 l 7.02,21.075 10.537,21.075 14.05,17.562 17.562,10.537 21.07499,7.02 h 24.587 l 21.074,-3.51 21.075,-7.02 17.562,-17.563 14.05,-17.562 7.02,-21.074 3.51,-21.075 m 3984.33372,1032.797 -3.76,-90.761 -7.55,-90.797 -15.174,-87.003 -18.897,-90.761 -26.449,-87.003 -34.07,-83.21 -34.071,-83.245 -45.38,-79.451 -45.381,-75.658 -53.003,-75.658 -56.726,-68.071 -60.519,-68.071 -64.3129,-60.519 -71.899,-56.726 -71.83,-56.761 -75.658,-45.381 -79.451,-45.38 -83.209,-37.829 -83.21,-34.071 -87.038,-26.449 -87.003,-22.6899 -87.004,-15.139 -90.761,-11.345 -90.761,-3.76 -90.762,3.76 -87.038,7.55 -90.761,11.345 -87.003,18.9319 -87.038,26.484 -87.004,30.242 -83.244,34.071 -79.4169,41.587 -79.451,45.381 -71.865,49.174 -71.899,56.726 -68.071,60.519 -64.313,64.313 -56.726,68.071 -56.761,71.864 -49.174,75.658 -45.381,79.451 -37.828,79.452 -34.036,83.209 -30.242,87.003 -22.69,87.004 -15.139,87.038 -11.345,90.761 -7.55,90.762 v 90.761 l 7.55,90.796 11.345,87.0039 15.139,90.761 22.69,87.038 30.242,83.21 34.036,83.209 37.828,83.21 45.381,79.451 49.174,71.865 56.761,75.658 56.726,68.106 64.313,64.278 68.071,56.72499 71.899,56.761 71.865,52.968 79.451,45.38099 79.4169,41.622 83.244,34.071 87.004,30.242 87.038,22.69 87.003,18.93199 90.761,15.139 87.038,7.59 h 90.762 l 90.761,-3.79 90.761,-11.345 87.004,-15.13899 87.003,-22.69 87.038,-26.519 83.21,-34 83.209,-37.829 79.451,-41.65799 75.658,-49.139 71.83,-53.002 71.899,-56.69099 64.3129,-64.313 60.519,-64.313 56.726,-71.864 53.003,-71.865 45.381,-79.451 45.38,-79.416 34.071,-83.21 34.07,-83.245 26.449,-87.003 18.897,-87.003 15.174,-90.7959 7.55,-87.003 3.76,-90.797 m 873.367,-418.12 h 182.647 m -182.647,-94.836 v 94.836 m 182.647,-94.836 h -182.647 m 182.647,94.836 v -94.836 m -5405.6407,161.572 v -122.935 m -24.587,122.935 h 24.587 m -24.587,-122.935 v 122.935 m 24.587,-122.935 h -24.587 m 4815.5517,122.935 v -126.448 m -24.587,126.448 h 24.587 m -24.587,-126.448 v 126.448 m 24.587,-126.448 h -24.587 m -4639.93071,449.592 -7.02,-28.099 -14.05,-24.587 -24.58699,-14.05 -31.612,-7.02 -28.1,7.02 -24.587,14.05 -14.049,24.587 -7.02,28.099 m 0,0 7.02,28.1 14.049,24.587 24.587,17.562 28.1,3.51 31.612,-3.51 24.58699,-17.562 14.05,-24.587 7.02,-28.1 m 523.35401,0 -7.02,-31.612 -10.537,-31.612 -21.075,-24.587 -24.587,-17.562 -28.1,-14.05 -35.124,-3.51 -31.612,3.51 -31.612,14.05 -24.58703,17.562 -17.562,24.587 -14.04999,31.612 -3.51,31.612 m 0,0 3.51,35.125 14.04999,28.099 17.562,24.587 24.58703,21.075 31.612,10.537 31.612,7.02 35.124,-7.02 28.1,-10.537 24.587,-21.075 21.075,-24.587 10.537,-28.099 7.02,-35.125 m 5212.4566,0 -7.02,-28.099 -14.049,-24.587 -24.552,-17.563 -28.135,-3.51 -28.099,3.51 -24.588,17.563 -17.562,24.587 -3.51,28.099 m 0,0 3.51,28.1 17.562,24.587 24.588,14.05 28.099,7.02 28.135,-7.02 24.552,-14.05 14.049,-24.587 7.02,-28.1 m -5426.71563,-389.88 h 182.64703 m -182.64703,-94.836 v 94.836 m 182.64703,-94.836 H 990.53847 m 182.64703,94.836 v -94.836 m 3888.2677,1622.74589 -3.51,-28.099 -10.537,-28.13499 -10.538,-24.552 -17.562,-21.11 -21.11,-14.014 -24.587,-14.05 -24.552,-7.02 -28.134,-3.51 -28.1,3.51 -24.587,7.02 -24.552,14.05 -21.11,14.014 -17.562,21.11 -14.014,24.552 -7.02,28.13499 -3.55,28.099 3.55,24.587 7.02,28.1 14.014,24.587 17.562,21.074 21.11,17.56199 24.552,10.538 24.587,7.02 28.1,3.51 28.134,-3.51 24.552,-7.02 24.587,-10.538 21.11,-17.56199 17.562,-21.074 10.538,-24.587 10.537,-28.1 3.51,-24.587 m -2887.2238,-2240.93489 -3.51,-28.1 -7.02,-24.587 -14.05,-24.587 -17.562,-21.074 -21.074,-17.563 -24.587,-10.537 -24.588,-10.537 h -28.099 -28.1 l -24.587,10.537 -24.587,10.537 -21.074,17.563 -17.562,21.074 -10.538,24.587 -10.537,24.587 -3.51,28.1 3.51,28.099 10.537,24.587 10.538,24.587 17.562,21.075 21.074,17.562 24.587,14.05 24.587,7.03 28.1,3.51 28.099,-3.51 24.588,-7.03 24.587,-14.05 21.074,-17.562 17.562,-21.075 14.05,-24.587 7.02,-24.587 3.51,-28.099 M 6631.5131,323.76351 V -4305.6292 m 0,0 H 333.71252 m 0,0 V 323.76351 m 0,0 H 6631.5131 m -1570.0599,-3435.16381 -3.51,-28.1 -10.537,-24.587 -10.538,-24.587 -17.562,-21.074 -21.11,-17.563 -24.587,-10.537 -24.552,-10.537 h -28.099 -28.1 l -24.587,10.537 -24.552,10.537 -21.109,17.563 -17.563,21.074 -14.014,24.587 -7.02,24.587 -3.55,28.1 3.55,28.099 7.02,24.587 14.014,24.587 17.563,21.075 21.109,17.562 24.552,14.05 24.587,7.03 28.1,3.51 28.134,-3.51 24.552,-7.03 24.587,-14.05 21.11,-17.562 17.562,-21.075 10.538,-24.587 10.537,-24.587 3.48,-28.099 m -2887.2238,2240.93489 -3.51,-28.099 -7.02,-28.13499 -14.05,-24.552 -17.562,-21.11 -21.074,-14.014 -24.587,-14.05 -24.588,-7.02 -28.099,-3.51 -28.1,3.51 -24.587,7.02 -24.587,14.05 -21.074,14.014 -17.562,21.11 -10.538,24.552 -10.537,28.13499 -3.51,28.099 3.51,24.587 10.537,28.1 10.538,24.587 17.562,21.074 21.074,17.56199 24.587,10.538 24.587,7.02 28.1,3.51 28.099,-3.51 24.588,-7.02 24.587,-10.538 21.074,-17.56199 17.562,-21.074 14.05,-24.587 7.02,-28.1 3.51,-24.587 m 3821.5328,-1138.02989 -7.02,-35.124 -10.537,-28.1 -21.11,-24.587 -24.552,-21.074 -28.135,-10.538 -35.124,-7.02 -31.577,7.02 -31.612,10.538 -24.587,21.074 -17.562,24.587 -14.015,28.1 -3.55,35.124 m 0,0 3.55,31.612 14.015,31.612 17.562,24.587 24.587,17.562 31.612,14.05 31.577,3.51 35.124,-3.51 28.135,-14.05 24.552,-17.562 21.11,-24.587 10.537,-31.612 7.02,-31.612 m -523.354,0 -7.02,-28.099 -14.015,-24.587 -24.587,-17.563 -28.1,-3.51 -31.611,3.51 -24.588,17.563 -14.014,24.587 -7.02,28.099 m -0.071,0 7.02,28.1 14.015,24.587 24.587,14.05 31.612,7.02 28.1,-7.02 24.587,-14.05 14.014,-24.587 7.02,-28.1 m -3846.0488,0 -7.03,-28.099 -14.049,-24.587 -24.588,-14.05 -28.099,-7.02 -31.612,7.02 -21.075,14.05 -17.562,24.587 -3.51,28.099 m 0,0 3.51,28.1 17.562,24.587 21.075,17.562 31.612,3.51 28.099,-3.51 24.588,-17.562 14.049,-24.587 7.03,-28.1 m 4790.9657,-323.144 v -126.448 m -24.587,126.448 h 24.587 m -24.587,-126.448 v 126.448 m 24.587,-126.448 h -24.587 m -4766.3777,126.448 v -122.935 m -24.587,122.935 h 24.587 m -24.587,-122.935 v 122.935 m 24.587,-122.935 h -24.587 m -569.0149,1081.8299 h 87.811 m -87.811,-200.209 v 200.209 m 87.811,-200.209 h -87.811 m 87.811,200.209 v -200.209 m 4717.2037,200.209 h 77.274 m -77.274,-200.209 v 200.209 m 77.274,-200.209 h -77.274 m 77.274,200.209 v -200.209"
   id="path2"
   inkscape:connector-curvature="0"
   style="fill:none;stroke:#000000;stroke-width:26.8174572;stroke-linecap:round;stroke-linejoin:round;stroke-miterlimit:10" />
</svg>