G04 #@! TF.GenerationSoftware,KiCad,Pcbnew,5.0.0-rc2+dfsg1-3*
G04 #@! TF.CreationDate,2018-08-01T13:56:14+02:00*
G04 #@! TF.ProjectId,reform-trackball,7265666F726D2D747261636B62616C6C,rev?*
G04 #@! TF.SameCoordinates,Original*
G04 #@! TF.FileFunction,Paste,Top*
G04 #@! TF.FilePolarity,Positive*
%FSLAX46Y46*%
G04 Gerber Fmt 4.6, Leading zero omitted, Abs format (unit mm)*
G04 Created by KiCad (PCBNEW 5.0.0-rc2+dfsg1-3) date Wed Aug  1 13:56:14 2018*
%MOMM*%
%LPD*%
G01*
G04 APERTURE LIST*
%ADD10R,0.750000X1.200000*%
%ADD11R,1.200000X0.750000*%
%ADD12R,2.100000X1.800000*%
%ADD13R,0.900000X1.200000*%
%ADD14R,1.600000X0.550000*%
%ADD15R,0.550000X1.600000*%
G04 APERTURE END LIST*
D10*
G04 #@! TO.C,C1*
X116200000Y-95450000D03*
X116200000Y-93550000D03*
G04 #@! TD*
G04 #@! TO.C,C2*
X124000000Y-93550000D03*
X124000000Y-95450000D03*
G04 #@! TD*
D11*
G04 #@! TO.C,C3*
X106050000Y-102500000D03*
X107950000Y-102500000D03*
G04 #@! TD*
D10*
G04 #@! TO.C,C4*
X99300000Y-104550000D03*
X99300000Y-102650000D03*
G04 #@! TD*
D12*
G04 #@! TO.C,Y1*
X118550000Y-93350000D03*
X121450000Y-93350000D03*
X121450000Y-95650000D03*
X118550000Y-95650000D03*
G04 #@! TD*
D13*
G04 #@! TO.C,R1*
X111300000Y-119100000D03*
X111300000Y-116900000D03*
G04 #@! TD*
G04 #@! TO.C,R2*
X102700000Y-116900000D03*
X102700000Y-119100000D03*
G04 #@! TD*
D14*
G04 #@! TO.C,U1*
X107650000Y-98600000D03*
X107650000Y-97800000D03*
X107650000Y-97000000D03*
X107650000Y-96200000D03*
X107650000Y-95400000D03*
X107650000Y-94600000D03*
X107650000Y-93800000D03*
X107650000Y-93000000D03*
D15*
X106200000Y-91550000D03*
X105400000Y-91550000D03*
X104600000Y-91550000D03*
X103800000Y-91550000D03*
X103000000Y-91550000D03*
X102200000Y-91550000D03*
X101400000Y-91550000D03*
X100600000Y-91550000D03*
D14*
X99150000Y-93000000D03*
X99150000Y-93800000D03*
X99150000Y-94600000D03*
X99150000Y-95400000D03*
X99150000Y-96200000D03*
X99150000Y-97000000D03*
X99150000Y-97800000D03*
X99150000Y-98600000D03*
D15*
X100600000Y-100050000D03*
X101400000Y-100050000D03*
X102200000Y-100050000D03*
X103000000Y-100050000D03*
X103800000Y-100050000D03*
X104600000Y-100050000D03*
X105400000Y-100050000D03*
X106200000Y-100050000D03*
G04 #@! TD*
M02*
