G04 #@! TF.GenerationSoftware,KiCad,Pcbnew,5.0.0-rc2+dfsg1-3*
G04 #@! TF.CreationDate,2018-08-01T13:56:14+02:00*
G04 #@! TF.ProjectId,reform-trackball,7265666F726D2D747261636B62616C6C,rev?*
G04 #@! TF.SameCoordinates,Original*
G04 #@! TF.FileFunction,Copper,L1,Top,Signal*
G04 #@! TF.FilePolarity,Positive*
%FSLAX46Y46*%
G04 Gerber Fmt 4.6, Leading zero omitted, Abs format (unit mm)*
G04 Created by KiCad (PCBNEW 5.0.0-rc2+dfsg1-3) date Wed Aug  1 13:56:14 2018*
%MOMM*%
%LPD*%
G01*
G04 APERTURE LIST*
G04 #@! TA.AperFunction,SMDPad,CuDef*
%ADD10R,0.750000X1.200000*%
G04 #@! TD*
G04 #@! TA.AperFunction,SMDPad,CuDef*
%ADD11R,1.200000X0.750000*%
G04 #@! TD*
G04 #@! TA.AperFunction,SMDPad,CuDef*
%ADD12R,2.100000X1.800000*%
G04 #@! TD*
G04 #@! TA.AperFunction,ComponentPad*
%ADD13O,1.700000X1.700000*%
G04 #@! TD*
G04 #@! TA.AperFunction,ComponentPad*
%ADD14R,1.700000X1.700000*%
G04 #@! TD*
G04 #@! TA.AperFunction,ComponentPad*
%ADD15O,1.350000X1.350000*%
G04 #@! TD*
G04 #@! TA.AperFunction,ComponentPad*
%ADD16R,1.350000X1.350000*%
G04 #@! TD*
G04 #@! TA.AperFunction,SMDPad,CuDef*
%ADD17R,0.900000X1.200000*%
G04 #@! TD*
G04 #@! TA.AperFunction,ComponentPad*
%ADD18C,1.800000*%
G04 #@! TD*
G04 #@! TA.AperFunction,SMDPad,CuDef*
%ADD19R,1.600000X0.550000*%
G04 #@! TD*
G04 #@! TA.AperFunction,SMDPad,CuDef*
%ADD20R,0.550000X1.600000*%
G04 #@! TD*
G04 #@! TA.AperFunction,ViaPad*
%ADD21C,0.800000*%
G04 #@! TD*
G04 #@! TA.AperFunction,Conductor*
%ADD22C,0.300000*%
G04 #@! TD*
G04 #@! TA.AperFunction,Conductor*
%ADD23C,0.400000*%
G04 #@! TD*
G04 #@! TA.AperFunction,Conductor*
%ADD24C,0.254000*%
G04 #@! TD*
G04 APERTURE END LIST*
D10*
G04 #@! TO.P,C1,1*
G04 #@! TO.N,Net-(C1-Pad1)*
X116200000Y-95450000D03*
G04 #@! TO.P,C1,2*
G04 #@! TO.N,GND*
X116200000Y-93550000D03*
G04 #@! TD*
G04 #@! TO.P,C2,2*
G04 #@! TO.N,Net-(C2-Pad2)*
X124000000Y-93550000D03*
G04 #@! TO.P,C2,1*
G04 #@! TO.N,GND*
X124000000Y-95450000D03*
G04 #@! TD*
D11*
G04 #@! TO.P,C3,1*
G04 #@! TO.N,+5V*
X106050000Y-102500000D03*
G04 #@! TO.P,C3,2*
G04 #@! TO.N,GND*
X107950000Y-102500000D03*
G04 #@! TD*
D10*
G04 #@! TO.P,C4,2*
G04 #@! TO.N,GND*
X99300000Y-104550000D03*
G04 #@! TO.P,C4,1*
G04 #@! TO.N,Net-(C4-Pad1)*
X99300000Y-102650000D03*
G04 #@! TD*
D12*
G04 #@! TO.P,Y1,4*
G04 #@! TO.N,GND*
X118550000Y-93350000D03*
G04 #@! TO.P,Y1,3*
G04 #@! TO.N,Net-(C2-Pad2)*
X121450000Y-93350000D03*
G04 #@! TO.P,Y1,2*
G04 #@! TO.N,GND*
X121450000Y-95650000D03*
G04 #@! TO.P,Y1,1*
G04 #@! TO.N,Net-(C1-Pad1)*
X118550000Y-95650000D03*
G04 #@! TD*
D13*
G04 #@! TO.P,J6,2*
G04 #@! TO.N,+5V*
X138060000Y-92400000D03*
D14*
G04 #@! TO.P,J6,1*
G04 #@! TO.N,GND*
X140600000Y-92400000D03*
G04 #@! TD*
G04 #@! TO.P,J3,1*
G04 #@! TO.N,GND*
X108900000Y-116600000D03*
D13*
G04 #@! TO.P,J3,2*
G04 #@! TO.N,Net-(J3-Pad2)*
X108900000Y-119140000D03*
G04 #@! TD*
G04 #@! TO.P,J7,2*
G04 #@! TO.N,Net-(J7-Pad2)*
X100600000Y-119140000D03*
D14*
G04 #@! TO.P,J7,1*
G04 #@! TO.N,GND*
X100600000Y-116600000D03*
G04 #@! TD*
D15*
G04 #@! TO.P,J1,4*
G04 #@! TO.N,+5V*
X133500000Y-92500000D03*
G04 #@! TO.P,J1,3*
G04 #@! TO.N,Net-(J1-Pad3)*
X131500000Y-92500000D03*
G04 #@! TO.P,J1,2*
G04 #@! TO.N,Net-(J1-Pad2)*
X129500000Y-92500000D03*
D16*
G04 #@! TO.P,J1,1*
G04 #@! TO.N,GND*
X127500000Y-92500000D03*
G04 #@! TD*
D13*
G04 #@! TO.P,J2,8*
G04 #@! TO.N,RESET*
X138080000Y-131300000D03*
G04 #@! TO.P,J2,7*
G04 #@! TO.N,GND*
X135540000Y-131300000D03*
G04 #@! TO.P,J2,6*
G04 #@! TO.N,MT*
X133000000Y-131300000D03*
G04 #@! TO.P,J2,5*
G04 #@! TO.N,SS*
X130460000Y-131300000D03*
G04 #@! TO.P,J2,4*
G04 #@! TO.N,SCLK*
X127920000Y-131300000D03*
G04 #@! TO.P,J2,3*
G04 #@! TO.N,MOSI*
X125380000Y-131300000D03*
G04 #@! TO.P,J2,2*
G04 #@! TO.N,MISO*
X122840000Y-131300000D03*
D14*
G04 #@! TO.P,J2,1*
G04 #@! TO.N,+5V*
X120300000Y-131300000D03*
G04 #@! TD*
D17*
G04 #@! TO.P,R1,1*
G04 #@! TO.N,+5V*
X111300000Y-119100000D03*
G04 #@! TO.P,R1,2*
G04 #@! TO.N,Net-(J3-Pad2)*
X111300000Y-116900000D03*
G04 #@! TD*
G04 #@! TO.P,R2,2*
G04 #@! TO.N,Net-(J7-Pad2)*
X102700000Y-116900000D03*
G04 #@! TO.P,R2,1*
G04 #@! TO.N,+5V*
X102700000Y-119100000D03*
G04 #@! TD*
D18*
G04 #@! TO.P,SW2,4*
G04 #@! TO.N,GND*
X153200000Y-117956000D03*
G04 #@! TO.P,SW2,2*
G04 #@! TO.N,Net-(SW2-Pad2)*
X153200000Y-109048000D03*
G04 #@! TO.P,SW2,3*
G04 #@! TO.N,Net-(SW2-Pad3)*
X158310000Y-109048000D03*
G04 #@! TO.P,SW2,1*
G04 #@! TO.N,Net-(SW2-Pad1)*
X148140000Y-109048000D03*
G04 #@! TD*
G04 #@! TO.P,SW1,1*
G04 #@! TO.N,Net-(SW1-Pad1)*
X100040000Y-109048000D03*
G04 #@! TO.P,SW1,3*
G04 #@! TO.N,Net-(SW1-Pad3)*
X110210000Y-109048000D03*
G04 #@! TO.P,SW1,2*
G04 #@! TO.N,Net-(SW1-Pad2)*
X105100000Y-109048000D03*
G04 #@! TO.P,SW1,4*
G04 #@! TO.N,GND*
X105100000Y-117956000D03*
G04 #@! TD*
D19*
G04 #@! TO.P,U1,1*
G04 #@! TO.N,Net-(C1-Pad1)*
X107650000Y-98600000D03*
G04 #@! TO.P,U1,2*
G04 #@! TO.N,Net-(C2-Pad2)*
X107650000Y-97800000D03*
G04 #@! TO.P,U1,3*
G04 #@! TO.N,GND*
X107650000Y-97000000D03*
G04 #@! TO.P,U1,4*
G04 #@! TO.N,+5V*
X107650000Y-96200000D03*
G04 #@! TO.P,U1,5*
G04 #@! TO.N,Net-(U1-Pad5)*
X107650000Y-95400000D03*
G04 #@! TO.P,U1,6*
G04 #@! TO.N,Net-(SW2-Pad2)*
X107650000Y-94600000D03*
G04 #@! TO.P,U1,7*
G04 #@! TO.N,Net-(SW1-Pad2)*
X107650000Y-93800000D03*
G04 #@! TO.P,U1,8*
G04 #@! TO.N,Net-(U1-Pad8)*
X107650000Y-93000000D03*
D20*
G04 #@! TO.P,U1,9*
G04 #@! TO.N,Net-(U1-Pad9)*
X106200000Y-91550000D03*
G04 #@! TO.P,U1,10*
G04 #@! TO.N,Net-(U1-Pad10)*
X105400000Y-91550000D03*
G04 #@! TO.P,U1,11*
G04 #@! TO.N,Net-(U1-Pad11)*
X104600000Y-91550000D03*
G04 #@! TO.P,U1,12*
G04 #@! TO.N,Net-(U1-Pad12)*
X103800000Y-91550000D03*
G04 #@! TO.P,U1,13*
G04 #@! TO.N,Net-(J7-Pad2)*
X103000000Y-91550000D03*
G04 #@! TO.P,U1,14*
G04 #@! TO.N,Net-(U1-Pad14)*
X102200000Y-91550000D03*
G04 #@! TO.P,U1,15*
G04 #@! TO.N,SCLK*
X101400000Y-91550000D03*
G04 #@! TO.P,U1,16*
G04 #@! TO.N,MOSI*
X100600000Y-91550000D03*
D19*
G04 #@! TO.P,U1,17*
G04 #@! TO.N,MISO*
X99150000Y-93000000D03*
G04 #@! TO.P,U1,18*
G04 #@! TO.N,Net-(U1-Pad18)*
X99150000Y-93800000D03*
G04 #@! TO.P,U1,19*
G04 #@! TO.N,MT*
X99150000Y-94600000D03*
G04 #@! TO.P,U1,20*
G04 #@! TO.N,RESET*
X99150000Y-95400000D03*
G04 #@! TO.P,U1,21*
G04 #@! TO.N,SS*
X99150000Y-96200000D03*
G04 #@! TO.P,U1,22*
G04 #@! TO.N,Net-(U1-Pad22)*
X99150000Y-97000000D03*
G04 #@! TO.P,U1,23*
G04 #@! TO.N,Net-(U1-Pad23)*
X99150000Y-97800000D03*
G04 #@! TO.P,U1,24*
G04 #@! TO.N,Net-(J3-Pad2)*
X99150000Y-98600000D03*
D20*
G04 #@! TO.P,U1,25*
G04 #@! TO.N,Net-(U1-Pad25)*
X100600000Y-100050000D03*
G04 #@! TO.P,U1,26*
G04 #@! TO.N,Net-(U1-Pad26)*
X101400000Y-100050000D03*
G04 #@! TO.P,U1,27*
G04 #@! TO.N,Net-(C4-Pad1)*
X102200000Y-100050000D03*
G04 #@! TO.P,U1,28*
G04 #@! TO.N,GND*
X103000000Y-100050000D03*
G04 #@! TO.P,U1,29*
G04 #@! TO.N,Net-(J1-Pad2)*
X103800000Y-100050000D03*
G04 #@! TO.P,U1,30*
G04 #@! TO.N,Net-(J1-Pad3)*
X104600000Y-100050000D03*
G04 #@! TO.P,U1,31*
G04 #@! TO.N,+5V*
X105400000Y-100050000D03*
G04 #@! TO.P,U1,32*
X106200000Y-100050000D03*
G04 #@! TD*
D21*
G04 #@! TO.N,Net-(J1-Pad3)*
X108000000Y-91250000D03*
X105855757Y-93106035D03*
G04 #@! TO.N,Net-(J1-Pad2)*
X109250000Y-91750000D03*
X104756643Y-93061577D03*
G04 #@! TO.N,GND*
X115000000Y-92650000D03*
X111800000Y-92500000D03*
X118700000Y-99000000D03*
X136300000Y-97300000D03*
X127600000Y-95400000D03*
X107500000Y-108800000D03*
X113300000Y-107100000D03*
X107400000Y-112500000D03*
X111900000Y-113800000D03*
X104600000Y-106500000D03*
X154800000Y-129700000D03*
X154500000Y-95300000D03*
X101500000Y-132100000D03*
G04 #@! TO.N,Net-(SW1-Pad2)*
X106000000Y-104100000D03*
X106000034Y-95300000D03*
G04 #@! TO.N,Net-(SW2-Pad2)*
X139600000Y-95000000D03*
X109213596Y-92913596D03*
G04 #@! TO.N,+5V*
X114200000Y-117500000D03*
X112500000Y-120300000D03*
G04 #@! TO.N,RESET*
X100413023Y-95400002D03*
G04 #@! TO.N,MT*
X101249979Y-106551140D03*
X100650012Y-97619808D03*
G04 #@! TO.N,SS*
X100625926Y-96482101D03*
X101500000Y-110500000D03*
G04 #@! TO.N,SCLK*
X104200000Y-97300000D03*
G04 #@! TO.N,MOSI*
X109500000Y-125600000D03*
X102200000Y-98549982D03*
G04 #@! TO.N,MISO*
X99900000Y-123300000D03*
X102349424Y-96325965D03*
G04 #@! TO.N,Net-(J7-Pad2)*
X103991985Y-116534926D03*
X103660696Y-93156054D03*
G04 #@! TD*
D22*
G04 #@! TO.N,Net-(J1-Pad3)*
X108399999Y-90850001D02*
X108000000Y-91250000D01*
X131500000Y-92500000D02*
X129599978Y-90599978D01*
X108650022Y-90599978D02*
X108399999Y-90850001D01*
X129599978Y-90599978D02*
X108650022Y-90599978D01*
X105650013Y-97956534D02*
X105650013Y-96405055D01*
X105855757Y-93526721D02*
X105855757Y-93106035D01*
X104600000Y-100050000D02*
X104600000Y-99006547D01*
X105150024Y-95905066D02*
X105150024Y-94232454D01*
X105150024Y-94232454D02*
X105855757Y-93526721D01*
X104600000Y-99006547D02*
X105650013Y-97956534D01*
X105650013Y-96405055D02*
X105150024Y-95905066D01*
G04 #@! TO.N,Net-(J1-Pad2)*
X109649999Y-91350001D02*
X109250000Y-91750000D01*
X128199989Y-91199989D02*
X109800011Y-91199989D01*
X109800011Y-91199989D02*
X109649999Y-91350001D01*
X129500000Y-92500000D02*
X128199989Y-91199989D01*
X103800000Y-100050000D02*
X103800000Y-98950000D01*
X104756643Y-93627262D02*
X104756643Y-93061577D01*
X105050002Y-96891998D02*
X104550013Y-96392009D01*
X103800000Y-98950000D02*
X105050002Y-97699998D01*
X105050002Y-97699998D02*
X105050002Y-96891998D01*
X104550013Y-93833892D02*
X104756643Y-93627262D01*
X104550013Y-96392009D02*
X104550013Y-93833892D01*
D23*
G04 #@! TO.N,GND*
X127500000Y-92725000D02*
X127500000Y-92500000D01*
X124775000Y-95450000D02*
X127500000Y-92725000D01*
X124000000Y-95450000D02*
X124775000Y-95450000D01*
X118000000Y-92800000D02*
X118550000Y-93350000D01*
X118350000Y-93550000D02*
X118550000Y-93350000D01*
X116200000Y-93550000D02*
X118350000Y-93550000D01*
X121650000Y-95450000D02*
X121450000Y-95650000D01*
X124000000Y-95450000D02*
X121650000Y-95450000D01*
X116200000Y-93550000D02*
X115900000Y-93550000D01*
X115900000Y-93550000D02*
X115000000Y-92650000D01*
X111400001Y-92899999D02*
X111800000Y-92500000D01*
X111100001Y-92899999D02*
X111400001Y-92899999D01*
X108850000Y-97000000D02*
X109100000Y-96750000D01*
X109550012Y-94449988D02*
X111100001Y-92899999D01*
X109100000Y-96750000D02*
X109100000Y-95154256D01*
X109100000Y-95154256D02*
X109550012Y-94704244D01*
X107650000Y-97000000D02*
X108850000Y-97000000D01*
X109550012Y-94704244D02*
X109550012Y-94449988D01*
X100075000Y-104550000D02*
X99300000Y-104550000D01*
X103000000Y-100050000D02*
X103000000Y-101625000D01*
X101325000Y-103300000D02*
X100075000Y-104550000D01*
X103000000Y-101625000D02*
X101325000Y-103300000D01*
D22*
G04 #@! TO.N,Net-(SW1-Pad2)*
X106000034Y-94734315D02*
X106000034Y-95300000D01*
X106000034Y-94349966D02*
X106000034Y-94734315D01*
X106550000Y-93800000D02*
X106000034Y-94349966D01*
X107650000Y-93800000D02*
X106550000Y-93800000D01*
X105700000Y-108448000D02*
X105100000Y-109048000D01*
X106000000Y-104100000D02*
X105700000Y-104400000D01*
X105700000Y-104400000D02*
X105700000Y-108448000D01*
G04 #@! TO.N,Net-(SW2-Pad2)*
X140424792Y-95000000D02*
X140165685Y-95000000D01*
X140165685Y-95000000D02*
X139600000Y-95000000D01*
X153200000Y-107775208D02*
X140424792Y-95000000D01*
X153200000Y-109048000D02*
X153200000Y-107775208D01*
X107650000Y-94600000D02*
X108735002Y-94600000D01*
X108900001Y-94435001D02*
X108900001Y-93792876D01*
X109213596Y-93479281D02*
X109213596Y-92913596D01*
X108900001Y-93792876D02*
X109213596Y-93479281D01*
X108735002Y-94600000D02*
X108900001Y-94435001D01*
D23*
G04 #@! TO.N,+5V*
X106050000Y-100200000D02*
X106200000Y-100050000D01*
X106050000Y-102500000D02*
X106050000Y-100200000D01*
X106200000Y-100050000D02*
X105400000Y-100050000D01*
X133600000Y-92400000D02*
X133500000Y-92500000D01*
X138060000Y-92400000D02*
X133600000Y-92400000D01*
X111300000Y-120100000D02*
X107999998Y-123400002D01*
X119050000Y-131300000D02*
X120300000Y-131300000D01*
X107999998Y-123400002D02*
X107999998Y-130699998D01*
X110200000Y-132900000D02*
X117450000Y-132900000D01*
X117450000Y-132900000D02*
X119050000Y-131300000D01*
X107999998Y-130699998D02*
X110200000Y-132900000D01*
X111300000Y-119100000D02*
X111300000Y-120100000D01*
X107850002Y-123400002D02*
X107999998Y-123400002D01*
X103550000Y-119100000D02*
X107850002Y-123400002D01*
X102700000Y-119100000D02*
X103550000Y-119100000D01*
X114500000Y-105900000D02*
X114500000Y-110500000D01*
X114500000Y-110500000D02*
X114200000Y-110800000D01*
X114200000Y-110800000D02*
X114200000Y-117500000D01*
X112500000Y-120300000D02*
X111300000Y-119100000D01*
X109300000Y-105900000D02*
X114500000Y-105900000D01*
X106050000Y-102500000D02*
X106050000Y-102650000D01*
X106050000Y-102650000D02*
X109300000Y-105900000D01*
X106300024Y-98749976D02*
X106300024Y-96349976D01*
X106200000Y-98850000D02*
X106300024Y-98749976D01*
X106200000Y-100050000D02*
X106200000Y-98850000D01*
X106450000Y-96200000D02*
X107650000Y-96200000D01*
X106300024Y-96349976D02*
X106450000Y-96200000D01*
X128750000Y-97250000D02*
X133500000Y-92500000D01*
X123850000Y-97250000D02*
X128750000Y-97250000D01*
X114500000Y-105900000D02*
X115200000Y-105900000D01*
X115200000Y-105900000D02*
X123850000Y-97250000D01*
D22*
G04 #@! TO.N,Net-(J3-Pad2)*
X111140000Y-116900000D02*
X111300000Y-116900000D01*
X108900000Y-119140000D02*
X111140000Y-116900000D01*
X108050001Y-118290001D02*
X108900000Y-119140000D01*
X101600000Y-113148543D02*
X104151468Y-115700011D01*
X101600000Y-112100000D02*
X101600000Y-113148543D01*
X100400000Y-110900000D02*
X101600000Y-112100000D01*
X99400000Y-110900000D02*
X100400000Y-110900000D01*
X99150000Y-99175000D02*
X98400000Y-99925000D01*
X99150000Y-98600000D02*
X99150000Y-99175000D01*
X98600000Y-109100000D02*
X98600000Y-110100000D01*
X98400000Y-99925000D02*
X98400000Y-108900000D01*
X105460011Y-115700011D02*
X108050001Y-118290001D01*
X104151468Y-115700011D02*
X105460011Y-115700011D01*
X98400000Y-108900000D02*
X98600000Y-109100000D01*
X98600000Y-110100000D02*
X99400000Y-110900000D01*
G04 #@! TO.N,RESET*
X99150000Y-95400000D02*
X100413021Y-95400000D01*
X100413021Y-95400000D02*
X100413023Y-95400002D01*
G04 #@! TO.N,MT*
X99199999Y-94550001D02*
X100821024Y-94550001D01*
X101499414Y-97336091D02*
X101215697Y-97619808D01*
X101499414Y-95228391D02*
X101499414Y-97336091D01*
X100821024Y-94550001D02*
X101499414Y-95228391D01*
X101215697Y-97619808D02*
X100650012Y-97619808D01*
X99150000Y-94600000D02*
X99199999Y-94550001D01*
X123800000Y-127400000D02*
X124900000Y-128500000D01*
X122600000Y-127400000D02*
X123800000Y-127400000D01*
X130200000Y-128500000D02*
X133000000Y-131300000D01*
X102300011Y-107601172D02*
X102300011Y-108700011D01*
X113000000Y-117800000D02*
X122600000Y-127400000D01*
X113000000Y-111651457D02*
X113000000Y-117800000D01*
X101249979Y-106551140D02*
X102300011Y-107601172D01*
X102300011Y-108700011D02*
X104400000Y-110800000D01*
X104400000Y-110800000D02*
X112148543Y-110800000D01*
X124900000Y-128500000D02*
X130200000Y-128500000D01*
X112148543Y-110800000D02*
X113000000Y-111651457D01*
G04 #@! TO.N,SS*
X100065685Y-96200000D02*
X100347786Y-96482101D01*
X100347786Y-96482101D02*
X100625926Y-96482101D01*
X99150000Y-96200000D02*
X100065685Y-96200000D01*
X112399989Y-118048532D02*
X112399989Y-115700000D01*
X122451457Y-128100000D02*
X112399989Y-118048532D01*
X124651468Y-129100011D02*
X123651458Y-128100000D01*
X102200011Y-111200011D02*
X101899999Y-110899999D01*
X111799989Y-115100000D02*
X104400000Y-115100000D01*
X112399989Y-115700000D02*
X111799989Y-115100000D01*
X101899999Y-110899999D02*
X101500000Y-110500000D01*
X104400000Y-115100000D02*
X102200011Y-112900011D01*
X102200011Y-112900011D02*
X102200011Y-111200011D01*
X130460000Y-131300000D02*
X128260011Y-129100011D01*
X123651458Y-128100000D02*
X122451457Y-128100000D01*
X128260011Y-129100011D02*
X124651468Y-129100011D01*
G04 #@! TO.N,SCLK*
X103850002Y-94915686D02*
X103850002Y-96950002D01*
X103850002Y-96950002D02*
X104200000Y-97300000D01*
X101400000Y-92465684D02*
X103850002Y-94915686D01*
X101400000Y-91550000D02*
X101400000Y-92465684D01*
G04 #@! TO.N,MOSI*
X112200001Y-125600000D02*
X110065685Y-125600000D01*
X110065685Y-125600000D02*
X109500000Y-125600000D01*
X115900001Y-129300000D02*
X112200001Y-125600000D01*
X125380000Y-131300000D02*
X123380000Y-129300000D01*
X123380000Y-129300000D02*
X115900001Y-129300000D01*
X100600000Y-91550000D02*
X100600000Y-92631892D01*
X103199425Y-97550557D02*
X102599999Y-98149983D01*
X100600000Y-92631892D02*
X103199425Y-95231317D01*
X103199425Y-95231317D02*
X103199425Y-97550557D01*
X102599999Y-98149983D02*
X102200000Y-98549982D01*
G04 #@! TO.N,MISO*
X99900000Y-124800000D02*
X99900000Y-123300000D01*
X109200000Y-134100000D02*
X99900000Y-124800000D01*
X122840000Y-131300000D02*
X120040000Y-134100000D01*
X120040000Y-134100000D02*
X109200000Y-134100000D01*
X102349424Y-95229859D02*
X102349424Y-95760280D01*
X99150000Y-93000000D02*
X100119565Y-93000000D01*
X102349424Y-95760280D02*
X102349424Y-96325965D01*
X100119565Y-93000000D02*
X102349424Y-95229859D01*
G04 #@! TO.N,Net-(C1-Pad1)*
X112948543Y-100300000D02*
X109875000Y-100300000D01*
X108175000Y-98600000D02*
X107650000Y-98600000D01*
X109875000Y-100300000D02*
X108175000Y-98600000D01*
X118550000Y-95650000D02*
X118400000Y-95650000D01*
X118400000Y-95650000D02*
X117200000Y-96850000D01*
X117200000Y-96850000D02*
X116398543Y-96850000D01*
X116398543Y-96850000D02*
X112948543Y-100300000D01*
X118350000Y-95450000D02*
X118550000Y-95650000D01*
X116200000Y-95450000D02*
X118350000Y-95450000D01*
G04 #@! TO.N,Net-(C2-Pad2)*
X123800000Y-93350000D02*
X124000000Y-93550000D01*
X121450000Y-93350000D02*
X123800000Y-93350000D01*
X108900001Y-97964999D02*
X108810001Y-97874999D01*
X108900001Y-98400001D02*
X108900001Y-97964999D01*
X110199989Y-99699989D02*
X108900001Y-98400001D01*
X121300000Y-93350000D02*
X119750000Y-91800000D01*
X108810001Y-97874999D02*
X108374999Y-97874999D01*
X112700011Y-99699989D02*
X110199989Y-99699989D01*
X121450000Y-93350000D02*
X121300000Y-93350000D01*
X108300000Y-97800000D02*
X107650000Y-97800000D01*
X115000000Y-94200000D02*
X115000000Y-97400000D01*
X119750000Y-91800000D02*
X114500000Y-91800000D01*
X108374999Y-97874999D02*
X108300000Y-97800000D01*
X114000000Y-93200000D02*
X115000000Y-94200000D01*
X114500000Y-91800000D02*
X114000000Y-92300000D01*
X115000000Y-97400000D02*
X112700011Y-99699989D01*
X114000000Y-92300000D02*
X114000000Y-93200000D01*
G04 #@! TO.N,Net-(C4-Pad1)*
X102200000Y-101150000D02*
X102200000Y-100050000D01*
X102049999Y-101300001D02*
X102200000Y-101150000D01*
X101324999Y-101300001D02*
X102049999Y-101300001D01*
X99975000Y-102650000D02*
X101324999Y-101300001D01*
X99300000Y-102650000D02*
X99975000Y-102650000D01*
G04 #@! TO.N,Net-(J7-Pad2)*
X102700000Y-117050000D02*
X100610000Y-119140000D01*
X100610000Y-119140000D02*
X100600000Y-119140000D01*
X102700000Y-116900000D02*
X102700000Y-117050000D01*
X102700000Y-116900000D02*
X103626911Y-116900000D01*
X103626911Y-116900000D02*
X103991985Y-116534926D01*
X103000000Y-91550000D02*
X103000000Y-92650000D01*
X103506054Y-93156054D02*
X103660696Y-93156054D01*
X103000000Y-92650000D02*
X103506054Y-93156054D01*
G04 #@! TD*
D24*
G04 #@! TO.N,GND*
G36*
X160065001Y-135815000D02*
X98185000Y-135815000D01*
X98185000Y-115623690D01*
X99115000Y-115623690D01*
X99115000Y-116314250D01*
X99273750Y-116473000D01*
X100473000Y-116473000D01*
X100473000Y-115273750D01*
X100314250Y-115115000D01*
X99623691Y-115115000D01*
X99390302Y-115211673D01*
X99211673Y-115390301D01*
X99115000Y-115623690D01*
X98185000Y-115623690D01*
X98185000Y-110795157D01*
X98790253Y-111400411D01*
X98834047Y-111465953D01*
X98899589Y-111509747D01*
X98899591Y-111509749D01*
X98995962Y-111574142D01*
X99093708Y-111639454D01*
X99196131Y-111659827D01*
X98804659Y-112051299D01*
X98590000Y-112569533D01*
X98590000Y-113130467D01*
X98804659Y-113648701D01*
X99201299Y-114045341D01*
X99719533Y-114260000D01*
X100280467Y-114260000D01*
X100798701Y-114045341D01*
X101091295Y-113752747D01*
X101099590Y-113758290D01*
X102993860Y-115652560D01*
X102250000Y-115652560D01*
X102085000Y-115685380D01*
X102085000Y-115623690D01*
X101988327Y-115390301D01*
X101809698Y-115211673D01*
X101576309Y-115115000D01*
X100885750Y-115115000D01*
X100727000Y-115273750D01*
X100727000Y-116473000D01*
X100747000Y-116473000D01*
X100747000Y-116727000D01*
X100727000Y-116727000D01*
X100727000Y-116747000D01*
X100473000Y-116747000D01*
X100473000Y-116727000D01*
X99273750Y-116727000D01*
X99115000Y-116885750D01*
X99115000Y-117576310D01*
X99211673Y-117809699D01*
X99390302Y-117988327D01*
X99551033Y-118054904D01*
X99529375Y-118069375D01*
X99201161Y-118560582D01*
X99085908Y-119140000D01*
X99201161Y-119719418D01*
X99529375Y-120210625D01*
X100020582Y-120538839D01*
X100453744Y-120625000D01*
X100746256Y-120625000D01*
X101179418Y-120538839D01*
X101670625Y-120210625D01*
X101749053Y-120093249D01*
X101792191Y-120157809D01*
X102002235Y-120298157D01*
X102250000Y-120347440D01*
X103150000Y-120347440D01*
X103397765Y-120298157D01*
X103499387Y-120230255D01*
X107164998Y-123895866D01*
X107164999Y-130617760D01*
X107148641Y-130699998D01*
X107207857Y-130997699D01*
X100685000Y-124474843D01*
X100685000Y-123978711D01*
X100777431Y-123886280D01*
X100871163Y-123659991D01*
X101129138Y-124282799D01*
X101617201Y-124770862D01*
X102254887Y-125035000D01*
X102945113Y-125035000D01*
X103582799Y-124770862D01*
X104070862Y-124282799D01*
X104335000Y-123645113D01*
X104335000Y-122954887D01*
X104070862Y-122317201D01*
X103582799Y-121829138D01*
X102945113Y-121565000D01*
X102254887Y-121565000D01*
X101617201Y-121829138D01*
X101129138Y-122317201D01*
X100871163Y-122940009D01*
X100777431Y-122713720D01*
X100486280Y-122422569D01*
X100105874Y-122265000D01*
X99694126Y-122265000D01*
X99313720Y-122422569D01*
X99022569Y-122713720D01*
X98865000Y-123094126D01*
X98865000Y-123505874D01*
X99022569Y-123886280D01*
X99115001Y-123978712D01*
X99115000Y-124722688D01*
X99099622Y-124800000D01*
X99115000Y-124877312D01*
X99115000Y-124877315D01*
X99160546Y-125106291D01*
X99234816Y-125217443D01*
X99334047Y-125365953D01*
X99399592Y-125409749D01*
X108590253Y-134600411D01*
X108634047Y-134665953D01*
X108699589Y-134709747D01*
X108699591Y-134709749D01*
X108774625Y-134759885D01*
X108893708Y-134839454D01*
X109122684Y-134885000D01*
X109122688Y-134885000D01*
X109199999Y-134900378D01*
X109277310Y-134885000D01*
X119962688Y-134885000D01*
X120040000Y-134900378D01*
X120117312Y-134885000D01*
X120117316Y-134885000D01*
X120346292Y-134839454D01*
X120605953Y-134665953D01*
X120649749Y-134600408D01*
X122503082Y-132747075D01*
X122693744Y-132785000D01*
X122986256Y-132785000D01*
X123419418Y-132698839D01*
X123910625Y-132370625D01*
X124110000Y-132072239D01*
X124309375Y-132370625D01*
X124800582Y-132698839D01*
X125233744Y-132785000D01*
X125526256Y-132785000D01*
X125959418Y-132698839D01*
X126450625Y-132370625D01*
X126650000Y-132072239D01*
X126849375Y-132370625D01*
X127340582Y-132698839D01*
X127773744Y-132785000D01*
X128066256Y-132785000D01*
X128499418Y-132698839D01*
X128990625Y-132370625D01*
X129190000Y-132072239D01*
X129389375Y-132370625D01*
X129880582Y-132698839D01*
X130313744Y-132785000D01*
X130606256Y-132785000D01*
X131039418Y-132698839D01*
X131530625Y-132370625D01*
X131730000Y-132072239D01*
X131929375Y-132370625D01*
X132420582Y-132698839D01*
X132853744Y-132785000D01*
X133146256Y-132785000D01*
X133579418Y-132698839D01*
X134070625Y-132370625D01*
X134283843Y-132051522D01*
X134344817Y-132181358D01*
X134773076Y-132571645D01*
X135183110Y-132741476D01*
X135413000Y-132620155D01*
X135413000Y-131427000D01*
X135393000Y-131427000D01*
X135393000Y-131173000D01*
X135413000Y-131173000D01*
X135413000Y-129979845D01*
X135667000Y-129979845D01*
X135667000Y-131173000D01*
X135687000Y-131173000D01*
X135687000Y-131427000D01*
X135667000Y-131427000D01*
X135667000Y-132620155D01*
X135896890Y-132741476D01*
X136306924Y-132571645D01*
X136735183Y-132181358D01*
X136796157Y-132051522D01*
X137009375Y-132370625D01*
X137500582Y-132698839D01*
X137933744Y-132785000D01*
X138226256Y-132785000D01*
X138659418Y-132698839D01*
X139150625Y-132370625D01*
X139478839Y-131879418D01*
X139594092Y-131300000D01*
X139478839Y-130720582D01*
X139150625Y-130229375D01*
X138659418Y-129901161D01*
X138226256Y-129815000D01*
X137933744Y-129815000D01*
X137500582Y-129901161D01*
X137009375Y-130229375D01*
X136796157Y-130548478D01*
X136735183Y-130418642D01*
X136306924Y-130028355D01*
X135896890Y-129858524D01*
X135667000Y-129979845D01*
X135413000Y-129979845D01*
X135183110Y-129858524D01*
X134773076Y-130028355D01*
X134344817Y-130418642D01*
X134283843Y-130548478D01*
X134070625Y-130229375D01*
X133579418Y-129901161D01*
X133146256Y-129815000D01*
X132853744Y-129815000D01*
X132663082Y-129852925D01*
X131586023Y-128775866D01*
X144165000Y-128775866D01*
X144165000Y-129824134D01*
X144566155Y-130792608D01*
X145307392Y-131533845D01*
X146275866Y-131935000D01*
X147324134Y-131935000D01*
X148292608Y-131533845D01*
X149033845Y-130792608D01*
X149435000Y-129824134D01*
X149435000Y-128775866D01*
X149033845Y-127807392D01*
X148292608Y-127066155D01*
X147324134Y-126665000D01*
X146275866Y-126665000D01*
X145307392Y-127066155D01*
X144566155Y-127807392D01*
X144165000Y-128775866D01*
X131586023Y-128775866D01*
X130809748Y-127999591D01*
X130765953Y-127934047D01*
X130718539Y-127902366D01*
X132230228Y-127699321D01*
X133750213Y-127327383D01*
X135222068Y-126796031D01*
X136629125Y-126111283D01*
X137955452Y-125280892D01*
X139186029Y-124314261D01*
X139657031Y-123855431D01*
X141365000Y-123855431D01*
X141365000Y-124744569D01*
X141705259Y-125566026D01*
X142333974Y-126194741D01*
X143155431Y-126535000D01*
X144044569Y-126535000D01*
X144866026Y-126194741D01*
X145494741Y-125566026D01*
X145835000Y-124744569D01*
X145835000Y-123855431D01*
X145494741Y-123033974D01*
X145415654Y-122954887D01*
X154065000Y-122954887D01*
X154065000Y-123645113D01*
X154329138Y-124282799D01*
X154817201Y-124770862D01*
X155454887Y-125035000D01*
X156145113Y-125035000D01*
X156782799Y-124770862D01*
X157270862Y-124282799D01*
X157535000Y-123645113D01*
X157535000Y-122954887D01*
X157270862Y-122317201D01*
X156782799Y-121829138D01*
X156145113Y-121565000D01*
X155454887Y-121565000D01*
X154817201Y-121829138D01*
X154329138Y-122317201D01*
X154065000Y-122954887D01*
X145415654Y-122954887D01*
X144866026Y-122405259D01*
X144044569Y-122065000D01*
X143155431Y-122065000D01*
X142333974Y-122405259D01*
X141705259Y-123033974D01*
X141365000Y-123855431D01*
X139657031Y-123855431D01*
X140306919Y-123222338D01*
X141305431Y-122017487D01*
X142170257Y-120713352D01*
X142891603Y-119324701D01*
X143004391Y-119036159D01*
X152299446Y-119036159D01*
X152385852Y-119292643D01*
X152959336Y-119502458D01*
X153569460Y-119476839D01*
X154014148Y-119292643D01*
X154100554Y-119036159D01*
X153200000Y-118135605D01*
X152299446Y-119036159D01*
X143004391Y-119036159D01*
X143461302Y-117867259D01*
X143502720Y-117715336D01*
X151653542Y-117715336D01*
X151679161Y-118325460D01*
X151863357Y-118770148D01*
X152119841Y-118856554D01*
X153020395Y-117956000D01*
X153379605Y-117956000D01*
X154280159Y-118856554D01*
X154536643Y-118770148D01*
X154746458Y-118196664D01*
X154720839Y-117586540D01*
X154536643Y-117141852D01*
X154280159Y-117055446D01*
X153379605Y-117956000D01*
X153020395Y-117956000D01*
X152119841Y-117055446D01*
X151863357Y-117141852D01*
X151653542Y-117715336D01*
X143502720Y-117715336D01*
X143731593Y-116875841D01*
X152299446Y-116875841D01*
X153200000Y-117776395D01*
X154100554Y-116875841D01*
X154014148Y-116619357D01*
X153440664Y-116409542D01*
X152830540Y-116435161D01*
X152385852Y-116619357D01*
X152299446Y-116875841D01*
X143731593Y-116875841D01*
X143872901Y-116357531D01*
X144121739Y-114812613D01*
X144205000Y-113250000D01*
X144204978Y-113224335D01*
X144168942Y-112569533D01*
X146690000Y-112569533D01*
X146690000Y-113130467D01*
X146904659Y-113648701D01*
X147301299Y-114045341D01*
X147819533Y-114260000D01*
X148380467Y-114260000D01*
X148898701Y-114045341D01*
X149295341Y-113648701D01*
X149510000Y-113130467D01*
X149510000Y-112569533D01*
X149466745Y-112465105D01*
X151265000Y-112465105D01*
X151265000Y-113234895D01*
X151559586Y-113946090D01*
X152103910Y-114490414D01*
X152815105Y-114785000D01*
X153584895Y-114785000D01*
X154296090Y-114490414D01*
X154840414Y-113946090D01*
X155135000Y-113234895D01*
X155135000Y-112569533D01*
X156890000Y-112569533D01*
X156890000Y-113130467D01*
X157104659Y-113648701D01*
X157501299Y-114045341D01*
X158019533Y-114260000D01*
X158580467Y-114260000D01*
X159098701Y-114045341D01*
X159495341Y-113648701D01*
X159710000Y-113130467D01*
X159710000Y-112569533D01*
X159495341Y-112051299D01*
X159098701Y-111654659D01*
X158580467Y-111440000D01*
X158019533Y-111440000D01*
X157501299Y-111654659D01*
X157104659Y-112051299D01*
X156890000Y-112569533D01*
X155135000Y-112569533D01*
X155135000Y-112465105D01*
X154840414Y-111753910D01*
X154296090Y-111209586D01*
X153584895Y-110915000D01*
X152815105Y-110915000D01*
X152103910Y-111209586D01*
X151559586Y-111753910D01*
X151265000Y-112465105D01*
X149466745Y-112465105D01*
X149295341Y-112051299D01*
X148898701Y-111654659D01*
X148380467Y-111440000D01*
X147819533Y-111440000D01*
X147301299Y-111654659D01*
X146904659Y-112051299D01*
X146690000Y-112569533D01*
X144168942Y-112569533D01*
X144118990Y-111661869D01*
X143867455Y-110117388D01*
X143490086Y-108742670D01*
X146605000Y-108742670D01*
X146605000Y-109353330D01*
X146838690Y-109917507D01*
X147270493Y-110349310D01*
X147834670Y-110583000D01*
X148445330Y-110583000D01*
X149009507Y-110349310D01*
X149441310Y-109917507D01*
X149675000Y-109353330D01*
X149675000Y-108742670D01*
X149441310Y-108178493D01*
X149009507Y-107746690D01*
X148445330Y-107513000D01*
X147834670Y-107513000D01*
X147270493Y-107746690D01*
X146838690Y-108178493D01*
X146605000Y-108742670D01*
X143490086Y-108742670D01*
X143453222Y-108608381D01*
X142880980Y-107151936D01*
X142157212Y-105764546D01*
X141290111Y-104461922D01*
X140289498Y-103258816D01*
X139166703Y-102168850D01*
X137934441Y-101204369D01*
X136606667Y-100376294D01*
X135198417Y-99694002D01*
X133725636Y-99165220D01*
X132205005Y-98795936D01*
X130653741Y-98590331D01*
X129089412Y-98550733D01*
X127529733Y-98677592D01*
X125992366Y-98969470D01*
X124494719Y-99423063D01*
X123053752Y-100033234D01*
X121685784Y-100793072D01*
X121016643Y-101264225D01*
X124195869Y-98085000D01*
X128667767Y-98085000D01*
X128750000Y-98101357D01*
X128832233Y-98085000D01*
X128832237Y-98085000D01*
X129075801Y-98036552D01*
X129352001Y-97852001D01*
X129398587Y-97782280D01*
X132386742Y-94794126D01*
X138565000Y-94794126D01*
X138565000Y-95205874D01*
X138722569Y-95586280D01*
X139013720Y-95877431D01*
X139394126Y-96035000D01*
X139805874Y-96035000D01*
X140186280Y-95877431D01*
X140189173Y-95874538D01*
X143879635Y-99565000D01*
X143155431Y-99565000D01*
X142333974Y-99905259D01*
X141705259Y-100533974D01*
X141365000Y-101355431D01*
X141365000Y-102244569D01*
X141705259Y-103066026D01*
X142333974Y-103694741D01*
X143155431Y-104035000D01*
X144044569Y-104035000D01*
X144866026Y-103694741D01*
X145494741Y-103066026D01*
X145835000Y-102244569D01*
X145835000Y-101520365D01*
X152195909Y-107881274D01*
X151898690Y-108178493D01*
X151665000Y-108742670D01*
X151665000Y-109353330D01*
X151898690Y-109917507D01*
X152330493Y-110349310D01*
X152894670Y-110583000D01*
X153505330Y-110583000D01*
X154069507Y-110349310D01*
X154501310Y-109917507D01*
X154735000Y-109353330D01*
X154735000Y-108742670D01*
X156775000Y-108742670D01*
X156775000Y-109353330D01*
X157008690Y-109917507D01*
X157440493Y-110349310D01*
X158004670Y-110583000D01*
X158615330Y-110583000D01*
X159179507Y-110349310D01*
X159611310Y-109917507D01*
X159845000Y-109353330D01*
X159845000Y-108742670D01*
X159611310Y-108178493D01*
X159179507Y-107746690D01*
X158615330Y-107513000D01*
X158004670Y-107513000D01*
X157440493Y-107746690D01*
X157008690Y-108178493D01*
X156775000Y-108742670D01*
X154735000Y-108742670D01*
X154501310Y-108178493D01*
X154069507Y-107746690D01*
X153987989Y-107712924D01*
X153985000Y-107697896D01*
X153985000Y-107697892D01*
X153939454Y-107468916D01*
X153823167Y-107294881D01*
X153809749Y-107274799D01*
X153809747Y-107274797D01*
X153765953Y-107209255D01*
X153700411Y-107165461D01*
X148989837Y-102454887D01*
X154065000Y-102454887D01*
X154065000Y-103145113D01*
X154329138Y-103782799D01*
X154817201Y-104270862D01*
X155454887Y-104535000D01*
X156145113Y-104535000D01*
X156782799Y-104270862D01*
X157270862Y-103782799D01*
X157535000Y-103145113D01*
X157535000Y-102454887D01*
X157270862Y-101817201D01*
X156782799Y-101329138D01*
X156145113Y-101065000D01*
X155454887Y-101065000D01*
X154817201Y-101329138D01*
X154329138Y-101817201D01*
X154065000Y-102454887D01*
X148989837Y-102454887D01*
X145924344Y-99389395D01*
X146275866Y-99535000D01*
X147324134Y-99535000D01*
X148292608Y-99133845D01*
X149033845Y-98392608D01*
X149435000Y-97424134D01*
X149435000Y-96375866D01*
X149033845Y-95407392D01*
X148292608Y-94666155D01*
X147324134Y-94265000D01*
X146275866Y-94265000D01*
X145307392Y-94666155D01*
X144566155Y-95407392D01*
X144165000Y-96375866D01*
X144165000Y-97424134D01*
X144310605Y-97775656D01*
X141034541Y-94499592D01*
X140990745Y-94434047D01*
X140731084Y-94260546D01*
X140502108Y-94215000D01*
X140502104Y-94215000D01*
X140424792Y-94199622D01*
X140347480Y-94215000D01*
X140278711Y-94215000D01*
X140186280Y-94122569D01*
X139805874Y-93965000D01*
X139394126Y-93965000D01*
X139013720Y-94122569D01*
X138722569Y-94413720D01*
X138565000Y-94794126D01*
X132386742Y-94794126D01*
X133370887Y-93809982D01*
X133370978Y-93810000D01*
X133629022Y-93810000D01*
X134011136Y-93733993D01*
X134444457Y-93444457D01*
X134584412Y-93235000D01*
X136831935Y-93235000D01*
X136989375Y-93470625D01*
X137480582Y-93798839D01*
X137913744Y-93885000D01*
X138206256Y-93885000D01*
X138639418Y-93798839D01*
X139130625Y-93470625D01*
X139145096Y-93448967D01*
X139211673Y-93609698D01*
X139390301Y-93788327D01*
X139623690Y-93885000D01*
X140314250Y-93885000D01*
X140473000Y-93726250D01*
X140473000Y-92527000D01*
X140727000Y-92527000D01*
X140727000Y-93726250D01*
X140885750Y-93885000D01*
X141576310Y-93885000D01*
X141809699Y-93788327D01*
X141988327Y-93609698D01*
X142085000Y-93376309D01*
X142085000Y-92685750D01*
X141926250Y-92527000D01*
X140727000Y-92527000D01*
X140473000Y-92527000D01*
X140453000Y-92527000D01*
X140453000Y-92273000D01*
X140473000Y-92273000D01*
X140473000Y-91073750D01*
X140727000Y-91073750D01*
X140727000Y-92273000D01*
X141926250Y-92273000D01*
X142085000Y-92114250D01*
X142085000Y-91423691D01*
X141988327Y-91190302D01*
X141809699Y-91011673D01*
X141576310Y-90915000D01*
X140885750Y-90915000D01*
X140727000Y-91073750D01*
X140473000Y-91073750D01*
X140314250Y-90915000D01*
X139623690Y-90915000D01*
X139390301Y-91011673D01*
X139211673Y-91190302D01*
X139145096Y-91351033D01*
X139130625Y-91329375D01*
X138639418Y-91001161D01*
X138206256Y-90915000D01*
X137913744Y-90915000D01*
X137480582Y-91001161D01*
X136989375Y-91329375D01*
X136831935Y-91565000D01*
X134450776Y-91565000D01*
X134444457Y-91555543D01*
X134011136Y-91266007D01*
X133629022Y-91190000D01*
X133370978Y-91190000D01*
X132988864Y-91266007D01*
X132555543Y-91555543D01*
X132500000Y-91638669D01*
X132444457Y-91555543D01*
X132011136Y-91266007D01*
X131629022Y-91190000D01*
X131370978Y-91190000D01*
X131311907Y-91201750D01*
X130795157Y-90685000D01*
X160065000Y-90685000D01*
X160065001Y-135815000D01*
X160065001Y-135815000D01*
G37*
X160065001Y-135815000D02*
X98185000Y-135815000D01*
X98185000Y-115623690D01*
X99115000Y-115623690D01*
X99115000Y-116314250D01*
X99273750Y-116473000D01*
X100473000Y-116473000D01*
X100473000Y-115273750D01*
X100314250Y-115115000D01*
X99623691Y-115115000D01*
X99390302Y-115211673D01*
X99211673Y-115390301D01*
X99115000Y-115623690D01*
X98185000Y-115623690D01*
X98185000Y-110795157D01*
X98790253Y-111400411D01*
X98834047Y-111465953D01*
X98899589Y-111509747D01*
X98899591Y-111509749D01*
X98995962Y-111574142D01*
X99093708Y-111639454D01*
X99196131Y-111659827D01*
X98804659Y-112051299D01*
X98590000Y-112569533D01*
X98590000Y-113130467D01*
X98804659Y-113648701D01*
X99201299Y-114045341D01*
X99719533Y-114260000D01*
X100280467Y-114260000D01*
X100798701Y-114045341D01*
X101091295Y-113752747D01*
X101099590Y-113758290D01*
X102993860Y-115652560D01*
X102250000Y-115652560D01*
X102085000Y-115685380D01*
X102085000Y-115623690D01*
X101988327Y-115390301D01*
X101809698Y-115211673D01*
X101576309Y-115115000D01*
X100885750Y-115115000D01*
X100727000Y-115273750D01*
X100727000Y-116473000D01*
X100747000Y-116473000D01*
X100747000Y-116727000D01*
X100727000Y-116727000D01*
X100727000Y-116747000D01*
X100473000Y-116747000D01*
X100473000Y-116727000D01*
X99273750Y-116727000D01*
X99115000Y-116885750D01*
X99115000Y-117576310D01*
X99211673Y-117809699D01*
X99390302Y-117988327D01*
X99551033Y-118054904D01*
X99529375Y-118069375D01*
X99201161Y-118560582D01*
X99085908Y-119140000D01*
X99201161Y-119719418D01*
X99529375Y-120210625D01*
X100020582Y-120538839D01*
X100453744Y-120625000D01*
X100746256Y-120625000D01*
X101179418Y-120538839D01*
X101670625Y-120210625D01*
X101749053Y-120093249D01*
X101792191Y-120157809D01*
X102002235Y-120298157D01*
X102250000Y-120347440D01*
X103150000Y-120347440D01*
X103397765Y-120298157D01*
X103499387Y-120230255D01*
X107164998Y-123895866D01*
X107164999Y-130617760D01*
X107148641Y-130699998D01*
X107207857Y-130997699D01*
X100685000Y-124474843D01*
X100685000Y-123978711D01*
X100777431Y-123886280D01*
X100871163Y-123659991D01*
X101129138Y-124282799D01*
X101617201Y-124770862D01*
X102254887Y-125035000D01*
X102945113Y-125035000D01*
X103582799Y-124770862D01*
X104070862Y-124282799D01*
X104335000Y-123645113D01*
X104335000Y-122954887D01*
X104070862Y-122317201D01*
X103582799Y-121829138D01*
X102945113Y-121565000D01*
X102254887Y-121565000D01*
X101617201Y-121829138D01*
X101129138Y-122317201D01*
X100871163Y-122940009D01*
X100777431Y-122713720D01*
X100486280Y-122422569D01*
X100105874Y-122265000D01*
X99694126Y-122265000D01*
X99313720Y-122422569D01*
X99022569Y-122713720D01*
X98865000Y-123094126D01*
X98865000Y-123505874D01*
X99022569Y-123886280D01*
X99115001Y-123978712D01*
X99115000Y-124722688D01*
X99099622Y-124800000D01*
X99115000Y-124877312D01*
X99115000Y-124877315D01*
X99160546Y-125106291D01*
X99234816Y-125217443D01*
X99334047Y-125365953D01*
X99399592Y-125409749D01*
X108590253Y-134600411D01*
X108634047Y-134665953D01*
X108699589Y-134709747D01*
X108699591Y-134709749D01*
X108774625Y-134759885D01*
X108893708Y-134839454D01*
X109122684Y-134885000D01*
X109122688Y-134885000D01*
X109199999Y-134900378D01*
X109277310Y-134885000D01*
X119962688Y-134885000D01*
X120040000Y-134900378D01*
X120117312Y-134885000D01*
X120117316Y-134885000D01*
X120346292Y-134839454D01*
X120605953Y-134665953D01*
X120649749Y-134600408D01*
X122503082Y-132747075D01*
X122693744Y-132785000D01*
X122986256Y-132785000D01*
X123419418Y-132698839D01*
X123910625Y-132370625D01*
X124110000Y-132072239D01*
X124309375Y-132370625D01*
X124800582Y-132698839D01*
X125233744Y-132785000D01*
X125526256Y-132785000D01*
X125959418Y-132698839D01*
X126450625Y-132370625D01*
X126650000Y-132072239D01*
X126849375Y-132370625D01*
X127340582Y-132698839D01*
X127773744Y-132785000D01*
X128066256Y-132785000D01*
X128499418Y-132698839D01*
X128990625Y-132370625D01*
X129190000Y-132072239D01*
X129389375Y-132370625D01*
X129880582Y-132698839D01*
X130313744Y-132785000D01*
X130606256Y-132785000D01*
X131039418Y-132698839D01*
X131530625Y-132370625D01*
X131730000Y-132072239D01*
X131929375Y-132370625D01*
X132420582Y-132698839D01*
X132853744Y-132785000D01*
X133146256Y-132785000D01*
X133579418Y-132698839D01*
X134070625Y-132370625D01*
X134283843Y-132051522D01*
X134344817Y-132181358D01*
X134773076Y-132571645D01*
X135183110Y-132741476D01*
X135413000Y-132620155D01*
X135413000Y-131427000D01*
X135393000Y-131427000D01*
X135393000Y-131173000D01*
X135413000Y-131173000D01*
X135413000Y-129979845D01*
X135667000Y-129979845D01*
X135667000Y-131173000D01*
X135687000Y-131173000D01*
X135687000Y-131427000D01*
X135667000Y-131427000D01*
X135667000Y-132620155D01*
X135896890Y-132741476D01*
X136306924Y-132571645D01*
X136735183Y-132181358D01*
X136796157Y-132051522D01*
X137009375Y-132370625D01*
X137500582Y-132698839D01*
X137933744Y-132785000D01*
X138226256Y-132785000D01*
X138659418Y-132698839D01*
X139150625Y-132370625D01*
X139478839Y-131879418D01*
X139594092Y-131300000D01*
X139478839Y-130720582D01*
X139150625Y-130229375D01*
X138659418Y-129901161D01*
X138226256Y-129815000D01*
X137933744Y-129815000D01*
X137500582Y-129901161D01*
X137009375Y-130229375D01*
X136796157Y-130548478D01*
X136735183Y-130418642D01*
X136306924Y-130028355D01*
X135896890Y-129858524D01*
X135667000Y-129979845D01*
X135413000Y-129979845D01*
X135183110Y-129858524D01*
X134773076Y-130028355D01*
X134344817Y-130418642D01*
X134283843Y-130548478D01*
X134070625Y-130229375D01*
X133579418Y-129901161D01*
X133146256Y-129815000D01*
X132853744Y-129815000D01*
X132663082Y-129852925D01*
X131586023Y-128775866D01*
X144165000Y-128775866D01*
X144165000Y-129824134D01*
X144566155Y-130792608D01*
X145307392Y-131533845D01*
X146275866Y-131935000D01*
X147324134Y-131935000D01*
X148292608Y-131533845D01*
X149033845Y-130792608D01*
X149435000Y-129824134D01*
X149435000Y-128775866D01*
X149033845Y-127807392D01*
X148292608Y-127066155D01*
X147324134Y-126665000D01*
X146275866Y-126665000D01*
X145307392Y-127066155D01*
X144566155Y-127807392D01*
X144165000Y-128775866D01*
X131586023Y-128775866D01*
X130809748Y-127999591D01*
X130765953Y-127934047D01*
X130718539Y-127902366D01*
X132230228Y-127699321D01*
X133750213Y-127327383D01*
X135222068Y-126796031D01*
X136629125Y-126111283D01*
X137955452Y-125280892D01*
X139186029Y-124314261D01*
X139657031Y-123855431D01*
X141365000Y-123855431D01*
X141365000Y-124744569D01*
X141705259Y-125566026D01*
X142333974Y-126194741D01*
X143155431Y-126535000D01*
X144044569Y-126535000D01*
X144866026Y-126194741D01*
X145494741Y-125566026D01*
X145835000Y-124744569D01*
X145835000Y-123855431D01*
X145494741Y-123033974D01*
X145415654Y-122954887D01*
X154065000Y-122954887D01*
X154065000Y-123645113D01*
X154329138Y-124282799D01*
X154817201Y-124770862D01*
X155454887Y-125035000D01*
X156145113Y-125035000D01*
X156782799Y-124770862D01*
X157270862Y-124282799D01*
X157535000Y-123645113D01*
X157535000Y-122954887D01*
X157270862Y-122317201D01*
X156782799Y-121829138D01*
X156145113Y-121565000D01*
X155454887Y-121565000D01*
X154817201Y-121829138D01*
X154329138Y-122317201D01*
X154065000Y-122954887D01*
X145415654Y-122954887D01*
X144866026Y-122405259D01*
X144044569Y-122065000D01*
X143155431Y-122065000D01*
X142333974Y-122405259D01*
X141705259Y-123033974D01*
X141365000Y-123855431D01*
X139657031Y-123855431D01*
X140306919Y-123222338D01*
X141305431Y-122017487D01*
X142170257Y-120713352D01*
X142891603Y-119324701D01*
X143004391Y-119036159D01*
X152299446Y-119036159D01*
X152385852Y-119292643D01*
X152959336Y-119502458D01*
X153569460Y-119476839D01*
X154014148Y-119292643D01*
X154100554Y-119036159D01*
X153200000Y-118135605D01*
X152299446Y-119036159D01*
X143004391Y-119036159D01*
X143461302Y-117867259D01*
X143502720Y-117715336D01*
X151653542Y-117715336D01*
X151679161Y-118325460D01*
X151863357Y-118770148D01*
X152119841Y-118856554D01*
X153020395Y-117956000D01*
X153379605Y-117956000D01*
X154280159Y-118856554D01*
X154536643Y-118770148D01*
X154746458Y-118196664D01*
X154720839Y-117586540D01*
X154536643Y-117141852D01*
X154280159Y-117055446D01*
X153379605Y-117956000D01*
X153020395Y-117956000D01*
X152119841Y-117055446D01*
X151863357Y-117141852D01*
X151653542Y-117715336D01*
X143502720Y-117715336D01*
X143731593Y-116875841D01*
X152299446Y-116875841D01*
X153200000Y-117776395D01*
X154100554Y-116875841D01*
X154014148Y-116619357D01*
X153440664Y-116409542D01*
X152830540Y-116435161D01*
X152385852Y-116619357D01*
X152299446Y-116875841D01*
X143731593Y-116875841D01*
X143872901Y-116357531D01*
X144121739Y-114812613D01*
X144205000Y-113250000D01*
X144204978Y-113224335D01*
X144168942Y-112569533D01*
X146690000Y-112569533D01*
X146690000Y-113130467D01*
X146904659Y-113648701D01*
X147301299Y-114045341D01*
X147819533Y-114260000D01*
X148380467Y-114260000D01*
X148898701Y-114045341D01*
X149295341Y-113648701D01*
X149510000Y-113130467D01*
X149510000Y-112569533D01*
X149466745Y-112465105D01*
X151265000Y-112465105D01*
X151265000Y-113234895D01*
X151559586Y-113946090D01*
X152103910Y-114490414D01*
X152815105Y-114785000D01*
X153584895Y-114785000D01*
X154296090Y-114490414D01*
X154840414Y-113946090D01*
X155135000Y-113234895D01*
X155135000Y-112569533D01*
X156890000Y-112569533D01*
X156890000Y-113130467D01*
X157104659Y-113648701D01*
X157501299Y-114045341D01*
X158019533Y-114260000D01*
X158580467Y-114260000D01*
X159098701Y-114045341D01*
X159495341Y-113648701D01*
X159710000Y-113130467D01*
X159710000Y-112569533D01*
X159495341Y-112051299D01*
X159098701Y-111654659D01*
X158580467Y-111440000D01*
X158019533Y-111440000D01*
X157501299Y-111654659D01*
X157104659Y-112051299D01*
X156890000Y-112569533D01*
X155135000Y-112569533D01*
X155135000Y-112465105D01*
X154840414Y-111753910D01*
X154296090Y-111209586D01*
X153584895Y-110915000D01*
X152815105Y-110915000D01*
X152103910Y-111209586D01*
X151559586Y-111753910D01*
X151265000Y-112465105D01*
X149466745Y-112465105D01*
X149295341Y-112051299D01*
X148898701Y-111654659D01*
X148380467Y-111440000D01*
X147819533Y-111440000D01*
X147301299Y-111654659D01*
X146904659Y-112051299D01*
X146690000Y-112569533D01*
X144168942Y-112569533D01*
X144118990Y-111661869D01*
X143867455Y-110117388D01*
X143490086Y-108742670D01*
X146605000Y-108742670D01*
X146605000Y-109353330D01*
X146838690Y-109917507D01*
X147270493Y-110349310D01*
X147834670Y-110583000D01*
X148445330Y-110583000D01*
X149009507Y-110349310D01*
X149441310Y-109917507D01*
X149675000Y-109353330D01*
X149675000Y-108742670D01*
X149441310Y-108178493D01*
X149009507Y-107746690D01*
X148445330Y-107513000D01*
X147834670Y-107513000D01*
X147270493Y-107746690D01*
X146838690Y-108178493D01*
X146605000Y-108742670D01*
X143490086Y-108742670D01*
X143453222Y-108608381D01*
X142880980Y-107151936D01*
X142157212Y-105764546D01*
X141290111Y-104461922D01*
X140289498Y-103258816D01*
X139166703Y-102168850D01*
X137934441Y-101204369D01*
X136606667Y-100376294D01*
X135198417Y-99694002D01*
X133725636Y-99165220D01*
X132205005Y-98795936D01*
X130653741Y-98590331D01*
X129089412Y-98550733D01*
X127529733Y-98677592D01*
X125992366Y-98969470D01*
X124494719Y-99423063D01*
X123053752Y-100033234D01*
X121685784Y-100793072D01*
X121016643Y-101264225D01*
X124195869Y-98085000D01*
X128667767Y-98085000D01*
X128750000Y-98101357D01*
X128832233Y-98085000D01*
X128832237Y-98085000D01*
X129075801Y-98036552D01*
X129352001Y-97852001D01*
X129398587Y-97782280D01*
X132386742Y-94794126D01*
X138565000Y-94794126D01*
X138565000Y-95205874D01*
X138722569Y-95586280D01*
X139013720Y-95877431D01*
X139394126Y-96035000D01*
X139805874Y-96035000D01*
X140186280Y-95877431D01*
X140189173Y-95874538D01*
X143879635Y-99565000D01*
X143155431Y-99565000D01*
X142333974Y-99905259D01*
X141705259Y-100533974D01*
X141365000Y-101355431D01*
X141365000Y-102244569D01*
X141705259Y-103066026D01*
X142333974Y-103694741D01*
X143155431Y-104035000D01*
X144044569Y-104035000D01*
X144866026Y-103694741D01*
X145494741Y-103066026D01*
X145835000Y-102244569D01*
X145835000Y-101520365D01*
X152195909Y-107881274D01*
X151898690Y-108178493D01*
X151665000Y-108742670D01*
X151665000Y-109353330D01*
X151898690Y-109917507D01*
X152330493Y-110349310D01*
X152894670Y-110583000D01*
X153505330Y-110583000D01*
X154069507Y-110349310D01*
X154501310Y-109917507D01*
X154735000Y-109353330D01*
X154735000Y-108742670D01*
X156775000Y-108742670D01*
X156775000Y-109353330D01*
X157008690Y-109917507D01*
X157440493Y-110349310D01*
X158004670Y-110583000D01*
X158615330Y-110583000D01*
X159179507Y-110349310D01*
X159611310Y-109917507D01*
X159845000Y-109353330D01*
X159845000Y-108742670D01*
X159611310Y-108178493D01*
X159179507Y-107746690D01*
X158615330Y-107513000D01*
X158004670Y-107513000D01*
X157440493Y-107746690D01*
X157008690Y-108178493D01*
X156775000Y-108742670D01*
X154735000Y-108742670D01*
X154501310Y-108178493D01*
X154069507Y-107746690D01*
X153987989Y-107712924D01*
X153985000Y-107697896D01*
X153985000Y-107697892D01*
X153939454Y-107468916D01*
X153823167Y-107294881D01*
X153809749Y-107274799D01*
X153809747Y-107274797D01*
X153765953Y-107209255D01*
X153700411Y-107165461D01*
X148989837Y-102454887D01*
X154065000Y-102454887D01*
X154065000Y-103145113D01*
X154329138Y-103782799D01*
X154817201Y-104270862D01*
X155454887Y-104535000D01*
X156145113Y-104535000D01*
X156782799Y-104270862D01*
X157270862Y-103782799D01*
X157535000Y-103145113D01*
X157535000Y-102454887D01*
X157270862Y-101817201D01*
X156782799Y-101329138D01*
X156145113Y-101065000D01*
X155454887Y-101065000D01*
X154817201Y-101329138D01*
X154329138Y-101817201D01*
X154065000Y-102454887D01*
X148989837Y-102454887D01*
X145924344Y-99389395D01*
X146275866Y-99535000D01*
X147324134Y-99535000D01*
X148292608Y-99133845D01*
X149033845Y-98392608D01*
X149435000Y-97424134D01*
X149435000Y-96375866D01*
X149033845Y-95407392D01*
X148292608Y-94666155D01*
X147324134Y-94265000D01*
X146275866Y-94265000D01*
X145307392Y-94666155D01*
X144566155Y-95407392D01*
X144165000Y-96375866D01*
X144165000Y-97424134D01*
X144310605Y-97775656D01*
X141034541Y-94499592D01*
X140990745Y-94434047D01*
X140731084Y-94260546D01*
X140502108Y-94215000D01*
X140502104Y-94215000D01*
X140424792Y-94199622D01*
X140347480Y-94215000D01*
X140278711Y-94215000D01*
X140186280Y-94122569D01*
X139805874Y-93965000D01*
X139394126Y-93965000D01*
X139013720Y-94122569D01*
X138722569Y-94413720D01*
X138565000Y-94794126D01*
X132386742Y-94794126D01*
X133370887Y-93809982D01*
X133370978Y-93810000D01*
X133629022Y-93810000D01*
X134011136Y-93733993D01*
X134444457Y-93444457D01*
X134584412Y-93235000D01*
X136831935Y-93235000D01*
X136989375Y-93470625D01*
X137480582Y-93798839D01*
X137913744Y-93885000D01*
X138206256Y-93885000D01*
X138639418Y-93798839D01*
X139130625Y-93470625D01*
X139145096Y-93448967D01*
X139211673Y-93609698D01*
X139390301Y-93788327D01*
X139623690Y-93885000D01*
X140314250Y-93885000D01*
X140473000Y-93726250D01*
X140473000Y-92527000D01*
X140727000Y-92527000D01*
X140727000Y-93726250D01*
X140885750Y-93885000D01*
X141576310Y-93885000D01*
X141809699Y-93788327D01*
X141988327Y-93609698D01*
X142085000Y-93376309D01*
X142085000Y-92685750D01*
X141926250Y-92527000D01*
X140727000Y-92527000D01*
X140473000Y-92527000D01*
X140453000Y-92527000D01*
X140453000Y-92273000D01*
X140473000Y-92273000D01*
X140473000Y-91073750D01*
X140727000Y-91073750D01*
X140727000Y-92273000D01*
X141926250Y-92273000D01*
X142085000Y-92114250D01*
X142085000Y-91423691D01*
X141988327Y-91190302D01*
X141809699Y-91011673D01*
X141576310Y-90915000D01*
X140885750Y-90915000D01*
X140727000Y-91073750D01*
X140473000Y-91073750D01*
X140314250Y-90915000D01*
X139623690Y-90915000D01*
X139390301Y-91011673D01*
X139211673Y-91190302D01*
X139145096Y-91351033D01*
X139130625Y-91329375D01*
X138639418Y-91001161D01*
X138206256Y-90915000D01*
X137913744Y-90915000D01*
X137480582Y-91001161D01*
X136989375Y-91329375D01*
X136831935Y-91565000D01*
X134450776Y-91565000D01*
X134444457Y-91555543D01*
X134011136Y-91266007D01*
X133629022Y-91190000D01*
X133370978Y-91190000D01*
X132988864Y-91266007D01*
X132555543Y-91555543D01*
X132500000Y-91638669D01*
X132444457Y-91555543D01*
X132011136Y-91266007D01*
X131629022Y-91190000D01*
X131370978Y-91190000D01*
X131311907Y-91201750D01*
X130795157Y-90685000D01*
X160065000Y-90685000D01*
X160065001Y-135815000D01*
G36*
X105293748Y-117941858D02*
X105279605Y-117956000D01*
X106180159Y-118856554D01*
X106436643Y-118770148D01*
X106646458Y-118196664D01*
X106637690Y-117987847D01*
X107452925Y-118803083D01*
X107385908Y-119140000D01*
X107501161Y-119719418D01*
X107829375Y-120210625D01*
X108320582Y-120538839D01*
X108753744Y-120625000D01*
X109046256Y-120625000D01*
X109479418Y-120538839D01*
X109970625Y-120210625D01*
X110227623Y-119826001D01*
X110251843Y-119947765D01*
X110259663Y-119959469D01*
X107925000Y-122294132D01*
X105122284Y-119491417D01*
X105469460Y-119476839D01*
X105914148Y-119292643D01*
X106000554Y-119036159D01*
X105100000Y-118135605D01*
X105085858Y-118149748D01*
X104906253Y-117970143D01*
X104920395Y-117956000D01*
X104906253Y-117941858D01*
X105085858Y-117762253D01*
X105100000Y-117776395D01*
X105114143Y-117762253D01*
X105293748Y-117941858D01*
X105293748Y-117941858D01*
G37*
X105293748Y-117941858D02*
X105279605Y-117956000D01*
X106180159Y-118856554D01*
X106436643Y-118770148D01*
X106646458Y-118196664D01*
X106637690Y-117987847D01*
X107452925Y-118803083D01*
X107385908Y-119140000D01*
X107501161Y-119719418D01*
X107829375Y-120210625D01*
X108320582Y-120538839D01*
X108753744Y-120625000D01*
X109046256Y-120625000D01*
X109479418Y-120538839D01*
X109970625Y-120210625D01*
X110227623Y-119826001D01*
X110251843Y-119947765D01*
X110259663Y-119959469D01*
X107925000Y-122294132D01*
X105122284Y-119491417D01*
X105469460Y-119476839D01*
X105914148Y-119292643D01*
X106000554Y-119036159D01*
X105100000Y-118135605D01*
X105085858Y-118149748D01*
X104906253Y-117970143D01*
X104920395Y-117956000D01*
X104906253Y-117941858D01*
X105085858Y-117762253D01*
X105100000Y-117776395D01*
X105114143Y-117762253D01*
X105293748Y-117941858D01*
G36*
X109027000Y-116473000D02*
X109047000Y-116473000D01*
X109047000Y-116727000D01*
X109027000Y-116727000D01*
X109027000Y-116747000D01*
X108773000Y-116747000D01*
X108773000Y-116727000D01*
X108753000Y-116727000D01*
X108753000Y-116473000D01*
X108773000Y-116473000D01*
X108773000Y-116453000D01*
X109027000Y-116453000D01*
X109027000Y-116473000D01*
X109027000Y-116473000D01*
G37*
X109027000Y-116473000D02*
X109047000Y-116473000D01*
X109047000Y-116727000D01*
X109027000Y-116727000D01*
X109027000Y-116747000D01*
X108773000Y-116747000D01*
X108773000Y-116727000D01*
X108753000Y-116727000D01*
X108753000Y-116473000D01*
X108773000Y-116473000D01*
X108773000Y-116453000D01*
X109027000Y-116453000D01*
X109027000Y-116473000D01*
G36*
X109401299Y-111654659D02*
X109004659Y-112051299D01*
X108790000Y-112569533D01*
X108790000Y-113130467D01*
X109004659Y-113648701D01*
X109401299Y-114045341D01*
X109919533Y-114260000D01*
X110480467Y-114260000D01*
X110998701Y-114045341D01*
X111395341Y-113648701D01*
X111610000Y-113130467D01*
X111610000Y-112569533D01*
X111395341Y-112051299D01*
X110998701Y-111654659D01*
X110830529Y-111585000D01*
X111823386Y-111585000D01*
X112215000Y-111976615D01*
X112215000Y-114433190D01*
X112106281Y-114360546D01*
X111877305Y-114315000D01*
X111877301Y-114315000D01*
X111799989Y-114299622D01*
X111722677Y-114315000D01*
X106371504Y-114315000D01*
X106740414Y-113946090D01*
X107035000Y-113234895D01*
X107035000Y-112465105D01*
X106740414Y-111753910D01*
X106571504Y-111585000D01*
X109569471Y-111585000D01*
X109401299Y-111654659D01*
X109401299Y-111654659D01*
G37*
X109401299Y-111654659D02*
X109004659Y-112051299D01*
X108790000Y-112569533D01*
X108790000Y-113130467D01*
X109004659Y-113648701D01*
X109401299Y-114045341D01*
X109919533Y-114260000D01*
X110480467Y-114260000D01*
X110998701Y-114045341D01*
X111395341Y-113648701D01*
X111610000Y-113130467D01*
X111610000Y-112569533D01*
X111395341Y-112051299D01*
X110998701Y-111654659D01*
X110830529Y-111585000D01*
X111823386Y-111585000D01*
X112215000Y-111976615D01*
X112215000Y-114433190D01*
X112106281Y-114360546D01*
X111877305Y-114315000D01*
X111877301Y-114315000D01*
X111799989Y-114299622D01*
X111722677Y-114315000D01*
X106371504Y-114315000D01*
X106740414Y-113946090D01*
X107035000Y-113234895D01*
X107035000Y-112465105D01*
X106740414Y-111753910D01*
X106571504Y-111585000D01*
X109569471Y-111585000D01*
X109401299Y-111654659D01*
G36*
X108651415Y-106432283D02*
X108697999Y-106502001D01*
X108974199Y-106686552D01*
X109217763Y-106735000D01*
X109217766Y-106735000D01*
X109299999Y-106751357D01*
X109382232Y-106735000D01*
X113665000Y-106735000D01*
X113665001Y-110153230D01*
X113597999Y-110197999D01*
X113413448Y-110474200D01*
X113365000Y-110717764D01*
X113365000Y-110717767D01*
X113348643Y-110800000D01*
X113365000Y-110882233D01*
X113365000Y-110906299D01*
X112758291Y-110299591D01*
X112714496Y-110234047D01*
X112454835Y-110060546D01*
X112225859Y-110015000D01*
X112225855Y-110015000D01*
X112148543Y-109999622D01*
X112071231Y-110015000D01*
X111413817Y-110015000D01*
X111511310Y-109917507D01*
X111745000Y-109353330D01*
X111745000Y-108742670D01*
X111511310Y-108178493D01*
X111079507Y-107746690D01*
X110515330Y-107513000D01*
X109904670Y-107513000D01*
X109340493Y-107746690D01*
X108908690Y-108178493D01*
X108675000Y-108742670D01*
X108675000Y-109353330D01*
X108908690Y-109917507D01*
X109006183Y-110015000D01*
X106303817Y-110015000D01*
X106401310Y-109917507D01*
X106635000Y-109353330D01*
X106635000Y-108742670D01*
X106488769Y-108389637D01*
X106485000Y-108370690D01*
X106485000Y-105019382D01*
X106586280Y-104977431D01*
X106877431Y-104686280D01*
X106885627Y-104666494D01*
X108651415Y-106432283D01*
X108651415Y-106432283D01*
G37*
X108651415Y-106432283D02*
X108697999Y-106502001D01*
X108974199Y-106686552D01*
X109217763Y-106735000D01*
X109217766Y-106735000D01*
X109299999Y-106751357D01*
X109382232Y-106735000D01*
X113665000Y-106735000D01*
X113665001Y-110153230D01*
X113597999Y-110197999D01*
X113413448Y-110474200D01*
X113365000Y-110717764D01*
X113365000Y-110717767D01*
X113348643Y-110800000D01*
X113365000Y-110882233D01*
X113365000Y-110906299D01*
X112758291Y-110299591D01*
X112714496Y-110234047D01*
X112454835Y-110060546D01*
X112225859Y-110015000D01*
X112225855Y-110015000D01*
X112148543Y-109999622D01*
X112071231Y-110015000D01*
X111413817Y-110015000D01*
X111511310Y-109917507D01*
X111745000Y-109353330D01*
X111745000Y-108742670D01*
X111511310Y-108178493D01*
X111079507Y-107746690D01*
X110515330Y-107513000D01*
X109904670Y-107513000D01*
X109340493Y-107746690D01*
X108908690Y-108178493D01*
X108675000Y-108742670D01*
X108675000Y-109353330D01*
X108908690Y-109917507D01*
X109006183Y-110015000D01*
X106303817Y-110015000D01*
X106401310Y-109917507D01*
X106635000Y-109353330D01*
X106635000Y-108742670D01*
X106488769Y-108389637D01*
X106485000Y-108370690D01*
X106485000Y-105019382D01*
X106586280Y-104977431D01*
X106877431Y-104686280D01*
X106885627Y-104666494D01*
X108651415Y-106432283D01*
G36*
X103067191Y-101307809D02*
X103191862Y-101391112D01*
X103285750Y-101485000D01*
X103401310Y-101485000D01*
X103421148Y-101476783D01*
X103525000Y-101497440D01*
X104075000Y-101497440D01*
X104200000Y-101472576D01*
X104325000Y-101497440D01*
X104875000Y-101497440D01*
X105000000Y-101472576D01*
X105125000Y-101497440D01*
X105215000Y-101497440D01*
X105215000Y-101524304D01*
X105202235Y-101526843D01*
X104992191Y-101667191D01*
X104851843Y-101877235D01*
X104802560Y-102125000D01*
X104802560Y-102875000D01*
X104851843Y-103122765D01*
X104992191Y-103332809D01*
X105178795Y-103457494D01*
X105122569Y-103513720D01*
X104965000Y-103894126D01*
X104965000Y-104087043D01*
X104960546Y-104093709D01*
X104915000Y-104322685D01*
X104915000Y-104322688D01*
X104899622Y-104400000D01*
X104915000Y-104477312D01*
X104915001Y-107513000D01*
X104794670Y-107513000D01*
X104230493Y-107746690D01*
X103798690Y-108178493D01*
X103565000Y-108742670D01*
X103565000Y-108854843D01*
X103085011Y-108374854D01*
X103085011Y-107678482D01*
X103100389Y-107601171D01*
X103085011Y-107523860D01*
X103085011Y-107523856D01*
X103039465Y-107294880D01*
X102982252Y-107209255D01*
X102909760Y-107100763D01*
X102909758Y-107100761D01*
X102865964Y-107035219D01*
X102800422Y-106991425D01*
X102284979Y-106475983D01*
X102284979Y-106345266D01*
X102127410Y-105964860D01*
X101836259Y-105673709D01*
X101455853Y-105516140D01*
X101044105Y-105516140D01*
X100663699Y-105673709D01*
X100372548Y-105964860D01*
X100214979Y-106345266D01*
X100214979Y-106757014D01*
X100372548Y-107137420D01*
X100663699Y-107428571D01*
X101044105Y-107586140D01*
X101174822Y-107586140D01*
X101515011Y-107926330D01*
X101515012Y-108597846D01*
X101341310Y-108178493D01*
X100909507Y-107746690D01*
X100345330Y-107513000D01*
X99734670Y-107513000D01*
X99185000Y-107740681D01*
X99185000Y-104677000D01*
X99427000Y-104677000D01*
X99427000Y-105626250D01*
X99585750Y-105785000D01*
X99801310Y-105785000D01*
X100034699Y-105688327D01*
X100213327Y-105509698D01*
X100310000Y-105276309D01*
X100310000Y-104835750D01*
X100151250Y-104677000D01*
X99427000Y-104677000D01*
X99185000Y-104677000D01*
X99185000Y-104403000D01*
X99427000Y-104403000D01*
X99427000Y-104423000D01*
X100151250Y-104423000D01*
X100310000Y-104264250D01*
X100310000Y-103823691D01*
X100213327Y-103590302D01*
X100212127Y-103589102D01*
X100273157Y-103497765D01*
X100296757Y-103379121D01*
X100540953Y-103215953D01*
X100584749Y-103150408D01*
X101650157Y-102085001D01*
X101972687Y-102085001D01*
X102049999Y-102100379D01*
X102127311Y-102085001D01*
X102127315Y-102085001D01*
X102356291Y-102039455D01*
X102615952Y-101865954D01*
X102659748Y-101800409D01*
X102700408Y-101759749D01*
X102765953Y-101715953D01*
X102939454Y-101456292D01*
X102984325Y-101230711D01*
X103000000Y-101207251D01*
X103067191Y-101307809D01*
X103067191Y-101307809D01*
G37*
X103067191Y-101307809D02*
X103191862Y-101391112D01*
X103285750Y-101485000D01*
X103401310Y-101485000D01*
X103421148Y-101476783D01*
X103525000Y-101497440D01*
X104075000Y-101497440D01*
X104200000Y-101472576D01*
X104325000Y-101497440D01*
X104875000Y-101497440D01*
X105000000Y-101472576D01*
X105125000Y-101497440D01*
X105215000Y-101497440D01*
X105215000Y-101524304D01*
X105202235Y-101526843D01*
X104992191Y-101667191D01*
X104851843Y-101877235D01*
X104802560Y-102125000D01*
X104802560Y-102875000D01*
X104851843Y-103122765D01*
X104992191Y-103332809D01*
X105178795Y-103457494D01*
X105122569Y-103513720D01*
X104965000Y-103894126D01*
X104965000Y-104087043D01*
X104960546Y-104093709D01*
X104915000Y-104322685D01*
X104915000Y-104322688D01*
X104899622Y-104400000D01*
X104915000Y-104477312D01*
X104915001Y-107513000D01*
X104794670Y-107513000D01*
X104230493Y-107746690D01*
X103798690Y-108178493D01*
X103565000Y-108742670D01*
X103565000Y-108854843D01*
X103085011Y-108374854D01*
X103085011Y-107678482D01*
X103100389Y-107601171D01*
X103085011Y-107523860D01*
X103085011Y-107523856D01*
X103039465Y-107294880D01*
X102982252Y-107209255D01*
X102909760Y-107100763D01*
X102909758Y-107100761D01*
X102865964Y-107035219D01*
X102800422Y-106991425D01*
X102284979Y-106475983D01*
X102284979Y-106345266D01*
X102127410Y-105964860D01*
X101836259Y-105673709D01*
X101455853Y-105516140D01*
X101044105Y-105516140D01*
X100663699Y-105673709D01*
X100372548Y-105964860D01*
X100214979Y-106345266D01*
X100214979Y-106757014D01*
X100372548Y-107137420D01*
X100663699Y-107428571D01*
X101044105Y-107586140D01*
X101174822Y-107586140D01*
X101515011Y-107926330D01*
X101515012Y-108597846D01*
X101341310Y-108178493D01*
X100909507Y-107746690D01*
X100345330Y-107513000D01*
X99734670Y-107513000D01*
X99185000Y-107740681D01*
X99185000Y-104677000D01*
X99427000Y-104677000D01*
X99427000Y-105626250D01*
X99585750Y-105785000D01*
X99801310Y-105785000D01*
X100034699Y-105688327D01*
X100213327Y-105509698D01*
X100310000Y-105276309D01*
X100310000Y-104835750D01*
X100151250Y-104677000D01*
X99427000Y-104677000D01*
X99185000Y-104677000D01*
X99185000Y-104403000D01*
X99427000Y-104403000D01*
X99427000Y-104423000D01*
X100151250Y-104423000D01*
X100310000Y-104264250D01*
X100310000Y-103823691D01*
X100213327Y-103590302D01*
X100212127Y-103589102D01*
X100273157Y-103497765D01*
X100296757Y-103379121D01*
X100540953Y-103215953D01*
X100584749Y-103150408D01*
X101650157Y-102085001D01*
X101972687Y-102085001D01*
X102049999Y-102100379D01*
X102127311Y-102085001D01*
X102127315Y-102085001D01*
X102356291Y-102039455D01*
X102615952Y-101865954D01*
X102659748Y-101800409D01*
X102700408Y-101759749D01*
X102765953Y-101715953D01*
X102939454Y-101456292D01*
X102984325Y-101230711D01*
X103000000Y-101207251D01*
X103067191Y-101307809D01*
G36*
X121577000Y-95523000D02*
X121597000Y-95523000D01*
X121597000Y-95777000D01*
X121577000Y-95777000D01*
X121577000Y-97026250D01*
X121735750Y-97185000D01*
X122626309Y-97185000D01*
X122810373Y-97108758D01*
X114854133Y-105065000D01*
X114582237Y-105065000D01*
X114500000Y-105048642D01*
X114417763Y-105065000D01*
X109645868Y-105065000D01*
X108077002Y-103496135D01*
X108077002Y-103351252D01*
X108235750Y-103510000D01*
X108676309Y-103510000D01*
X108909698Y-103413327D01*
X109088327Y-103234699D01*
X109185000Y-103001310D01*
X109185000Y-102785750D01*
X109026250Y-102627000D01*
X108077000Y-102627000D01*
X108077000Y-102647000D01*
X107823000Y-102647000D01*
X107823000Y-102627000D01*
X107803000Y-102627000D01*
X107803000Y-102373000D01*
X107823000Y-102373000D01*
X107823000Y-101648750D01*
X108077000Y-101648750D01*
X108077000Y-102373000D01*
X109026250Y-102373000D01*
X109185000Y-102214250D01*
X109185000Y-101998690D01*
X109088327Y-101765301D01*
X108909698Y-101586673D01*
X108676309Y-101490000D01*
X108235750Y-101490000D01*
X108077000Y-101648750D01*
X107823000Y-101648750D01*
X107664250Y-101490000D01*
X107223691Y-101490000D01*
X106990302Y-101586673D01*
X106989102Y-101587873D01*
X106897765Y-101526843D01*
X106885000Y-101524304D01*
X106885000Y-101339754D01*
X106932809Y-101307809D01*
X107073157Y-101097765D01*
X107122440Y-100850000D01*
X107122440Y-99522440D01*
X107987283Y-99522440D01*
X109265253Y-100800411D01*
X109309047Y-100865953D01*
X109374589Y-100909747D01*
X109374591Y-100909749D01*
X109568708Y-101039454D01*
X109797684Y-101085000D01*
X109797687Y-101085000D01*
X109874999Y-101100378D01*
X109952311Y-101085000D01*
X112577016Y-101085000D01*
X112465000Y-101355431D01*
X112465000Y-102244569D01*
X112805259Y-103066026D01*
X113433974Y-103694741D01*
X114255431Y-104035000D01*
X115144569Y-104035000D01*
X115966026Y-103694741D01*
X116594741Y-103066026D01*
X116935000Y-102244569D01*
X116935000Y-101355431D01*
X116594741Y-100533974D01*
X115966026Y-99905259D01*
X115144569Y-99565000D01*
X114793700Y-99565000D01*
X116723701Y-97635000D01*
X117122688Y-97635000D01*
X117200000Y-97650378D01*
X117277312Y-97635000D01*
X117277316Y-97635000D01*
X117506292Y-97589454D01*
X117765953Y-97415953D01*
X117809749Y-97350408D01*
X117962717Y-97197440D01*
X119600000Y-97197440D01*
X119847765Y-97148157D01*
X119999047Y-97047073D01*
X120040302Y-97088327D01*
X120273691Y-97185000D01*
X121164250Y-97185000D01*
X121323000Y-97026250D01*
X121323000Y-95777000D01*
X121303000Y-95777000D01*
X121303000Y-95523000D01*
X121323000Y-95523000D01*
X121323000Y-95503000D01*
X121577000Y-95503000D01*
X121577000Y-95523000D01*
X121577000Y-95523000D01*
G37*
X121577000Y-95523000D02*
X121597000Y-95523000D01*
X121597000Y-95777000D01*
X121577000Y-95777000D01*
X121577000Y-97026250D01*
X121735750Y-97185000D01*
X122626309Y-97185000D01*
X122810373Y-97108758D01*
X114854133Y-105065000D01*
X114582237Y-105065000D01*
X114500000Y-105048642D01*
X114417763Y-105065000D01*
X109645868Y-105065000D01*
X108077002Y-103496135D01*
X108077002Y-103351252D01*
X108235750Y-103510000D01*
X108676309Y-103510000D01*
X108909698Y-103413327D01*
X109088327Y-103234699D01*
X109185000Y-103001310D01*
X109185000Y-102785750D01*
X109026250Y-102627000D01*
X108077000Y-102627000D01*
X108077000Y-102647000D01*
X107823000Y-102647000D01*
X107823000Y-102627000D01*
X107803000Y-102627000D01*
X107803000Y-102373000D01*
X107823000Y-102373000D01*
X107823000Y-101648750D01*
X108077000Y-101648750D01*
X108077000Y-102373000D01*
X109026250Y-102373000D01*
X109185000Y-102214250D01*
X109185000Y-101998690D01*
X109088327Y-101765301D01*
X108909698Y-101586673D01*
X108676309Y-101490000D01*
X108235750Y-101490000D01*
X108077000Y-101648750D01*
X107823000Y-101648750D01*
X107664250Y-101490000D01*
X107223691Y-101490000D01*
X106990302Y-101586673D01*
X106989102Y-101587873D01*
X106897765Y-101526843D01*
X106885000Y-101524304D01*
X106885000Y-101339754D01*
X106932809Y-101307809D01*
X107073157Y-101097765D01*
X107122440Y-100850000D01*
X107122440Y-99522440D01*
X107987283Y-99522440D01*
X109265253Y-100800411D01*
X109309047Y-100865953D01*
X109374589Y-100909747D01*
X109374591Y-100909749D01*
X109568708Y-101039454D01*
X109797684Y-101085000D01*
X109797687Y-101085000D01*
X109874999Y-101100378D01*
X109952311Y-101085000D01*
X112577016Y-101085000D01*
X112465000Y-101355431D01*
X112465000Y-102244569D01*
X112805259Y-103066026D01*
X113433974Y-103694741D01*
X114255431Y-104035000D01*
X115144569Y-104035000D01*
X115966026Y-103694741D01*
X116594741Y-103066026D01*
X116935000Y-102244569D01*
X116935000Y-101355431D01*
X116594741Y-100533974D01*
X115966026Y-99905259D01*
X115144569Y-99565000D01*
X114793700Y-99565000D01*
X116723701Y-97635000D01*
X117122688Y-97635000D01*
X117200000Y-97650378D01*
X117277312Y-97635000D01*
X117277316Y-97635000D01*
X117506292Y-97589454D01*
X117765953Y-97415953D01*
X117809749Y-97350408D01*
X117962717Y-97197440D01*
X119600000Y-97197440D01*
X119847765Y-97148157D01*
X119999047Y-97047073D01*
X120040302Y-97088327D01*
X120273691Y-97185000D01*
X121164250Y-97185000D01*
X121323000Y-97026250D01*
X121323000Y-95777000D01*
X121303000Y-95777000D01*
X121303000Y-95523000D01*
X121323000Y-95523000D01*
X121323000Y-95503000D01*
X121577000Y-95503000D01*
X121577000Y-95523000D01*
G36*
X126190000Y-92214250D02*
X126348750Y-92373000D01*
X127373000Y-92373000D01*
X127373000Y-92353000D01*
X127627000Y-92353000D01*
X127627000Y-92373000D01*
X127647000Y-92373000D01*
X127647000Y-92627000D01*
X127627000Y-92627000D01*
X127627000Y-93651250D01*
X127785750Y-93810000D01*
X128301310Y-93810000D01*
X128534699Y-93713327D01*
X128704223Y-93543802D01*
X128988864Y-93733993D01*
X129370978Y-93810000D01*
X129629022Y-93810000D01*
X130011136Y-93733993D01*
X130444457Y-93444457D01*
X130500000Y-93361331D01*
X130555543Y-93444457D01*
X130988864Y-93733993D01*
X131069166Y-93749966D01*
X128404133Y-96415000D01*
X124908025Y-96415000D01*
X124913327Y-96409698D01*
X125010000Y-96176309D01*
X125010000Y-95735750D01*
X124851250Y-95577000D01*
X124127000Y-95577000D01*
X124127000Y-95597000D01*
X123873000Y-95597000D01*
X123873000Y-95577000D01*
X123853000Y-95577000D01*
X123853000Y-95323000D01*
X123873000Y-95323000D01*
X123873000Y-95303000D01*
X124127000Y-95303000D01*
X124127000Y-95323000D01*
X124851250Y-95323000D01*
X125010000Y-95164250D01*
X125010000Y-94723691D01*
X124913327Y-94490302D01*
X124912127Y-94489102D01*
X124973157Y-94397765D01*
X125022440Y-94150000D01*
X125022440Y-92950000D01*
X124989769Y-92785750D01*
X126190000Y-92785750D01*
X126190000Y-93301309D01*
X126286673Y-93534698D01*
X126465301Y-93713327D01*
X126698690Y-93810000D01*
X127214250Y-93810000D01*
X127373000Y-93651250D01*
X127373000Y-92627000D01*
X126348750Y-92627000D01*
X126190000Y-92785750D01*
X124989769Y-92785750D01*
X124973157Y-92702235D01*
X124832809Y-92492191D01*
X124622765Y-92351843D01*
X124375000Y-92302560D01*
X123625000Y-92302560D01*
X123377235Y-92351843D01*
X123167191Y-92492191D01*
X123147440Y-92521750D01*
X123147440Y-92450000D01*
X123098157Y-92202235D01*
X122957809Y-91992191D01*
X122947031Y-91984989D01*
X126190000Y-91984989D01*
X126190000Y-92214250D01*
X126190000Y-92214250D01*
G37*
X126190000Y-92214250D02*
X126348750Y-92373000D01*
X127373000Y-92373000D01*
X127373000Y-92353000D01*
X127627000Y-92353000D01*
X127627000Y-92373000D01*
X127647000Y-92373000D01*
X127647000Y-92627000D01*
X127627000Y-92627000D01*
X127627000Y-93651250D01*
X127785750Y-93810000D01*
X128301310Y-93810000D01*
X128534699Y-93713327D01*
X128704223Y-93543802D01*
X128988864Y-93733993D01*
X129370978Y-93810000D01*
X129629022Y-93810000D01*
X130011136Y-93733993D01*
X130444457Y-93444457D01*
X130500000Y-93361331D01*
X130555543Y-93444457D01*
X130988864Y-93733993D01*
X131069166Y-93749966D01*
X128404133Y-96415000D01*
X124908025Y-96415000D01*
X124913327Y-96409698D01*
X125010000Y-96176309D01*
X125010000Y-95735750D01*
X124851250Y-95577000D01*
X124127000Y-95577000D01*
X124127000Y-95597000D01*
X123873000Y-95597000D01*
X123873000Y-95577000D01*
X123853000Y-95577000D01*
X123853000Y-95323000D01*
X123873000Y-95323000D01*
X123873000Y-95303000D01*
X124127000Y-95303000D01*
X124127000Y-95323000D01*
X124851250Y-95323000D01*
X125010000Y-95164250D01*
X125010000Y-94723691D01*
X124913327Y-94490302D01*
X124912127Y-94489102D01*
X124973157Y-94397765D01*
X125022440Y-94150000D01*
X125022440Y-92950000D01*
X124989769Y-92785750D01*
X126190000Y-92785750D01*
X126190000Y-93301309D01*
X126286673Y-93534698D01*
X126465301Y-93713327D01*
X126698690Y-93810000D01*
X127214250Y-93810000D01*
X127373000Y-93651250D01*
X127373000Y-92627000D01*
X126348750Y-92627000D01*
X126190000Y-92785750D01*
X124989769Y-92785750D01*
X124973157Y-92702235D01*
X124832809Y-92492191D01*
X124622765Y-92351843D01*
X124375000Y-92302560D01*
X123625000Y-92302560D01*
X123377235Y-92351843D01*
X123167191Y-92492191D01*
X123147440Y-92521750D01*
X123147440Y-92450000D01*
X123098157Y-92202235D01*
X122957809Y-91992191D01*
X122947031Y-91984989D01*
X126190000Y-91984989D01*
X126190000Y-92214250D01*
G36*
X113260546Y-91993709D02*
X113215000Y-92222685D01*
X113215000Y-92222688D01*
X113199622Y-92300000D01*
X113215000Y-92377313D01*
X113215001Y-93122684D01*
X113199622Y-93200000D01*
X113260546Y-93506291D01*
X113390251Y-93700408D01*
X113390254Y-93700411D01*
X113434048Y-93765953D01*
X113499590Y-93809747D01*
X114215000Y-94525157D01*
X114215001Y-96227583D01*
X113833845Y-95307392D01*
X113092608Y-94566155D01*
X112124134Y-94165000D01*
X111075866Y-94165000D01*
X110107392Y-94566155D01*
X109366155Y-95307392D01*
X109097440Y-95956128D01*
X109097440Y-95925000D01*
X109072576Y-95800000D01*
X109097440Y-95675000D01*
X109097440Y-95301938D01*
X109300955Y-95165953D01*
X109344751Y-95100408D01*
X109400409Y-95044750D01*
X109465954Y-95000954D01*
X109639455Y-94741293D01*
X109685001Y-94512317D01*
X109685001Y-94512313D01*
X109700379Y-94435001D01*
X109685001Y-94357689D01*
X109685001Y-94118033D01*
X109714004Y-94089030D01*
X109779549Y-94045234D01*
X109953050Y-93785573D01*
X109989729Y-93601174D01*
X110091027Y-93499876D01*
X110248596Y-93119470D01*
X110248596Y-92707722D01*
X110104315Y-92359396D01*
X110127431Y-92336280D01*
X110272940Y-91984989D01*
X113266373Y-91984989D01*
X113260546Y-91993709D01*
X113260546Y-91993709D01*
G37*
X113260546Y-91993709D02*
X113215000Y-92222685D01*
X113215000Y-92222688D01*
X113199622Y-92300000D01*
X113215000Y-92377313D01*
X113215001Y-93122684D01*
X113199622Y-93200000D01*
X113260546Y-93506291D01*
X113390251Y-93700408D01*
X113390254Y-93700411D01*
X113434048Y-93765953D01*
X113499590Y-93809747D01*
X114215000Y-94525157D01*
X114215001Y-96227583D01*
X113833845Y-95307392D01*
X113092608Y-94566155D01*
X112124134Y-94165000D01*
X111075866Y-94165000D01*
X110107392Y-94566155D01*
X109366155Y-95307392D01*
X109097440Y-95956128D01*
X109097440Y-95925000D01*
X109072576Y-95800000D01*
X109097440Y-95675000D01*
X109097440Y-95301938D01*
X109300955Y-95165953D01*
X109344751Y-95100408D01*
X109400409Y-95044750D01*
X109465954Y-95000954D01*
X109639455Y-94741293D01*
X109685001Y-94512317D01*
X109685001Y-94512313D01*
X109700379Y-94435001D01*
X109685001Y-94357689D01*
X109685001Y-94118033D01*
X109714004Y-94089030D01*
X109779549Y-94045234D01*
X109953050Y-93785573D01*
X109989729Y-93601174D01*
X110091027Y-93499876D01*
X110248596Y-93119470D01*
X110248596Y-92707722D01*
X110104315Y-92359396D01*
X110127431Y-92336280D01*
X110272940Y-91984989D01*
X113266373Y-91984989D01*
X113260546Y-91993709D01*
G36*
X116327000Y-93423000D02*
X116347000Y-93423000D01*
X116347000Y-93677000D01*
X116327000Y-93677000D01*
X116327000Y-93697000D01*
X116073000Y-93697000D01*
X116073000Y-93677000D01*
X116053000Y-93677000D01*
X116053000Y-93423000D01*
X116073000Y-93423000D01*
X116073000Y-93403000D01*
X116327000Y-93403000D01*
X116327000Y-93423000D01*
X116327000Y-93423000D01*
G37*
X116327000Y-93423000D02*
X116347000Y-93423000D01*
X116347000Y-93677000D01*
X116327000Y-93677000D01*
X116327000Y-93697000D01*
X116073000Y-93697000D01*
X116073000Y-93677000D01*
X116053000Y-93677000D01*
X116053000Y-93423000D01*
X116073000Y-93423000D01*
X116073000Y-93403000D01*
X116327000Y-93403000D01*
X116327000Y-93423000D01*
G36*
X118677000Y-93223000D02*
X118697000Y-93223000D01*
X118697000Y-93477000D01*
X118677000Y-93477000D01*
X118677000Y-93497000D01*
X118423000Y-93497000D01*
X118423000Y-93477000D01*
X118403000Y-93477000D01*
X118403000Y-93223000D01*
X118423000Y-93223000D01*
X118423000Y-93203000D01*
X118677000Y-93203000D01*
X118677000Y-93223000D01*
X118677000Y-93223000D01*
G37*
X118677000Y-93223000D02*
X118697000Y-93223000D01*
X118697000Y-93477000D01*
X118677000Y-93477000D01*
X118677000Y-93497000D01*
X118423000Y-93497000D01*
X118423000Y-93477000D01*
X118403000Y-93477000D01*
X118403000Y-93223000D01*
X118423000Y-93223000D01*
X118423000Y-93203000D01*
X118677000Y-93203000D01*
X118677000Y-93223000D01*
G36*
X115286673Y-92590302D02*
X115190000Y-92823691D01*
X115190000Y-93264250D01*
X115348748Y-93422998D01*
X115333155Y-93422998D01*
X114785000Y-92874843D01*
X114785000Y-92625157D01*
X114825157Y-92585000D01*
X115291975Y-92585000D01*
X115286673Y-92590302D01*
X115286673Y-92590302D01*
G37*
X115286673Y-92590302D02*
X115190000Y-92823691D01*
X115190000Y-93264250D01*
X115348748Y-93422998D01*
X115333155Y-93422998D01*
X114785000Y-92874843D01*
X114785000Y-92625157D01*
X114825157Y-92585000D01*
X115291975Y-92585000D01*
X115286673Y-92590302D01*
G04 #@! TD*
M02*
