solid OpenSCAD_Model
  facet normal 0.965926 0.258818 0
    outer loop
      vertex 2.93444 0.623734 2.45
      vertex 2.85317 0.927051 -2.45
      vertex 2.85317 0.927051 2.45
    endloop
  endfacet
  facet normal 0.965926 0.258818 0
    outer loop
      vertex 2.85317 0.927051 -2.45
      vertex 2.93444 0.623734 2.45
      vertex 2.93444 0.623734 -2.45
    endloop
  endfacet
  facet normal 0.998629 0.0523371 0
    outer loop
      vertex 3 0 2.45
      vertex 2.98357 0.313585 -2.45
      vertex 2.98357 0.313585 2.45
    endloop
  endfacet
  facet normal 0.998629 0.0523371 0
    outer loop
      vertex 2.98357 0.313585 -2.45
      vertex 3 0 2.45
      vertex 3 0 -2.45
    endloop
  endfacet
  facet normal -0.998629 0.0523371 0
    outer loop
      vertex -3 0 -2.45
      vertex -2.98357 0.313585 2.45
      vertex -2.98357 0.313585 -2.45
    endloop
  endfacet
  facet normal -0.998629 0.0523371 0
    outer loop
      vertex -2.98357 0.313585 2.45
      vertex -3 0 -2.45
      vertex -3 0 2.45
    endloop
  endfacet
  facet normal 0.0523371 0.998629 -0
    outer loop
      vertex 0.313585 2.98357 -2.45
      vertex 0 3 2.45
      vertex 0.313585 2.98357 2.45
    endloop
  endfacet
  facet normal 0.0523371 0.998629 0
    outer loop
      vertex 0 3 2.45
      vertex 0.313585 2.98357 -2.45
      vertex 0 3 -2.45
    endloop
  endfacet
  facet normal 0.707107 0.707107 0
    outer loop
      vertex 2.22943 2.00739 2.45
      vertex 2.00739 2.22943 -2.45
      vertex 2.00739 2.22943 2.45
    endloop
  endfacet
  facet normal 0.707107 0.707107 0
    outer loop
      vertex 2.00739 2.22943 -2.45
      vertex 2.22943 2.00739 2.45
      vertex 2.22943 2.00739 -2.45
    endloop
  endfacet
  facet normal -0.629321 0.777145 0
    outer loop
      vertex -1.76336 2.42705 -2.45
      vertex -2.00739 2.22943 2.45
      vertex -1.76336 2.42705 2.45
    endloop
  endfacet
  facet normal -0.629321 0.777145 0
    outer loop
      vertex -2.00739 2.22943 2.45
      vertex -1.76336 2.42705 -2.45
      vertex -2.00739 2.22943 -2.45
    endloop
  endfacet
  facet normal -0.258818 0.965926 0
    outer loop
      vertex -0.623734 2.93444 -2.45
      vertex -0.927051 2.85317 2.45
      vertex -0.623734 2.93444 2.45
    endloop
  endfacet
  facet normal -0.258818 0.965926 0
    outer loop
      vertex -0.927051 2.85317 2.45
      vertex -0.623734 2.93444 -2.45
      vertex -0.927051 2.85317 -2.45
    endloop
  endfacet
  facet normal -0.838671 -0.544638 0
    outer loop
      vertex -2.42705 -1.76336 -2.45
      vertex -2.59808 -1.5 2.45
      vertex -2.59808 -1.5 -2.45
    endloop
  endfacet
  facet normal -0.838671 -0.544638 0
    outer loop
      vertex -2.59808 -1.5 2.45
      vertex -2.42705 -1.76336 -2.45
      vertex -2.42705 -1.76336 2.45
    endloop
  endfacet
  facet normal 0.93358 0.358369 0
    outer loop
      vertex 2.85317 0.927051 2.45
      vertex 2.74064 1.22021 -2.45
      vertex 2.74064 1.22021 2.45
    endloop
  endfacet
  facet normal 0.93358 0.358369 0
    outer loop
      vertex 2.74064 1.22021 -2.45
      vertex 2.85317 0.927051 2.45
      vertex 2.85317 0.927051 -2.45
    endloop
  endfacet
  facet normal 0.838671 0.544638 0
    outer loop
      vertex 2.59808 1.5 2.45
      vertex 2.42705 1.76336 -2.45
      vertex 2.42705 1.76336 2.45
    endloop
  endfacet
  facet normal 0.838671 0.544638 0
    outer loop
      vertex 2.42705 1.76336 -2.45
      vertex 2.59808 1.5 2.45
      vertex 2.59808 1.5 -2.45
    endloop
  endfacet
  facet normal 0.358369 0.93358 -0
    outer loop
      vertex 1.22021 2.74064 -2.45
      vertex 0.927051 2.85317 2.45
      vertex 1.22021 2.74064 2.45
    endloop
  endfacet
  facet normal 0.358369 0.93358 0
    outer loop
      vertex 0.927051 2.85317 2.45
      vertex 1.22021 2.74064 -2.45
      vertex 0.927051 2.85317 -2.45
    endloop
  endfacet
  facet normal 0.258818 0.965926 -0
    outer loop
      vertex 0.927051 2.85317 -2.45
      vertex 0.623734 2.93444 2.45
      vertex 0.927051 2.85317 2.45
    endloop
  endfacet
  facet normal 0.258818 0.965926 0
    outer loop
      vertex 0.623734 2.93444 2.45
      vertex 0.927051 2.85317 -2.45
      vertex 0.623734 2.93444 -2.45
    endloop
  endfacet
  facet normal -0.838671 0.544638 0
    outer loop
      vertex -2.59808 1.5 -2.45
      vertex -2.42705 1.76336 2.45
      vertex -2.42705 1.76336 -2.45
    endloop
  endfacet
  facet normal -0.838671 0.544638 0
    outer loop
      vertex -2.42705 1.76336 2.45
      vertex -2.59808 1.5 -2.45
      vertex -2.59808 1.5 2.45
    endloop
  endfacet
  facet normal -0.777145 0.629321 0
    outer loop
      vertex -2.42705 1.76336 -2.45
      vertex -2.22943 2.00739 2.45
      vertex -2.22943 2.00739 -2.45
    endloop
  endfacet
  facet normal -0.777145 0.629321 0
    outer loop
      vertex -2.22943 2.00739 2.45
      vertex -2.42705 1.76336 -2.45
      vertex -2.42705 1.76336 2.45
    endloop
  endfacet
  facet normal -0.0523371 0.998629 0
    outer loop
      vertex 0 3 -2.45
      vertex -0.313585 2.98357 2.45
      vertex 0 3 2.45
    endloop
  endfacet
  facet normal -0.0523371 0.998629 0
    outer loop
      vertex -0.313585 2.98357 2.45
      vertex 0 3 -2.45
      vertex -0.313585 2.98357 -2.45
    endloop
  endfacet
  facet normal 0.891007 -0.45399 0
    outer loop
      vertex 2.59808 -1.5 2.45
      vertex 2.74064 -1.22021 -2.45
      vertex 2.74064 -1.22021 2.45
    endloop
  endfacet
  facet normal 0.891007 -0.45399 0
    outer loop
      vertex 2.74064 -1.22021 -2.45
      vertex 2.59808 -1.5 2.45
      vertex 2.59808 -1.5 -2.45
    endloop
  endfacet
  facet normal 0.258818 -0.965926 0
    outer loop
      vertex 0.623734 -2.93444 -2.45
      vertex 0.927051 -2.85317 2.45
      vertex 0.623734 -2.93444 2.45
    endloop
  endfacet
  facet normal 0.258818 -0.965926 0
    outer loop
      vertex 0.927051 -2.85317 2.45
      vertex 0.623734 -2.93444 -2.45
      vertex 0.927051 -2.85317 -2.45
    endloop
  endfacet
  facet normal 0.707107 -0.707107 0
    outer loop
      vertex 2.00739 -2.22943 2.45
      vertex 2.22943 -2.00739 -2.45
      vertex 2.22943 -2.00739 2.45
    endloop
  endfacet
  facet normal 0.707107 -0.707107 0
    outer loop
      vertex 2.22943 -2.00739 -2.45
      vertex 2.00739 -2.22943 2.45
      vertex 2.00739 -2.22943 -2.45
    endloop
  endfacet
  facet normal 0.965926 -0.258818 0
    outer loop
      vertex 2.85317 -0.927051 2.45
      vertex 2.93444 -0.623734 -2.45
      vertex 2.93444 -0.623734 2.45
    endloop
  endfacet
  facet normal 0.965926 -0.258818 0
    outer loop
      vertex 2.93444 -0.623734 -2.45
      vertex 2.85317 -0.927051 2.45
      vertex 2.85317 -0.927051 -2.45
    endloop
  endfacet
  facet normal -0.358369 -0.93358 0
    outer loop
      vertex -1.22021 -2.74064 -2.45
      vertex -0.927051 -2.85317 2.45
      vertex -1.22021 -2.74064 2.45
    endloop
  endfacet
  facet normal -0.358369 -0.93358 -0
    outer loop
      vertex -0.927051 -2.85317 2.45
      vertex -1.22021 -2.74064 -2.45
      vertex -0.927051 -2.85317 -2.45
    endloop
  endfacet
  facet normal -0.54464 -0.83867 0
    outer loop
      vertex -1.76336 -2.42705 -2.45
      vertex -1.5 -2.59808 2.45
      vertex -1.76336 -2.42705 2.45
    endloop
  endfacet
  facet normal -0.54464 -0.83867 -0
    outer loop
      vertex -1.5 -2.59808 2.45
      vertex -1.76336 -2.42705 -2.45
      vertex -1.5 -2.59808 -2.45
    endloop
  endfacet
  facet normal 0.891007 0.45399 0
    outer loop
      vertex 2.74064 1.22021 2.45
      vertex 2.59808 1.5 -2.45
      vertex 2.59808 1.5 2.45
    endloop
  endfacet
  facet normal 0.891007 0.45399 0
    outer loop
      vertex 2.59808 1.5 -2.45
      vertex 2.74064 1.22021 2.45
      vertex 2.74064 1.22021 -2.45
    endloop
  endfacet
  facet normal 0.777145 0.629321 0
    outer loop
      vertex 2.42705 1.76336 2.45
      vertex 2.22943 2.00739 -2.45
      vertex 2.22943 2.00739 2.45
    endloop
  endfacet
  facet normal 0.777145 0.629321 0
    outer loop
      vertex 2.22943 2.00739 -2.45
      vertex 2.42705 1.76336 2.45
      vertex 2.42705 1.76336 -2.45
    endloop
  endfacet
  facet normal 0.629321 0.777145 -0
    outer loop
      vertex 2.00739 2.22943 -2.45
      vertex 1.76336 2.42705 2.45
      vertex 2.00739 2.22943 2.45
    endloop
  endfacet
  facet normal 0.629321 0.777145 0
    outer loop
      vertex 1.76336 2.42705 2.45
      vertex 2.00739 2.22943 -2.45
      vertex 1.76336 2.42705 -2.45
    endloop
  endfacet
  facet normal 0.54464 0.83867 -0
    outer loop
      vertex 1.76336 2.42705 -2.45
      vertex 1.5 2.59808 2.45
      vertex 1.76336 2.42705 2.45
    endloop
  endfacet
  facet normal 0.54464 0.83867 0
    outer loop
      vertex 1.5 2.59808 2.45
      vertex 1.76336 2.42705 -2.45
      vertex 1.5 2.59808 -2.45
    endloop
  endfacet
  facet normal -0.891007 0.45399 0
    outer loop
      vertex -2.74064 1.22021 -2.45
      vertex -2.59808 1.5 2.45
      vertex -2.59808 1.5 -2.45
    endloop
  endfacet
  facet normal -0.891007 0.45399 0
    outer loop
      vertex -2.59808 1.5 2.45
      vertex -2.74064 1.22021 -2.45
      vertex -2.74064 1.22021 2.45
    endloop
  endfacet
  facet normal -0.965926 0.258818 0
    outer loop
      vertex -2.93444 0.623734 -2.45
      vertex -2.85317 0.927051 2.45
      vertex -2.85317 0.927051 -2.45
    endloop
  endfacet
  facet normal -0.965926 0.258818 0
    outer loop
      vertex -2.85317 0.927051 2.45
      vertex -2.93444 0.623734 -2.45
      vertex -2.93444 0.623734 2.45
    endloop
  endfacet
  facet normal -0.987688 0.156434 0
    outer loop
      vertex -2.98357 0.313585 -2.45
      vertex -2.93444 0.623734 2.45
      vertex -2.93444 0.623734 -2.45
    endloop
  endfacet
  facet normal -0.987688 0.156434 0
    outer loop
      vertex -2.93444 0.623734 2.45
      vertex -2.98357 0.313585 -2.45
      vertex -2.98357 0.313585 2.45
    endloop
  endfacet
  facet normal -0.45399 0.891007 0
    outer loop
      vertex -1.22021 2.74064 -2.45
      vertex -1.5 2.59808 2.45
      vertex -1.22021 2.74064 2.45
    endloop
  endfacet
  facet normal -0.45399 0.891007 0
    outer loop
      vertex -1.5 2.59808 2.45
      vertex -1.22021 2.74064 -2.45
      vertex -1.5 2.59808 -2.45
    endloop
  endfacet
  facet normal -0.156434 0.987688 0
    outer loop
      vertex -0.313585 2.98357 -2.45
      vertex -0.623734 2.93444 2.45
      vertex -0.313585 2.98357 2.45
    endloop
  endfacet
  facet normal -0.156434 0.987688 0
    outer loop
      vertex -0.623734 2.93444 2.45
      vertex -0.313585 2.98357 -2.45
      vertex -0.623734 2.93444 -2.45
    endloop
  endfacet
  facet normal 0.0523371 -0.998629 0
    outer loop
      vertex 0 -3 -2.45
      vertex 0.313585 -2.98357 2.45
      vertex 0 -3 2.45
    endloop
  endfacet
  facet normal 0.0523371 -0.998629 0
    outer loop
      vertex 0.313585 -2.98357 2.45
      vertex 0 -3 -2.45
      vertex 0.313585 -2.98357 -2.45
    endloop
  endfacet
  facet normal 0.156434 -0.987688 0
    outer loop
      vertex 0.313585 -2.98357 -2.45
      vertex 0.623734 -2.93444 2.45
      vertex 0.313585 -2.98357 2.45
    endloop
  endfacet
  facet normal 0.156434 -0.987688 0
    outer loop
      vertex 0.623734 -2.93444 2.45
      vertex 0.313585 -2.98357 -2.45
      vertex 0.623734 -2.93444 -2.45
    endloop
  endfacet
  facet normal 0.453989 -0.891007 0
    outer loop
      vertex 1.22021 -2.74064 -2.45
      vertex 1.5 -2.59808 2.45
      vertex 1.22021 -2.74064 2.45
    endloop
  endfacet
  facet normal 0.453989 -0.891007 0
    outer loop
      vertex 1.5 -2.59808 2.45
      vertex 1.22021 -2.74064 -2.45
      vertex 1.5 -2.59808 -2.45
    endloop
  endfacet
  facet normal 0.629321 -0.777145 0
    outer loop
      vertex 1.76336 -2.42705 -2.45
      vertex 2.00739 -2.22943 2.45
      vertex 1.76336 -2.42705 2.45
    endloop
  endfacet
  facet normal 0.629321 -0.777145 0
    outer loop
      vertex 2.00739 -2.22943 2.45
      vertex 1.76336 -2.42705 -2.45
      vertex 2.00739 -2.22943 -2.45
    endloop
  endfacet
  facet normal 0.54464 -0.83867 0
    outer loop
      vertex 1.5 -2.59808 -2.45
      vertex 1.76336 -2.42705 2.45
      vertex 1.5 -2.59808 2.45
    endloop
  endfacet
  facet normal 0.54464 -0.83867 0
    outer loop
      vertex 1.76336 -2.42705 2.45
      vertex 1.5 -2.59808 -2.45
      vertex 1.76336 -2.42705 -2.45
    endloop
  endfacet
  facet normal 0.777145 -0.629321 0
    outer loop
      vertex 2.22943 -2.00739 2.45
      vertex 2.42705 -1.76336 -2.45
      vertex 2.42705 -1.76336 2.45
    endloop
  endfacet
  facet normal 0.777145 -0.629321 0
    outer loop
      vertex 2.42705 -1.76336 -2.45
      vertex 2.22943 -2.00739 2.45
      vertex 2.22943 -2.00739 -2.45
    endloop
  endfacet
  facet normal 0.838671 -0.544638 0
    outer loop
      vertex 2.42705 -1.76336 2.45
      vertex 2.59808 -1.5 -2.45
      vertex 2.59808 -1.5 2.45
    endloop
  endfacet
  facet normal 0.838671 -0.544638 0
    outer loop
      vertex 2.59808 -1.5 -2.45
      vertex 2.42705 -1.76336 2.45
      vertex 2.42705 -1.76336 -2.45
    endloop
  endfacet
  facet normal -0.156434 -0.987688 0
    outer loop
      vertex -0.623734 -2.93444 -2.45
      vertex -0.313585 -2.98357 2.45
      vertex -0.623734 -2.93444 2.45
    endloop
  endfacet
  facet normal -0.156434 -0.987688 -0
    outer loop
      vertex -0.313585 -2.98357 2.45
      vertex -0.623734 -2.93444 -2.45
      vertex -0.313585 -2.98357 -2.45
    endloop
  endfacet
  facet normal -0.707107 -0.707107 0
    outer loop
      vertex -2.00739 -2.22943 -2.45
      vertex -2.22943 -2.00739 2.45
      vertex -2.22943 -2.00739 -2.45
    endloop
  endfacet
  facet normal -0.707107 -0.707107 0
    outer loop
      vertex -2.22943 -2.00739 2.45
      vertex -2.00739 -2.22943 -2.45
      vertex -2.00739 -2.22943 2.45
    endloop
  endfacet
  facet normal -0.453989 -0.891007 0
    outer loop
      vertex -1.5 -2.59808 -2.45
      vertex -1.22021 -2.74064 2.45
      vertex -1.5 -2.59808 2.45
    endloop
  endfacet
  facet normal -0.453989 -0.891007 -0
    outer loop
      vertex -1.22021 -2.74064 2.45
      vertex -1.5 -2.59808 -2.45
      vertex -1.22021 -2.74064 -2.45
    endloop
  endfacet
  facet normal -0.0523371 -0.998629 0
    outer loop
      vertex -0.313585 -2.98357 -2.45
      vertex 0 -3 2.45
      vertex -0.313585 -2.98357 2.45
    endloop
  endfacet
  facet normal -0.0523371 -0.998629 -0
    outer loop
      vertex 0 -3 2.45
      vertex -0.313585 -2.98357 -2.45
      vertex 0 -3 -2.45
    endloop
  endfacet
  facet normal -0.629321 -0.777145 0
    outer loop
      vertex -2.00739 -2.22943 -2.45
      vertex -1.76336 -2.42705 2.45
      vertex -2.00739 -2.22943 2.45
    endloop
  endfacet
  facet normal -0.629321 -0.777145 -0
    outer loop
      vertex -1.76336 -2.42705 2.45
      vertex -2.00739 -2.22943 -2.45
      vertex -1.76336 -2.42705 -2.45
    endloop
  endfacet
  facet normal -0.777145 -0.629321 0
    outer loop
      vertex -2.22943 -2.00739 -2.45
      vertex -2.42705 -1.76336 2.45
      vertex -2.42705 -1.76336 -2.45
    endloop
  endfacet
  facet normal -0.777145 -0.629321 0
    outer loop
      vertex -2.42705 -1.76336 2.45
      vertex -2.22943 -2.00739 -2.45
      vertex -2.22943 -2.00739 2.45
    endloop
  endfacet
  facet normal -0.93358 -0.358369 0
    outer loop
      vertex -2.74064 -1.22021 -2.45
      vertex -2.85317 -0.927051 2.45
      vertex -2.85317 -0.927051 -2.45
    endloop
  endfacet
  facet normal -0.93358 -0.358369 0
    outer loop
      vertex -2.85317 -0.927051 2.45
      vertex -2.74064 -1.22021 -2.45
      vertex -2.74064 -1.22021 2.45
    endloop
  endfacet
  facet normal -0.965926 -0.258818 0
    outer loop
      vertex -2.85317 -0.927051 -2.45
      vertex -2.93444 -0.623734 2.45
      vertex -2.93444 -0.623734 -2.45
    endloop
  endfacet
  facet normal -0.965926 -0.258818 0
    outer loop
      vertex -2.93444 -0.623734 2.45
      vertex -2.85317 -0.927051 -2.45
      vertex -2.85317 -0.927051 2.45
    endloop
  endfacet
  facet normal -0.998629 -0.0523371 0
    outer loop
      vertex -2.98357 -0.313585 -2.45
      vertex -3 0 2.45
      vertex -3 0 -2.45
    endloop
  endfacet
  facet normal -0.998629 -0.0523371 0
    outer loop
      vertex -3 0 2.45
      vertex -2.98357 -0.313585 -2.45
      vertex -2.98357 -0.313585 2.45
    endloop
  endfacet
  facet normal 0 0 -1
    outer loop
      vertex 1.25 0 -2.45
      vertex 3 0 -2.45
      vertex 2.98357 -0.313585 -2.45
    endloop
  endfacet
  facet normal 0 0 -1
    outer loop
      vertex 1.24315 -0.13066 -2.45
      vertex 2.98357 -0.313585 -2.45
      vertex 2.93444 -0.623734 -2.45
    endloop
  endfacet
  facet normal 0 0 -1
    outer loop
      vertex 3 0 -2.45
      vertex 1.25 0 -2.45
      vertex 2.98357 0.313585 -2.45
    endloop
  endfacet
  facet normal 0 0 -1
    outer loop
      vertex 1.22268 -0.25989 -2.45
      vertex 2.93444 -0.623734 -2.45
      vertex 2.85317 -0.927051 -2.45
    endloop
  endfacet
  facet normal 0 0 -1
    outer loop
      vertex 1.24315 0.13066 -2.45
      vertex 2.98357 0.313585 -2.45
      vertex 1.25 0 -2.45
    endloop
  endfacet
  facet normal 0 0 -1
    outer loop
      vertex 1.18882 -0.386271 -2.45
      vertex 2.85317 -0.927051 -2.45
      vertex 2.74064 -1.22021 -2.45
    endloop
  endfacet
  facet normal -0 0 -1
    outer loop
      vertex 2.98357 0.313585 -2.45
      vertex 1.24315 0.13066 -2.45
      vertex 2.93444 0.623734 -2.45
    endloop
  endfacet
  facet normal 0 0 -1
    outer loop
      vertex 1.14193 -0.50842 -2.45
      vertex 2.74064 -1.22021 -2.45
      vertex 2.59808 -1.5 -2.45
    endloop
  endfacet
  facet normal 0 0 -1
    outer loop
      vertex 1.22268 0.25989 -2.45
      vertex 2.93444 0.623734 -2.45
      vertex 1.24315 0.13066 -2.45
    endloop
  endfacet
  facet normal 0 0 -1
    outer loop
      vertex 1.08253 -0.624999 -2.45
      vertex 2.59808 -1.5 -2.45
      vertex 2.42705 -1.76336 -2.45
    endloop
  endfacet
  facet normal -0 0 -1
    outer loop
      vertex 2.93444 0.623734 -2.45
      vertex 1.22268 0.25989 -2.45
      vertex 2.85317 0.927051 -2.45
    endloop
  endfacet
  facet normal 0 0 -1
    outer loop
      vertex 1.01127 -0.734731 -2.45
      vertex 2.42705 -1.76336 -2.45
      vertex 2.22943 -2.00739 -2.45
    endloop
  endfacet
  facet normal 0 0 -1
    outer loop
      vertex 1.18882 0.386271 -2.45
      vertex 2.85317 0.927051 -2.45
      vertex 1.22268 0.25989 -2.45
    endloop
  endfacet
  facet normal 0 0 -1
    outer loop
      vertex 0.92893 -0.836412 -2.45
      vertex 2.22943 -2.00739 -2.45
      vertex 2.00739 -2.22943 -2.45
    endloop
  endfacet
  facet normal -0 0 -1
    outer loop
      vertex 2.85317 0.927051 -2.45
      vertex 1.18882 0.386271 -2.45
      vertex 2.74064 1.22021 -2.45
    endloop
  endfacet
  facet normal 0 0 -1
    outer loop
      vertex 0.836412 -0.92893 -2.45
      vertex 2.00739 -2.22943 -2.45
      vertex 1.76336 -2.42705 -2.45
    endloop
  endfacet
  facet normal 0 0 -1
    outer loop
      vertex 1.14193 0.50842 -2.45
      vertex 2.74064 1.22021 -2.45
      vertex 1.18882 0.386271 -2.45
    endloop
  endfacet
  facet normal 0 0 -1
    outer loop
      vertex 0.734731 -1.01127 -2.45
      vertex 1.76336 -2.42705 -2.45
      vertex 1.5 -2.59808 -2.45
    endloop
  endfacet
  facet normal -0 0 -1
    outer loop
      vertex 2.74064 1.22021 -2.45
      vertex 1.14193 0.50842 -2.45
      vertex 2.59808 1.5 -2.45
    endloop
  endfacet
  facet normal 0 0 -1
    outer loop
      vertex 1.08253 0.624999 -2.45
      vertex 2.59808 1.5 -2.45
      vertex 1.14193 0.50842 -2.45
    endloop
  endfacet
  facet normal 0 0 -1
    outer loop
      vertex 2.98357 -0.313585 -2.45
      vertex 1.24315 -0.13066 -2.45
      vertex 1.25 0 -2.45
    endloop
  endfacet
  facet normal 0 0 -1
    outer loop
      vertex 2.93444 -0.623734 -2.45
      vertex 1.22268 -0.25989 -2.45
      vertex 1.24315 -0.13066 -2.45
    endloop
  endfacet
  facet normal 0 0 -1
    outer loop
      vertex 0.625 -1.08253 -2.45
      vertex 1.5 -2.59808 -2.45
      vertex 1.22021 -2.74064 -2.45
    endloop
  endfacet
  facet normal 0 0 -1
    outer loop
      vertex 2.85317 -0.927051 -2.45
      vertex 1.18882 -0.386271 -2.45
      vertex 1.22268 -0.25989 -2.45
    endloop
  endfacet
  facet normal 0 0 -1
    outer loop
      vertex 2.74064 -1.22021 -2.45
      vertex 1.14193 -0.50842 -2.45
      vertex 1.18882 -0.386271 -2.45
    endloop
  endfacet
  facet normal 0 0 -1
    outer loop
      vertex 2.59808 -1.5 -2.45
      vertex 1.08253 -0.624999 -2.45
      vertex 1.14193 -0.50842 -2.45
    endloop
  endfacet
  facet normal 0 0 -1
    outer loop
      vertex 2.42705 -1.76336 -2.45
      vertex 1.01127 -0.734731 -2.45
      vertex 1.08253 -0.624999 -2.45
    endloop
  endfacet
  facet normal 0 0 -1
    outer loop
      vertex 2.22943 -2.00739 -2.45
      vertex 0.92893 -0.836412 -2.45
      vertex 1.01127 -0.734731 -2.45
    endloop
  endfacet
  facet normal 0 0 -1
    outer loop
      vertex 0.50842 -1.14193 -2.45
      vertex 1.22021 -2.74064 -2.45
      vertex 0.927051 -2.85317 -2.45
    endloop
  endfacet
  facet normal 0 0 -1
    outer loop
      vertex 2.00739 -2.22943 -2.45
      vertex 0.836412 -0.92893 -2.45
      vertex 0.92893 -0.836412 -2.45
    endloop
  endfacet
  facet normal 0 0 -1
    outer loop
      vertex 1.76336 -2.42705 -2.45
      vertex 0.734731 -1.01127 -2.45
      vertex 0.836412 -0.92893 -2.45
    endloop
  endfacet
  facet normal 0 0 -1
    outer loop
      vertex 1.5 -2.59808 -2.45
      vertex 0.625 -1.08253 -2.45
      vertex 0.734731 -1.01127 -2.45
    endloop
  endfacet
  facet normal 0 0 -1
    outer loop
      vertex 0.386271 -1.18882 -2.45
      vertex 0.927051 -2.85317 -2.45
      vertex 0.623734 -2.93444 -2.45
    endloop
  endfacet
  facet normal 0 0 -1
    outer loop
      vertex 1.22021 -2.74064 -2.45
      vertex 0.50842 -1.14193 -2.45
      vertex 0.625 -1.08253 -2.45
    endloop
  endfacet
  facet normal 0 0 -1
    outer loop
      vertex 0.927051 -2.85317 -2.45
      vertex 0.386271 -1.18882 -2.45
      vertex 0.50842 -1.14193 -2.45
    endloop
  endfacet
  facet normal 0 0 -1
    outer loop
      vertex 0.25989 -1.22268 -2.45
      vertex 0.623734 -2.93444 -2.45
      vertex 0.313585 -2.98357 -2.45
    endloop
  endfacet
  facet normal 0 0 -1
    outer loop
      vertex 0.623734 -2.93444 -2.45
      vertex 0.25989 -1.22268 -2.45
      vertex 0.386271 -1.18882 -2.45
    endloop
  endfacet
  facet normal 0 0 -1
    outer loop
      vertex 0.313585 -2.98357 -2.45
      vertex 0.13066 -1.24315 -2.45
      vertex 0.25989 -1.22268 -2.45
    endloop
  endfacet
  facet normal 0 0 -1
    outer loop
      vertex 0 -3 -2.45
      vertex 0.13066 -1.24315 -2.45
      vertex 0.313585 -2.98357 -2.45
    endloop
  endfacet
  facet normal 0 0 -1
    outer loop
      vertex 0 -3 -2.45
      vertex 0 -1.25 -2.45
      vertex 0.13066 -1.24315 -2.45
    endloop
  endfacet
  facet normal 0 0 -1
    outer loop
      vertex 0 -3 -2.45
      vertex -0.13066 -1.24315 -2.45
      vertex 0 -1.25 -2.45
    endloop
  endfacet
  facet normal 0 0 -1
    outer loop
      vertex -0.313585 -2.98357 -2.45
      vertex -0.13066 -1.24315 -2.45
      vertex 0 -3 -2.45
    endloop
  endfacet
  facet normal -0 0 -1
    outer loop
      vertex -0.13066 -1.24315 -2.45
      vertex -0.313585 -2.98357 -2.45
      vertex -0.25989 -1.22268 -2.45
    endloop
  endfacet
  facet normal 0 0 -1
    outer loop
      vertex -0.623734 -2.93444 -2.45
      vertex -0.25989 -1.22268 -2.45
      vertex -0.313585 -2.98357 -2.45
    endloop
  endfacet
  facet normal -0 0 -1
    outer loop
      vertex -0.25989 -1.22268 -2.45
      vertex -0.623734 -2.93444 -2.45
      vertex -0.386271 -1.18882 -2.45
    endloop
  endfacet
  facet normal 0 0 -1
    outer loop
      vertex -0.927051 -2.85317 -2.45
      vertex -0.386271 -1.18882 -2.45
      vertex -0.623734 -2.93444 -2.45
    endloop
  endfacet
  facet normal -0 0 -1
    outer loop
      vertex -0.386271 -1.18882 -2.45
      vertex -0.927051 -2.85317 -2.45
      vertex -0.50842 -1.14193 -2.45
    endloop
  endfacet
  facet normal 0 0 -1
    outer loop
      vertex -1.22021 -2.74064 -2.45
      vertex -0.50842 -1.14193 -2.45
      vertex -0.927051 -2.85317 -2.45
    endloop
  endfacet
  facet normal -0 0 -1
    outer loop
      vertex -0.50842 -1.14193 -2.45
      vertex -1.22021 -2.74064 -2.45
      vertex -0.625 -1.08253 -2.45
    endloop
  endfacet
  facet normal 0 0 -1
    outer loop
      vertex -1.5 -2.59808 -2.45
      vertex -0.625 -1.08253 -2.45
      vertex -1.22021 -2.74064 -2.45
    endloop
  endfacet
  facet normal -0 0 -1
    outer loop
      vertex -0.625 -1.08253 -2.45
      vertex -1.5 -2.59808 -2.45
      vertex -0.734731 -1.01127 -2.45
    endloop
  endfacet
  facet normal 0 0 -1
    outer loop
      vertex -1.76336 -2.42705 -2.45
      vertex -0.734731 -1.01127 -2.45
      vertex -1.5 -2.59808 -2.45
    endloop
  endfacet
  facet normal -0 0 -1
    outer loop
      vertex -0.734731 -1.01127 -2.45
      vertex -1.76336 -2.42705 -2.45
      vertex -0.836412 -0.92893 -2.45
    endloop
  endfacet
  facet normal 0 0 -1
    outer loop
      vertex -2.00739 -2.22943 -2.45
      vertex -0.836412 -0.92893 -2.45
      vertex -1.76336 -2.42705 -2.45
    endloop
  endfacet
  facet normal -0 0 -1
    outer loop
      vertex -0.836412 -0.92893 -2.45
      vertex -2.00739 -2.22943 -2.45
      vertex -0.92893 -0.836412 -2.45
    endloop
  endfacet
  facet normal 0 0 -1
    outer loop
      vertex -2.22943 -2.00739 -2.45
      vertex -0.92893 -0.836412 -2.45
      vertex -2.00739 -2.22943 -2.45
    endloop
  endfacet
  facet normal -0 0 -1
    outer loop
      vertex -0.92893 -0.836412 -2.45
      vertex -2.22943 -2.00739 -2.45
      vertex -1.01127 -0.734731 -2.45
    endloop
  endfacet
  facet normal 0 0 -1
    outer loop
      vertex -2.42705 -1.76336 -2.45
      vertex -1.01127 -0.734731 -2.45
      vertex -2.22943 -2.00739 -2.45
    endloop
  endfacet
  facet normal -0 0 -1
    outer loop
      vertex -1.01127 -0.734731 -2.45
      vertex -2.42705 -1.76336 -2.45
      vertex -1.08253 -0.624999 -2.45
    endloop
  endfacet
  facet normal 0 0 -1
    outer loop
      vertex -2.59808 -1.5 -2.45
      vertex -1.08253 -0.624999 -2.45
      vertex -2.42705 -1.76336 -2.45
    endloop
  endfacet
  facet normal -0 0 -1
    outer loop
      vertex -1.08253 -0.624999 -2.45
      vertex -2.59808 -1.5 -2.45
      vertex -1.14193 -0.50842 -2.45
    endloop
  endfacet
  facet normal 0 0 -1
    outer loop
      vertex -2.74064 -1.22021 -2.45
      vertex -1.14193 -0.50842 -2.45
      vertex -2.59808 -1.5 -2.45
    endloop
  endfacet
  facet normal 0 0 -1
    outer loop
      vertex -1.25 0 -2.45
      vertex -1.76336 2.42705 -2.45
      vertex -1.5 2.59808 -2.45
    endloop
  endfacet
  facet normal -0 0 -1
    outer loop
      vertex -1.14193 -0.50842 -2.45
      vertex -2.74064 -1.22021 -2.45
      vertex -1.18882 -0.386271 -2.45
    endloop
  endfacet
  facet normal 0 0 -1
    outer loop
      vertex -1.25 0 -2.45
      vertex -2.00739 2.22943 -2.45
      vertex -1.76336 2.42705 -2.45
    endloop
  endfacet
  facet normal 0 0 -1
    outer loop
      vertex -2.85317 -0.927051 -2.45
      vertex -1.18882 -0.386271 -2.45
      vertex -2.74064 -1.22021 -2.45
    endloop
  endfacet
  facet normal 0 0 -1
    outer loop
      vertex -1.25 0 -2.45
      vertex -2.22943 2.00739 -2.45
      vertex -2.00739 2.22943 -2.45
    endloop
  endfacet
  facet normal -0 0 -1
    outer loop
      vertex -1.18882 -0.386271 -2.45
      vertex -2.85317 -0.927051 -2.45
      vertex -1.22268 -0.25989 -2.45
    endloop
  endfacet
  facet normal 0 0 -1
    outer loop
      vertex -1.25 0 -2.45
      vertex -2.42705 1.76336 -2.45
      vertex -2.22943 2.00739 -2.45
    endloop
  endfacet
  facet normal 0 0 -1
    outer loop
      vertex -2.93444 -0.623734 -2.45
      vertex -1.22268 -0.25989 -2.45
      vertex -2.85317 -0.927051 -2.45
    endloop
  endfacet
  facet normal 0 0 -1
    outer loop
      vertex -1.25 0 -2.45
      vertex -2.59808 1.5 -2.45
      vertex -2.42705 1.76336 -2.45
    endloop
  endfacet
  facet normal -0 0 -1
    outer loop
      vertex -1.22268 -0.25989 -2.45
      vertex -2.93444 -0.623734 -2.45
      vertex -1.24315 -0.13066 -2.45
    endloop
  endfacet
  facet normal 0 0 -1
    outer loop
      vertex -1.25 0 -2.45
      vertex -2.74064 1.22021 -2.45
      vertex -2.59808 1.5 -2.45
    endloop
  endfacet
  facet normal 0 0 -1
    outer loop
      vertex -2.98357 -0.313585 -2.45
      vertex -1.24315 -0.13066 -2.45
      vertex -2.93444 -0.623734 -2.45
    endloop
  endfacet
  facet normal 0 0 -1
    outer loop
      vertex -1.25 0 -2.45
      vertex -2.85317 0.927051 -2.45
      vertex -2.74064 1.22021 -2.45
    endloop
  endfacet
  facet normal -0 0 -1
    outer loop
      vertex -1.24315 -0.13066 -2.45
      vertex -2.98357 -0.313585 -2.45
      vertex -1.25 0 -2.45
    endloop
  endfacet
  facet normal 0 0 -1
    outer loop
      vertex -1.25 0 -2.45
      vertex -2.93444 0.623734 -2.45
      vertex -2.85317 0.927051 -2.45
    endloop
  endfacet
  facet normal 0 0 -1
    outer loop
      vertex -3 0 -2.45
      vertex -1.25 0 -2.45
      vertex -2.98357 -0.313585 -2.45
    endloop
  endfacet
  facet normal 0 0 -1
    outer loop
      vertex -1.25 0 -2.45
      vertex -2.98357 0.313585 -2.45
      vertex -2.93444 0.623734 -2.45
    endloop
  endfacet
  facet normal 0 0 -1
    outer loop
      vertex -1.25 0 -2.45
      vertex -3 0 -2.45
      vertex -2.98357 0.313585 -2.45
    endloop
  endfacet
  facet normal -0 0 -1
    outer loop
      vertex 2.59808 1.5 -2.45
      vertex 1.08253 0.624999 -2.45
      vertex 2.42705 1.76336 -2.45
    endloop
  endfacet
  facet normal 0 0 -1
    outer loop
      vertex 1.01127 0.734731 -2.45
      vertex 2.42705 1.76336 -2.45
      vertex 1.08253 0.624999 -2.45
    endloop
  endfacet
  facet normal -0 0 -1
    outer loop
      vertex 2.42705 1.76336 -2.45
      vertex 1.01127 0.734731 -2.45
      vertex 2.22943 2.00739 -2.45
    endloop
  endfacet
  facet normal 0 0 -1
    outer loop
      vertex 0.92893 0.836412 -2.45
      vertex 2.22943 2.00739 -2.45
      vertex 1.01127 0.734731 -2.45
    endloop
  endfacet
  facet normal -0 0 -1
    outer loop
      vertex 2.22943 2.00739 -2.45
      vertex 0.92893 0.836412 -2.45
      vertex 2.00739 2.22943 -2.45
    endloop
  endfacet
  facet normal 0 0 -1
    outer loop
      vertex 0.836412 0.92893 -2.45
      vertex 2.00739 2.22943 -2.45
      vertex 0.92893 0.836412 -2.45
    endloop
  endfacet
  facet normal -0 0 -1
    outer loop
      vertex 2.00739 2.22943 -2.45
      vertex 0.836412 0.92893 -2.45
      vertex 1.76336 2.42705 -2.45
    endloop
  endfacet
  facet normal 0 0 -1
    outer loop
      vertex 0.734731 1.01127 -2.45
      vertex 1.76336 2.42705 -2.45
      vertex 0.836412 0.92893 -2.45
    endloop
  endfacet
  facet normal -0 0 -1
    outer loop
      vertex 1.76336 2.42705 -2.45
      vertex 0.734731 1.01127 -2.45
      vertex 1.5 2.59808 -2.45
    endloop
  endfacet
  facet normal 0 0 -1
    outer loop
      vertex 0.625 1.08253 -2.45
      vertex 1.5 2.59808 -2.45
      vertex 0.734731 1.01127 -2.45
    endloop
  endfacet
  facet normal -0 0 -1
    outer loop
      vertex 1.5 2.59808 -2.45
      vertex 0.625 1.08253 -2.45
      vertex 1.22021 2.74064 -2.45
    endloop
  endfacet
  facet normal 0 0 -1
    outer loop
      vertex 0.50842 1.14193 -2.45
      vertex 1.22021 2.74064 -2.45
      vertex 0.625 1.08253 -2.45
    endloop
  endfacet
  facet normal -0 0 -1
    outer loop
      vertex 1.22021 2.74064 -2.45
      vertex 0.50842 1.14193 -2.45
      vertex 0.927051 2.85317 -2.45
    endloop
  endfacet
  facet normal 0 0 -1
    outer loop
      vertex 0.386271 1.18882 -2.45
      vertex 0.927051 2.85317 -2.45
      vertex 0.50842 1.14193 -2.45
    endloop
  endfacet
  facet normal -0 0 -1
    outer loop
      vertex 0.927051 2.85317 -2.45
      vertex 0.386271 1.18882 -2.45
      vertex 0.623734 2.93444 -2.45
    endloop
  endfacet
  facet normal 0 0 -1
    outer loop
      vertex 0.25989 1.22268 -2.45
      vertex 0.623734 2.93444 -2.45
      vertex 0.386271 1.18882 -2.45
    endloop
  endfacet
  facet normal -0 0 -1
    outer loop
      vertex 0.623734 2.93444 -2.45
      vertex 0.25989 1.22268 -2.45
      vertex 0.313585 2.98357 -2.45
    endloop
  endfacet
  facet normal 0 0 -1
    outer loop
      vertex 0.13066 1.24315 -2.45
      vertex 0.313585 2.98357 -2.45
      vertex 0.25989 1.22268 -2.45
    endloop
  endfacet
  facet normal 0 0 -1
    outer loop
      vertex 0 1.25 -2.45
      vertex 0.313585 2.98357 -2.45
      vertex 0.13066 1.24315 -2.45
    endloop
  endfacet
  facet normal 0 0 -1
    outer loop
      vertex 0 1.25 -2.45
      vertex 0 3 -2.45
      vertex 0.313585 2.98357 -2.45
    endloop
  endfacet
  facet normal 0 0 -1
    outer loop
      vertex -0.13066 1.24315 -2.45
      vertex 0 3 -2.45
      vertex 0 1.25 -2.45
    endloop
  endfacet
  facet normal 0 0 -1
    outer loop
      vertex -0.313585 2.98357 -2.45
      vertex -0.13066 1.24315 -2.45
      vertex -0.25989 1.22268 -2.45
    endloop
  endfacet
  facet normal 0 0 -1
    outer loop
      vertex -0.13066 1.24315 -2.45
      vertex -0.313585 2.98357 -2.45
      vertex 0 3 -2.45
    endloop
  endfacet
  facet normal 0 0 -1
    outer loop
      vertex -0.623734 2.93444 -2.45
      vertex -0.25989 1.22268 -2.45
      vertex -0.386271 1.18882 -2.45
    endloop
  endfacet
  facet normal 0 0 -1
    outer loop
      vertex -0.927051 2.85317 -2.45
      vertex -0.386271 1.18882 -2.45
      vertex -0.50842 1.14193 -2.45
    endloop
  endfacet
  facet normal 0 0 -1
    outer loop
      vertex -0.25989 1.22268 -2.45
      vertex -0.623734 2.93444 -2.45
      vertex -0.313585 2.98357 -2.45
    endloop
  endfacet
  facet normal 0 0 -1
    outer loop
      vertex -1.22021 2.74064 -2.45
      vertex -0.50842 1.14193 -2.45
      vertex -0.624999 1.08253 -2.45
    endloop
  endfacet
  facet normal 0 0 -1
    outer loop
      vertex -1.5 2.59808 -2.45
      vertex -0.624999 1.08253 -2.45
      vertex -0.734731 1.01127 -2.45
    endloop
  endfacet
  facet normal 0 0 -1
    outer loop
      vertex -1.5 2.59808 -2.45
      vertex -0.734731 1.01127 -2.45
      vertex -0.836412 0.92893 -2.45
    endloop
  endfacet
  facet normal 0 0 -1
    outer loop
      vertex -0.386271 1.18882 -2.45
      vertex -0.927051 2.85317 -2.45
      vertex -0.623734 2.93444 -2.45
    endloop
  endfacet
  facet normal 0 0 -1
    outer loop
      vertex -1.5 2.59808 -2.45
      vertex -0.836412 0.92893 -2.45
      vertex -0.92893 0.836412 -2.45
    endloop
  endfacet
  facet normal 0 0 -1
    outer loop
      vertex -1.5 2.59808 -2.45
      vertex -0.92893 0.836412 -2.45
      vertex -1.01127 0.734731 -2.45
    endloop
  endfacet
  facet normal 0 0 -1
    outer loop
      vertex -1.5 2.59808 -2.45
      vertex -1.01127 0.734731 -2.45
      vertex -1.08253 0.624999 -2.45
    endloop
  endfacet
  facet normal 0 0 -1
    outer loop
      vertex -1.5 2.59808 -2.45
      vertex -1.08253 0.624999 -2.45
      vertex -1.14193 0.50842 -2.45
    endloop
  endfacet
  facet normal 0 0 -1
    outer loop
      vertex -1.5 2.59808 -2.45
      vertex -1.14193 0.50842 -2.45
      vertex -1.18882 0.386271 -2.45
    endloop
  endfacet
  facet normal 0 0 -1
    outer loop
      vertex -0.50842 1.14193 -2.45
      vertex -1.22021 2.74064 -2.45
      vertex -0.927051 2.85317 -2.45
    endloop
  endfacet
  facet normal 0 0 -1
    outer loop
      vertex -1.5 2.59808 -2.45
      vertex -1.18882 0.386271 -2.45
      vertex -1.22268 0.25989 -2.45
    endloop
  endfacet
  facet normal 0 0 -1
    outer loop
      vertex -1.5 2.59808 -2.45
      vertex -1.22268 0.25989 -2.45
      vertex -1.24315 0.13066 -2.45
    endloop
  endfacet
  facet normal 0 0 -1
    outer loop
      vertex -1.5 2.59808 -2.45
      vertex -1.24315 0.13066 -2.45
      vertex -1.25 0 -2.45
    endloop
  endfacet
  facet normal 0 0 -1
    outer loop
      vertex -0.624999 1.08253 -2.45
      vertex -1.5 2.59808 -2.45
      vertex -1.22021 2.74064 -2.45
    endloop
  endfacet
  facet normal 0.987688 0.156434 0
    outer loop
      vertex 2.98357 0.313585 2.45
      vertex 2.93444 0.623734 -2.45
      vertex 2.93444 0.623734 2.45
    endloop
  endfacet
  facet normal 0.987688 0.156434 0
    outer loop
      vertex 2.93444 0.623734 -2.45
      vertex 2.98357 0.313585 2.45
      vertex 2.98357 0.313585 -2.45
    endloop
  endfacet
  facet normal 0.156434 0.987688 -0
    outer loop
      vertex 0.623734 2.93444 -2.45
      vertex 0.313585 2.98357 2.45
      vertex 0.623734 2.93444 2.45
    endloop
  endfacet
  facet normal 0.156434 0.987688 0
    outer loop
      vertex 0.313585 2.98357 2.45
      vertex 0.623734 2.93444 -2.45
      vertex 0.313585 2.98357 -2.45
    endloop
  endfacet
  facet normal 0.453989 0.891007 -0
    outer loop
      vertex 1.5 2.59808 -2.45
      vertex 1.22021 2.74064 2.45
      vertex 1.5 2.59808 2.45
    endloop
  endfacet
  facet normal 0.453989 0.891007 0
    outer loop
      vertex 1.22021 2.74064 2.45
      vertex 1.5 2.59808 -2.45
      vertex 1.22021 2.74064 -2.45
    endloop
  endfacet
  facet normal -0.707107 0.707107 0
    outer loop
      vertex -2.22943 2.00739 -2.45
      vertex -2.00739 2.22943 2.45
      vertex -2.00739 2.22943 -2.45
    endloop
  endfacet
  facet normal -0.707107 0.707107 0
    outer loop
      vertex -2.00739 2.22943 2.45
      vertex -2.22943 2.00739 -2.45
      vertex -2.22943 2.00739 2.45
    endloop
  endfacet
  facet normal 0 0 1
    outer loop
      vertex 1.25 0 2.45
      vertex 3 0 2.45
      vertex 2.98357 0.313585 2.45
    endloop
  endfacet
  facet normal 0 0 1
    outer loop
      vertex 1.24315 0.13066 2.45
      vertex 2.98357 0.313585 2.45
      vertex 2.93444 0.623734 2.45
    endloop
  endfacet
  facet normal 0 0 1
    outer loop
      vertex 3 0 2.45
      vertex 1.25 0 2.45
      vertex 2.98357 -0.313585 2.45
    endloop
  endfacet
  facet normal 0 0 1
    outer loop
      vertex 1.22268 0.25989 2.45
      vertex 2.93444 0.623734 2.45
      vertex 2.85317 0.927051 2.45
    endloop
  endfacet
  facet normal -0 0 1
    outer loop
      vertex 1.24315 -0.13066 2.45
      vertex 2.98357 -0.313585 2.45
      vertex 1.25 0 2.45
    endloop
  endfacet
  facet normal 0 0 1
    outer loop
      vertex 1.18882 0.386271 2.45
      vertex 2.85317 0.927051 2.45
      vertex 2.74064 1.22021 2.45
    endloop
  endfacet
  facet normal 0 0 1
    outer loop
      vertex 2.98357 -0.313585 2.45
      vertex 1.24315 -0.13066 2.45
      vertex 2.93444 -0.623734 2.45
    endloop
  endfacet
  facet normal 0 0 1
    outer loop
      vertex 1.14193 0.50842 2.45
      vertex 2.74064 1.22021 2.45
      vertex 2.59808 1.5 2.45
    endloop
  endfacet
  facet normal -0 0 1
    outer loop
      vertex 1.22268 -0.25989 2.45
      vertex 2.93444 -0.623734 2.45
      vertex 1.24315 -0.13066 2.45
    endloop
  endfacet
  facet normal 0 0 1
    outer loop
      vertex 1.08253 0.624999 2.45
      vertex 2.59808 1.5 2.45
      vertex 2.42705 1.76336 2.45
    endloop
  endfacet
  facet normal 0 0 1
    outer loop
      vertex 2.93444 -0.623734 2.45
      vertex 1.22268 -0.25989 2.45
      vertex 2.85317 -0.927051 2.45
    endloop
  endfacet
  facet normal 0 0 1
    outer loop
      vertex 1.01127 0.734731 2.45
      vertex 2.42705 1.76336 2.45
      vertex 2.22943 2.00739 2.45
    endloop
  endfacet
  facet normal -0 0 1
    outer loop
      vertex 1.18882 -0.386271 2.45
      vertex 2.85317 -0.927051 2.45
      vertex 1.22268 -0.25989 2.45
    endloop
  endfacet
  facet normal 0 0 1
    outer loop
      vertex 0.92893 0.836412 2.45
      vertex 2.22943 2.00739 2.45
      vertex 2.00739 2.22943 2.45
    endloop
  endfacet
  facet normal 0 0 1
    outer loop
      vertex 2.85317 -0.927051 2.45
      vertex 1.18882 -0.386271 2.45
      vertex 2.74064 -1.22021 2.45
    endloop
  endfacet
  facet normal 0 0 1
    outer loop
      vertex 0.836412 0.92893 2.45
      vertex 2.00739 2.22943 2.45
      vertex 1.76336 2.42705 2.45
    endloop
  endfacet
  facet normal -0 0 1
    outer loop
      vertex 1.14193 -0.50842 2.45
      vertex 2.74064 -1.22021 2.45
      vertex 1.18882 -0.386271 2.45
    endloop
  endfacet
  facet normal 0 0 1
    outer loop
      vertex 0.734731 1.01127 2.45
      vertex 1.76336 2.42705 2.45
      vertex 1.5 2.59808 2.45
    endloop
  endfacet
  facet normal 0 0 1
    outer loop
      vertex 2.74064 -1.22021 2.45
      vertex 1.14193 -0.50842 2.45
      vertex 2.59808 -1.5 2.45
    endloop
  endfacet
  facet normal -0 0 1
    outer loop
      vertex 1.08253 -0.624999 2.45
      vertex 2.59808 -1.5 2.45
      vertex 1.14193 -0.50842 2.45
    endloop
  endfacet
  facet normal 0 0 1
    outer loop
      vertex 2.98357 0.313585 2.45
      vertex 1.24315 0.13066 2.45
      vertex 1.25 0 2.45
    endloop
  endfacet
  facet normal 0 0 1
    outer loop
      vertex 2.93444 0.623734 2.45
      vertex 1.22268 0.25989 2.45
      vertex 1.24315 0.13066 2.45
    endloop
  endfacet
  facet normal 0 0 1
    outer loop
      vertex 0.625 1.08253 2.45
      vertex 1.5 2.59808 2.45
      vertex 1.22021 2.74064 2.45
    endloop
  endfacet
  facet normal 0 0 1
    outer loop
      vertex 2.85317 0.927051 2.45
      vertex 1.18882 0.386271 2.45
      vertex 1.22268 0.25989 2.45
    endloop
  endfacet
  facet normal 0 0 1
    outer loop
      vertex 2.74064 1.22021 2.45
      vertex 1.14193 0.50842 2.45
      vertex 1.18882 0.386271 2.45
    endloop
  endfacet
  facet normal 0 0 1
    outer loop
      vertex 2.59808 1.5 2.45
      vertex 1.08253 0.624999 2.45
      vertex 1.14193 0.50842 2.45
    endloop
  endfacet
  facet normal 0 0 1
    outer loop
      vertex 2.42705 1.76336 2.45
      vertex 1.01127 0.734731 2.45
      vertex 1.08253 0.624999 2.45
    endloop
  endfacet
  facet normal 0 0 1
    outer loop
      vertex 2.22943 2.00739 2.45
      vertex 0.92893 0.836412 2.45
      vertex 1.01127 0.734731 2.45
    endloop
  endfacet
  facet normal 0 0 1
    outer loop
      vertex 0.50842 1.14193 2.45
      vertex 1.22021 2.74064 2.45
      vertex 0.927051 2.85317 2.45
    endloop
  endfacet
  facet normal 0 0 1
    outer loop
      vertex 2.00739 2.22943 2.45
      vertex 0.836412 0.92893 2.45
      vertex 0.92893 0.836412 2.45
    endloop
  endfacet
  facet normal 0 0 1
    outer loop
      vertex 1.76336 2.42705 2.45
      vertex 0.734731 1.01127 2.45
      vertex 0.836412 0.92893 2.45
    endloop
  endfacet
  facet normal 0 0 1
    outer loop
      vertex 1.5 2.59808 2.45
      vertex 0.625 1.08253 2.45
      vertex 0.734731 1.01127 2.45
    endloop
  endfacet
  facet normal 0 0 1
    outer loop
      vertex 0.386271 1.18882 2.45
      vertex 0.927051 2.85317 2.45
      vertex 0.623734 2.93444 2.45
    endloop
  endfacet
  facet normal 0 0 1
    outer loop
      vertex 1.22021 2.74064 2.45
      vertex 0.50842 1.14193 2.45
      vertex 0.625 1.08253 2.45
    endloop
  endfacet
  facet normal 0 0 1
    outer loop
      vertex 0.927051 2.85317 2.45
      vertex 0.386271 1.18882 2.45
      vertex 0.50842 1.14193 2.45
    endloop
  endfacet
  facet normal 0 0 1
    outer loop
      vertex 0.25989 1.22268 2.45
      vertex 0.623734 2.93444 2.45
      vertex 0.313585 2.98357 2.45
    endloop
  endfacet
  facet normal 0 0 1
    outer loop
      vertex 0.623734 2.93444 2.45
      vertex 0.25989 1.22268 2.45
      vertex 0.386271 1.18882 2.45
    endloop
  endfacet
  facet normal 0 0 1
    outer loop
      vertex 0.313585 2.98357 2.45
      vertex 0.13066 1.24315 2.45
      vertex 0.25989 1.22268 2.45
    endloop
  endfacet
  facet normal 0 0 1
    outer loop
      vertex 0 3 2.45
      vertex 0.13066 1.24315 2.45
      vertex 0.313585 2.98357 2.45
    endloop
  endfacet
  facet normal 0 0 1
    outer loop
      vertex 0 3 2.45
      vertex 0 1.25 2.45
      vertex 0.13066 1.24315 2.45
    endloop
  endfacet
  facet normal 0 0 1
    outer loop
      vertex 0 3 2.45
      vertex -0.13066 1.24315 2.45
      vertex 0 1.25 2.45
    endloop
  endfacet
  facet normal -0 0 1
    outer loop
      vertex -0.313585 2.98357 2.45
      vertex -0.13066 1.24315 2.45
      vertex 0 3 2.45
    endloop
  endfacet
  facet normal 0 0 1
    outer loop
      vertex -0.13066 1.24315 2.45
      vertex -0.313585 2.98357 2.45
      vertex -0.25989 1.22268 2.45
    endloop
  endfacet
  facet normal -0 0 1
    outer loop
      vertex -0.623734 2.93444 2.45
      vertex -0.25989 1.22268 2.45
      vertex -0.313585 2.98357 2.45
    endloop
  endfacet
  facet normal 0 0 1
    outer loop
      vertex -0.25989 1.22268 2.45
      vertex -0.623734 2.93444 2.45
      vertex -0.386271 1.18882 2.45
    endloop
  endfacet
  facet normal -0 0 1
    outer loop
      vertex -0.927051 2.85317 2.45
      vertex -0.386271 1.18882 2.45
      vertex -0.623734 2.93444 2.45
    endloop
  endfacet
  facet normal 0 0 1
    outer loop
      vertex -0.386271 1.18882 2.45
      vertex -0.927051 2.85317 2.45
      vertex -0.50842 1.14193 2.45
    endloop
  endfacet
  facet normal -0 0 1
    outer loop
      vertex -1.22021 2.74064 2.45
      vertex -0.50842 1.14193 2.45
      vertex -0.927051 2.85317 2.45
    endloop
  endfacet
  facet normal 0 0 1
    outer loop
      vertex -0.50842 1.14193 2.45
      vertex -1.22021 2.74064 2.45
      vertex -0.624999 1.08253 2.45
    endloop
  endfacet
  facet normal -0 0 1
    outer loop
      vertex -1.5 2.59808 2.45
      vertex -0.624999 1.08253 2.45
      vertex -1.22021 2.74064 2.45
    endloop
  endfacet
  facet normal 0 0 1
    outer loop
      vertex -0.624999 1.08253 2.45
      vertex -1.5 2.59808 2.45
      vertex -0.734731 1.01127 2.45
    endloop
  endfacet
  facet normal -0 0 1
    outer loop
      vertex -1.76336 2.42705 2.45
      vertex -0.734731 1.01127 2.45
      vertex -1.5 2.59808 2.45
    endloop
  endfacet
  facet normal 0 0 1
    outer loop
      vertex -0.734731 1.01127 2.45
      vertex -1.76336 2.42705 2.45
      vertex -0.836412 0.92893 2.45
    endloop
  endfacet
  facet normal -0 0 1
    outer loop
      vertex -2.00739 2.22943 2.45
      vertex -0.836412 0.92893 2.45
      vertex -1.76336 2.42705 2.45
    endloop
  endfacet
  facet normal 0 0 1
    outer loop
      vertex -0.836412 0.92893 2.45
      vertex -2.00739 2.22943 2.45
      vertex -0.92893 0.836412 2.45
    endloop
  endfacet
  facet normal -0 0 1
    outer loop
      vertex -2.22943 2.00739 2.45
      vertex -0.92893 0.836412 2.45
      vertex -2.00739 2.22943 2.45
    endloop
  endfacet
  facet normal 0 0 1
    outer loop
      vertex -0.92893 0.836412 2.45
      vertex -2.22943 2.00739 2.45
      vertex -1.01127 0.734731 2.45
    endloop
  endfacet
  facet normal -0 0 1
    outer loop
      vertex -2.42705 1.76336 2.45
      vertex -1.01127 0.734731 2.45
      vertex -2.22943 2.00739 2.45
    endloop
  endfacet
  facet normal 0 0 1
    outer loop
      vertex -1.01127 0.734731 2.45
      vertex -2.42705 1.76336 2.45
      vertex -1.08253 0.624999 2.45
    endloop
  endfacet
  facet normal -0 0 1
    outer loop
      vertex -2.59808 1.5 2.45
      vertex -1.08253 0.624999 2.45
      vertex -2.42705 1.76336 2.45
    endloop
  endfacet
  facet normal 0 0 1
    outer loop
      vertex 2.59808 -1.5 2.45
      vertex 1.08253 -0.624999 2.45
      vertex 2.42705 -1.76336 2.45
    endloop
  endfacet
  facet normal -0 0 1
    outer loop
      vertex 1.01127 -0.734731 2.45
      vertex 2.42705 -1.76336 2.45
      vertex 1.08253 -0.624999 2.45
    endloop
  endfacet
  facet normal 0 0 1
    outer loop
      vertex 2.42705 -1.76336 2.45
      vertex 1.01127 -0.734731 2.45
      vertex 2.22943 -2.00739 2.45
    endloop
  endfacet
  facet normal -0 0 1
    outer loop
      vertex 0.92893 -0.836412 2.45
      vertex 2.22943 -2.00739 2.45
      vertex 1.01127 -0.734731 2.45
    endloop
  endfacet
  facet normal 0 0 1
    outer loop
      vertex 2.22943 -2.00739 2.45
      vertex 0.92893 -0.836412 2.45
      vertex 2.00739 -2.22943 2.45
    endloop
  endfacet
  facet normal -0 0 1
    outer loop
      vertex 0.836412 -0.92893 2.45
      vertex 2.00739 -2.22943 2.45
      vertex 0.92893 -0.836412 2.45
    endloop
  endfacet
  facet normal 0 0 1
    outer loop
      vertex 2.00739 -2.22943 2.45
      vertex 0.836412 -0.92893 2.45
      vertex 1.76336 -2.42705 2.45
    endloop
  endfacet
  facet normal -0 0 1
    outer loop
      vertex 0.734731 -1.01127 2.45
      vertex 1.76336 -2.42705 2.45
      vertex 0.836412 -0.92893 2.45
    endloop
  endfacet
  facet normal 0 0 1
    outer loop
      vertex 1.76336 -2.42705 2.45
      vertex 0.734731 -1.01127 2.45
      vertex 1.5 -2.59808 2.45
    endloop
  endfacet
  facet normal -0 0 1
    outer loop
      vertex 0.625 -1.08253 2.45
      vertex 1.5 -2.59808 2.45
      vertex 0.734731 -1.01127 2.45
    endloop
  endfacet
  facet normal 0 0 1
    outer loop
      vertex 1.5 -2.59808 2.45
      vertex 0.625 -1.08253 2.45
      vertex 1.22021 -2.74064 2.45
    endloop
  endfacet
  facet normal -0 0 1
    outer loop
      vertex 0.50842 -1.14193 2.45
      vertex 1.22021 -2.74064 2.45
      vertex 0.625 -1.08253 2.45
    endloop
  endfacet
  facet normal 0 0 1
    outer loop
      vertex 1.22021 -2.74064 2.45
      vertex 0.50842 -1.14193 2.45
      vertex 0.927051 -2.85317 2.45
    endloop
  endfacet
  facet normal -0 0 1
    outer loop
      vertex 0.386271 -1.18882 2.45
      vertex 0.927051 -2.85317 2.45
      vertex 0.50842 -1.14193 2.45
    endloop
  endfacet
  facet normal 0 0 1
    outer loop
      vertex 0.927051 -2.85317 2.45
      vertex 0.386271 -1.18882 2.45
      vertex 0.623734 -2.93444 2.45
    endloop
  endfacet
  facet normal -0 0 1
    outer loop
      vertex 0.25989 -1.22268 2.45
      vertex 0.623734 -2.93444 2.45
      vertex 0.386271 -1.18882 2.45
    endloop
  endfacet
  facet normal 0 0 1
    outer loop
      vertex 0.623734 -2.93444 2.45
      vertex 0.25989 -1.22268 2.45
      vertex 0.313585 -2.98357 2.45
    endloop
  endfacet
  facet normal -0 0 1
    outer loop
      vertex 0.13066 -1.24315 2.45
      vertex 0.313585 -2.98357 2.45
      vertex 0.25989 -1.22268 2.45
    endloop
  endfacet
  facet normal -0 0 1
    outer loop
      vertex 0 -1.25 2.45
      vertex 0.313585 -2.98357 2.45
      vertex 0.13066 -1.24315 2.45
    endloop
  endfacet
  facet normal 0 0 1
    outer loop
      vertex 0 -1.25 2.45
      vertex 0 -3 2.45
      vertex 0.313585 -2.98357 2.45
    endloop
  endfacet
  facet normal 0 0 1
    outer loop
      vertex -0.13066 -1.24315 2.45
      vertex 0 -3 2.45
      vertex 0 -1.25 2.45
    endloop
  endfacet
  facet normal 0 0 1
    outer loop
      vertex -0.313585 -2.98357 2.45
      vertex -0.13066 -1.24315 2.45
      vertex -0.25989 -1.22268 2.45
    endloop
  endfacet
  facet normal 0 0 1
    outer loop
      vertex -0.13066 -1.24315 2.45
      vertex -0.313585 -2.98357 2.45
      vertex 0 -3 2.45
    endloop
  endfacet
  facet normal 0 0 1
    outer loop
      vertex -0.623734 -2.93444 2.45
      vertex -0.25989 -1.22268 2.45
      vertex -0.386271 -1.18882 2.45
    endloop
  endfacet
  facet normal 0 0 1
    outer loop
      vertex -0.927051 -2.85317 2.45
      vertex -0.386271 -1.18882 2.45
      vertex -0.50842 -1.14193 2.45
    endloop
  endfacet
  facet normal 0 0 1
    outer loop
      vertex -0.25989 -1.22268 2.45
      vertex -0.623734 -2.93444 2.45
      vertex -0.313585 -2.98357 2.45
    endloop
  endfacet
  facet normal 0 0 1
    outer loop
      vertex -1.22021 -2.74064 2.45
      vertex -0.50842 -1.14193 2.45
      vertex -0.625 -1.08253 2.45
    endloop
  endfacet
  facet normal 0 0 1
    outer loop
      vertex -1.5 -2.59808 2.45
      vertex -0.625 -1.08253 2.45
      vertex -0.734731 -1.01127 2.45
    endloop
  endfacet
  facet normal 0 0 1
    outer loop
      vertex -1.76336 -2.42705 2.45
      vertex -0.734731 -1.01127 2.45
      vertex -0.836412 -0.92893 2.45
    endloop
  endfacet
  facet normal 0 0 1
    outer loop
      vertex -0.386271 -1.18882 2.45
      vertex -0.927051 -2.85317 2.45
      vertex -0.623734 -2.93444 2.45
    endloop
  endfacet
  facet normal 0 0 1
    outer loop
      vertex -2.00739 -2.22943 2.45
      vertex -0.836412 -0.92893 2.45
      vertex -0.92893 -0.836412 2.45
    endloop
  endfacet
  facet normal 0 0 1
    outer loop
      vertex -2.22943 -2.00739 2.45
      vertex -0.92893 -0.836412 2.45
      vertex -1.01127 -0.734731 2.45
    endloop
  endfacet
  facet normal 0 0 1
    outer loop
      vertex -2.42705 -1.76336 2.45
      vertex -1.01127 -0.734731 2.45
      vertex -1.08253 -0.624999 2.45
    endloop
  endfacet
  facet normal 0 0 1
    outer loop
      vertex -2.59808 -1.5 2.45
      vertex -1.08253 -0.624999 2.45
      vertex -1.14193 -0.50842 2.45
    endloop
  endfacet
  facet normal 0 0 1
    outer loop
      vertex -2.74064 -1.22021 2.45
      vertex -1.14193 -0.50842 2.45
      vertex -1.18882 -0.386271 2.45
    endloop
  endfacet
  facet normal 0 0 1
    outer loop
      vertex -0.50842 -1.14193 2.45
      vertex -1.22021 -2.74064 2.45
      vertex -0.927051 -2.85317 2.45
    endloop
  endfacet
  facet normal 0 0 1
    outer loop
      vertex -2.85317 -0.927051 2.45
      vertex -1.18882 -0.386271 2.45
      vertex -1.22268 -0.25989 2.45
    endloop
  endfacet
  facet normal 0 0 1
    outer loop
      vertex -2.93444 -0.623734 2.45
      vertex -1.22268 -0.25989 2.45
      vertex -1.24315 -0.13066 2.45
    endloop
  endfacet
  facet normal 0 0 1
    outer loop
      vertex -2.98357 -0.313585 2.45
      vertex -1.24315 -0.13066 2.45
      vertex -1.25 0 2.45
    endloop
  endfacet
  facet normal 0 0 1
    outer loop
      vertex -1.08253 0.624999 2.45
      vertex -2.59808 1.5 2.45
      vertex -1.14193 0.50842 2.45
    endloop
  endfacet
  facet normal 0 0 1
    outer loop
      vertex -0.625 -1.08253 2.45
      vertex -1.5 -2.59808 2.45
      vertex -1.22021 -2.74064 2.45
    endloop
  endfacet
  facet normal -0 0 1
    outer loop
      vertex -2.74064 1.22021 2.45
      vertex -1.14193 0.50842 2.45
      vertex -2.59808 1.5 2.45
    endloop
  endfacet
  facet normal 0 0 1
    outer loop
      vertex -0.734731 -1.01127 2.45
      vertex -1.76336 -2.42705 2.45
      vertex -1.5 -2.59808 2.45
    endloop
  endfacet
  facet normal 0 0 1
    outer loop
      vertex -1.14193 0.50842 2.45
      vertex -2.74064 1.22021 2.45
      vertex -1.18882 0.386271 2.45
    endloop
  endfacet
  facet normal 0 0 1
    outer loop
      vertex -0.836412 -0.92893 2.45
      vertex -2.00739 -2.22943 2.45
      vertex -1.76336 -2.42705 2.45
    endloop
  endfacet
  facet normal -0 0 1
    outer loop
      vertex -2.85317 0.927051 2.45
      vertex -1.18882 0.386271 2.45
      vertex -2.74064 1.22021 2.45
    endloop
  endfacet
  facet normal 0 0 1
    outer loop
      vertex -0.92893 -0.836412 2.45
      vertex -2.22943 -2.00739 2.45
      vertex -2.00739 -2.22943 2.45
    endloop
  endfacet
  facet normal 0 0 1
    outer loop
      vertex -1.18882 0.386271 2.45
      vertex -2.85317 0.927051 2.45
      vertex -1.22268 0.25989 2.45
    endloop
  endfacet
  facet normal 0 0 1
    outer loop
      vertex -1.01127 -0.734731 2.45
      vertex -2.42705 -1.76336 2.45
      vertex -2.22943 -2.00739 2.45
    endloop
  endfacet
  facet normal -0 0 1
    outer loop
      vertex -2.93444 0.623734 2.45
      vertex -1.22268 0.25989 2.45
      vertex -2.85317 0.927051 2.45
    endloop
  endfacet
  facet normal 0 0 1
    outer loop
      vertex -1.08253 -0.624999 2.45
      vertex -2.59808 -1.5 2.45
      vertex -2.42705 -1.76336 2.45
    endloop
  endfacet
  facet normal 0 0 1
    outer loop
      vertex -1.22268 0.25989 2.45
      vertex -2.93444 0.623734 2.45
      vertex -1.24315 0.13066 2.45
    endloop
  endfacet
  facet normal 0 0 1
    outer loop
      vertex -1.14193 -0.50842 2.45
      vertex -2.74064 -1.22021 2.45
      vertex -2.59808 -1.5 2.45
    endloop
  endfacet
  facet normal -0 0 1
    outer loop
      vertex -2.98357 0.313585 2.45
      vertex -1.24315 0.13066 2.45
      vertex -2.93444 0.623734 2.45
    endloop
  endfacet
  facet normal 0 0 1
    outer loop
      vertex -1.18882 -0.386271 2.45
      vertex -2.85317 -0.927051 2.45
      vertex -2.74064 -1.22021 2.45
    endloop
  endfacet
  facet normal 0 0 1
    outer loop
      vertex -1.24315 0.13066 2.45
      vertex -2.98357 0.313585 2.45
      vertex -1.25 0 2.45
    endloop
  endfacet
  facet normal 0 0 1
    outer loop
      vertex -1.22268 -0.25989 2.45
      vertex -2.93444 -0.623734 2.45
      vertex -2.85317 -0.927051 2.45
    endloop
  endfacet
  facet normal 0 0 1
    outer loop
      vertex -3 0 2.45
      vertex -1.25 0 2.45
      vertex -2.98357 0.313585 2.45
    endloop
  endfacet
  facet normal 0 0 1
    outer loop
      vertex -1.24315 -0.13066 2.45
      vertex -2.98357 -0.313585 2.45
      vertex -2.93444 -0.623734 2.45
    endloop
  endfacet
  facet normal 0 0 1
    outer loop
      vertex -1.25 0 2.45
      vertex -3 0 2.45
      vertex -2.98357 -0.313585 2.45
    endloop
  endfacet
  facet normal -0.93358 0.358369 0
    outer loop
      vertex -2.85317 0.927051 -2.45
      vertex -2.74064 1.22021 2.45
      vertex -2.74064 1.22021 -2.45
    endloop
  endfacet
  facet normal -0.93358 0.358369 0
    outer loop
      vertex -2.74064 1.22021 2.45
      vertex -2.85317 0.927051 -2.45
      vertex -2.85317 0.927051 2.45
    endloop
  endfacet
  facet normal -0.544638 0.838671 0
    outer loop
      vertex -1.5 2.59808 -2.45
      vertex -1.76336 2.42705 2.45
      vertex -1.5 2.59808 2.45
    endloop
  endfacet
  facet normal -0.544638 0.838671 0
    outer loop
      vertex -1.76336 2.42705 2.45
      vertex -1.5 2.59808 -2.45
      vertex -1.76336 2.42705 -2.45
    endloop
  endfacet
  facet normal -0.358369 0.93358 0
    outer loop
      vertex -0.927051 2.85317 -2.45
      vertex -1.22021 2.74064 2.45
      vertex -0.927051 2.85317 2.45
    endloop
  endfacet
  facet normal -0.358369 0.93358 0
    outer loop
      vertex -1.22021 2.74064 2.45
      vertex -0.927051 2.85317 -2.45
      vertex -1.22021 2.74064 -2.45
    endloop
  endfacet
  facet normal 0.358369 -0.93358 0
    outer loop
      vertex 0.927051 -2.85317 -2.45
      vertex 1.22021 -2.74064 2.45
      vertex 0.927051 -2.85317 2.45
    endloop
  endfacet
  facet normal 0.358369 -0.93358 0
    outer loop
      vertex 1.22021 -2.74064 2.45
      vertex 0.927051 -2.85317 -2.45
      vertex 1.22021 -2.74064 -2.45
    endloop
  endfacet
  facet normal 0.93358 -0.358369 0
    outer loop
      vertex 2.74064 -1.22021 2.45
      vertex 2.85317 -0.927051 -2.45
      vertex 2.85317 -0.927051 2.45
    endloop
  endfacet
  facet normal 0.93358 -0.358369 0
    outer loop
      vertex 2.85317 -0.927051 -2.45
      vertex 2.74064 -1.22021 2.45
      vertex 2.74064 -1.22021 -2.45
    endloop
  endfacet
  facet normal 0.987688 -0.156434 0
    outer loop
      vertex 2.93444 -0.623734 2.45
      vertex 2.98357 -0.313585 -2.45
      vertex 2.98357 -0.313585 2.45
    endloop
  endfacet
  facet normal 0.987688 -0.156434 0
    outer loop
      vertex 2.98357 -0.313585 -2.45
      vertex 2.93444 -0.623734 2.45
      vertex 2.93444 -0.623734 -2.45
    endloop
  endfacet
  facet normal 0.998629 -0.0523371 0
    outer loop
      vertex 2.98357 -0.313585 2.45
      vertex 3 0 -2.45
      vertex 3 0 2.45
    endloop
  endfacet
  facet normal 0.998629 -0.0523371 0
    outer loop
      vertex 3 0 -2.45
      vertex 2.98357 -0.313585 2.45
      vertex 2.98357 -0.313585 -2.45
    endloop
  endfacet
  facet normal -0.258818 -0.965926 0
    outer loop
      vertex -0.927051 -2.85317 -2.45
      vertex -0.623734 -2.93444 2.45
      vertex -0.927051 -2.85317 2.45
    endloop
  endfacet
  facet normal -0.258818 -0.965926 -0
    outer loop
      vertex -0.623734 -2.93444 2.45
      vertex -0.927051 -2.85317 -2.45
      vertex -0.623734 -2.93444 -2.45
    endloop
  endfacet
  facet normal -0.891007 -0.45399 0
    outer loop
      vertex -2.59808 -1.5 -2.45
      vertex -2.74064 -1.22021 2.45
      vertex -2.74064 -1.22021 -2.45
    endloop
  endfacet
  facet normal -0.891007 -0.45399 0
    outer loop
      vertex -2.74064 -1.22021 2.45
      vertex -2.59808 -1.5 -2.45
      vertex -2.59808 -1.5 2.45
    endloop
  endfacet
  facet normal -0.987688 -0.156434 0
    outer loop
      vertex -2.93444 -0.623734 -2.45
      vertex -2.98357 -0.313585 2.45
      vertex -2.98357 -0.313585 -2.45
    endloop
  endfacet
  facet normal -0.987688 -0.156434 0
    outer loop
      vertex -2.98357 -0.313585 2.45
      vertex -2.93444 -0.623734 -2.45
      vertex -2.93444 -0.623734 2.45
    endloop
  endfacet
  facet normal -0.998629 -0.0523415 0
    outer loop
      vertex 1.25 0 -2.45
      vertex 1.24315 0.13066 2.45
      vertex 1.24315 0.13066 -2.45
    endloop
  endfacet
  facet normal -0.998629 -0.0523415 0
    outer loop
      vertex 1.24315 0.13066 2.45
      vertex 1.25 0 -2.45
      vertex 1.25 0 2.45
    endloop
  endfacet
  facet normal 0.998629 -0.0523415 0
    outer loop
      vertex -1.25 0 2.45
      vertex -1.24315 0.13066 -2.45
      vertex -1.24315 0.13066 2.45
    endloop
  endfacet
  facet normal 0.998629 -0.0523415 0
    outer loop
      vertex -1.24315 0.13066 -2.45
      vertex -1.25 0 2.45
      vertex -1.25 0 -2.45
    endloop
  endfacet
  facet normal -0.0523415 -0.998629 0
    outer loop
      vertex 0 1.25 -2.45
      vertex 0.13066 1.24315 2.45
      vertex 0 1.25 2.45
    endloop
  endfacet
  facet normal -0.0523415 -0.998629 -0
    outer loop
      vertex 0.13066 1.24315 2.45
      vertex 0 1.25 -2.45
      vertex 0.13066 1.24315 -2.45
    endloop
  endfacet
  facet normal -0.707107 -0.707107 0
    outer loop
      vertex 0.92893 0.836412 -2.45
      vertex 0.836412 0.92893 2.45
      vertex 0.836412 0.92893 -2.45
    endloop
  endfacet
  facet normal -0.707107 -0.707107 0
    outer loop
      vertex 0.836412 0.92893 2.45
      vertex 0.92893 0.836412 -2.45
      vertex 0.92893 0.836412 2.45
    endloop
  endfacet
  facet normal 0.62932 -0.777146 0
    outer loop
      vertex -0.836412 0.92893 -2.45
      vertex -0.734731 1.01127 2.45
      vertex -0.836412 0.92893 2.45
    endloop
  endfacet
  facet normal 0.62932 -0.777146 0
    outer loop
      vertex -0.734731 1.01127 2.45
      vertex -0.836412 0.92893 -2.45
      vertex -0.734731 1.01127 -2.45
    endloop
  endfacet
  facet normal 0.358365 -0.933582 0
    outer loop
      vertex -0.50842 1.14193 -2.45
      vertex -0.386271 1.18882 2.45
      vertex -0.50842 1.14193 2.45
    endloop
  endfacet
  facet normal 0.358365 -0.933582 0
    outer loop
      vertex -0.386271 1.18882 2.45
      vertex -0.50842 1.14193 -2.45
      vertex -0.386271 1.18882 -2.45
    endloop
  endfacet
  facet normal 0.965925 0.258822 0
    outer loop
      vertex -1.18882 -0.386271 2.45
      vertex -1.22268 -0.25989 -2.45
      vertex -1.22268 -0.25989 2.45
    endloop
  endfacet
  facet normal 0.965925 0.258822 0
    outer loop
      vertex -1.22268 -0.25989 -2.45
      vertex -1.18882 -0.386271 2.45
      vertex -1.18882 -0.386271 -2.45
    endloop
  endfacet
  facet normal -0.933582 -0.358365 0
    outer loop
      vertex 1.18882 0.386271 -2.45
      vertex 1.14193 0.50842 2.45
      vertex 1.14193 0.50842 -2.45
    endloop
  endfacet
  facet normal -0.933582 -0.358365 0
    outer loop
      vertex 1.14193 0.50842 2.45
      vertex 1.18882 0.386271 -2.45
      vertex 1.18882 0.386271 2.45
    endloop
  endfacet
  facet normal -0.987689 -0.156433 0
    outer loop
      vertex 1.24315 0.13066 -2.45
      vertex 1.22268 0.25989 2.45
      vertex 1.22268 0.25989 -2.45
    endloop
  endfacet
  facet normal -0.987689 -0.156433 0
    outer loop
      vertex 1.22268 0.25989 2.45
      vertex 1.24315 0.13066 -2.45
      vertex 1.24315 0.13066 2.45
    endloop
  endfacet
  facet normal -0.453991 -0.891006 0
    outer loop
      vertex 0.50842 1.14193 -2.45
      vertex 0.625 1.08253 2.45
      vertex 0.50842 1.14193 2.45
    endloop
  endfacet
  facet normal -0.453991 -0.891006 -0
    outer loop
      vertex 0.625 1.08253 2.45
      vertex 0.50842 1.14193 -2.45
      vertex 0.625 1.08253 -2.45
    endloop
  endfacet
  facet normal -0.544642 -0.838669 0
    outer loop
      vertex 0.625 1.08253 -2.45
      vertex 0.734731 1.01127 2.45
      vertex 0.625 1.08253 2.45
    endloop
  endfacet
  facet normal -0.544642 -0.838669 -0
    outer loop
      vertex 0.734731 1.01127 2.45
      vertex 0.625 1.08253 -2.45
      vertex 0.734731 1.01127 -2.45
    endloop
  endfacet
  facet normal 0.838671 -0.544638 0
    outer loop
      vertex -1.08253 0.624999 2.45
      vertex -1.01127 0.734731 -2.45
      vertex -1.01127 0.734731 2.45
    endloop
  endfacet
  facet normal 0.838671 -0.544638 0
    outer loop
      vertex -1.01127 0.734731 -2.45
      vertex -1.08253 0.624999 2.45
      vertex -1.08253 0.624999 -2.45
    endloop
  endfacet
  facet normal 0.777146 -0.62932 0
    outer loop
      vertex -1.01127 0.734731 2.45
      vertex -0.92893 0.836412 -2.45
      vertex -0.92893 0.836412 2.45
    endloop
  endfacet
  facet normal 0.777146 -0.62932 0
    outer loop
      vertex -0.92893 0.836412 -2.45
      vertex -1.01127 0.734731 2.45
      vertex -1.01127 0.734731 -2.45
    endloop
  endfacet
  facet normal 0.544638 -0.838671 0
    outer loop
      vertex -0.734731 1.01127 -2.45
      vertex -0.624999 1.08253 2.45
      vertex -0.734731 1.01127 2.45
    endloop
  endfacet
  facet normal 0.544638 -0.838671 0
    outer loop
      vertex -0.624999 1.08253 2.45
      vertex -0.734731 1.01127 -2.45
      vertex -0.624999 1.08253 -2.45
    endloop
  endfacet
  facet normal 0.156433 -0.987689 0
    outer loop
      vertex -0.25989 1.22268 -2.45
      vertex -0.13066 1.24315 2.45
      vertex -0.25989 1.22268 2.45
    endloop
  endfacet
  facet normal 0.156433 -0.987689 0
    outer loop
      vertex -0.13066 1.24315 2.45
      vertex -0.25989 1.22268 -2.45
      vertex -0.13066 1.24315 -2.45
    endloop
  endfacet
  facet normal -0.891005 0.453994 0
    outer loop
      vertex 1.08253 -0.624999 -2.45
      vertex 1.14193 -0.50842 2.45
      vertex 1.14193 -0.50842 -2.45
    endloop
  endfacet
  facet normal -0.891005 0.453994 0
    outer loop
      vertex 1.14193 -0.50842 2.45
      vertex 1.08253 -0.624999 -2.45
      vertex 1.08253 -0.624999 2.45
    endloop
  endfacet
  facet normal -0.258822 0.965925 0
    outer loop
      vertex 0.386271 -1.18882 -2.45
      vertex 0.25989 -1.22268 2.45
      vertex 0.386271 -1.18882 2.45
    endloop
  endfacet
  facet normal -0.258822 0.965925 0
    outer loop
      vertex 0.25989 -1.22268 2.45
      vertex 0.386271 -1.18882 -2.45
      vertex 0.25989 -1.22268 -2.45
    endloop
  endfacet
  facet normal -0.707107 0.707107 0
    outer loop
      vertex 0.836412 -0.92893 -2.45
      vertex 0.92893 -0.836412 2.45
      vertex 0.92893 -0.836412 -2.45
    endloop
  endfacet
  facet normal -0.707107 0.707107 0
    outer loop
      vertex 0.92893 -0.836412 2.45
      vertex 0.836412 -0.92893 -2.45
      vertex 0.836412 -0.92893 2.45
    endloop
  endfacet
  facet normal -0.965925 0.258822 0
    outer loop
      vertex 1.18882 -0.386271 -2.45
      vertex 1.22268 -0.25989 2.45
      vertex 1.22268 -0.25989 -2.45
    endloop
  endfacet
  facet normal -0.965925 0.258822 0
    outer loop
      vertex 1.22268 -0.25989 2.45
      vertex 1.18882 -0.386271 -2.45
      vertex 1.18882 -0.386271 2.45
    endloop
  endfacet
  facet normal 0.358365 0.933582 -0
    outer loop
      vertex -0.386271 -1.18882 -2.45
      vertex -0.50842 -1.14193 2.45
      vertex -0.386271 -1.18882 2.45
    endloop
  endfacet
  facet normal 0.358365 0.933582 0
    outer loop
      vertex -0.50842 -1.14193 2.45
      vertex -0.386271 -1.18882 -2.45
      vertex -0.50842 -1.14193 -2.45
    endloop
  endfacet
  facet normal 0.777146 0.62932 0
    outer loop
      vertex -0.92893 -0.836412 2.45
      vertex -1.01127 -0.734731 -2.45
      vertex -1.01127 -0.734731 2.45
    endloop
  endfacet
  facet normal 0.777146 0.62932 0
    outer loop
      vertex -1.01127 -0.734731 -2.45
      vertex -0.92893 -0.836412 2.45
      vertex -0.92893 -0.836412 -2.45
    endloop
  endfacet
  facet normal -0.965925 -0.258822 0
    outer loop
      vertex 1.22268 0.25989 -2.45
      vertex 1.18882 0.386271 2.45
      vertex 1.18882 0.386271 -2.45
    endloop
  endfacet
  facet normal -0.965925 -0.258822 0
    outer loop
      vertex 1.18882 0.386271 2.45
      vertex 1.22268 0.25989 -2.45
      vertex 1.22268 0.25989 2.45
    endloop
  endfacet
  facet normal -0.838671 -0.544638 0
    outer loop
      vertex 1.08253 0.624999 -2.45
      vertex 1.01127 0.734731 2.45
      vertex 1.01127 0.734731 -2.45
    endloop
  endfacet
  facet normal -0.838671 -0.544638 0
    outer loop
      vertex 1.01127 0.734731 2.45
      vertex 1.08253 0.624999 -2.45
      vertex 1.08253 0.624999 2.45
    endloop
  endfacet
  facet normal -0.891005 -0.453994 0
    outer loop
      vertex 1.14193 0.50842 -2.45
      vertex 1.08253 0.624999 2.45
      vertex 1.08253 0.624999 -2.45
    endloop
  endfacet
  facet normal -0.891005 -0.453994 0
    outer loop
      vertex 1.08253 0.624999 2.45
      vertex 1.14193 0.50842 -2.45
      vertex 1.14193 0.50842 2.45
    endloop
  endfacet
  facet normal -0.258822 -0.965925 0
    outer loop
      vertex 0.25989 1.22268 -2.45
      vertex 0.386271 1.18882 2.45
      vertex 0.25989 1.22268 2.45
    endloop
  endfacet
  facet normal -0.258822 -0.965925 -0
    outer loop
      vertex 0.386271 1.18882 2.45
      vertex 0.25989 1.22268 -2.45
      vertex 0.386271 1.18882 -2.45
    endloop
  endfacet
  facet normal -0.156433 -0.987689 0
    outer loop
      vertex 0.13066 1.24315 -2.45
      vertex 0.25989 1.22268 2.45
      vertex 0.13066 1.24315 2.45
    endloop
  endfacet
  facet normal -0.156433 -0.987689 -0
    outer loop
      vertex 0.25989 1.22268 2.45
      vertex 0.13066 1.24315 -2.45
      vertex 0.25989 1.22268 -2.45
    endloop
  endfacet
  facet normal -0.62932 -0.777146 0
    outer loop
      vertex 0.734731 1.01127 -2.45
      vertex 0.836412 0.92893 2.45
      vertex 0.734731 1.01127 2.45
    endloop
  endfacet
  facet normal -0.62932 -0.777146 -0
    outer loop
      vertex 0.836412 0.92893 2.45
      vertex 0.734731 1.01127 -2.45
      vertex 0.836412 0.92893 -2.45
    endloop
  endfacet
  facet normal 0.965925 -0.258822 0
    outer loop
      vertex -1.22268 0.25989 2.45
      vertex -1.18882 0.386271 -2.45
      vertex -1.18882 0.386271 2.45
    endloop
  endfacet
  facet normal 0.965925 -0.258822 0
    outer loop
      vertex -1.18882 0.386271 -2.45
      vertex -1.22268 0.25989 2.45
      vertex -1.22268 0.25989 -2.45
    endloop
  endfacet
  facet normal 0.891005 -0.453994 0
    outer loop
      vertex -1.14193 0.50842 2.45
      vertex -1.08253 0.624999 -2.45
      vertex -1.08253 0.624999 2.45
    endloop
  endfacet
  facet normal 0.891005 -0.453994 0
    outer loop
      vertex -1.08253 0.624999 -2.45
      vertex -1.14193 0.50842 2.45
      vertex -1.14193 0.50842 -2.45
    endloop
  endfacet
  facet normal 0.987689 -0.156433 0
    outer loop
      vertex -1.24315 0.13066 2.45
      vertex -1.22268 0.25989 -2.45
      vertex -1.22268 0.25989 2.45
    endloop
  endfacet
  facet normal 0.987689 -0.156433 0
    outer loop
      vertex -1.22268 0.25989 -2.45
      vertex -1.24315 0.13066 2.45
      vertex -1.24315 0.13066 -2.45
    endloop
  endfacet
  facet normal 0.0523415 -0.998629 0
    outer loop
      vertex -0.13066 1.24315 -2.45
      vertex 0 1.25 2.45
      vertex -0.13066 1.24315 2.45
    endloop
  endfacet
  facet normal 0.0523415 -0.998629 0
    outer loop
      vertex 0 1.25 2.45
      vertex -0.13066 1.24315 -2.45
      vertex 0 1.25 -2.45
    endloop
  endfacet
  facet normal -0.998629 0.0523415 0
    outer loop
      vertex 1.24315 -0.13066 -2.45
      vertex 1.25 0 2.45
      vertex 1.25 0 -2.45
    endloop
  endfacet
  facet normal -0.998629 0.0523415 0
    outer loop
      vertex 1.25 0 2.45
      vertex 1.24315 -0.13066 -2.45
      vertex 1.24315 -0.13066 2.45
    endloop
  endfacet
  facet normal -0.0523415 0.998629 0
    outer loop
      vertex 0.13066 -1.24315 -2.45
      vertex 0 -1.25 2.45
      vertex 0.13066 -1.24315 2.45
    endloop
  endfacet
  facet normal -0.0523415 0.998629 0
    outer loop
      vertex 0 -1.25 2.45
      vertex 0.13066 -1.24315 -2.45
      vertex 0 -1.25 -2.45
    endloop
  endfacet
  facet normal -0.453991 0.891006 0
    outer loop
      vertex 0.625 -1.08253 -2.45
      vertex 0.50842 -1.14193 2.45
      vertex 0.625 -1.08253 2.45
    endloop
  endfacet
  facet normal -0.453991 0.891006 0
    outer loop
      vertex 0.50842 -1.14193 2.45
      vertex 0.625 -1.08253 -2.45
      vertex 0.50842 -1.14193 -2.45
    endloop
  endfacet
  facet normal -0.62932 0.777146 0
    outer loop
      vertex 0.836412 -0.92893 -2.45
      vertex 0.734731 -1.01127 2.45
      vertex 0.836412 -0.92893 2.45
    endloop
  endfacet
  facet normal -0.62932 0.777146 0
    outer loop
      vertex 0.734731 -1.01127 2.45
      vertex 0.836412 -0.92893 -2.45
      vertex 0.734731 -1.01127 -2.45
    endloop
  endfacet
  facet normal -0.544642 0.838669 0
    outer loop
      vertex 0.734731 -1.01127 -2.45
      vertex 0.625 -1.08253 2.45
      vertex 0.734731 -1.01127 2.45
    endloop
  endfacet
  facet normal -0.544642 0.838669 0
    outer loop
      vertex 0.625 -1.08253 2.45
      vertex 0.734731 -1.01127 -2.45
      vertex 0.625 -1.08253 -2.45
    endloop
  endfacet
  facet normal -0.777146 0.62932 0
    outer loop
      vertex 0.92893 -0.836412 -2.45
      vertex 1.01127 -0.734731 2.45
      vertex 1.01127 -0.734731 -2.45
    endloop
  endfacet
  facet normal -0.777146 0.62932 0
    outer loop
      vertex 1.01127 -0.734731 2.45
      vertex 0.92893 -0.836412 -2.45
      vertex 0.92893 -0.836412 2.45
    endloop
  endfacet
  facet normal -0.838671 0.544638 0
    outer loop
      vertex 1.01127 -0.734731 -2.45
      vertex 1.08253 -0.624999 2.45
      vertex 1.08253 -0.624999 -2.45
    endloop
  endfacet
  facet normal -0.838671 0.544638 0
    outer loop
      vertex 1.08253 -0.624999 2.45
      vertex 1.01127 -0.734731 -2.45
      vertex 1.01127 -0.734731 2.45
    endloop
  endfacet
  facet normal 0.707107 0.707107 0
    outer loop
      vertex -0.836412 -0.92893 2.45
      vertex -0.92893 -0.836412 -2.45
      vertex -0.92893 -0.836412 2.45
    endloop
  endfacet
  facet normal 0.707107 0.707107 0
    outer loop
      vertex -0.92893 -0.836412 -2.45
      vertex -0.836412 -0.92893 2.45
      vertex -0.836412 -0.92893 -2.45
    endloop
  endfacet
  facet normal 0.62932 0.777146 -0
    outer loop
      vertex -0.734731 -1.01127 -2.45
      vertex -0.836412 -0.92893 2.45
      vertex -0.734731 -1.01127 2.45
    endloop
  endfacet
  facet normal 0.62932 0.777146 0
    outer loop
      vertex -0.836412 -0.92893 2.45
      vertex -0.734731 -1.01127 -2.45
      vertex -0.836412 -0.92893 -2.45
    endloop
  endfacet
  facet normal 0.544642 0.838669 -0
    outer loop
      vertex -0.625 -1.08253 -2.45
      vertex -0.734731 -1.01127 2.45
      vertex -0.625 -1.08253 2.45
    endloop
  endfacet
  facet normal 0.544642 0.838669 0
    outer loop
      vertex -0.734731 -1.01127 2.45
      vertex -0.625 -1.08253 -2.45
      vertex -0.734731 -1.01127 -2.45
    endloop
  endfacet
  facet normal 0.156433 0.987689 -0
    outer loop
      vertex -0.13066 -1.24315 -2.45
      vertex -0.25989 -1.22268 2.45
      vertex -0.13066 -1.24315 2.45
    endloop
  endfacet
  facet normal 0.156433 0.987689 0
    outer loop
      vertex -0.25989 -1.22268 2.45
      vertex -0.13066 -1.24315 -2.45
      vertex -0.25989 -1.22268 -2.45
    endloop
  endfacet
  facet normal 0.891005 0.453994 0
    outer loop
      vertex -1.08253 -0.624999 2.45
      vertex -1.14193 -0.50842 -2.45
      vertex -1.14193 -0.50842 2.45
    endloop
  endfacet
  facet normal 0.891005 0.453994 0
    outer loop
      vertex -1.14193 -0.50842 -2.45
      vertex -1.08253 -0.624999 2.45
      vertex -1.08253 -0.624999 -2.45
    endloop
  endfacet
  facet normal 0.998629 0.0523415 0
    outer loop
      vertex -1.24315 -0.13066 2.45
      vertex -1.25 0 -2.45
      vertex -1.25 0 2.45
    endloop
  endfacet
  facet normal 0.998629 0.0523415 0
    outer loop
      vertex -1.25 0 -2.45
      vertex -1.24315 -0.13066 2.45
      vertex -1.24315 -0.13066 -2.45
    endloop
  endfacet
  facet normal -0.777146 -0.62932 0
    outer loop
      vertex 1.01127 0.734731 -2.45
      vertex 0.92893 0.836412 2.45
      vertex 0.92893 0.836412 -2.45
    endloop
  endfacet
  facet normal -0.777146 -0.62932 0
    outer loop
      vertex 0.92893 0.836412 2.45
      vertex 1.01127 0.734731 -2.45
      vertex 1.01127 0.734731 2.45
    endloop
  endfacet
  facet normal -0.358365 -0.933582 0
    outer loop
      vertex 0.386271 1.18882 -2.45
      vertex 0.50842 1.14193 2.45
      vertex 0.386271 1.18882 2.45
    endloop
  endfacet
  facet normal -0.358365 -0.933582 -0
    outer loop
      vertex 0.50842 1.14193 2.45
      vertex 0.386271 1.18882 -2.45
      vertex 0.50842 1.14193 -2.45
    endloop
  endfacet
  facet normal 0.707107 -0.707107 0
    outer loop
      vertex -0.92893 0.836412 2.45
      vertex -0.836412 0.92893 -2.45
      vertex -0.836412 0.92893 2.45
    endloop
  endfacet
  facet normal 0.707107 -0.707107 0
    outer loop
      vertex -0.836412 0.92893 -2.45
      vertex -0.92893 0.836412 2.45
      vertex -0.92893 0.836412 -2.45
    endloop
  endfacet
  facet normal 0.933582 -0.358365 0
    outer loop
      vertex -1.18882 0.386271 2.45
      vertex -1.14193 0.50842 -2.45
      vertex -1.14193 0.50842 2.45
    endloop
  endfacet
  facet normal 0.933582 -0.358365 0
    outer loop
      vertex -1.14193 0.50842 -2.45
      vertex -1.18882 0.386271 2.45
      vertex -1.18882 0.386271 -2.45
    endloop
  endfacet
  facet normal 0.453994 -0.891005 0
    outer loop
      vertex -0.624999 1.08253 -2.45
      vertex -0.50842 1.14193 2.45
      vertex -0.624999 1.08253 2.45
    endloop
  endfacet
  facet normal 0.453994 -0.891005 0
    outer loop
      vertex -0.50842 1.14193 2.45
      vertex -0.624999 1.08253 -2.45
      vertex -0.50842 1.14193 -2.45
    endloop
  endfacet
  facet normal 0.258822 -0.965925 0
    outer loop
      vertex -0.386271 1.18882 -2.45
      vertex -0.25989 1.22268 2.45
      vertex -0.386271 1.18882 2.45
    endloop
  endfacet
  facet normal 0.258822 -0.965925 0
    outer loop
      vertex -0.25989 1.22268 2.45
      vertex -0.386271 1.18882 -2.45
      vertex -0.25989 1.22268 -2.45
    endloop
  endfacet
  facet normal -0.156433 0.987689 0
    outer loop
      vertex 0.25989 -1.22268 -2.45
      vertex 0.13066 -1.24315 2.45
      vertex 0.25989 -1.22268 2.45
    endloop
  endfacet
  facet normal -0.156433 0.987689 0
    outer loop
      vertex 0.13066 -1.24315 2.45
      vertex 0.25989 -1.22268 -2.45
      vertex 0.13066 -1.24315 -2.45
    endloop
  endfacet
  facet normal -0.358365 0.933582 0
    outer loop
      vertex 0.50842 -1.14193 -2.45
      vertex 0.386271 -1.18882 2.45
      vertex 0.50842 -1.14193 2.45
    endloop
  endfacet
  facet normal -0.358365 0.933582 0
    outer loop
      vertex 0.386271 -1.18882 2.45
      vertex 0.50842 -1.14193 -2.45
      vertex 0.386271 -1.18882 -2.45
    endloop
  endfacet
  facet normal -0.933582 0.358365 0
    outer loop
      vertex 1.14193 -0.50842 -2.45
      vertex 1.18882 -0.386271 2.45
      vertex 1.18882 -0.386271 -2.45
    endloop
  endfacet
  facet normal -0.933582 0.358365 0
    outer loop
      vertex 1.18882 -0.386271 2.45
      vertex 1.14193 -0.50842 -2.45
      vertex 1.14193 -0.50842 2.45
    endloop
  endfacet
  facet normal -0.987689 0.156433 0
    outer loop
      vertex 1.22268 -0.25989 -2.45
      vertex 1.24315 -0.13066 2.45
      vertex 1.24315 -0.13066 -2.45
    endloop
  endfacet
  facet normal -0.987689 0.156433 0
    outer loop
      vertex 1.24315 -0.13066 2.45
      vertex 1.22268 -0.25989 -2.45
      vertex 1.22268 -0.25989 2.45
    endloop
  endfacet
  facet normal 0.453991 0.891006 -0
    outer loop
      vertex -0.50842 -1.14193 -2.45
      vertex -0.625 -1.08253 2.45
      vertex -0.50842 -1.14193 2.45
    endloop
  endfacet
  facet normal 0.453991 0.891006 0
    outer loop
      vertex -0.625 -1.08253 2.45
      vertex -0.50842 -1.14193 -2.45
      vertex -0.625 -1.08253 -2.45
    endloop
  endfacet
  facet normal 0.258822 0.965925 -0
    outer loop
      vertex -0.25989 -1.22268 -2.45
      vertex -0.386271 -1.18882 2.45
      vertex -0.25989 -1.22268 2.45
    endloop
  endfacet
  facet normal 0.258822 0.965925 0
    outer loop
      vertex -0.386271 -1.18882 2.45
      vertex -0.25989 -1.22268 -2.45
      vertex -0.386271 -1.18882 -2.45
    endloop
  endfacet
  facet normal 0.0523415 0.998629 -0
    outer loop
      vertex 0 -1.25 -2.45
      vertex -0.13066 -1.24315 2.45
      vertex 0 -1.25 2.45
    endloop
  endfacet
  facet normal 0.0523415 0.998629 0
    outer loop
      vertex -0.13066 -1.24315 2.45
      vertex 0 -1.25 -2.45
      vertex -0.13066 -1.24315 -2.45
    endloop
  endfacet
  facet normal 0.838671 0.544638 0
    outer loop
      vertex -1.01127 -0.734731 2.45
      vertex -1.08253 -0.624999 -2.45
      vertex -1.08253 -0.624999 2.45
    endloop
  endfacet
  facet normal 0.838671 0.544638 0
    outer loop
      vertex -1.08253 -0.624999 -2.45
      vertex -1.01127 -0.734731 2.45
      vertex -1.01127 -0.734731 -2.45
    endloop
  endfacet
  facet normal 0.933582 0.358365 0
    outer loop
      vertex -1.14193 -0.50842 2.45
      vertex -1.18882 -0.386271 -2.45
      vertex -1.18882 -0.386271 2.45
    endloop
  endfacet
  facet normal 0.933582 0.358365 0
    outer loop
      vertex -1.18882 -0.386271 -2.45
      vertex -1.14193 -0.50842 2.45
      vertex -1.14193 -0.50842 -2.45
    endloop
  endfacet
  facet normal 0.987689 0.156433 0
    outer loop
      vertex -1.22268 -0.25989 2.45
      vertex -1.24315 -0.13066 -2.45
      vertex -1.24315 -0.13066 2.45
    endloop
  endfacet
  facet normal 0.987689 0.156433 0
    outer loop
      vertex -1.24315 -0.13066 -2.45
      vertex -1.22268 -0.25989 2.45
      vertex -1.22268 -0.25989 -2.45
    endloop
  endfacet
endsolid OpenSCAD_Model
