M48
; DRILL file {KiCad 5.1.2+dfsg1-1} date Mon 17 Feb 2020 02:19:05 PM CET
; FORMAT={-:-/ absolute / inch / decimal}
; #@! TF.CreationDate,2020-02-17T14:19:05+01:00
; #@! TF.GenerationSoftware,Kicad,Pcbnew,5.1.2+dfsg1-1
; #@! TF.FileFunction,Plated,1,6,PTH
FMAT,2
INCH
T1C0.0079
T2C0.0118
T3C0.0157
T4C0.0236
T5C0.0276
T6C0.0295
T7C0.0315
T8C0.0335
T9C0.0350
T10C0.0354
T11C0.0394
T12C0.0433
T13C0.0500
T14C0.0618
T15C0.0630
T16C0.0866
T17C0.1181
T18C0.1260
%
G90
G05
T1
X11.2283Y-3.3346
X11.2283Y-3.374
X11.2283Y-3.4134
X11.2677Y-3.3346
X11.2677Y-3.374
X11.2677Y-3.4134
X11.3071Y-3.3346
X11.3071Y-3.374
X11.3071Y-3.4134
X3.2382Y-3.9764
X3.2382Y-4.0157
X3.2382Y-4.0551
X3.2382Y-4.0945
X3.2382Y-4.1339
X3.2382Y-4.1732
X3.2382Y-4.2126
X3.2382Y-4.252
X3.2776Y-3.9764
X3.2776Y-4.0157
X3.2776Y-4.0551
X3.2776Y-4.0945
X3.2776Y-4.1339
X3.2776Y-4.1732
X3.2776Y-4.2126
X3.2776Y-4.252
X3.3169Y-3.9764
X3.3169Y-4.0157
X3.3169Y-4.0551
X3.3169Y-4.0945
X3.3169Y-4.1339
X3.3169Y-4.1732
X3.3169Y-4.2126
X3.3169Y-4.252
X3.3563Y-3.9764
X3.3563Y-4.0157
X3.3563Y-4.0551
X3.3563Y-4.0945
X3.3563Y-4.1339
X3.3563Y-4.1732
X3.3563Y-4.2126
X3.3563Y-4.252
X3.3957Y-3.9764
X3.3957Y-4.0157
X3.3957Y-4.0551
X3.3957Y-4.0945
X3.3957Y-4.1339
X3.3957Y-4.1732
X3.3957Y-4.2126
X3.3957Y-4.252
X3.435Y-3.9764
X3.435Y-4.0157
X3.435Y-4.0551
X3.435Y-4.0945
X3.435Y-4.1339
X3.435Y-4.1732
X3.435Y-4.2126
X3.435Y-4.252
X3.4744Y-3.9764
X3.4744Y-4.0157
X3.4744Y-4.0551
X3.4744Y-4.0945
X3.4744Y-4.1339
X3.4744Y-4.1732
X3.4744Y-4.2126
X3.4744Y-4.252
X3.5138Y-3.9764
X3.5138Y-4.0157
X3.5138Y-4.0551
X3.5138Y-4.0945
X3.5138Y-4.1339
X3.5138Y-4.1732
X3.5138Y-4.2126
X3.5138Y-4.252
T2
X3.5244Y-4.852
X3.5244Y-4.9197
X3.5433Y-4.8858
X3.5622Y-4.852
X3.5622Y-4.9197
X2.5303Y-4.2181
X2.5303Y-4.2858
X2.5492Y-4.252
X2.5681Y-4.2181
X2.5681Y-4.2858
T3
X1.7323Y-4.5866
X1.8504Y-2.0748
X1.8504Y-2.1752
X1.8504Y-2.2343
X1.8504Y-2.2933
X1.8504Y-2.3346
X1.8898Y-2.815
X1.8898Y-2.9528
X1.8898Y-3.0906
X1.8898Y-3.7008
X1.8898Y-3.8386
X1.8898Y-3.9764
X1.8898Y-4.8622
X1.9882Y-1.811
X2.1102Y-2.0098
X2.1457Y-2.7953
X2.1457Y-3.248
X2.1693Y-2.5906
X2.1752Y-1.8012
X2.185Y-3.5827
X2.185Y-3.878
X2.185Y-4.0551
X2.1929Y-2.002
X2.2244Y-4.7441
X2.2638Y-2.9134
X2.311Y-2.5827
X2.3122Y-3.7019
X2.3161Y-4.5484
X2.3228Y-4.6457
X2.3414Y-3.7312
X2.3425Y-1.6535
X2.3425Y-1.9331
X2.3425Y-4.8622
X2.3445Y-2.0335
X2.3453Y-4.5776
X2.3819Y-2.7953
X2.3819Y-3.0315
X2.392Y-2.1043
X2.4094Y-2.4961
X2.4232Y-1.7717
X2.4331Y-2.1299
X2.4409Y-4.0748
X2.4409Y-4.4291
X2.4409Y-4.7638
X2.4606Y-2.0669
X2.5Y-2.3297
X2.5Y-2.3711
X2.5Y-2.9134
X2.5197Y-3.1693
X2.5197Y-4.1634
X2.5236Y-4.3425
X2.5394Y-4.6654
X2.5799Y-4.7334
X2.5809Y-2.3502
X2.5886Y-2.6575
X2.5935Y-4.3591
X2.5984Y-4.1634
X2.6091Y-4.7626
X2.6101Y-2.321
X2.6704Y-2.3335
X2.6783Y-2.2312
X2.6811Y-2.5984
X2.6969Y-1.8903
X2.6997Y-2.3043
X2.7075Y-2.2019
X2.7584Y-4.3568
X2.7756Y-1.8248
X2.7756Y-2.8622
X2.7885Y-3.7925
X2.8051Y-4.2028
X2.8178Y-3.8217
X2.8228Y-3.9921
X2.8307Y-2.1339
X2.8307Y-2.1969
X2.8307Y-2.2559
X2.8346Y-4.1614
X2.9016Y-2.3386
X2.9134Y-3.0197
X2.9173Y-3.874
X2.9173Y-3.9272
X2.9213Y-4.437
X2.9528Y-3.7795
X2.9641Y-2.3391
X2.9646Y-2.3957
X2.9724Y-3.2677
X2.9785Y-3.9175
X2.9921Y-2.0669
X3.0077Y-3.9467
X3.0315Y-2.2736
X3.0405Y-4.7745
X3.0472Y-4.2402
X3.0512Y-2.0669
X3.0512Y-4.6575
X3.0512Y-3.5354
X3.0531Y-1.9311
X3.0591Y-4.0935
X3.0591Y-4.1348
X3.0697Y-4.7452
X3.0759Y-3.7767
X3.0778Y-3.9557
X3.0778Y-3.997
X3.0965Y-2.6772
X3.1052Y-3.806
X3.1201Y-4.311
X3.122Y-4.5
X3.1378Y-2.7165
X3.1398Y-3.2579
X3.1752Y-4.3386
X3.1753Y-3.1044
X3.1772Y-3.9114
X3.1791Y-2.0866
X3.181Y-3.2249
X3.1811Y-2.2165
X3.185Y-4.874
X3.2087Y-4.4094
X3.2173Y-3.2591
X3.2185Y-2.4508
X3.2323Y-4.626
X3.2579Y-1.8504
X3.2717Y-4.626
X3.2776Y-2.0866
X3.2837Y-2.6246
X3.3189Y-3.5315
X3.3189Y-5.0354
X3.3268Y-2.5551
X3.3346Y-4.7283
X3.3555Y-2.6091
X3.3583Y-3.2795
X3.3616Y-2.4175
X3.3701Y-4.7953
X3.3827Y-3.7563
X3.3847Y-2.5799
X3.3858Y-2.0669
X3.3908Y-2.4468
X3.3948Y-2.1701
X3.4062Y-4.4692
X3.4094Y-4.626
X3.4094Y-4.752
X3.412Y-3.7271
X3.4241Y-2.1409
X3.4291Y-4.8504
X3.4291Y-4.9409
X3.4646Y-4.4606
X3.4734Y-2.4213
X3.4744Y-3.811
X3.4764Y-4.6299
X3.5039Y-1.811
X3.5039Y-4.4488
X3.5148Y-2.4213
X3.5152Y-3.532
X3.5157Y-3.811
X3.5197Y-2.5787
X3.5197Y-5.189
X3.5236Y-2.0669
X3.5276Y-2.4882
X3.5276Y-4.5906
X3.5563Y-3.8296
X3.5827Y-3.5226
X3.5855Y-3.8003
X3.5886Y-2.6614
X3.5984Y-2.3819
X3.6181Y-2.4213
X3.6181Y-3.9134
X3.626Y-2.6181
X3.6319Y-3.0925
X3.6339Y-2.5315
X3.6464Y-3.5861
X3.6496Y-2.7047
X3.6496Y-3.9449
X3.6614Y-3.8583
X3.6654Y-5.0079
X3.685Y-3.6181
X3.685Y-4.5748
X3.689Y-4.5197
X3.6964Y-4.0399
X3.7121Y-3.784
X3.7244Y-2.6654
X3.7257Y-4.0691
X3.7362Y-4.0
X3.7362Y-4.2913
X3.7382Y-3.1791
X3.7402Y-1.9567
X3.757Y-2.7334
X3.7638Y-4.3228
X3.7717Y-2.8829
X3.7717Y-2.9242
X3.7835Y-3.0519
X3.7863Y-2.7626
X3.8128Y-3.0227
X3.8327Y-4.1762
X3.8386Y-1.9882
X3.8386Y-3.1654
X3.8386Y-3.2795
X3.8425Y-2.8238
X3.8425Y-2.8652
X3.8543Y-2.9419
X3.8543Y-2.9833
X3.8583Y-2.6575
X3.878Y-4.498
X3.8807Y-4.5471
X3.8858Y-4.3819
X3.9016Y-3.2165
X3.9173Y-3.0197
X3.9291Y-5.0748
X3.9567Y-4.437
X3.9567Y-4.3898
X4.0256Y-1.7795
X4.0354Y-4.439
X4.0394Y-2.0906
X4.0413Y-2.4291
X4.0748Y-4.0669
X4.0748Y-4.1614
X4.0827Y-4.8642
X4.0846Y-3.1496
X4.1043Y-1.939
X4.1102Y-2.4291
X4.1319Y-1.6142
X4.1339Y-4.5276
X4.1437Y-2.6496
X4.1575Y-2.1457
X4.1634Y-1.7913
X4.189Y-1.6102
X4.1929Y-2.6496
X4.2205Y-2.1457
X4.2323Y-3.1339
X4.2323Y-4.626
X4.2551Y-1.8178
X4.2598Y-1.6102
X4.2618Y-4.3406
X4.2795Y-2.0984
X4.2843Y-1.7885
X4.315Y-2.1693
X4.3268Y-1.6142
X4.3268Y-4.3543
X4.3307Y-3.1339
X4.3307Y-3.2677
X4.3307Y-3.6614
X4.3307Y-3.8386
X4.3701Y-4.3543
X4.3701Y-4.4016
X4.3976Y-1.937
X4.4016Y-1.6161
X4.4055Y-2.0866
X4.4173Y-4.3543
X4.4291Y-1.7864
X4.4291Y-1.8278
X4.4291Y-3.1339
X4.4291Y-3.6614
X4.4291Y-3.8386
X4.4587Y-4.5276
X4.4587Y-4.6063
X4.4685Y-2.1752
X4.4783Y-4.3406
X4.5197Y-2.4764
X4.5236Y-3.1339
X4.5276Y-1.9291
X4.5276Y-3.4252
X4.5276Y-3.6614
X4.5276Y-3.8386
X4.5374Y-4.3996
X4.5669Y-4.6516
X4.5965Y-4.3996
X4.6161Y-2.5689
X4.6171Y-4.5984
X4.6181Y-1.7717
X4.6378Y-1.6102
X4.6535Y-4.9606
X4.6614Y-2.3445
X4.6614Y-2.3858
X4.689Y-2.185
X4.7008Y-1.6102
X4.7047Y-2.6575
X4.7087Y-4.9606
X4.7224Y-1.7717
X4.7244Y-3.1339
X4.7244Y-3.4252
X4.7638Y-4.3504
X4.7638Y-4.9606
X4.7933Y-2.2776
X4.8228Y-3.1339
X4.8228Y-3.4252
X4.8268Y-4.374
X4.8465Y-2.0866
X4.8701Y-4.374
X4.8701Y-4.4252
X4.9134Y-4.374
X4.9213Y-1.9291
X4.9213Y-3.4252
X4.9291Y-3.1299
X4.9331Y-4.9606
X4.9567Y-2.689
X4.9567Y-4.5591
X4.9567Y-4.622
X4.9705Y-2.1949
X4.9705Y-4.3504
X4.9843Y-2.2559
X4.9882Y-4.9606
X4.9902Y-2.0669
X5.0157Y-2.689
X5.0433Y-4.9606
X5.1181Y-3.4252
X5.1181Y-3.6713
X5.1181Y-3.8386
X5.1181Y-4.752
X5.126Y-4.622
X5.1378Y-3.0177
X5.1378Y-4.9803
X5.2067Y-2.3031
X5.2165Y-3.4252
X5.2677Y-1.7795
X5.2677Y-4.8976
X5.2953Y-4.1929
X5.315Y-2.503
X5.3228Y-1.7795
X5.3299Y-3.5304
X5.3445Y-2.6181
X5.3543Y-3.874
X5.3591Y-3.5011
X5.378Y-1.6102
X5.378Y-1.7795
X5.4252Y-2.2283
X5.437Y-2.3445
X5.437Y-2.3858
X5.4409Y-1.7795
X5.4528Y-4.3504
X5.5Y-1.7795
X5.5079Y-2.7953
X5.5118Y-2.1024
X5.561Y-1.7795
X5.6142Y-2.2185
X5.6289Y-1.7864
X5.6496Y-3.7953
X5.6555Y-2.6929
X5.6654Y-1.6142
X5.6665Y-1.8633
X5.6703Y-1.7864
X5.687Y-2.4783
X5.6957Y-1.8926
X5.7122Y-4.6235
X5.7177Y-2.6111
X5.7216Y-2.135
X5.7255Y-2.3571
X5.7283Y-4.3504
X5.7303Y-1.9291
X5.7402Y-3.6969
X5.7469Y-2.5818
X5.7508Y-2.1642
X5.7548Y-2.3279
X5.7623Y-4.6363
X5.7638Y-2.2126
X5.7648Y-1.8406
X5.7748Y-3.3397
X5.7854Y-2.8228
X5.804Y-3.3689
X5.8061Y-1.8406
X5.8117Y-2.2146
X5.815Y-2.2598
X5.8189Y-1.6102
X5.8504Y-2.0551
X5.8858Y-3.6024
X5.8898Y-2.2441
X5.8937Y-2.815
X5.9173Y-4.3543
X5.9173Y-4.3957
X5.9272Y-2.4016
X5.937Y-2.8307
X5.9598Y-2.9871
X5.9606Y-3.8317
X5.9606Y-3.873
X5.9606Y-3.9734
X5.9606Y-4.0148
X5.9637Y-3.6486
X5.9646Y-3.5472
X5.9646Y-3.5984
X5.989Y-2.9578
X5.9921Y-2.8583
X6.0118Y-3.9026
X6.0118Y-3.9439
X6.0118Y-4.0443
X6.0118Y-4.0856
X6.0157Y-2.9016
X6.0354Y-2.7992
X6.0531Y-4.6004
X6.0906Y-2.6378
X6.0906Y-2.8543
X6.0906Y-3.0591
X6.0945Y-2.9094
X6.0945Y-3.6654
X6.0945Y-3.7992
X6.0984Y-2.7992
X6.0984Y-4.1417
X6.1004Y-3.5512
X6.1024Y-2.9764
X6.1029Y-2.4454
X6.1043Y-2.1083
X6.1122Y-1.8563
X6.1122Y-1.9272
X6.1122Y-1.998
X6.2467Y-2.7847
X6.25Y-2.1811
X6.2539Y-3.061
X6.2542Y-3.0108
X6.2557Y-2.9714
X6.2584Y-2.9321
X6.2607Y-1.8711
X6.2607Y-1.9124
X6.2608Y-2.0128
X6.2608Y-2.0541
X6.2657Y-1.7736
X6.2688Y-2.6308
X6.2795Y-5.2205
X6.2826Y-2.5422
X6.2913Y-2.8425
X6.2981Y-2.6015
X6.3031Y-3.063
X6.3071Y-2.9213
X6.3091Y-1.9419
X6.3091Y-1.9833
X6.3091Y-1.7953
X6.311Y-2.0974
X6.311Y-2.1388
X6.3119Y-2.5129
X6.3122Y-2.7784
X6.3414Y-2.7492
X6.3543Y-2.4498
X6.3543Y-2.4911
X6.3583Y-3.0709
X6.3602Y-1.811
X6.3633Y-3.9595
X6.3661Y-3.4252
X6.378Y-3.6909
X6.378Y-3.75
X6.3898Y-5.0709
X6.3926Y-3.9303
X6.4075Y-2.5207
X6.4075Y-2.562
X6.4094Y-2.3858
X6.4252Y-4.9094
X6.4291Y-4.0472
X6.4311Y-3.9016
X6.4331Y-3.9921
X6.437Y-4.9488
X6.561Y-1.7559
X6.5748Y-3.0315
X6.5748Y-3.4567
X6.5787Y-2.4331
X6.5787Y-2.5079
X6.5787Y-2.5669
X6.5866Y-3.5394
X6.5876Y-4.9934
X6.5906Y-2.7638
X6.5906Y-3.5
X6.5959Y-2.9278
X6.5965Y-3.9429
X6.6024Y-4.0906
X6.6043Y-1.7835
X6.6102Y-2.6624
X6.6102Y-2.7037
X6.6127Y-3.0636
X6.6127Y-3.105
X6.626Y-3.5472
X6.6299Y-3.6969
X6.6417Y-1.9921
X6.6417Y-2.9646
X6.6437Y-1.8189
X6.6457Y-3.7638
X6.6515Y-3.849
X6.6526Y-3.0394
X6.6536Y-1.9171
X6.6693Y-3.9882
X6.6732Y-3.4173
X6.6747Y-2.0444
X6.6781Y-2.0931
X6.6811Y-3.7323
X6.6929Y-2.5787
X6.6929Y-2.9823
X6.6939Y-3.0394
X6.7174Y-2.0939
X6.7205Y-3.7008
X6.7244Y-1.9961
X6.7269Y-3.971
X6.748Y-2.1535
X6.7598Y-3.6693
X6.7598Y-4.0787
X6.7618Y-4.8228
X6.7677Y-3.0315
X6.7717Y-2.6575
X6.7717Y-4.1614
X6.8071Y-4.0433
X6.8189Y-3.4183
X6.8386Y-3.0354
X6.8406Y-3.1004
X6.8408Y-2.7892
X6.8468Y-2.7353
X6.8543Y-3.8307
X6.8898Y-2.0472
X6.9055Y-2.7717
X6.9055Y-2.8268
X6.9557Y-2.8238
X6.9685Y-2.8701
X6.9882Y-2.0472
X6.9882Y-3.6516
X6.9882Y-3.7795
X7.0295Y-4.9508
X7.0354Y-2.1693
X7.0428Y-4.1014
X7.0866Y-2.0472
X7.0866Y-2.3031
X7.0866Y-2.7953
X7.1535Y-5.2205
X7.1575Y-2.2165
X7.185Y-3.4154
X7.185Y-3.6516
X7.185Y-3.7795
X7.2244Y-2.9724
X7.2244Y-5.1024
X7.3425Y-2.7953
X7.3583Y-1.6299
X7.3612Y-4.1407
X7.3819Y-3.4154
X7.3819Y-3.6516
X7.3819Y-3.7795
X7.3819Y-3.9764
X7.3819Y-4.7165
X7.4213Y-4.7165
X7.4803Y-2.4016
X7.5098Y-2.9724
X7.5591Y-2.2638
X7.5787Y-2.7953
X7.5787Y-3.4154
X7.5787Y-3.6516
X7.5787Y-3.7795
X7.6378Y-2.4016
X7.687Y-3.8976
X7.7165Y-4.252
X7.7165Y-4.4094
X7.7402Y-2.3091
X7.7402Y-2.3681
X7.7402Y-2.4291
X7.748Y-2.7264
X7.748Y-3.6496
X7.7874Y-4.7953
X7.815Y-4.685
X7.8268Y-5.0354
X7.8386Y-3.9016
X7.8425Y-4.1457
X7.8848Y-3.8376
X7.8898Y-5.0354
X7.8924Y-3.8933
X7.8937Y-4.6063
X7.8996Y-2.252
X7.9085Y-2.7441
X7.9449Y-5.0394
X7.9498Y-2.7441
X7.9911Y-2.7953
X8.002Y-2.2539
X8.0079Y-5.0394
X8.0325Y-2.7953
X8.0388Y-3.8305
X8.0472Y-3.7087
X8.0669Y-3.7913
X8.0669Y-3.9016
X8.0778Y-2.7441
X8.0906Y-3.8307
X8.1191Y-2.7441
X8.1398Y-2.2539
X8.1565Y-2.7913
X8.1791Y-4.4488
X8.1978Y-2.7913
X8.2234Y-2.7441
X8.2627Y-3.928
X8.2648Y-2.7441
X8.2677Y-2.2539
X8.2717Y-3.7756
X8.2835Y-3.7323
X8.2894Y-2.1181
X8.2905Y-3.9002
X8.2913Y-1.9094
X8.3121Y-3.8239
X8.315Y-3.8661
X8.3661Y-4.9173
X8.3701Y-2.874
X8.4016Y-2.8386
X8.4125Y-3.2353
X8.4252Y-2.4311
X8.4252Y-2.7165
X8.4291Y-4.9173
X8.4449Y-2.8465
X8.4724Y-3.7913
X8.4843Y-4.252
X8.4843Y-2.8701
X8.4912Y-3.4834
X8.4921Y-4.0472
X8.5Y-3.3346
X8.5039Y-3.6329
X8.5129Y-3.8003
X8.5138Y-3.6713
X8.5157Y-3.8504
X8.5276Y-1.7559
X8.5454Y-3.2403
X8.5709Y-3.311
X8.5748Y-3.4606
X8.5757Y-3.8631
X8.5991Y-3.3435
X8.6024Y-4.252
X8.6142Y-2.3228
X8.6319Y-3.6614
X8.6341Y-3.7206
X8.6634Y-3.6339
X8.6713Y-3.1791
X8.6713Y-3.3425
X8.6732Y-2.314
X8.6791Y-3.6772
X8.689Y-3.8189
X8.7008Y-3.2874
X8.7087Y-4.0984
X8.7106Y-3.7106
X8.7313Y-3.8208
X8.7598Y-4.2047
X8.7638Y-3.6378
X8.7756Y-3.8189
X8.7795Y-2.314
X8.7894Y-3.376
X8.7913Y-5.0354
X8.815Y-1.6732
X8.8189Y-3.815
X8.8268Y-1.7874
X8.8307Y-4.0984
X8.8307Y-3.7156
X8.8346Y-4.6457
X8.8346Y-4.7165
X8.8425Y-3.6772
X8.8504Y-3.4843
X8.878Y-4.7165
X8.878Y-4.7756
X8.9031Y-3.4843
X8.9213Y-4.7165
X8.9226Y-3.4488
X8.9252Y-3.874
X8.9272Y-5.0335
X8.9449Y-4.1063
X8.9518Y-2.2756
X8.9872Y-5.0315
X8.9882Y-3.4488
X9.0354Y-4.0453
X9.0827Y-2.9567
X9.0866Y-2.3504
X9.0906Y-5.0354
X9.1003Y-3.477
X9.1102Y-4.2992
X9.1339Y-3.75
X9.1417Y-3.4646
X9.1417Y-3.874
X9.1437Y-3.6811
X9.1457Y-5.0748
X9.1969Y-3.875
X9.1969Y-4.939
X9.2008Y-3.4803
X9.2244Y-4.3819
X9.2421Y-2.7067
X9.2559Y-3.7874
X9.2874Y-4.3819
X9.2913Y-2.372
X9.2913Y-3.6811
X9.2913Y-4.9921
X9.2933Y-4.9006
X9.311Y-3.7599
X9.3386Y-1.7559
X9.3386Y-1.8071
X9.3386Y-1.8583
X9.3602Y-2.372
X9.3602Y-2.7067
X9.3681Y-4.374
X9.3858Y-5.0197
X9.3937Y-1.7559
X9.3937Y-1.8071
X9.3937Y-1.8583
X9.3976Y-3.7795
X9.4173Y-3.7126
X9.4301Y-3.6575
X9.4488Y-2.3661
X9.4488Y-1.7559
X9.4488Y-1.8071
X9.4488Y-1.8583
X9.4646Y-3.7283
X9.4783Y-3.5433
X9.4783Y-2.7067
X9.4843Y-4.9449
X9.5039Y-4.248
X9.5138Y-4.374
X9.563Y-4.8937
X9.5866Y-4.3819
X9.626Y-2.9646
X9.626Y-5.1181
X9.6457Y-3.7106
X9.6949Y-3.6614
X9.6949Y-3.7598
X9.7008Y-4.4055
X9.7008Y-4.4567
X9.7402Y-4.5433
X9.7441Y-3.7106
X9.748Y-4.4055
X9.748Y-4.4567
X9.7677Y-2.0866
X9.7677Y-2.1457
X9.7697Y-4.9469
X9.8268Y-1.874
X9.8268Y-2.0866
X9.8268Y-2.1457
X9.8484Y-3.4416
X9.8543Y-3.2677
X9.8622Y-3.878
X9.8661Y-3.7717
X9.8819Y-4.9724
X9.8898Y-4.5827
X9.9094Y-3.5551
X9.9173Y-3.5
X9.9213Y-2.9724
X9.9213Y-5.1575
X9.9252Y-4.6299
X9.9333Y-4.028
X9.9488Y-3.5709
X9.9515Y-3.8644
X9.9551Y-4.5659
X9.9616Y-3.4793
X9.9646Y-3.7717
X9.9803Y-2.9724
X9.9803Y-3.0217
X9.9843Y-4.0079
X9.9966Y-3.594
X10.0039Y-1.874
X10.0039Y-1.937
X10.0152Y-3.4417
X10.0286Y-3.3594
X10.0394Y-2.9724
X10.0433Y-3.7402
X10.0505Y-3.3934
X10.0512Y-3.6447
X10.0571Y-4.9449
X10.0639Y-3.2748
X10.0748Y-4.0276
X10.1042Y-3.3394
X10.1195Y-3.7258
X10.128Y-3.846
X10.1338Y-2.9754
X10.1339Y-2.874
X10.1339Y-2.9252
X10.1339Y-4.2244
X10.1368Y-3.6644
X10.1378Y-2.0827
X10.1378Y-2.1457
X10.1457Y-4.0945
X10.1476Y-4.9085
X10.1539Y-3.7066
X10.1772Y-4.6024
X10.1772Y-4.9724
X10.1811Y-2.874
X10.1811Y-2.9252
X10.1811Y-2.9754
X10.189Y-3.3504
X10.189Y-4.0748
X10.1919Y-3.7169
X10.1964Y-3.8548
X10.1969Y-2.0827
X10.1969Y-2.1457
X10.1969Y-4.2402
X10.2165Y-5.1673
X10.2304Y-3.7304
X10.248Y-4.0197
X10.248Y-4.0669
X10.2657Y-2.8543
X10.2717Y-4.6024
X10.2953Y-4.0197
X10.2953Y-4.0669
X10.3036Y-4.657
X10.315Y-1.7421
X10.315Y-1.8012
X10.315Y-1.8602
X10.315Y-1.9193
X10.315Y-3.374
X10.3386Y-3.0197
X10.3425Y-4.0197
X10.3425Y-4.0669
X10.343Y-4.657
X10.3445Y-2.8543
X10.3445Y-4.9508
X10.3582Y-3.7283
X10.3583Y-3.374
X10.3583Y-3.6889
X10.361Y-3.4185
X10.3661Y-1.7402
X10.3661Y-1.7992
X10.3661Y-1.8622
X10.3661Y-1.9213
X10.403Y-3.6471
X10.4035Y-4.2323
X10.4043Y-3.687
X10.4055Y-4.5315
X10.4094Y-4.0079
X10.4134Y-2.3819
X10.4134Y-2.4409
X10.4232Y-2.8543
X10.4272Y-3.8465
X10.4321Y-3.6181
X10.4488Y-3.247
X10.4567Y-4.0197
X10.4567Y-4.9724
X10.4961Y-4.0039
X10.5039Y-5.1654
X10.5157Y-3.8465
X10.5197Y-2.248
X10.5217Y-4.2028
X10.5354Y-3.4213
X10.5418Y-3.3682
X10.5433Y-3.3268
X10.5709Y-4.2598
X10.622Y-4.9528
X10.6693Y-2.0768
X10.6693Y-2.1457
X10.6978Y-4.8809
X10.7008Y-3.9685
X10.7165Y-3.752
X10.7165Y-4.7087
X10.7382Y-2.0768
X10.7382Y-2.1457
X10.7441Y-4.9724
X10.752Y-1.8504
X10.7559Y-3.8465
X10.7638Y-3.9685
X10.811Y-2.2343
X10.8169Y-3.1791
X10.8169Y-3.248
X10.8169Y-3.5138
X10.8169Y-3.5827
X10.8169Y-3.6516
X10.8169Y-3.7205
X10.8169Y-3.7894
X10.8858Y-3.1791
X10.9449Y-4.7244
X10.9488Y-1.811
X10.9488Y-1.9094
X10.9606Y-3.2618
X10.9685Y-4.2362
X10.9941Y-1.7618
X10.9941Y-1.8602
X11.0157Y-3.3268
X11.0236Y-4.4055
X11.0433Y-2.1457
X11.0512Y-3.3661
X11.0551Y-3.7047
X11.0827Y-4.8622
X11.0827Y-5.0591
X11.0962Y-3.2104
X11.1201Y-3.3685
X11.126Y-3.4094
X11.128Y-3.2598
X11.1299Y-3.7087
X11.1417Y-3.4921
X11.1732Y-4.7835
X11.1772Y-4.2874
X11.1772Y-4.5827
X11.1772Y-4.685
X11.1811Y-2.8642
X11.1811Y-4.0276
X11.1811Y-4.0945
X11.189Y-3.2205
X11.2047Y-3.7244
X11.2106Y-2.2539
X11.2106Y-2.4016
X11.2472Y-3.2165
X11.2598Y-2.7165
X11.2598Y-2.8642
X11.2618Y-2.9508
X11.2638Y-3.0059
X11.2638Y-3.7126
X11.2795Y-2.2539
X11.2795Y-2.4016
X11.3543Y-3.7805
X11.365Y-3.2068
X11.3937Y-3.2441
X11.3976Y-3.2874
X11.4213Y-3.4409
X11.4291Y-3.7126
X11.4331Y-3.3189
X11.4528Y-3.4094
X11.4596Y-2.7008
X11.4724Y-3.4488
X11.4764Y-3.3189
X11.4843Y-2.3927
X11.4843Y-2.4341
X11.4921Y-3.5925
X11.501Y-2.7008
X11.5079Y-3.6417
X11.5492Y-3.311
X11.5591Y-3.185
X11.5945Y-4.1929
X11.5945Y-4.6457
X11.815Y-3.2421
X11.8307Y-4.1929
X11.8307Y-4.4094
X11.8307Y-4.6457
X11.9449Y-3.6969
X12.0669Y-4.1929
X12.0669Y-4.6457
X12.124Y-3.7362
X12.2835Y-2.5394
X12.2835Y-2.6772
X12.2835Y-2.815
X12.3228Y-3.7067
X12.3622Y-3.9567
X12.3622Y-4.8819
T5
X1.9882Y-2.815
X1.9882Y-2.9134
X1.9882Y-2.9921
X1.9882Y-3.0906
X2.0472Y-2.7953
X2.0472Y-2.874
X2.0472Y-2.9528
X2.0472Y-3.0315
X2.0472Y-3.1102
X1.9882Y-3.7008
X1.9882Y-3.7992
X1.9882Y-3.878
X1.9882Y-3.9764
X2.0472Y-3.6811
X2.0472Y-3.7598
X2.0472Y-3.8386
X2.0472Y-3.9173
X2.0472Y-3.9961
X1.9882Y-4.5866
X1.9882Y-4.685
X1.9882Y-4.7638
X1.9882Y-4.8622
X2.0472Y-4.5669
X2.0472Y-4.6457
X2.0472Y-4.7244
X2.0472Y-4.8031
X2.0472Y-4.8819
T6
X2.4724Y-5.1575
X2.5512Y-5.1575
X2.6299Y-5.1575
X2.7087Y-5.1575
X11.5118Y-1.7205
X11.5906Y-1.7205
X11.6693Y-1.7205
X11.748Y-1.7205
X9.2402Y-2.8622
X9.3189Y-2.8622
X9.3976Y-2.8622
X9.4764Y-2.8622
X2.9488Y-5.1575
X3.0276Y-5.1575
X3.1063Y-5.1575
X3.185Y-5.1575
T7
X11.5443Y-3.7687
X11.623Y-3.7687
X11.7018Y-3.7687
X2.5394Y-1.6535
X2.5394Y-1.7323
X2.6181Y-1.6535
X2.6181Y-1.7323
X2.6969Y-1.6535
X2.6969Y-1.7323
X2.7756Y-1.6535
X2.7756Y-1.7323
X2.8543Y-1.6535
X2.8543Y-1.7323
X2.9331Y-1.6535
X2.9331Y-1.7323
X3.0118Y-1.6535
X3.0118Y-1.7323
X3.0906Y-1.6535
X3.0906Y-1.7323
X3.1693Y-1.6535
X3.1693Y-1.7323
X3.248Y-1.6535
X3.248Y-1.7323
X3.3268Y-1.6535
X3.3268Y-1.7323
X3.4055Y-1.6535
X3.4055Y-1.7323
X3.4843Y-1.6535
X3.4843Y-1.7323
X3.563Y-1.6535
X3.563Y-1.7323
X3.6417Y-1.6535
X3.6417Y-1.7323
T8
X5.9469Y-5.0566
X6.1437Y-5.0566
T9
X11.5693Y-2.4372
X11.5693Y-2.5171
X11.5693Y-2.597
X11.5693Y-2.7573
X11.5693Y-2.8372
X11.5693Y-2.9171
X11.6693Y-2.4774
X11.6693Y-2.5573
X11.6693Y-2.6372
X11.6693Y-2.7171
X11.6693Y-2.797
X11.6693Y-2.877
T11
X8.8701Y-3.1382
X8.8701Y-3.2382
X8.9701Y-3.1382
X8.9701Y-3.2382
X9.0701Y-3.1382
X9.0701Y-3.2382
X9.1701Y-3.1382
X9.1701Y-3.2382
X9.2701Y-3.1382
X9.2701Y-3.2382
X9.3701Y-3.1382
X9.3701Y-3.2382
X9.4701Y-3.1382
X9.4701Y-3.2382
X9.5701Y-3.1382
X9.5701Y-3.2382
X7.3543Y-4.9803
X7.3543Y-5.0803
X7.3543Y-5.1803
X8.6075Y-1.9508
X8.6075Y-2.0508
X8.7075Y-1.9508
X8.7075Y-2.0508
X8.8075Y-1.9508
X8.8075Y-2.0508
X8.9075Y-1.9508
X8.9075Y-2.0508
X7.5197Y-4.9803
X7.5197Y-5.0803
X7.5197Y-5.1803
T12
X3.8992Y-3.8346
T13
X12.0791Y-2.9732
X12.1791Y-2.3811
X12.1791Y-2.9732
X12.2791Y-2.3811
X12.2791Y-2.9732
T14
X11.9291Y-2.3311
X11.9291Y-3.0232
T15
X4.852Y-3.8346
T16
X12.32Y-1.7299
X1.6551Y-1.7299
X12.32Y-5.137
X1.6551Y-5.137
T17
X6.6732Y-4.6063
X8.0807Y-4.2126
X8.0807Y-1.8504
X7.5787Y-4.6063
T18
X5.6063Y-4.2028
X5.6063Y-3.4941
X5.6063Y-4.9902
T4
G00X1.6988Y-2.7008
M15
G01X1.6673Y-2.7008
M16
G05
G00X1.6988Y-3.2047
M15
G01X1.6673Y-3.2047
M16
G05
G00X2.0394Y-2.7008
M15
G01X1.9961Y-2.7008
M16
G05
G00X2.0394Y-3.2047
M15
G01X1.9961Y-3.2047
M16
G05
G00X1.6988Y-3.5866
M15
G01X1.6673Y-3.5866
M16
G05
G00X1.6988Y-4.0906
M15
G01X1.6673Y-4.0906
M16
G05
G00X2.0394Y-3.5866
M15
G01X1.9961Y-3.5866
M16
G05
G00X2.0394Y-4.0906
M15
G01X1.9961Y-4.0906
M16
G05
G00X1.6988Y-4.4724
M15
G01X1.6673Y-4.4724
M16
G05
G00X1.6988Y-4.9764
M15
G01X1.6673Y-4.9764
M16
G05
G00X2.0394Y-4.4724
M15
G01X1.9961Y-4.4724
M16
G05
G00X2.0394Y-4.9764
M15
G01X1.9961Y-4.9764
M16
G05
G00X5.9075Y-5.1767
M15
G01X5.9075Y-5.1491
M16
G05
G00X6.1831Y-5.1491
M15
G01X6.1831Y-5.1767
M16
G05
T6
G00X12.0719Y-1.8386
M15
G01X11.9833Y-1.8386
M16
G05
G00X12.1555Y-2.0719
M15
G01X12.1555Y-1.9833
M16
G05
T10
G00X1.6575Y-1.9075
M15
G01X1.7047Y-1.9075
M16
G05
G00X1.6575Y-2.4783
M15
G01X1.7047Y-2.4783
M16
G05
G00X1.8819Y-2.4783
M15
G01X1.9528Y-2.4783
M16
G05
T11
G00X1.8839Y-1.9075
M15
G01X1.9508Y-1.9075
M16
G05
G00X11.9094Y-2.0669
M15
G01X11.9094Y-1.9882
M16
G05
T0
M30
