%TF.GenerationSoftware,KiCad,Pcbnew,5.1.2+dfsg1-1*%
%TF.CreationDate,2020-02-17T14:18:57+01:00*%
%TF.ProjectId,reform2-motherboard,7265666f-726d-4322-9d6d-6f7468657262,2.0*%
%TF.SameCoordinates,Original*%
%TF.FileFunction,Soldermask,Bot*%
%TF.FilePolarity,Negative*%
%FSLAX46Y46*%
G04 Gerber Fmt 4.6, Leading zero omitted, Abs format (unit mm)*
G04 Created by KiCad (PCBNEW 5.1.2+dfsg1-1) date 2020-02-17 14:18:57*
%MOMM*%
%LPD*%
G04 APERTURE LIST*
%ADD10C,0.050000*%
%ADD11C,0.100000*%
G04 APERTURE END LIST*
D10*
X315500000Y-133000000D02*
X315000000Y-133500000D01*
X315500000Y-41000000D02*
X315500000Y-133000000D01*
X40000000Y-133500000D02*
X39500000Y-133000000D01*
X40500000Y-40000000D02*
X39500000Y-41000000D01*
X314500000Y-40000000D02*
X315500000Y-41000000D01*
X315000000Y-133500000D02*
X40000000Y-133500000D01*
X39500000Y-133000000D02*
X39500000Y-41000000D01*
X40500000Y-40000000D02*
X314500000Y-40000000D01*
D11*
G36*
X191110443Y-130685519D02*
G01*
X191176627Y-130692037D01*
X191346466Y-130743557D01*
X191502991Y-130827222D01*
X191538729Y-130856552D01*
X191640186Y-130939814D01*
X191723448Y-131041271D01*
X191752778Y-131077009D01*
X191836443Y-131233534D01*
X191887963Y-131403373D01*
X191905359Y-131580000D01*
X191887963Y-131756627D01*
X191836443Y-131926466D01*
X191752778Y-132082991D01*
X191745504Y-132091854D01*
X191640186Y-132220186D01*
X191538729Y-132303448D01*
X191502991Y-132332778D01*
X191346466Y-132416443D01*
X191176627Y-132467963D01*
X191110443Y-132474481D01*
X191044260Y-132481000D01*
X190955740Y-132481000D01*
X190889557Y-132474481D01*
X190823373Y-132467963D01*
X190653534Y-132416443D01*
X190497009Y-132332778D01*
X190461271Y-132303448D01*
X190359814Y-132220186D01*
X190254496Y-132091854D01*
X190247222Y-132082991D01*
X190163557Y-131926466D01*
X190112037Y-131756627D01*
X190094641Y-131580000D01*
X190112037Y-131403373D01*
X190163557Y-131233534D01*
X190247222Y-131077009D01*
X190276552Y-131041271D01*
X190359814Y-130939814D01*
X190461271Y-130856552D01*
X190497009Y-130827222D01*
X190653534Y-130743557D01*
X190823373Y-130692037D01*
X190889557Y-130685519D01*
X190955740Y-130679000D01*
X191044260Y-130679000D01*
X191110443Y-130685519D01*
X191110443Y-130685519D01*
G37*
G36*
X186910443Y-130685519D02*
G01*
X186976627Y-130692037D01*
X187146466Y-130743557D01*
X187302991Y-130827222D01*
X187338729Y-130856552D01*
X187440186Y-130939814D01*
X187523448Y-131041271D01*
X187552778Y-131077009D01*
X187636443Y-131233534D01*
X187687963Y-131403373D01*
X187705359Y-131580000D01*
X187687963Y-131756627D01*
X187636443Y-131926466D01*
X187552778Y-132082991D01*
X187545504Y-132091854D01*
X187440186Y-132220186D01*
X187338729Y-132303448D01*
X187302991Y-132332778D01*
X187146466Y-132416443D01*
X186976627Y-132467963D01*
X186910443Y-132474481D01*
X186844260Y-132481000D01*
X186755740Y-132481000D01*
X186689557Y-132474481D01*
X186623373Y-132467963D01*
X186453534Y-132416443D01*
X186297009Y-132332778D01*
X186261271Y-132303448D01*
X186159814Y-132220186D01*
X186054496Y-132091854D01*
X186047222Y-132082991D01*
X185963557Y-131926466D01*
X185912037Y-131756627D01*
X185894641Y-131580000D01*
X185912037Y-131403373D01*
X185963557Y-131233534D01*
X186047222Y-131077009D01*
X186076552Y-131041271D01*
X186159814Y-130939814D01*
X186261271Y-130856552D01*
X186297009Y-130827222D01*
X186453534Y-130743557D01*
X186623373Y-130692037D01*
X186689557Y-130685519D01*
X186755740Y-130679000D01*
X186844260Y-130679000D01*
X186910443Y-130685519D01*
X186910443Y-130685519D01*
G37*
G36*
X313497085Y-128603975D02*
G01*
X313713294Y-128693532D01*
X313852145Y-128751046D01*
X314171690Y-128964559D01*
X314443441Y-129236310D01*
X314656954Y-129555855D01*
X314656955Y-129555857D01*
X314804025Y-129910915D01*
X314879000Y-130287842D01*
X314879000Y-130672158D01*
X314804025Y-131049085D01*
X314657587Y-131402617D01*
X314656954Y-131404145D01*
X314443441Y-131723690D01*
X314171690Y-131995441D01*
X313852145Y-132208954D01*
X313852144Y-132208955D01*
X313852143Y-132208955D01*
X313497085Y-132356025D01*
X313120158Y-132431000D01*
X312735842Y-132431000D01*
X312358915Y-132356025D01*
X312003857Y-132208955D01*
X312003856Y-132208955D01*
X312003855Y-132208954D01*
X311684310Y-131995441D01*
X311412559Y-131723690D01*
X311199046Y-131404145D01*
X311198413Y-131402617D01*
X311051975Y-131049085D01*
X310977000Y-130672158D01*
X310977000Y-130287842D01*
X311051975Y-129910915D01*
X311199045Y-129555857D01*
X311199046Y-129555855D01*
X311412559Y-129236310D01*
X311684310Y-128964559D01*
X312003855Y-128751046D01*
X312142706Y-128693532D01*
X312358915Y-128603975D01*
X312735842Y-128529000D01*
X313120158Y-128529000D01*
X313497085Y-128603975D01*
X313497085Y-128603975D01*
G37*
G36*
X42609085Y-128603975D02*
G01*
X42825294Y-128693532D01*
X42964145Y-128751046D01*
X43283690Y-128964559D01*
X43555441Y-129236310D01*
X43768954Y-129555855D01*
X43768955Y-129555857D01*
X43916025Y-129910915D01*
X43991000Y-130287842D01*
X43991000Y-130672158D01*
X43916025Y-131049085D01*
X43769587Y-131402617D01*
X43768954Y-131404145D01*
X43555441Y-131723690D01*
X43283690Y-131995441D01*
X42964145Y-132208954D01*
X42964144Y-132208955D01*
X42964143Y-132208955D01*
X42609085Y-132356025D01*
X42232158Y-132431000D01*
X41847842Y-132431000D01*
X41470915Y-132356025D01*
X41115857Y-132208955D01*
X41115856Y-132208955D01*
X41115855Y-132208954D01*
X40796310Y-131995441D01*
X40524559Y-131723690D01*
X40311046Y-131404145D01*
X40310413Y-131402617D01*
X40163975Y-131049085D01*
X40089000Y-130672158D01*
X40089000Y-130287842D01*
X40163975Y-129910915D01*
X40311045Y-129555857D01*
X40311046Y-129555855D01*
X40524559Y-129236310D01*
X40796310Y-128964559D01*
X41115855Y-128751046D01*
X41254706Y-128693532D01*
X41470915Y-128603975D01*
X41847842Y-128529000D01*
X42232158Y-128529000D01*
X42609085Y-128603975D01*
X42609085Y-128603975D01*
G37*
G36*
X150177618Y-130145920D02*
G01*
X150232225Y-130162485D01*
X150300336Y-130183146D01*
X150413425Y-130243594D01*
X150512554Y-130324946D01*
X150593906Y-130424075D01*
X150654354Y-130537164D01*
X150664040Y-130569096D01*
X150691580Y-130659882D01*
X150701000Y-130755527D01*
X150701000Y-131519473D01*
X150691580Y-131615118D01*
X150679557Y-131654751D01*
X150654354Y-131737836D01*
X150593906Y-131850925D01*
X150512554Y-131950053D01*
X150413424Y-132031406D01*
X150300335Y-132091854D01*
X150268403Y-132101540D01*
X150177617Y-132129080D01*
X150050000Y-132141649D01*
X149922382Y-132129080D01*
X149831596Y-132101540D01*
X149799664Y-132091854D01*
X149686575Y-132031406D01*
X149587447Y-131950054D01*
X149506094Y-131850924D01*
X149445646Y-131737835D01*
X149415491Y-131638426D01*
X149408420Y-131615117D01*
X149402140Y-131551354D01*
X149399000Y-131519473D01*
X149399000Y-130755526D01*
X149408420Y-130659886D01*
X149408420Y-130659882D01*
X149445645Y-130537168D01*
X149479055Y-130474664D01*
X149506095Y-130424075D01*
X149587447Y-130324946D01*
X149686576Y-130243594D01*
X149799665Y-130183146D01*
X149867776Y-130162485D01*
X149922383Y-130145920D01*
X150050000Y-130133351D01*
X150177618Y-130145920D01*
X150177618Y-130145920D01*
G37*
G36*
X157177617Y-130145920D02*
G01*
X157232224Y-130162485D01*
X157300335Y-130183146D01*
X157413424Y-130243594D01*
X157512554Y-130324947D01*
X157593906Y-130424075D01*
X157654354Y-130537164D01*
X157664040Y-130569096D01*
X157691580Y-130659882D01*
X157701000Y-130755527D01*
X157701000Y-131519473D01*
X157691580Y-131615118D01*
X157679557Y-131654751D01*
X157654354Y-131737836D01*
X157593906Y-131850925D01*
X157512554Y-131950054D01*
X157413425Y-132031406D01*
X157300336Y-132091854D01*
X157268404Y-132101540D01*
X157177618Y-132129080D01*
X157050000Y-132141649D01*
X156922383Y-132129080D01*
X156831597Y-132101540D01*
X156799665Y-132091854D01*
X156686576Y-132031406D01*
X156587447Y-131950054D01*
X156506095Y-131850925D01*
X156445648Y-131737837D01*
X156445645Y-131737832D01*
X156408420Y-131615118D01*
X156399000Y-131519473D01*
X156399000Y-130755528D01*
X156408420Y-130659883D01*
X156445645Y-130537169D01*
X156445646Y-130537165D01*
X156506094Y-130424076D01*
X156587447Y-130324946D01*
X156686575Y-130243594D01*
X156799664Y-130183146D01*
X156867775Y-130162485D01*
X156922382Y-130145920D01*
X157050000Y-130133351D01*
X157177617Y-130145920D01*
X157177617Y-130145920D01*
G37*
G36*
X79027618Y-130083420D02*
G01*
X79108400Y-130107925D01*
X79150336Y-130120646D01*
X79263425Y-130181094D01*
X79362554Y-130262446D01*
X79443906Y-130361575D01*
X79504354Y-130474664D01*
X79504355Y-130474668D01*
X79541580Y-130597382D01*
X79541580Y-130597384D01*
X79550903Y-130692037D01*
X79551000Y-130693027D01*
X79551000Y-131306973D01*
X79541580Y-131402618D01*
X79514040Y-131493404D01*
X79504354Y-131525336D01*
X79443906Y-131638425D01*
X79362554Y-131737553D01*
X79263424Y-131818906D01*
X79150335Y-131879354D01*
X79118403Y-131889040D01*
X79027617Y-131916580D01*
X78900000Y-131929149D01*
X78772382Y-131916580D01*
X78681596Y-131889040D01*
X78649664Y-131879354D01*
X78536575Y-131818906D01*
X78437447Y-131737554D01*
X78356094Y-131638424D01*
X78295646Y-131525335D01*
X78258884Y-131404145D01*
X78258420Y-131402617D01*
X78249000Y-131306972D01*
X78249000Y-130693027D01*
X78249098Y-130692037D01*
X78258420Y-130597384D01*
X78258420Y-130597382D01*
X78295645Y-130474668D01*
X78295645Y-130474667D01*
X78327957Y-130414217D01*
X78356095Y-130361574D01*
X78369493Y-130345249D01*
X78437447Y-130262446D01*
X78536576Y-130181094D01*
X78649665Y-130120646D01*
X78691601Y-130107925D01*
X78772383Y-130083420D01*
X78900000Y-130070851D01*
X79027618Y-130083420D01*
X79027618Y-130083420D01*
G37*
G36*
X66927618Y-130083420D02*
G01*
X67008400Y-130107925D01*
X67050336Y-130120646D01*
X67163425Y-130181094D01*
X67262554Y-130262446D01*
X67343906Y-130361575D01*
X67404354Y-130474664D01*
X67404355Y-130474668D01*
X67441580Y-130597382D01*
X67441580Y-130597384D01*
X67450903Y-130692037D01*
X67451000Y-130693027D01*
X67451000Y-131306973D01*
X67441580Y-131402618D01*
X67414040Y-131493404D01*
X67404354Y-131525336D01*
X67343906Y-131638425D01*
X67262554Y-131737553D01*
X67163424Y-131818906D01*
X67050335Y-131879354D01*
X67018403Y-131889040D01*
X66927617Y-131916580D01*
X66800000Y-131929149D01*
X66672382Y-131916580D01*
X66581596Y-131889040D01*
X66549664Y-131879354D01*
X66436575Y-131818906D01*
X66337447Y-131737554D01*
X66256094Y-131638424D01*
X66195646Y-131525335D01*
X66158884Y-131404145D01*
X66158420Y-131402617D01*
X66149000Y-131306972D01*
X66149000Y-130693027D01*
X66149098Y-130692037D01*
X66158420Y-130597384D01*
X66158420Y-130597382D01*
X66195645Y-130474668D01*
X66195645Y-130474667D01*
X66227957Y-130414217D01*
X66256095Y-130361574D01*
X66269493Y-130345249D01*
X66337447Y-130262446D01*
X66436576Y-130181094D01*
X66549665Y-130120646D01*
X66591601Y-130107925D01*
X66672383Y-130083420D01*
X66800000Y-130070851D01*
X66927618Y-130083420D01*
X66927618Y-130083420D01*
G37*
G36*
X64927618Y-130083420D02*
G01*
X65008400Y-130107925D01*
X65050336Y-130120646D01*
X65163425Y-130181094D01*
X65262554Y-130262446D01*
X65343906Y-130361575D01*
X65404354Y-130474664D01*
X65404355Y-130474668D01*
X65441580Y-130597382D01*
X65441580Y-130597384D01*
X65450903Y-130692037D01*
X65451000Y-130693027D01*
X65451000Y-131306973D01*
X65441580Y-131402618D01*
X65414040Y-131493404D01*
X65404354Y-131525336D01*
X65343906Y-131638425D01*
X65262554Y-131737553D01*
X65163424Y-131818906D01*
X65050335Y-131879354D01*
X65018403Y-131889040D01*
X64927617Y-131916580D01*
X64800000Y-131929149D01*
X64672382Y-131916580D01*
X64581596Y-131889040D01*
X64549664Y-131879354D01*
X64436575Y-131818906D01*
X64337447Y-131737554D01*
X64256094Y-131638424D01*
X64195646Y-131525335D01*
X64158884Y-131404145D01*
X64158420Y-131402617D01*
X64149000Y-131306972D01*
X64149000Y-130693027D01*
X64149098Y-130692037D01*
X64158420Y-130597384D01*
X64158420Y-130597382D01*
X64195645Y-130474668D01*
X64195645Y-130474667D01*
X64227957Y-130414217D01*
X64256095Y-130361574D01*
X64269493Y-130345249D01*
X64337447Y-130262446D01*
X64436576Y-130181094D01*
X64549665Y-130120646D01*
X64591601Y-130107925D01*
X64672383Y-130083420D01*
X64800000Y-130070851D01*
X64927618Y-130083420D01*
X64927618Y-130083420D01*
G37*
G36*
X62927618Y-130083420D02*
G01*
X63008400Y-130107925D01*
X63050336Y-130120646D01*
X63163425Y-130181094D01*
X63262554Y-130262446D01*
X63343906Y-130361575D01*
X63404354Y-130474664D01*
X63404355Y-130474668D01*
X63441580Y-130597382D01*
X63441580Y-130597384D01*
X63450903Y-130692037D01*
X63451000Y-130693027D01*
X63451000Y-131306973D01*
X63441580Y-131402618D01*
X63414040Y-131493404D01*
X63404354Y-131525336D01*
X63343906Y-131638425D01*
X63262554Y-131737553D01*
X63163424Y-131818906D01*
X63050335Y-131879354D01*
X63018403Y-131889040D01*
X62927617Y-131916580D01*
X62800000Y-131929149D01*
X62672382Y-131916580D01*
X62581596Y-131889040D01*
X62549664Y-131879354D01*
X62436575Y-131818906D01*
X62337447Y-131737554D01*
X62256094Y-131638424D01*
X62195646Y-131525335D01*
X62158884Y-131404145D01*
X62158420Y-131402617D01*
X62149000Y-131306972D01*
X62149000Y-130693027D01*
X62149098Y-130692037D01*
X62158420Y-130597384D01*
X62158420Y-130597382D01*
X62195645Y-130474668D01*
X62195645Y-130474667D01*
X62227957Y-130414217D01*
X62256095Y-130361574D01*
X62269493Y-130345249D01*
X62337447Y-130262446D01*
X62436576Y-130181094D01*
X62549665Y-130120646D01*
X62591601Y-130107925D01*
X62672383Y-130083420D01*
X62800000Y-130070851D01*
X62927618Y-130083420D01*
X62927618Y-130083420D01*
G37*
G36*
X77027618Y-130083420D02*
G01*
X77108400Y-130107925D01*
X77150336Y-130120646D01*
X77263425Y-130181094D01*
X77362554Y-130262446D01*
X77443906Y-130361575D01*
X77504354Y-130474664D01*
X77504355Y-130474668D01*
X77541580Y-130597382D01*
X77541580Y-130597384D01*
X77550903Y-130692037D01*
X77551000Y-130693027D01*
X77551000Y-131306973D01*
X77541580Y-131402618D01*
X77514040Y-131493404D01*
X77504354Y-131525336D01*
X77443906Y-131638425D01*
X77362554Y-131737553D01*
X77263424Y-131818906D01*
X77150335Y-131879354D01*
X77118403Y-131889040D01*
X77027617Y-131916580D01*
X76900000Y-131929149D01*
X76772382Y-131916580D01*
X76681596Y-131889040D01*
X76649664Y-131879354D01*
X76536575Y-131818906D01*
X76437447Y-131737554D01*
X76356094Y-131638424D01*
X76295646Y-131525335D01*
X76258884Y-131404145D01*
X76258420Y-131402617D01*
X76249000Y-131306972D01*
X76249000Y-130693027D01*
X76249098Y-130692037D01*
X76258420Y-130597384D01*
X76258420Y-130597382D01*
X76295645Y-130474668D01*
X76295645Y-130474667D01*
X76327957Y-130414217D01*
X76356095Y-130361574D01*
X76369493Y-130345249D01*
X76437447Y-130262446D01*
X76536576Y-130181094D01*
X76649665Y-130120646D01*
X76691601Y-130107925D01*
X76772383Y-130083420D01*
X76900000Y-130070851D01*
X77027618Y-130083420D01*
X77027618Y-130083420D01*
G37*
G36*
X75027618Y-130083420D02*
G01*
X75108400Y-130107925D01*
X75150336Y-130120646D01*
X75263425Y-130181094D01*
X75362554Y-130262446D01*
X75443906Y-130361575D01*
X75504354Y-130474664D01*
X75504355Y-130474668D01*
X75541580Y-130597382D01*
X75541580Y-130597384D01*
X75550903Y-130692037D01*
X75551000Y-130693027D01*
X75551000Y-131306973D01*
X75541580Y-131402618D01*
X75514040Y-131493404D01*
X75504354Y-131525336D01*
X75443906Y-131638425D01*
X75362554Y-131737553D01*
X75263424Y-131818906D01*
X75150335Y-131879354D01*
X75118403Y-131889040D01*
X75027617Y-131916580D01*
X74900000Y-131929149D01*
X74772382Y-131916580D01*
X74681596Y-131889040D01*
X74649664Y-131879354D01*
X74536575Y-131818906D01*
X74437447Y-131737554D01*
X74356094Y-131638424D01*
X74295646Y-131525335D01*
X74258884Y-131404145D01*
X74258420Y-131402617D01*
X74249000Y-131306972D01*
X74249000Y-130693027D01*
X74249098Y-130692037D01*
X74258420Y-130597384D01*
X74258420Y-130597382D01*
X74295645Y-130474668D01*
X74295645Y-130474667D01*
X74327957Y-130414217D01*
X74356095Y-130361574D01*
X74369493Y-130345249D01*
X74437447Y-130262446D01*
X74536576Y-130181094D01*
X74649665Y-130120646D01*
X74691601Y-130107925D01*
X74772383Y-130083420D01*
X74900000Y-130070851D01*
X75027618Y-130083420D01*
X75027618Y-130083420D01*
G37*
G36*
X81391242Y-130078404D02*
G01*
X81428337Y-130089657D01*
X81462515Y-130107925D01*
X81492481Y-130132519D01*
X81517075Y-130162485D01*
X81535343Y-130196663D01*
X81546596Y-130233758D01*
X81551000Y-130278474D01*
X81551000Y-131721526D01*
X81546596Y-131766242D01*
X81535343Y-131803337D01*
X81517075Y-131837515D01*
X81492481Y-131867481D01*
X81462515Y-131892075D01*
X81428337Y-131910343D01*
X81391242Y-131921596D01*
X81346526Y-131926000D01*
X80453474Y-131926000D01*
X80408758Y-131921596D01*
X80371663Y-131910343D01*
X80337485Y-131892075D01*
X80307519Y-131867481D01*
X80282925Y-131837515D01*
X80264657Y-131803337D01*
X80253404Y-131766242D01*
X80249000Y-131721526D01*
X80249000Y-130278474D01*
X80253404Y-130233758D01*
X80264657Y-130196663D01*
X80282925Y-130162485D01*
X80307519Y-130132519D01*
X80337485Y-130107925D01*
X80371663Y-130089657D01*
X80408758Y-130078404D01*
X80453474Y-130074000D01*
X81346526Y-130074000D01*
X81391242Y-130078404D01*
X81391242Y-130078404D01*
G37*
G36*
X69291242Y-130078404D02*
G01*
X69328337Y-130089657D01*
X69362515Y-130107925D01*
X69392481Y-130132519D01*
X69417075Y-130162485D01*
X69435343Y-130196663D01*
X69446596Y-130233758D01*
X69451000Y-130278474D01*
X69451000Y-131721526D01*
X69446596Y-131766242D01*
X69435343Y-131803337D01*
X69417075Y-131837515D01*
X69392481Y-131867481D01*
X69362515Y-131892075D01*
X69328337Y-131910343D01*
X69291242Y-131921596D01*
X69246526Y-131926000D01*
X68353474Y-131926000D01*
X68308758Y-131921596D01*
X68271663Y-131910343D01*
X68237485Y-131892075D01*
X68207519Y-131867481D01*
X68182925Y-131837515D01*
X68164657Y-131803337D01*
X68153404Y-131766242D01*
X68149000Y-131721526D01*
X68149000Y-130278474D01*
X68153404Y-130233758D01*
X68164657Y-130196663D01*
X68182925Y-130162485D01*
X68207519Y-130132519D01*
X68237485Y-130107925D01*
X68271663Y-130089657D01*
X68308758Y-130078404D01*
X68353474Y-130074000D01*
X69246526Y-130074000D01*
X69291242Y-130078404D01*
X69291242Y-130078404D01*
G37*
G36*
X186910442Y-128145518D02*
G01*
X186976627Y-128152037D01*
X187146466Y-128203557D01*
X187302991Y-128287222D01*
X187338729Y-128316552D01*
X187440186Y-128399814D01*
X187523448Y-128501271D01*
X187552778Y-128537009D01*
X187636443Y-128693534D01*
X187687963Y-128863373D01*
X187705359Y-129040000D01*
X187687963Y-129216627D01*
X187636443Y-129386466D01*
X187552778Y-129542991D01*
X187542219Y-129555857D01*
X187440186Y-129680186D01*
X187338729Y-129763448D01*
X187302991Y-129792778D01*
X187146466Y-129876443D01*
X186976627Y-129927963D01*
X186910442Y-129934482D01*
X186844260Y-129941000D01*
X186755740Y-129941000D01*
X186689558Y-129934482D01*
X186623373Y-129927963D01*
X186453534Y-129876443D01*
X186297009Y-129792778D01*
X186261271Y-129763448D01*
X186159814Y-129680186D01*
X186057781Y-129555857D01*
X186047222Y-129542991D01*
X185963557Y-129386466D01*
X185912037Y-129216627D01*
X185894641Y-129040000D01*
X185912037Y-128863373D01*
X185963557Y-128693534D01*
X186047222Y-128537009D01*
X186076552Y-128501271D01*
X186159814Y-128399814D01*
X186261271Y-128316552D01*
X186297009Y-128287222D01*
X186453534Y-128203557D01*
X186623373Y-128152037D01*
X186689558Y-128145518D01*
X186755740Y-128139000D01*
X186844260Y-128139000D01*
X186910442Y-128145518D01*
X186910442Y-128145518D01*
G37*
G36*
X191110442Y-128145518D02*
G01*
X191176627Y-128152037D01*
X191346466Y-128203557D01*
X191502991Y-128287222D01*
X191538729Y-128316552D01*
X191640186Y-128399814D01*
X191723448Y-128501271D01*
X191752778Y-128537009D01*
X191836443Y-128693534D01*
X191887963Y-128863373D01*
X191905359Y-129040000D01*
X191887963Y-129216627D01*
X191836443Y-129386466D01*
X191752778Y-129542991D01*
X191742219Y-129555857D01*
X191640186Y-129680186D01*
X191538729Y-129763448D01*
X191502991Y-129792778D01*
X191346466Y-129876443D01*
X191176627Y-129927963D01*
X191110442Y-129934482D01*
X191044260Y-129941000D01*
X190955740Y-129941000D01*
X190889558Y-129934482D01*
X190823373Y-129927963D01*
X190653534Y-129876443D01*
X190497009Y-129792778D01*
X190461271Y-129763448D01*
X190359814Y-129680186D01*
X190257781Y-129555857D01*
X190247222Y-129542991D01*
X190163557Y-129386466D01*
X190112037Y-129216627D01*
X190094641Y-129040000D01*
X190112037Y-128863373D01*
X190163557Y-128693534D01*
X190247222Y-128537009D01*
X190276552Y-128501271D01*
X190359814Y-128399814D01*
X190461271Y-128316552D01*
X190497009Y-128287222D01*
X190653534Y-128203557D01*
X190823373Y-128152037D01*
X190889558Y-128145518D01*
X190955740Y-128139000D01*
X191044260Y-128139000D01*
X191110442Y-128145518D01*
X191110442Y-128145518D01*
G37*
G36*
X142866213Y-123935881D02*
G01*
X143231606Y-124008562D01*
X143750455Y-124223476D01*
X144217407Y-124535484D01*
X144614516Y-124932593D01*
X144926524Y-125399545D01*
X145141438Y-125918394D01*
X145165483Y-126039279D01*
X145208248Y-126254269D01*
X145251000Y-126469201D01*
X145251000Y-127030799D01*
X145141438Y-127581606D01*
X144926524Y-128100455D01*
X144676579Y-128474524D01*
X144634828Y-128537009D01*
X144614516Y-128567407D01*
X144217407Y-128964516D01*
X143750455Y-129276524D01*
X143231606Y-129491438D01*
X142972441Y-129542989D01*
X142680800Y-129601000D01*
X142119200Y-129601000D01*
X141827559Y-129542989D01*
X141568394Y-129491438D01*
X141049545Y-129276524D01*
X140582593Y-128964516D01*
X140185484Y-128567407D01*
X140165173Y-128537009D01*
X140123421Y-128474524D01*
X139873476Y-128100455D01*
X139658562Y-127581606D01*
X139549000Y-127030799D01*
X139549000Y-126469201D01*
X139591753Y-126254269D01*
X139634517Y-126039279D01*
X139658562Y-125918394D01*
X139873476Y-125399545D01*
X140185484Y-124932593D01*
X140582593Y-124535484D01*
X141049545Y-124223476D01*
X141568394Y-124008562D01*
X141933787Y-123935881D01*
X142119200Y-123899000D01*
X142680800Y-123899000D01*
X142866213Y-123935881D01*
X142866213Y-123935881D01*
G37*
G36*
X156276348Y-127691320D02*
G01*
X156276350Y-127691321D01*
X156276351Y-127691321D01*
X156417574Y-127749817D01*
X156417577Y-127749819D01*
X156544669Y-127834739D01*
X156652761Y-127942831D01*
X156737681Y-128069923D01*
X156737683Y-128069926D01*
X156796179Y-128211149D01*
X156796180Y-128211152D01*
X156826000Y-128361069D01*
X156826000Y-128513931D01*
X156821410Y-128537009D01*
X156796179Y-128663851D01*
X156737683Y-128805074D01*
X156737681Y-128805077D01*
X156652761Y-128932169D01*
X156544669Y-129040261D01*
X156417577Y-129125181D01*
X156417574Y-129125183D01*
X156276351Y-129183679D01*
X156276350Y-129183679D01*
X156276348Y-129183680D01*
X156126431Y-129213500D01*
X155973569Y-129213500D01*
X155823652Y-129183680D01*
X155823650Y-129183679D01*
X155823649Y-129183679D01*
X155682426Y-129125183D01*
X155682423Y-129125181D01*
X155555331Y-129040261D01*
X155447239Y-128932169D01*
X155362319Y-128805077D01*
X155362317Y-128805074D01*
X155303821Y-128663851D01*
X155278591Y-128537009D01*
X155274000Y-128513931D01*
X155274000Y-128361069D01*
X155303820Y-128211152D01*
X155303821Y-128211149D01*
X155362317Y-128069926D01*
X155362319Y-128069923D01*
X155447239Y-127942831D01*
X155555331Y-127834739D01*
X155682423Y-127749819D01*
X155682426Y-127749817D01*
X155823649Y-127691321D01*
X155823650Y-127691321D01*
X155823652Y-127691320D01*
X155973569Y-127661500D01*
X156126431Y-127661500D01*
X156276348Y-127691320D01*
X156276348Y-127691320D01*
G37*
G36*
X151276348Y-127691320D02*
G01*
X151276350Y-127691321D01*
X151276351Y-127691321D01*
X151417574Y-127749817D01*
X151417577Y-127749819D01*
X151544669Y-127834739D01*
X151652761Y-127942831D01*
X151737681Y-128069923D01*
X151737683Y-128069926D01*
X151796179Y-128211149D01*
X151796180Y-128211152D01*
X151826000Y-128361069D01*
X151826000Y-128513931D01*
X151821410Y-128537009D01*
X151796179Y-128663851D01*
X151737683Y-128805074D01*
X151737681Y-128805077D01*
X151652761Y-128932169D01*
X151544669Y-129040261D01*
X151417577Y-129125181D01*
X151417574Y-129125183D01*
X151276351Y-129183679D01*
X151276350Y-129183679D01*
X151276348Y-129183680D01*
X151126431Y-129213500D01*
X150973569Y-129213500D01*
X150823652Y-129183680D01*
X150823650Y-129183679D01*
X150823649Y-129183679D01*
X150682426Y-129125183D01*
X150682423Y-129125181D01*
X150555331Y-129040261D01*
X150447239Y-128932169D01*
X150362319Y-128805077D01*
X150362317Y-128805074D01*
X150303821Y-128663851D01*
X150278591Y-128537009D01*
X150274000Y-128513931D01*
X150274000Y-128361069D01*
X150303820Y-128211152D01*
X150303821Y-128211149D01*
X150362317Y-128069926D01*
X150362319Y-128069923D01*
X150447239Y-127942831D01*
X150555331Y-127834739D01*
X150682423Y-127749819D01*
X150682426Y-127749817D01*
X150823649Y-127691321D01*
X150823650Y-127691321D01*
X150823652Y-127691320D01*
X150973569Y-127661500D01*
X151126431Y-127661500D01*
X151276348Y-127691320D01*
X151276348Y-127691320D01*
G37*
G36*
X191901000Y-127401000D02*
G01*
X190099000Y-127401000D01*
X190099000Y-125599000D01*
X191901000Y-125599000D01*
X191901000Y-127401000D01*
X191901000Y-127401000D01*
G37*
G36*
X187701000Y-127401000D02*
G01*
X185899000Y-127401000D01*
X185899000Y-125599000D01*
X187701000Y-125599000D01*
X187701000Y-127401000D01*
X187701000Y-127401000D01*
G37*
G36*
X43263855Y-125752140D02*
G01*
X43327618Y-125758420D01*
X43418404Y-125785960D01*
X43450336Y-125795646D01*
X43563425Y-125856094D01*
X43662554Y-125937446D01*
X43743906Y-126036575D01*
X43804354Y-126149664D01*
X43804355Y-126149668D01*
X43841580Y-126272382D01*
X43854149Y-126400000D01*
X43841580Y-126527618D01*
X43814040Y-126618404D01*
X43804354Y-126650336D01*
X43743906Y-126763425D01*
X43662554Y-126862554D01*
X43563425Y-126943906D01*
X43450336Y-127004354D01*
X43418404Y-127014040D01*
X43327618Y-127041580D01*
X43263855Y-127047860D01*
X43231974Y-127051000D01*
X42268026Y-127051000D01*
X42236145Y-127047860D01*
X42172382Y-127041580D01*
X42081596Y-127014040D01*
X42049664Y-127004354D01*
X41936575Y-126943906D01*
X41837446Y-126862554D01*
X41756094Y-126763425D01*
X41695646Y-126650336D01*
X41685960Y-126618404D01*
X41658420Y-126527618D01*
X41645851Y-126400000D01*
X41658420Y-126272382D01*
X41695645Y-126149668D01*
X41695646Y-126149664D01*
X41756094Y-126036575D01*
X41837446Y-125937446D01*
X41936575Y-125856094D01*
X42049664Y-125795646D01*
X42081596Y-125785960D01*
X42172382Y-125758420D01*
X42236145Y-125752140D01*
X42268026Y-125749000D01*
X43231974Y-125749000D01*
X43263855Y-125752140D01*
X43263855Y-125752140D01*
G37*
G36*
X51913855Y-125752140D02*
G01*
X51977618Y-125758420D01*
X52068404Y-125785960D01*
X52100336Y-125795646D01*
X52213425Y-125856094D01*
X52312554Y-125937446D01*
X52393906Y-126036575D01*
X52454354Y-126149664D01*
X52454355Y-126149668D01*
X52491580Y-126272382D01*
X52504149Y-126400000D01*
X52491580Y-126527618D01*
X52464040Y-126618404D01*
X52454354Y-126650336D01*
X52393906Y-126763425D01*
X52312554Y-126862554D01*
X52213425Y-126943906D01*
X52100336Y-127004354D01*
X52068404Y-127014040D01*
X51977618Y-127041580D01*
X51913855Y-127047860D01*
X51881974Y-127051000D01*
X50618026Y-127051000D01*
X50586145Y-127047860D01*
X50522382Y-127041580D01*
X50431596Y-127014040D01*
X50399664Y-127004354D01*
X50286575Y-126943906D01*
X50187446Y-126862554D01*
X50106094Y-126763425D01*
X50045646Y-126650336D01*
X50035960Y-126618404D01*
X50008420Y-126527618D01*
X49995851Y-126400000D01*
X50008420Y-126272382D01*
X50045645Y-126149668D01*
X50045646Y-126149664D01*
X50106094Y-126036575D01*
X50187446Y-125937446D01*
X50286575Y-125856094D01*
X50399664Y-125795646D01*
X50431596Y-125785960D01*
X50522382Y-125758420D01*
X50586145Y-125752140D01*
X50618026Y-125749000D01*
X51881974Y-125749000D01*
X51913855Y-125752140D01*
X51913855Y-125752140D01*
G37*
G36*
X312160721Y-125670174D02*
G01*
X312260995Y-125711709D01*
X312260996Y-125711710D01*
X312351242Y-125772010D01*
X312427990Y-125848758D01*
X312432892Y-125856095D01*
X312488291Y-125939005D01*
X312529826Y-126039279D01*
X312551000Y-126145730D01*
X312551000Y-126254270D01*
X312529826Y-126360721D01*
X312488291Y-126460995D01*
X312482808Y-126469201D01*
X312427990Y-126551242D01*
X312351242Y-126627990D01*
X312305812Y-126658345D01*
X312260995Y-126688291D01*
X312160721Y-126729826D01*
X312054270Y-126751000D01*
X311945730Y-126751000D01*
X311839279Y-126729826D01*
X311739005Y-126688291D01*
X311694188Y-126658345D01*
X311648758Y-126627990D01*
X311572010Y-126551242D01*
X311517192Y-126469201D01*
X311511709Y-126460995D01*
X311470174Y-126360721D01*
X311449000Y-126254270D01*
X311449000Y-126145730D01*
X311470174Y-126039279D01*
X311511709Y-125939005D01*
X311567108Y-125856095D01*
X311572010Y-125848758D01*
X311648758Y-125772010D01*
X311739004Y-125711710D01*
X311739005Y-125711709D01*
X311839279Y-125670174D01*
X311945730Y-125649000D01*
X312054270Y-125649000D01*
X312160721Y-125670174D01*
X312160721Y-125670174D01*
G37*
G36*
X52189890Y-123374017D02*
G01*
X52308364Y-123423091D01*
X52414988Y-123494335D01*
X52505665Y-123585012D01*
X52576909Y-123691636D01*
X52625983Y-123810110D01*
X52651000Y-123935882D01*
X52651000Y-124064118D01*
X52625983Y-124189890D01*
X52576909Y-124308364D01*
X52505665Y-124414988D01*
X52414988Y-124505665D01*
X52308364Y-124576909D01*
X52308363Y-124576910D01*
X52308362Y-124576910D01*
X52189890Y-124625983D01*
X52064119Y-124651000D01*
X51935881Y-124651000D01*
X51810110Y-124625983D01*
X51691638Y-124576910D01*
X51691637Y-124576910D01*
X51691636Y-124576909D01*
X51585012Y-124505665D01*
X51494335Y-124414988D01*
X51423091Y-124308364D01*
X51374017Y-124189890D01*
X51349000Y-124064118D01*
X51349000Y-123935882D01*
X51374017Y-123810110D01*
X51423091Y-123691636D01*
X51494335Y-123585012D01*
X51585012Y-123494335D01*
X51691636Y-123423091D01*
X51810110Y-123374017D01*
X51935881Y-123349000D01*
X52064119Y-123349000D01*
X52189890Y-123374017D01*
X52189890Y-123374017D01*
G37*
G36*
X50689890Y-122874017D02*
G01*
X50808364Y-122923091D01*
X50914988Y-122994335D01*
X51005665Y-123085012D01*
X51076909Y-123191636D01*
X51125983Y-123310110D01*
X51151000Y-123435882D01*
X51151000Y-123564118D01*
X51125983Y-123689890D01*
X51076909Y-123808364D01*
X51005665Y-123914988D01*
X50914988Y-124005665D01*
X50808364Y-124076909D01*
X50808363Y-124076910D01*
X50808362Y-124076910D01*
X50689890Y-124125983D01*
X50564119Y-124151000D01*
X50435881Y-124151000D01*
X50310110Y-124125983D01*
X50191638Y-124076910D01*
X50191637Y-124076910D01*
X50191636Y-124076909D01*
X50085012Y-124005665D01*
X49994335Y-123914988D01*
X49923091Y-123808364D01*
X49874017Y-123689890D01*
X49849000Y-123564118D01*
X49849000Y-123435882D01*
X49874017Y-123310110D01*
X49923091Y-123191636D01*
X49994335Y-123085012D01*
X50085012Y-122994335D01*
X50191636Y-122923091D01*
X50310110Y-122874017D01*
X50435881Y-122849000D01*
X50564119Y-122849000D01*
X50689890Y-122874017D01*
X50689890Y-122874017D01*
G37*
G36*
X52189890Y-121374017D02*
G01*
X52308364Y-121423091D01*
X52414988Y-121494335D01*
X52505665Y-121585012D01*
X52576909Y-121691636D01*
X52625983Y-121810110D01*
X52651000Y-121935882D01*
X52651000Y-122064118D01*
X52625983Y-122189890D01*
X52576909Y-122308364D01*
X52505665Y-122414988D01*
X52414988Y-122505665D01*
X52308364Y-122576909D01*
X52308363Y-122576910D01*
X52308362Y-122576910D01*
X52189890Y-122625983D01*
X52064119Y-122651000D01*
X51935881Y-122651000D01*
X51810110Y-122625983D01*
X51691638Y-122576910D01*
X51691637Y-122576910D01*
X51691636Y-122576909D01*
X51585012Y-122505665D01*
X51494335Y-122414988D01*
X51423091Y-122308364D01*
X51374017Y-122189890D01*
X51349000Y-122064118D01*
X51349000Y-121935882D01*
X51374017Y-121810110D01*
X51423091Y-121691636D01*
X51494335Y-121585012D01*
X51585012Y-121494335D01*
X51691636Y-121423091D01*
X51810110Y-121374017D01*
X51935881Y-121349000D01*
X52064119Y-121349000D01*
X52189890Y-121374017D01*
X52189890Y-121374017D01*
G37*
G36*
X50689890Y-120374017D02*
G01*
X50808364Y-120423091D01*
X50914988Y-120494335D01*
X51005665Y-120585012D01*
X51076909Y-120691636D01*
X51125983Y-120810110D01*
X51151000Y-120935882D01*
X51151000Y-121064118D01*
X51125983Y-121189890D01*
X51076909Y-121308364D01*
X51005665Y-121414988D01*
X50914988Y-121505665D01*
X50808364Y-121576909D01*
X50808363Y-121576910D01*
X50808362Y-121576910D01*
X50689890Y-121625983D01*
X50564119Y-121651000D01*
X50435881Y-121651000D01*
X50310110Y-121625983D01*
X50191638Y-121576910D01*
X50191637Y-121576910D01*
X50191636Y-121576909D01*
X50085012Y-121505665D01*
X49994335Y-121414988D01*
X49923091Y-121308364D01*
X49874017Y-121189890D01*
X49849000Y-121064118D01*
X49849000Y-120935882D01*
X49874017Y-120810110D01*
X49923091Y-120691636D01*
X49994335Y-120585012D01*
X50085012Y-120494335D01*
X50191636Y-120423091D01*
X50310110Y-120374017D01*
X50435881Y-120349000D01*
X50564119Y-120349000D01*
X50689890Y-120374017D01*
X50689890Y-120374017D01*
G37*
G36*
X52189890Y-119374017D02*
G01*
X52308364Y-119423091D01*
X52414988Y-119494335D01*
X52505665Y-119585012D01*
X52576909Y-119691636D01*
X52625983Y-119810110D01*
X52651000Y-119935882D01*
X52651000Y-120064118D01*
X52625983Y-120189890D01*
X52576909Y-120308364D01*
X52505665Y-120414988D01*
X52414988Y-120505665D01*
X52308364Y-120576909D01*
X52308363Y-120576910D01*
X52308362Y-120576910D01*
X52189890Y-120625983D01*
X52064119Y-120651000D01*
X51935881Y-120651000D01*
X51810110Y-120625983D01*
X51691638Y-120576910D01*
X51691637Y-120576910D01*
X51691636Y-120576909D01*
X51585012Y-120505665D01*
X51494335Y-120414988D01*
X51423091Y-120308364D01*
X51374017Y-120189890D01*
X51349000Y-120064118D01*
X51349000Y-119935882D01*
X51374017Y-119810110D01*
X51423091Y-119691636D01*
X51494335Y-119585012D01*
X51585012Y-119494335D01*
X51691636Y-119423091D01*
X51810110Y-119374017D01*
X51935881Y-119349000D01*
X52064119Y-119349000D01*
X52189890Y-119374017D01*
X52189890Y-119374017D01*
G37*
G36*
X50689890Y-118374017D02*
G01*
X50808364Y-118423091D01*
X50914988Y-118494335D01*
X51005665Y-118585012D01*
X51076909Y-118691636D01*
X51125983Y-118810110D01*
X51151000Y-118935882D01*
X51151000Y-119064118D01*
X51125983Y-119189890D01*
X51076909Y-119308364D01*
X51005665Y-119414988D01*
X50914988Y-119505665D01*
X50808364Y-119576909D01*
X50808363Y-119576910D01*
X50808362Y-119576910D01*
X50689890Y-119625983D01*
X50564119Y-119651000D01*
X50435881Y-119651000D01*
X50310110Y-119625983D01*
X50191638Y-119576910D01*
X50191637Y-119576910D01*
X50191636Y-119576909D01*
X50085012Y-119505665D01*
X49994335Y-119414988D01*
X49923091Y-119308364D01*
X49874017Y-119189890D01*
X49849000Y-119064118D01*
X49849000Y-118935882D01*
X49874017Y-118810110D01*
X49923091Y-118691636D01*
X49994335Y-118585012D01*
X50085012Y-118494335D01*
X50191636Y-118423091D01*
X50310110Y-118374017D01*
X50435881Y-118349000D01*
X50564119Y-118349000D01*
X50689890Y-118374017D01*
X50689890Y-118374017D01*
G37*
G36*
X193244098Y-114547033D02*
G01*
X193708350Y-114739332D01*
X193708352Y-114739333D01*
X194126168Y-115018509D01*
X194481491Y-115373832D01*
X194622597Y-115585012D01*
X194760668Y-115791650D01*
X194952967Y-116255902D01*
X195051000Y-116748747D01*
X195051000Y-117251253D01*
X194952967Y-117744098D01*
X194820410Y-118064119D01*
X194760667Y-118208352D01*
X194481491Y-118626168D01*
X194126168Y-118981491D01*
X193708352Y-119260667D01*
X193708351Y-119260668D01*
X193708350Y-119260668D01*
X193244098Y-119452967D01*
X192751253Y-119551000D01*
X192248747Y-119551000D01*
X191755902Y-119452967D01*
X191291650Y-119260668D01*
X191291649Y-119260668D01*
X191291648Y-119260667D01*
X190873832Y-118981491D01*
X190518509Y-118626168D01*
X190239333Y-118208352D01*
X190179590Y-118064119D01*
X190047033Y-117744098D01*
X189949000Y-117251253D01*
X189949000Y-116748747D01*
X190047033Y-116255902D01*
X190239332Y-115791650D01*
X190377403Y-115585012D01*
X190518509Y-115373832D01*
X190873832Y-115018509D01*
X191291648Y-114739333D01*
X191291650Y-114739332D01*
X191755902Y-114547033D01*
X192248747Y-114449000D01*
X192751253Y-114449000D01*
X193244098Y-114547033D01*
X193244098Y-114547033D01*
G37*
G36*
X170244098Y-114547033D02*
G01*
X170708350Y-114739332D01*
X170708352Y-114739333D01*
X171126168Y-115018509D01*
X171481491Y-115373832D01*
X171622597Y-115585012D01*
X171760668Y-115791650D01*
X171952967Y-116255902D01*
X172051000Y-116748747D01*
X172051000Y-117251253D01*
X171952967Y-117744098D01*
X171820410Y-118064119D01*
X171760667Y-118208352D01*
X171481491Y-118626168D01*
X171126168Y-118981491D01*
X170708352Y-119260667D01*
X170708351Y-119260668D01*
X170708350Y-119260668D01*
X170244098Y-119452967D01*
X169751253Y-119551000D01*
X169248747Y-119551000D01*
X168755902Y-119452967D01*
X168291650Y-119260668D01*
X168291649Y-119260668D01*
X168291648Y-119260667D01*
X167873832Y-118981491D01*
X167518509Y-118626168D01*
X167239333Y-118208352D01*
X167179590Y-118064119D01*
X167047033Y-117744098D01*
X166949000Y-117251253D01*
X166949000Y-116748747D01*
X167047033Y-116255902D01*
X167239332Y-115791650D01*
X167377403Y-115585012D01*
X167518509Y-115373832D01*
X167873832Y-115018509D01*
X168291648Y-114739333D01*
X168291650Y-114739332D01*
X168755902Y-114547033D01*
X169248747Y-114449000D01*
X169751253Y-114449000D01*
X170244098Y-114547033D01*
X170244098Y-114547033D01*
G37*
G36*
X52189890Y-117374017D02*
G01*
X52308364Y-117423091D01*
X52414988Y-117494335D01*
X52505665Y-117585012D01*
X52576909Y-117691636D01*
X52625983Y-117810110D01*
X52651000Y-117935882D01*
X52651000Y-118064118D01*
X52625983Y-118189890D01*
X52576909Y-118308364D01*
X52505665Y-118414988D01*
X52414988Y-118505665D01*
X52308364Y-118576909D01*
X52308363Y-118576910D01*
X52308362Y-118576910D01*
X52189890Y-118625983D01*
X52064119Y-118651000D01*
X51935881Y-118651000D01*
X51810110Y-118625983D01*
X51691638Y-118576910D01*
X51691637Y-118576910D01*
X51691636Y-118576909D01*
X51585012Y-118505665D01*
X51494335Y-118414988D01*
X51423091Y-118308364D01*
X51374017Y-118189890D01*
X51349000Y-118064118D01*
X51349000Y-117935882D01*
X51374017Y-117810110D01*
X51423091Y-117691636D01*
X51494335Y-117585012D01*
X51585012Y-117494335D01*
X51691636Y-117423091D01*
X51810110Y-117374017D01*
X51935881Y-117349000D01*
X52064119Y-117349000D01*
X52189890Y-117374017D01*
X52189890Y-117374017D01*
G37*
G36*
X50689890Y-115874017D02*
G01*
X50808364Y-115923091D01*
X50914988Y-115994335D01*
X51005665Y-116085012D01*
X51076909Y-116191636D01*
X51125983Y-116310110D01*
X51151000Y-116435882D01*
X51151000Y-116564118D01*
X51125983Y-116689890D01*
X51076909Y-116808364D01*
X51005665Y-116914988D01*
X50914988Y-117005665D01*
X50808364Y-117076909D01*
X50808363Y-117076910D01*
X50808362Y-117076910D01*
X50689890Y-117125983D01*
X50564119Y-117151000D01*
X50435881Y-117151000D01*
X50310110Y-117125983D01*
X50191638Y-117076910D01*
X50191637Y-117076910D01*
X50191636Y-117076909D01*
X50085012Y-117005665D01*
X49994335Y-116914988D01*
X49923091Y-116808364D01*
X49874017Y-116689890D01*
X49849000Y-116564118D01*
X49849000Y-116435882D01*
X49874017Y-116310110D01*
X49923091Y-116191636D01*
X49994335Y-116085012D01*
X50085012Y-115994335D01*
X50191636Y-115923091D01*
X50310110Y-115874017D01*
X50435881Y-115849000D01*
X50564119Y-115849000D01*
X50689890Y-115874017D01*
X50689890Y-115874017D01*
G37*
G36*
X52188960Y-115373832D02*
G01*
X52189890Y-115374017D01*
X52308364Y-115423091D01*
X52414988Y-115494335D01*
X52505665Y-115585012D01*
X52576909Y-115691636D01*
X52625983Y-115810110D01*
X52651000Y-115935882D01*
X52651000Y-116064118D01*
X52625983Y-116189890D01*
X52576909Y-116308364D01*
X52505665Y-116414988D01*
X52414988Y-116505665D01*
X52308364Y-116576909D01*
X52308363Y-116576910D01*
X52308362Y-116576910D01*
X52189890Y-116625983D01*
X52064119Y-116651000D01*
X51935881Y-116651000D01*
X51810110Y-116625983D01*
X51691638Y-116576910D01*
X51691637Y-116576910D01*
X51691636Y-116576909D01*
X51585012Y-116505665D01*
X51494335Y-116414988D01*
X51423091Y-116308364D01*
X51374017Y-116189890D01*
X51349000Y-116064118D01*
X51349000Y-115935882D01*
X51374017Y-115810110D01*
X51423091Y-115691636D01*
X51494335Y-115585012D01*
X51585012Y-115494335D01*
X51691636Y-115423091D01*
X51810110Y-115374017D01*
X51811040Y-115373832D01*
X51935881Y-115349000D01*
X52064119Y-115349000D01*
X52188960Y-115373832D01*
X52188960Y-115373832D01*
G37*
G36*
X51913855Y-112952140D02*
G01*
X51977618Y-112958420D01*
X52068404Y-112985960D01*
X52100336Y-112995646D01*
X52213425Y-113056094D01*
X52312554Y-113137446D01*
X52393906Y-113236575D01*
X52454354Y-113349664D01*
X52454355Y-113349668D01*
X52491580Y-113472382D01*
X52504149Y-113600000D01*
X52491580Y-113727618D01*
X52464040Y-113818404D01*
X52454354Y-113850336D01*
X52393906Y-113963425D01*
X52312554Y-114062554D01*
X52213425Y-114143906D01*
X52100336Y-114204354D01*
X52068404Y-114214040D01*
X51977618Y-114241580D01*
X51913855Y-114247860D01*
X51881974Y-114251000D01*
X50618026Y-114251000D01*
X50586145Y-114247860D01*
X50522382Y-114241580D01*
X50431596Y-114214040D01*
X50399664Y-114204354D01*
X50286575Y-114143906D01*
X50187446Y-114062554D01*
X50106094Y-113963425D01*
X50045646Y-113850336D01*
X50035960Y-113818404D01*
X50008420Y-113727618D01*
X49995851Y-113600000D01*
X50008420Y-113472382D01*
X50045645Y-113349668D01*
X50045646Y-113349664D01*
X50106094Y-113236575D01*
X50187446Y-113137446D01*
X50286575Y-113056094D01*
X50399664Y-112995646D01*
X50431596Y-112985960D01*
X50522382Y-112958420D01*
X50586145Y-112952140D01*
X50618026Y-112949000D01*
X51881974Y-112949000D01*
X51913855Y-112952140D01*
X51913855Y-112952140D01*
G37*
G36*
X43263855Y-112952140D02*
G01*
X43327618Y-112958420D01*
X43418404Y-112985960D01*
X43450336Y-112995646D01*
X43563425Y-113056094D01*
X43662554Y-113137446D01*
X43743906Y-113236575D01*
X43804354Y-113349664D01*
X43804355Y-113349668D01*
X43841580Y-113472382D01*
X43854149Y-113600000D01*
X43841580Y-113727618D01*
X43814040Y-113818404D01*
X43804354Y-113850336D01*
X43743906Y-113963425D01*
X43662554Y-114062554D01*
X43563425Y-114143906D01*
X43450336Y-114204354D01*
X43418404Y-114214040D01*
X43327618Y-114241580D01*
X43263855Y-114247860D01*
X43231974Y-114251000D01*
X42268026Y-114251000D01*
X42236145Y-114247860D01*
X42172382Y-114241580D01*
X42081596Y-114214040D01*
X42049664Y-114204354D01*
X41936575Y-114143906D01*
X41837446Y-114062554D01*
X41756094Y-113963425D01*
X41695646Y-113850336D01*
X41685960Y-113818404D01*
X41658420Y-113727618D01*
X41645851Y-113600000D01*
X41658420Y-113472382D01*
X41695645Y-113349668D01*
X41695646Y-113349664D01*
X41756094Y-113236575D01*
X41837446Y-113137446D01*
X41936575Y-113056094D01*
X42049664Y-112995646D01*
X42081596Y-112985960D01*
X42172382Y-112958420D01*
X42236145Y-112952140D01*
X42268026Y-112949000D01*
X43231974Y-112949000D01*
X43263855Y-112952140D01*
X43263855Y-112952140D01*
G37*
G36*
X161136601Y-109814397D02*
G01*
X161175305Y-109822096D01*
X161207340Y-109835365D01*
X161284680Y-109867400D01*
X161383115Y-109933173D01*
X161466827Y-110016885D01*
X161532600Y-110115320D01*
X161577904Y-110224696D01*
X161601000Y-110340805D01*
X161601000Y-110459195D01*
X161577904Y-110575304D01*
X161532600Y-110684680D01*
X161466827Y-110783115D01*
X161383115Y-110866827D01*
X161284680Y-110932600D01*
X161207340Y-110964635D01*
X161175305Y-110977904D01*
X161136601Y-110985603D01*
X161059195Y-111001000D01*
X160940805Y-111001000D01*
X160863399Y-110985603D01*
X160824695Y-110977904D01*
X160792660Y-110964635D01*
X160715320Y-110932600D01*
X160616885Y-110866827D01*
X160533173Y-110783115D01*
X160467400Y-110684680D01*
X160422096Y-110575304D01*
X160399000Y-110459195D01*
X160399000Y-110340805D01*
X160422096Y-110224696D01*
X160467400Y-110115320D01*
X160533173Y-110016885D01*
X160616885Y-109933173D01*
X160715320Y-109867400D01*
X160792660Y-109835365D01*
X160824695Y-109822096D01*
X160863399Y-109814397D01*
X160940805Y-109799000D01*
X161059195Y-109799000D01*
X161136601Y-109814397D01*
X161136601Y-109814397D01*
G37*
G36*
X143231606Y-104008562D02*
G01*
X143750455Y-104223476D01*
X144080351Y-104443906D01*
X144170820Y-104504355D01*
X144217407Y-104535484D01*
X144614516Y-104932593D01*
X144926524Y-105399545D01*
X145141438Y-105918394D01*
X145251000Y-106469201D01*
X145251000Y-107030799D01*
X145141438Y-107581606D01*
X144926524Y-108100455D01*
X144676579Y-108474524D01*
X144614517Y-108567406D01*
X144217406Y-108964517D01*
X144124524Y-109026579D01*
X143750455Y-109276524D01*
X143231606Y-109491438D01*
X142956202Y-109546219D01*
X142680800Y-109601000D01*
X142119200Y-109601000D01*
X141843798Y-109546219D01*
X141568394Y-109491438D01*
X141049545Y-109276524D01*
X140675476Y-109026579D01*
X140582594Y-108964517D01*
X140185483Y-108567406D01*
X140123421Y-108474524D01*
X139873476Y-108100455D01*
X139658562Y-107581606D01*
X139549000Y-107030799D01*
X139549000Y-106469201D01*
X139658562Y-105918394D01*
X139873476Y-105399545D01*
X140185484Y-104932593D01*
X140582593Y-104535484D01*
X140629181Y-104504355D01*
X140719649Y-104443906D01*
X141049545Y-104223476D01*
X141568394Y-104008562D01*
X142119200Y-103899000D01*
X142680800Y-103899000D01*
X143231606Y-104008562D01*
X143231606Y-104008562D01*
G37*
G36*
X205994098Y-104547033D02*
G01*
X206458350Y-104739332D01*
X206458352Y-104739333D01*
X206876168Y-105018509D01*
X207231491Y-105373832D01*
X207248673Y-105399547D01*
X207510668Y-105791650D01*
X207702967Y-106255902D01*
X207801000Y-106748747D01*
X207801000Y-107251253D01*
X207702967Y-107744098D01*
X207555360Y-108100453D01*
X207510667Y-108208352D01*
X207231491Y-108626168D01*
X206876168Y-108981491D01*
X206458352Y-109260667D01*
X206458351Y-109260668D01*
X206458350Y-109260668D01*
X205994098Y-109452967D01*
X205501253Y-109551000D01*
X204998747Y-109551000D01*
X204505902Y-109452967D01*
X204041650Y-109260668D01*
X204041649Y-109260668D01*
X204041648Y-109260667D01*
X203623832Y-108981491D01*
X203268509Y-108626168D01*
X202989333Y-108208352D01*
X202944640Y-108100453D01*
X202797033Y-107744098D01*
X202699000Y-107251253D01*
X202699000Y-106748747D01*
X202797033Y-106255902D01*
X202989332Y-105791650D01*
X203251327Y-105399547D01*
X203268509Y-105373832D01*
X203623832Y-105018509D01*
X204041648Y-104739333D01*
X204041650Y-104739332D01*
X204505902Y-104547033D01*
X204998747Y-104449000D01*
X205501253Y-104449000D01*
X205994098Y-104547033D01*
X205994098Y-104547033D01*
G37*
G36*
X43263855Y-103252140D02*
G01*
X43327618Y-103258420D01*
X43418404Y-103285960D01*
X43450336Y-103295646D01*
X43563425Y-103356094D01*
X43662554Y-103437446D01*
X43743906Y-103536575D01*
X43804354Y-103649664D01*
X43804355Y-103649668D01*
X43841580Y-103772382D01*
X43854149Y-103900000D01*
X43841580Y-104027618D01*
X43814040Y-104118404D01*
X43804354Y-104150336D01*
X43743906Y-104263425D01*
X43662554Y-104362554D01*
X43563425Y-104443906D01*
X43450336Y-104504354D01*
X43418404Y-104514040D01*
X43327618Y-104541580D01*
X43272241Y-104547034D01*
X43231974Y-104551000D01*
X42268026Y-104551000D01*
X42227759Y-104547034D01*
X42172382Y-104541580D01*
X42081596Y-104514040D01*
X42049664Y-104504354D01*
X41936575Y-104443906D01*
X41837446Y-104362554D01*
X41756094Y-104263425D01*
X41695646Y-104150336D01*
X41685960Y-104118404D01*
X41658420Y-104027618D01*
X41645851Y-103900000D01*
X41658420Y-103772382D01*
X41695645Y-103649668D01*
X41695646Y-103649664D01*
X41756094Y-103536575D01*
X41837446Y-103437446D01*
X41936575Y-103356094D01*
X42049664Y-103295646D01*
X42081596Y-103285960D01*
X42172382Y-103258420D01*
X42236145Y-103252140D01*
X42268026Y-103249000D01*
X43231974Y-103249000D01*
X43263855Y-103252140D01*
X43263855Y-103252140D01*
G37*
G36*
X51913855Y-103252140D02*
G01*
X51977618Y-103258420D01*
X52068404Y-103285960D01*
X52100336Y-103295646D01*
X52213425Y-103356094D01*
X52312554Y-103437446D01*
X52393906Y-103536575D01*
X52454354Y-103649664D01*
X52454355Y-103649668D01*
X52491580Y-103772382D01*
X52504149Y-103900000D01*
X52491580Y-104027618D01*
X52464040Y-104118404D01*
X52454354Y-104150336D01*
X52393906Y-104263425D01*
X52312554Y-104362554D01*
X52213425Y-104443906D01*
X52100336Y-104504354D01*
X52068404Y-104514040D01*
X51977618Y-104541580D01*
X51922241Y-104547034D01*
X51881974Y-104551000D01*
X50618026Y-104551000D01*
X50577759Y-104547034D01*
X50522382Y-104541580D01*
X50431596Y-104514040D01*
X50399664Y-104504354D01*
X50286575Y-104443906D01*
X50187446Y-104362554D01*
X50106094Y-104263425D01*
X50045646Y-104150336D01*
X50035960Y-104118404D01*
X50008420Y-104027618D01*
X49995851Y-103900000D01*
X50008420Y-103772382D01*
X50045645Y-103649668D01*
X50045646Y-103649664D01*
X50106094Y-103536575D01*
X50187446Y-103437446D01*
X50286575Y-103356094D01*
X50399664Y-103295646D01*
X50431596Y-103285960D01*
X50522382Y-103258420D01*
X50586145Y-103252140D01*
X50618026Y-103249000D01*
X51881974Y-103249000D01*
X51913855Y-103252140D01*
X51913855Y-103252140D01*
G37*
G36*
X52189890Y-100874017D02*
G01*
X52308364Y-100923091D01*
X52414988Y-100994335D01*
X52505665Y-101085012D01*
X52576909Y-101191636D01*
X52625983Y-101310110D01*
X52651000Y-101435882D01*
X52651000Y-101564118D01*
X52625983Y-101689890D01*
X52576909Y-101808364D01*
X52505665Y-101914988D01*
X52414988Y-102005665D01*
X52308364Y-102076909D01*
X52308363Y-102076910D01*
X52308362Y-102076910D01*
X52189890Y-102125983D01*
X52064119Y-102151000D01*
X51935881Y-102151000D01*
X51810110Y-102125983D01*
X51691638Y-102076910D01*
X51691637Y-102076910D01*
X51691636Y-102076909D01*
X51585012Y-102005665D01*
X51494335Y-101914988D01*
X51423091Y-101808364D01*
X51374017Y-101689890D01*
X51349000Y-101564118D01*
X51349000Y-101435882D01*
X51374017Y-101310110D01*
X51423091Y-101191636D01*
X51494335Y-101085012D01*
X51585012Y-100994335D01*
X51691636Y-100923091D01*
X51810110Y-100874017D01*
X51935881Y-100849000D01*
X52064119Y-100849000D01*
X52189890Y-100874017D01*
X52189890Y-100874017D01*
G37*
G36*
X50689890Y-100374017D02*
G01*
X50808364Y-100423091D01*
X50914988Y-100494335D01*
X51005665Y-100585012D01*
X51076909Y-100691636D01*
X51125983Y-100810110D01*
X51151000Y-100935882D01*
X51151000Y-101064118D01*
X51125983Y-101189890D01*
X51076909Y-101308364D01*
X51005665Y-101414988D01*
X50914988Y-101505665D01*
X50808364Y-101576909D01*
X50808363Y-101576910D01*
X50808362Y-101576910D01*
X50689890Y-101625983D01*
X50564119Y-101651000D01*
X50435881Y-101651000D01*
X50310110Y-101625983D01*
X50191638Y-101576910D01*
X50191637Y-101576910D01*
X50191636Y-101576909D01*
X50085012Y-101505665D01*
X49994335Y-101414988D01*
X49923091Y-101308364D01*
X49874017Y-101189890D01*
X49849000Y-101064118D01*
X49849000Y-100935882D01*
X49874017Y-100810110D01*
X49923091Y-100691636D01*
X49994335Y-100585012D01*
X50085012Y-100494335D01*
X50191636Y-100423091D01*
X50310110Y-100374017D01*
X50435881Y-100349000D01*
X50564119Y-100349000D01*
X50689890Y-100374017D01*
X50689890Y-100374017D01*
G37*
G36*
X307189890Y-99374017D02*
G01*
X307308364Y-99423091D01*
X307414988Y-99494335D01*
X307505665Y-99585012D01*
X307576909Y-99691636D01*
X307625983Y-99810110D01*
X307651000Y-99935882D01*
X307651000Y-100064118D01*
X307625983Y-100189890D01*
X307576909Y-100308364D01*
X307505665Y-100414988D01*
X307414988Y-100505665D01*
X307308364Y-100576909D01*
X307308363Y-100576910D01*
X307308362Y-100576910D01*
X307189890Y-100625983D01*
X307064119Y-100651000D01*
X306935881Y-100651000D01*
X306810110Y-100625983D01*
X306691638Y-100576910D01*
X306691637Y-100576910D01*
X306691636Y-100576909D01*
X306585012Y-100505665D01*
X306494335Y-100414988D01*
X306423091Y-100308364D01*
X306374017Y-100189890D01*
X306349000Y-100064118D01*
X306349000Y-99935882D01*
X306374017Y-99810110D01*
X306423091Y-99691636D01*
X306494335Y-99585012D01*
X306585012Y-99494335D01*
X306691636Y-99423091D01*
X306810110Y-99374017D01*
X306935881Y-99349000D01*
X307064119Y-99349000D01*
X307189890Y-99374017D01*
X307189890Y-99374017D01*
G37*
G36*
X52189890Y-98874017D02*
G01*
X52308364Y-98923091D01*
X52414988Y-98994335D01*
X52505665Y-99085012D01*
X52576909Y-99191636D01*
X52625983Y-99310110D01*
X52651000Y-99435882D01*
X52651000Y-99564118D01*
X52625983Y-99689890D01*
X52576909Y-99808364D01*
X52505665Y-99914988D01*
X52414988Y-100005665D01*
X52308364Y-100076909D01*
X52308363Y-100076910D01*
X52308362Y-100076910D01*
X52189890Y-100125983D01*
X52064119Y-100151000D01*
X51935881Y-100151000D01*
X51810110Y-100125983D01*
X51691638Y-100076910D01*
X51691637Y-100076910D01*
X51691636Y-100076909D01*
X51585012Y-100005665D01*
X51494335Y-99914988D01*
X51423091Y-99808364D01*
X51374017Y-99689890D01*
X51349000Y-99564118D01*
X51349000Y-99435882D01*
X51374017Y-99310110D01*
X51423091Y-99191636D01*
X51494335Y-99085012D01*
X51585012Y-98994335D01*
X51691636Y-98923091D01*
X51810110Y-98874017D01*
X51935881Y-98849000D01*
X52064119Y-98849000D01*
X52189890Y-98874017D01*
X52189890Y-98874017D01*
G37*
G36*
X50689890Y-97874017D02*
G01*
X50808364Y-97923091D01*
X50914988Y-97994335D01*
X51005665Y-98085012D01*
X51076909Y-98191636D01*
X51125983Y-98310110D01*
X51151000Y-98435882D01*
X51151000Y-98564118D01*
X51125983Y-98689890D01*
X51076909Y-98808364D01*
X51005665Y-98914988D01*
X50914988Y-99005665D01*
X50808364Y-99076909D01*
X50808363Y-99076910D01*
X50808362Y-99076910D01*
X50689890Y-99125983D01*
X50564119Y-99151000D01*
X50435881Y-99151000D01*
X50310110Y-99125983D01*
X50191638Y-99076910D01*
X50191637Y-99076910D01*
X50191636Y-99076909D01*
X50085012Y-99005665D01*
X49994335Y-98914988D01*
X49923091Y-98808364D01*
X49874017Y-98689890D01*
X49849000Y-98564118D01*
X49849000Y-98435882D01*
X49874017Y-98310110D01*
X49923091Y-98191636D01*
X49994335Y-98085012D01*
X50085012Y-97994335D01*
X50191636Y-97923091D01*
X50310110Y-97874017D01*
X50435881Y-97849000D01*
X50564119Y-97849000D01*
X50689890Y-97874017D01*
X50689890Y-97874017D01*
G37*
G36*
X123604903Y-96197075D02*
G01*
X123710569Y-96240843D01*
X123832571Y-96291378D01*
X124037466Y-96428285D01*
X124211715Y-96602534D01*
X124348622Y-96807429D01*
X124348623Y-96807431D01*
X124442925Y-97035097D01*
X124474063Y-97191636D01*
X124491000Y-97276787D01*
X124491000Y-97523213D01*
X124442925Y-97764903D01*
X124348622Y-97992571D01*
X124211715Y-98197466D01*
X124037466Y-98371715D01*
X123832571Y-98508622D01*
X123832570Y-98508623D01*
X123832569Y-98508623D01*
X123604903Y-98602925D01*
X123363214Y-98651000D01*
X123116786Y-98651000D01*
X122875097Y-98602925D01*
X122647431Y-98508623D01*
X122647430Y-98508623D01*
X122647429Y-98508622D01*
X122442534Y-98371715D01*
X122268285Y-98197466D01*
X122131378Y-97992571D01*
X122037075Y-97764903D01*
X121989000Y-97523213D01*
X121989000Y-97276787D01*
X122005938Y-97191636D01*
X122037075Y-97035097D01*
X122131377Y-96807431D01*
X122131378Y-96807429D01*
X122268285Y-96602534D01*
X122442534Y-96428285D01*
X122647429Y-96291378D01*
X122769432Y-96240843D01*
X122875097Y-96197075D01*
X123116786Y-96149000D01*
X123363214Y-96149000D01*
X123604903Y-96197075D01*
X123604903Y-96197075D01*
G37*
G36*
X99295520Y-96557664D02*
G01*
X99454942Y-96623699D01*
X99598418Y-96719566D01*
X99720434Y-96841582D01*
X99816301Y-96985058D01*
X99854347Y-97076910D01*
X99882336Y-97144481D01*
X99916000Y-97313720D01*
X99916000Y-97486280D01*
X99908653Y-97523214D01*
X99882336Y-97655520D01*
X99816301Y-97814942D01*
X99720434Y-97958418D01*
X99598418Y-98080434D01*
X99454942Y-98176301D01*
X99295520Y-98242336D01*
X99210899Y-98259168D01*
X99126280Y-98276000D01*
X98953720Y-98276000D01*
X98869101Y-98259168D01*
X98784480Y-98242336D01*
X98625058Y-98176301D01*
X98481582Y-98080434D01*
X98359566Y-97958418D01*
X98263699Y-97814942D01*
X98197664Y-97655520D01*
X98171347Y-97523214D01*
X98164000Y-97486280D01*
X98164000Y-97313720D01*
X98197664Y-97144481D01*
X98225653Y-97076910D01*
X98263699Y-96985058D01*
X98359566Y-96841582D01*
X98481582Y-96719566D01*
X98625058Y-96623699D01*
X98784480Y-96557664D01*
X98869101Y-96540832D01*
X98953720Y-96524000D01*
X99126280Y-96524000D01*
X99295520Y-96557664D01*
X99295520Y-96557664D01*
G37*
G36*
X52189890Y-96874017D02*
G01*
X52308364Y-96923091D01*
X52401104Y-96985058D01*
X52414988Y-96994335D01*
X52505665Y-97085012D01*
X52576910Y-97191638D01*
X52625983Y-97310110D01*
X52651000Y-97435881D01*
X52651000Y-97564119D01*
X52625983Y-97689890D01*
X52576909Y-97808364D01*
X52505665Y-97914988D01*
X52414988Y-98005665D01*
X52308364Y-98076909D01*
X52308363Y-98076910D01*
X52308362Y-98076910D01*
X52189890Y-98125983D01*
X52064119Y-98151000D01*
X51935881Y-98151000D01*
X51810110Y-98125983D01*
X51691638Y-98076910D01*
X51691637Y-98076910D01*
X51691636Y-98076909D01*
X51585012Y-98005665D01*
X51494335Y-97914988D01*
X51423091Y-97808364D01*
X51374017Y-97689890D01*
X51349000Y-97564119D01*
X51349000Y-97435881D01*
X51374017Y-97310110D01*
X51423090Y-97191638D01*
X51494335Y-97085012D01*
X51585012Y-96994335D01*
X51598896Y-96985058D01*
X51691636Y-96923091D01*
X51810110Y-96874017D01*
X51935881Y-96849000D01*
X52064119Y-96849000D01*
X52189890Y-96874017D01*
X52189890Y-96874017D01*
G37*
G36*
X50656216Y-95867319D02*
G01*
X50689890Y-95874017D01*
X50808364Y-95923091D01*
X50914988Y-95994335D01*
X51005665Y-96085012D01*
X51035922Y-96130294D01*
X51076910Y-96191638D01*
X51125983Y-96310110D01*
X51151000Y-96435881D01*
X51151000Y-96564119D01*
X51125983Y-96689890D01*
X51077296Y-96807431D01*
X51076909Y-96808364D01*
X51005665Y-96914988D01*
X50914988Y-97005665D01*
X50808364Y-97076909D01*
X50808363Y-97076910D01*
X50808362Y-97076910D01*
X50689890Y-97125983D01*
X50564119Y-97151000D01*
X50435881Y-97151000D01*
X50310110Y-97125983D01*
X50191638Y-97076910D01*
X50191637Y-97076910D01*
X50191636Y-97076909D01*
X50085012Y-97005665D01*
X49994335Y-96914988D01*
X49923091Y-96808364D01*
X49922705Y-96807431D01*
X49874017Y-96689890D01*
X49849000Y-96564119D01*
X49849000Y-96435881D01*
X49874017Y-96310110D01*
X49923090Y-96191638D01*
X49964079Y-96130294D01*
X49994335Y-96085012D01*
X50085012Y-95994335D01*
X50191636Y-95923091D01*
X50310110Y-95874017D01*
X50343784Y-95867319D01*
X50435881Y-95849000D01*
X50564119Y-95849000D01*
X50656216Y-95867319D01*
X50656216Y-95867319D01*
G37*
G36*
X297951000Y-96451000D02*
G01*
X296499000Y-96451000D01*
X296499000Y-94999000D01*
X297951000Y-94999000D01*
X297951000Y-96451000D01*
X297951000Y-96451000D01*
G37*
G36*
X295296213Y-95002502D02*
G01*
X295367321Y-95009505D01*
X295504172Y-95051019D01*
X295504175Y-95051020D01*
X295630294Y-95118432D01*
X295740843Y-95209157D01*
X295831568Y-95319706D01*
X295898980Y-95445825D01*
X295898981Y-95445828D01*
X295940495Y-95582679D01*
X295954512Y-95725000D01*
X295940495Y-95867321D01*
X295926035Y-95914988D01*
X295898980Y-96004175D01*
X295831568Y-96130294D01*
X295740843Y-96240843D01*
X295630294Y-96331568D01*
X295504175Y-96398980D01*
X295504172Y-96398981D01*
X295367321Y-96440495D01*
X295296213Y-96447498D01*
X295260660Y-96451000D01*
X295189340Y-96451000D01*
X295153787Y-96447498D01*
X295082679Y-96440495D01*
X294945828Y-96398981D01*
X294945825Y-96398980D01*
X294819706Y-96331568D01*
X294709157Y-96240843D01*
X294618432Y-96130294D01*
X294551020Y-96004175D01*
X294523965Y-95914988D01*
X294509505Y-95867321D01*
X294495488Y-95725000D01*
X294509505Y-95582679D01*
X294551019Y-95445828D01*
X294551020Y-95445825D01*
X294618432Y-95319706D01*
X294709157Y-95209157D01*
X294819706Y-95118432D01*
X294945825Y-95051020D01*
X294945828Y-95051019D01*
X295082679Y-95009505D01*
X295153787Y-95002502D01*
X295189340Y-94999000D01*
X295260660Y-94999000D01*
X295296213Y-95002502D01*
X295296213Y-95002502D01*
G37*
G36*
X293296213Y-95002502D02*
G01*
X293367321Y-95009505D01*
X293504172Y-95051019D01*
X293504175Y-95051020D01*
X293630294Y-95118432D01*
X293740843Y-95209157D01*
X293831568Y-95319706D01*
X293898980Y-95445825D01*
X293898981Y-95445828D01*
X293940495Y-95582679D01*
X293954512Y-95725000D01*
X293940495Y-95867321D01*
X293926035Y-95914988D01*
X293898980Y-96004175D01*
X293831568Y-96130294D01*
X293740843Y-96240843D01*
X293630294Y-96331568D01*
X293504175Y-96398980D01*
X293504172Y-96398981D01*
X293367321Y-96440495D01*
X293296213Y-96447498D01*
X293260660Y-96451000D01*
X293189340Y-96451000D01*
X293153787Y-96447498D01*
X293082679Y-96440495D01*
X292945828Y-96398981D01*
X292945825Y-96398980D01*
X292819706Y-96331568D01*
X292709157Y-96240843D01*
X292618432Y-96130294D01*
X292551020Y-96004175D01*
X292523965Y-95914988D01*
X292509505Y-95867321D01*
X292495488Y-95725000D01*
X292509505Y-95582679D01*
X292551019Y-95445828D01*
X292551020Y-95445825D01*
X292618432Y-95319706D01*
X292709157Y-95209157D01*
X292819706Y-95118432D01*
X292945825Y-95051020D01*
X292945828Y-95051019D01*
X293082679Y-95009505D01*
X293153787Y-95002502D01*
X293189340Y-94999000D01*
X293260660Y-94999000D01*
X293296213Y-95002502D01*
X293296213Y-95002502D01*
G37*
G36*
X52189890Y-94874017D02*
G01*
X52308364Y-94923091D01*
X52414988Y-94994335D01*
X52505665Y-95085012D01*
X52576909Y-95191636D01*
X52625983Y-95310110D01*
X52651000Y-95435882D01*
X52651000Y-95564118D01*
X52625983Y-95689890D01*
X52576909Y-95808364D01*
X52505665Y-95914988D01*
X52414988Y-96005665D01*
X52308364Y-96076909D01*
X52308363Y-96076910D01*
X52308362Y-96076910D01*
X52189890Y-96125983D01*
X52064119Y-96151000D01*
X51935881Y-96151000D01*
X51810110Y-96125983D01*
X51691638Y-96076910D01*
X51691637Y-96076910D01*
X51691636Y-96076909D01*
X51585012Y-96005665D01*
X51494335Y-95914988D01*
X51423091Y-95808364D01*
X51374017Y-95689890D01*
X51349000Y-95564118D01*
X51349000Y-95435882D01*
X51374017Y-95310110D01*
X51423091Y-95191636D01*
X51494335Y-95085012D01*
X51585012Y-94994335D01*
X51691636Y-94923091D01*
X51810110Y-94874017D01*
X51935881Y-94849000D01*
X52064119Y-94849000D01*
X52189890Y-94874017D01*
X52189890Y-94874017D01*
G37*
G36*
X50689890Y-93374017D02*
G01*
X50808364Y-93423091D01*
X50914988Y-93494335D01*
X51005665Y-93585012D01*
X51076909Y-93691636D01*
X51125983Y-93810110D01*
X51151000Y-93935882D01*
X51151000Y-94064118D01*
X51125983Y-94189890D01*
X51076909Y-94308364D01*
X51005665Y-94414988D01*
X50914988Y-94505665D01*
X50808364Y-94576909D01*
X50808363Y-94576910D01*
X50808362Y-94576910D01*
X50689890Y-94625983D01*
X50564119Y-94651000D01*
X50435881Y-94651000D01*
X50310110Y-94625983D01*
X50191638Y-94576910D01*
X50191637Y-94576910D01*
X50191636Y-94576909D01*
X50085012Y-94505665D01*
X49994335Y-94414988D01*
X49923091Y-94308364D01*
X49874017Y-94189890D01*
X49849000Y-94064118D01*
X49849000Y-93935882D01*
X49874017Y-93810110D01*
X49923091Y-93691636D01*
X49994335Y-93585012D01*
X50085012Y-93494335D01*
X50191636Y-93423091D01*
X50310110Y-93374017D01*
X50435881Y-93349000D01*
X50564119Y-93349000D01*
X50689890Y-93374017D01*
X50689890Y-93374017D01*
G37*
G36*
X52189890Y-92874017D02*
G01*
X52308364Y-92923091D01*
X52414988Y-92994335D01*
X52505665Y-93085012D01*
X52576909Y-93191636D01*
X52625983Y-93310110D01*
X52651000Y-93435882D01*
X52651000Y-93564118D01*
X52625983Y-93689890D01*
X52576909Y-93808364D01*
X52505665Y-93914988D01*
X52414988Y-94005665D01*
X52308364Y-94076909D01*
X52308363Y-94076910D01*
X52308362Y-94076910D01*
X52189890Y-94125983D01*
X52064119Y-94151000D01*
X51935881Y-94151000D01*
X51810110Y-94125983D01*
X51691638Y-94076910D01*
X51691637Y-94076910D01*
X51691636Y-94076909D01*
X51585012Y-94005665D01*
X51494335Y-93914988D01*
X51423091Y-93808364D01*
X51374017Y-93689890D01*
X51349000Y-93564118D01*
X51349000Y-93435882D01*
X51374017Y-93310110D01*
X51423091Y-93191636D01*
X51494335Y-93085012D01*
X51585012Y-92994335D01*
X51691636Y-92923091D01*
X51810110Y-92874017D01*
X51935881Y-92849000D01*
X52064119Y-92849000D01*
X52189890Y-92874017D01*
X52189890Y-92874017D01*
G37*
G36*
X51913855Y-90452140D02*
G01*
X51977618Y-90458420D01*
X52068404Y-90485960D01*
X52100336Y-90495646D01*
X52213425Y-90556094D01*
X52312554Y-90637446D01*
X52393906Y-90736575D01*
X52454354Y-90849664D01*
X52454355Y-90849668D01*
X52491580Y-90972382D01*
X52504149Y-91100000D01*
X52491580Y-91227618D01*
X52476744Y-91276524D01*
X52454354Y-91350336D01*
X52393906Y-91463425D01*
X52312554Y-91562554D01*
X52213425Y-91643906D01*
X52100336Y-91704354D01*
X52068404Y-91714040D01*
X51977618Y-91741580D01*
X51913855Y-91747860D01*
X51881974Y-91751000D01*
X50618026Y-91751000D01*
X50586145Y-91747860D01*
X50522382Y-91741580D01*
X50431596Y-91714040D01*
X50399664Y-91704354D01*
X50286575Y-91643906D01*
X50187446Y-91562554D01*
X50106094Y-91463425D01*
X50045646Y-91350336D01*
X50023256Y-91276524D01*
X50008420Y-91227618D01*
X49995851Y-91100000D01*
X50008420Y-90972382D01*
X50045645Y-90849668D01*
X50045646Y-90849664D01*
X50106094Y-90736575D01*
X50187446Y-90637446D01*
X50286575Y-90556094D01*
X50399664Y-90495646D01*
X50431596Y-90485960D01*
X50522382Y-90458420D01*
X50586145Y-90452140D01*
X50618026Y-90449000D01*
X51881974Y-90449000D01*
X51913855Y-90452140D01*
X51913855Y-90452140D01*
G37*
G36*
X43263855Y-90452140D02*
G01*
X43327618Y-90458420D01*
X43418404Y-90485960D01*
X43450336Y-90495646D01*
X43563425Y-90556094D01*
X43662554Y-90637446D01*
X43743906Y-90736575D01*
X43804354Y-90849664D01*
X43804355Y-90849668D01*
X43841580Y-90972382D01*
X43854149Y-91100000D01*
X43841580Y-91227618D01*
X43826744Y-91276524D01*
X43804354Y-91350336D01*
X43743906Y-91463425D01*
X43662554Y-91562554D01*
X43563425Y-91643906D01*
X43450336Y-91704354D01*
X43418404Y-91714040D01*
X43327618Y-91741580D01*
X43263855Y-91747860D01*
X43231974Y-91751000D01*
X42268026Y-91751000D01*
X42236145Y-91747860D01*
X42172382Y-91741580D01*
X42081596Y-91714040D01*
X42049664Y-91704354D01*
X41936575Y-91643906D01*
X41837446Y-91562554D01*
X41756094Y-91463425D01*
X41695646Y-91350336D01*
X41673256Y-91276524D01*
X41658420Y-91227618D01*
X41645851Y-91100000D01*
X41658420Y-90972382D01*
X41695645Y-90849668D01*
X41695646Y-90849664D01*
X41756094Y-90736575D01*
X41837446Y-90637446D01*
X41936575Y-90556094D01*
X42049664Y-90495646D01*
X42081596Y-90485960D01*
X42172382Y-90458420D01*
X42236145Y-90452140D01*
X42268026Y-90449000D01*
X43231974Y-90449000D01*
X43263855Y-90452140D01*
X43263855Y-90452140D01*
G37*
G36*
X143231606Y-86008562D02*
G01*
X143750455Y-86223476D01*
X144217407Y-86535484D01*
X144614516Y-86932593D01*
X144926524Y-87399545D01*
X145141438Y-87918394D01*
X145251000Y-88469201D01*
X145251000Y-89030799D01*
X145141438Y-89581606D01*
X144926524Y-90100455D01*
X144693633Y-90449000D01*
X144622075Y-90556095D01*
X144614516Y-90567407D01*
X144217407Y-90964516D01*
X143750455Y-91276524D01*
X143231606Y-91491438D01*
X142680800Y-91601000D01*
X142119200Y-91601000D01*
X141568394Y-91491438D01*
X141049545Y-91276524D01*
X140582593Y-90964516D01*
X140185484Y-90567407D01*
X140177926Y-90556095D01*
X140106367Y-90449000D01*
X139873476Y-90100455D01*
X139658562Y-89581606D01*
X139549000Y-89030799D01*
X139549000Y-88469201D01*
X139658562Y-87918394D01*
X139873476Y-87399545D01*
X140185484Y-86932593D01*
X140582593Y-86535484D01*
X141049545Y-86223476D01*
X141568394Y-86008562D01*
X141843798Y-85953781D01*
X142119200Y-85899000D01*
X142680800Y-85899000D01*
X143231606Y-86008562D01*
X143231606Y-86008562D01*
G37*
G36*
X226201000Y-83151000D02*
G01*
X224399000Y-83151000D01*
X224399000Y-81349000D01*
X226201000Y-81349000D01*
X226201000Y-83151000D01*
X226201000Y-83151000D01*
G37*
G36*
X227950443Y-81355519D02*
G01*
X228016627Y-81362037D01*
X228186466Y-81413557D01*
X228342991Y-81497222D01*
X228378729Y-81526552D01*
X228480186Y-81609814D01*
X228563448Y-81711271D01*
X228592778Y-81747009D01*
X228676443Y-81903534D01*
X228727963Y-82073373D01*
X228745359Y-82250000D01*
X228727963Y-82426627D01*
X228676443Y-82596466D01*
X228592778Y-82752991D01*
X228563448Y-82788729D01*
X228480186Y-82890186D01*
X228378729Y-82973448D01*
X228342991Y-83002778D01*
X228186466Y-83086443D01*
X228016627Y-83137963D01*
X227950442Y-83144482D01*
X227884260Y-83151000D01*
X227795740Y-83151000D01*
X227729558Y-83144482D01*
X227663373Y-83137963D01*
X227493534Y-83086443D01*
X227337009Y-83002778D01*
X227301271Y-82973448D01*
X227199814Y-82890186D01*
X227116552Y-82788729D01*
X227087222Y-82752991D01*
X227003557Y-82596466D01*
X226952037Y-82426627D01*
X226934641Y-82250000D01*
X226952037Y-82073373D01*
X227003557Y-81903534D01*
X227087222Y-81747009D01*
X227116552Y-81711271D01*
X227199814Y-81609814D01*
X227301271Y-81526552D01*
X227337009Y-81497222D01*
X227493534Y-81413557D01*
X227663373Y-81362037D01*
X227729557Y-81355519D01*
X227795740Y-81349000D01*
X227884260Y-81349000D01*
X227950443Y-81355519D01*
X227950443Y-81355519D01*
G37*
G36*
X230490443Y-81355519D02*
G01*
X230556627Y-81362037D01*
X230726466Y-81413557D01*
X230882991Y-81497222D01*
X230918729Y-81526552D01*
X231020186Y-81609814D01*
X231103448Y-81711271D01*
X231132778Y-81747009D01*
X231216443Y-81903534D01*
X231267963Y-82073373D01*
X231285359Y-82250000D01*
X231267963Y-82426627D01*
X231216443Y-82596466D01*
X231132778Y-82752991D01*
X231103448Y-82788729D01*
X231020186Y-82890186D01*
X230918729Y-82973448D01*
X230882991Y-83002778D01*
X230726466Y-83086443D01*
X230556627Y-83137963D01*
X230490442Y-83144482D01*
X230424260Y-83151000D01*
X230335740Y-83151000D01*
X230269558Y-83144482D01*
X230203373Y-83137963D01*
X230033534Y-83086443D01*
X229877009Y-83002778D01*
X229841271Y-82973448D01*
X229739814Y-82890186D01*
X229656552Y-82788729D01*
X229627222Y-82752991D01*
X229543557Y-82596466D01*
X229492037Y-82426627D01*
X229474641Y-82250000D01*
X229492037Y-82073373D01*
X229543557Y-81903534D01*
X229627222Y-81747009D01*
X229656552Y-81711271D01*
X229739814Y-81609814D01*
X229841271Y-81526552D01*
X229877009Y-81497222D01*
X230033534Y-81413557D01*
X230203373Y-81362037D01*
X230269557Y-81355519D01*
X230335740Y-81349000D01*
X230424260Y-81349000D01*
X230490443Y-81355519D01*
X230490443Y-81355519D01*
G37*
G36*
X233030443Y-81355519D02*
G01*
X233096627Y-81362037D01*
X233266466Y-81413557D01*
X233422991Y-81497222D01*
X233458729Y-81526552D01*
X233560186Y-81609814D01*
X233643448Y-81711271D01*
X233672778Y-81747009D01*
X233756443Y-81903534D01*
X233807963Y-82073373D01*
X233825359Y-82250000D01*
X233807963Y-82426627D01*
X233756443Y-82596466D01*
X233672778Y-82752991D01*
X233643448Y-82788729D01*
X233560186Y-82890186D01*
X233458729Y-82973448D01*
X233422991Y-83002778D01*
X233266466Y-83086443D01*
X233096627Y-83137963D01*
X233030442Y-83144482D01*
X232964260Y-83151000D01*
X232875740Y-83151000D01*
X232809558Y-83144482D01*
X232743373Y-83137963D01*
X232573534Y-83086443D01*
X232417009Y-83002778D01*
X232381271Y-82973448D01*
X232279814Y-82890186D01*
X232196552Y-82788729D01*
X232167222Y-82752991D01*
X232083557Y-82596466D01*
X232032037Y-82426627D01*
X232014641Y-82250000D01*
X232032037Y-82073373D01*
X232083557Y-81903534D01*
X232167222Y-81747009D01*
X232196552Y-81711271D01*
X232279814Y-81609814D01*
X232381271Y-81526552D01*
X232417009Y-81497222D01*
X232573534Y-81413557D01*
X232743373Y-81362037D01*
X232809557Y-81355519D01*
X232875740Y-81349000D01*
X232964260Y-81349000D01*
X233030443Y-81355519D01*
X233030443Y-81355519D01*
G37*
G36*
X238110443Y-81355519D02*
G01*
X238176627Y-81362037D01*
X238346466Y-81413557D01*
X238502991Y-81497222D01*
X238538729Y-81526552D01*
X238640186Y-81609814D01*
X238723448Y-81711271D01*
X238752778Y-81747009D01*
X238836443Y-81903534D01*
X238887963Y-82073373D01*
X238905359Y-82250000D01*
X238887963Y-82426627D01*
X238836443Y-82596466D01*
X238752778Y-82752991D01*
X238723448Y-82788729D01*
X238640186Y-82890186D01*
X238538729Y-82973448D01*
X238502991Y-83002778D01*
X238346466Y-83086443D01*
X238176627Y-83137963D01*
X238110442Y-83144482D01*
X238044260Y-83151000D01*
X237955740Y-83151000D01*
X237889558Y-83144482D01*
X237823373Y-83137963D01*
X237653534Y-83086443D01*
X237497009Y-83002778D01*
X237461271Y-82973448D01*
X237359814Y-82890186D01*
X237276552Y-82788729D01*
X237247222Y-82752991D01*
X237163557Y-82596466D01*
X237112037Y-82426627D01*
X237094641Y-82250000D01*
X237112037Y-82073373D01*
X237163557Y-81903534D01*
X237247222Y-81747009D01*
X237276552Y-81711271D01*
X237359814Y-81609814D01*
X237461271Y-81526552D01*
X237497009Y-81497222D01*
X237653534Y-81413557D01*
X237823373Y-81362037D01*
X237889557Y-81355519D01*
X237955740Y-81349000D01*
X238044260Y-81349000D01*
X238110443Y-81355519D01*
X238110443Y-81355519D01*
G37*
G36*
X235570443Y-81355519D02*
G01*
X235636627Y-81362037D01*
X235806466Y-81413557D01*
X235962991Y-81497222D01*
X235998729Y-81526552D01*
X236100186Y-81609814D01*
X236183448Y-81711271D01*
X236212778Y-81747009D01*
X236296443Y-81903534D01*
X236347963Y-82073373D01*
X236365359Y-82250000D01*
X236347963Y-82426627D01*
X236296443Y-82596466D01*
X236212778Y-82752991D01*
X236183448Y-82788729D01*
X236100186Y-82890186D01*
X235998729Y-82973448D01*
X235962991Y-83002778D01*
X235806466Y-83086443D01*
X235636627Y-83137963D01*
X235570442Y-83144482D01*
X235504260Y-83151000D01*
X235415740Y-83151000D01*
X235349558Y-83144482D01*
X235283373Y-83137963D01*
X235113534Y-83086443D01*
X234957009Y-83002778D01*
X234921271Y-82973448D01*
X234819814Y-82890186D01*
X234736552Y-82788729D01*
X234707222Y-82752991D01*
X234623557Y-82596466D01*
X234572037Y-82426627D01*
X234554641Y-82250000D01*
X234572037Y-82073373D01*
X234623557Y-81903534D01*
X234707222Y-81747009D01*
X234736552Y-81711271D01*
X234819814Y-81609814D01*
X234921271Y-81526552D01*
X234957009Y-81497222D01*
X235113534Y-81413557D01*
X235283373Y-81362037D01*
X235349557Y-81355519D01*
X235415740Y-81349000D01*
X235504260Y-81349000D01*
X235570443Y-81355519D01*
X235570443Y-81355519D01*
G37*
G36*
X243190443Y-81355519D02*
G01*
X243256627Y-81362037D01*
X243426466Y-81413557D01*
X243582991Y-81497222D01*
X243618729Y-81526552D01*
X243720186Y-81609814D01*
X243803448Y-81711271D01*
X243832778Y-81747009D01*
X243916443Y-81903534D01*
X243967963Y-82073373D01*
X243985359Y-82250000D01*
X243967963Y-82426627D01*
X243916443Y-82596466D01*
X243832778Y-82752991D01*
X243803448Y-82788729D01*
X243720186Y-82890186D01*
X243618729Y-82973448D01*
X243582991Y-83002778D01*
X243426466Y-83086443D01*
X243256627Y-83137963D01*
X243190442Y-83144482D01*
X243124260Y-83151000D01*
X243035740Y-83151000D01*
X242969558Y-83144482D01*
X242903373Y-83137963D01*
X242733534Y-83086443D01*
X242577009Y-83002778D01*
X242541271Y-82973448D01*
X242439814Y-82890186D01*
X242356552Y-82788729D01*
X242327222Y-82752991D01*
X242243557Y-82596466D01*
X242192037Y-82426627D01*
X242174641Y-82250000D01*
X242192037Y-82073373D01*
X242243557Y-81903534D01*
X242327222Y-81747009D01*
X242356552Y-81711271D01*
X242439814Y-81609814D01*
X242541271Y-81526552D01*
X242577009Y-81497222D01*
X242733534Y-81413557D01*
X242903373Y-81362037D01*
X242969557Y-81355519D01*
X243035740Y-81349000D01*
X243124260Y-81349000D01*
X243190443Y-81355519D01*
X243190443Y-81355519D01*
G37*
G36*
X240650443Y-81355519D02*
G01*
X240716627Y-81362037D01*
X240886466Y-81413557D01*
X241042991Y-81497222D01*
X241078729Y-81526552D01*
X241180186Y-81609814D01*
X241263448Y-81711271D01*
X241292778Y-81747009D01*
X241376443Y-81903534D01*
X241427963Y-82073373D01*
X241445359Y-82250000D01*
X241427963Y-82426627D01*
X241376443Y-82596466D01*
X241292778Y-82752991D01*
X241263448Y-82788729D01*
X241180186Y-82890186D01*
X241078729Y-82973448D01*
X241042991Y-83002778D01*
X240886466Y-83086443D01*
X240716627Y-83137963D01*
X240650442Y-83144482D01*
X240584260Y-83151000D01*
X240495740Y-83151000D01*
X240429558Y-83144482D01*
X240363373Y-83137963D01*
X240193534Y-83086443D01*
X240037009Y-83002778D01*
X240001271Y-82973448D01*
X239899814Y-82890186D01*
X239816552Y-82788729D01*
X239787222Y-82752991D01*
X239703557Y-82596466D01*
X239652037Y-82426627D01*
X239634641Y-82250000D01*
X239652037Y-82073373D01*
X239703557Y-81903534D01*
X239787222Y-81747009D01*
X239816552Y-81711271D01*
X239899814Y-81609814D01*
X240001271Y-81526552D01*
X240037009Y-81497222D01*
X240193534Y-81413557D01*
X240363373Y-81362037D01*
X240429557Y-81355519D01*
X240495740Y-81349000D01*
X240584260Y-81349000D01*
X240650443Y-81355519D01*
X240650443Y-81355519D01*
G37*
G36*
X43263855Y-80752140D02*
G01*
X43327618Y-80758420D01*
X43418404Y-80785960D01*
X43450336Y-80795646D01*
X43563425Y-80856094D01*
X43662554Y-80937446D01*
X43743906Y-81036575D01*
X43804354Y-81149664D01*
X43804355Y-81149668D01*
X43841580Y-81272382D01*
X43854149Y-81400000D01*
X43841580Y-81527618D01*
X43816646Y-81609814D01*
X43804354Y-81650336D01*
X43743906Y-81763425D01*
X43662554Y-81862554D01*
X43563425Y-81943906D01*
X43450336Y-82004354D01*
X43418404Y-82014040D01*
X43327618Y-82041580D01*
X43263855Y-82047860D01*
X43231974Y-82051000D01*
X42268026Y-82051000D01*
X42236145Y-82047860D01*
X42172382Y-82041580D01*
X42081596Y-82014040D01*
X42049664Y-82004354D01*
X41936575Y-81943906D01*
X41837446Y-81862554D01*
X41756094Y-81763425D01*
X41695646Y-81650336D01*
X41683354Y-81609814D01*
X41658420Y-81527618D01*
X41645851Y-81400000D01*
X41658420Y-81272382D01*
X41695645Y-81149668D01*
X41695646Y-81149664D01*
X41756094Y-81036575D01*
X41837446Y-80937446D01*
X41936575Y-80856094D01*
X42049664Y-80795646D01*
X42081596Y-80785960D01*
X42172382Y-80758420D01*
X42236145Y-80752140D01*
X42268026Y-80749000D01*
X43231974Y-80749000D01*
X43263855Y-80752140D01*
X43263855Y-80752140D01*
G37*
G36*
X51913855Y-80752140D02*
G01*
X51977618Y-80758420D01*
X52068404Y-80785960D01*
X52100336Y-80795646D01*
X52213425Y-80856094D01*
X52312554Y-80937446D01*
X52393906Y-81036575D01*
X52454354Y-81149664D01*
X52454355Y-81149668D01*
X52491580Y-81272382D01*
X52504149Y-81400000D01*
X52491580Y-81527618D01*
X52466646Y-81609814D01*
X52454354Y-81650336D01*
X52393906Y-81763425D01*
X52312554Y-81862554D01*
X52213425Y-81943906D01*
X52100336Y-82004354D01*
X52068404Y-82014040D01*
X51977618Y-82041580D01*
X51913855Y-82047860D01*
X51881974Y-82051000D01*
X50618026Y-82051000D01*
X50586145Y-82047860D01*
X50522382Y-82041580D01*
X50431596Y-82014040D01*
X50399664Y-82004354D01*
X50286575Y-81943906D01*
X50187446Y-81862554D01*
X50106094Y-81763425D01*
X50045646Y-81650336D01*
X50033354Y-81609814D01*
X50008420Y-81527618D01*
X49995851Y-81400000D01*
X50008420Y-81272382D01*
X50045645Y-81149668D01*
X50045646Y-81149664D01*
X50106094Y-81036575D01*
X50187446Y-80937446D01*
X50286575Y-80856094D01*
X50399664Y-80795646D01*
X50431596Y-80785960D01*
X50522382Y-80758420D01*
X50586145Y-80752140D01*
X50618026Y-80749000D01*
X51881974Y-80749000D01*
X51913855Y-80752140D01*
X51913855Y-80752140D01*
G37*
G36*
X235570442Y-78815518D02*
G01*
X235636627Y-78822037D01*
X235806466Y-78873557D01*
X235962991Y-78957222D01*
X235998729Y-78986552D01*
X236100186Y-79069814D01*
X236183448Y-79171271D01*
X236212778Y-79207009D01*
X236296443Y-79363534D01*
X236347963Y-79533373D01*
X236365359Y-79710000D01*
X236347963Y-79886627D01*
X236296443Y-80056466D01*
X236212778Y-80212991D01*
X236183448Y-80248729D01*
X236100186Y-80350186D01*
X235998729Y-80433448D01*
X235962991Y-80462778D01*
X235806466Y-80546443D01*
X235636627Y-80597963D01*
X235570442Y-80604482D01*
X235504260Y-80611000D01*
X235415740Y-80611000D01*
X235349558Y-80604482D01*
X235283373Y-80597963D01*
X235113534Y-80546443D01*
X234957009Y-80462778D01*
X234921271Y-80433448D01*
X234819814Y-80350186D01*
X234736552Y-80248729D01*
X234707222Y-80212991D01*
X234623557Y-80056466D01*
X234572037Y-79886627D01*
X234554641Y-79710000D01*
X234572037Y-79533373D01*
X234623557Y-79363534D01*
X234707222Y-79207009D01*
X234736552Y-79171271D01*
X234819814Y-79069814D01*
X234921271Y-78986552D01*
X234957009Y-78957222D01*
X235113534Y-78873557D01*
X235283373Y-78822037D01*
X235349558Y-78815518D01*
X235415740Y-78809000D01*
X235504260Y-78809000D01*
X235570442Y-78815518D01*
X235570442Y-78815518D01*
G37*
G36*
X243190442Y-78815518D02*
G01*
X243256627Y-78822037D01*
X243426466Y-78873557D01*
X243582991Y-78957222D01*
X243618729Y-78986552D01*
X243720186Y-79069814D01*
X243803448Y-79171271D01*
X243832778Y-79207009D01*
X243916443Y-79363534D01*
X243967963Y-79533373D01*
X243985359Y-79710000D01*
X243967963Y-79886627D01*
X243916443Y-80056466D01*
X243832778Y-80212991D01*
X243803448Y-80248729D01*
X243720186Y-80350186D01*
X243618729Y-80433448D01*
X243582991Y-80462778D01*
X243426466Y-80546443D01*
X243256627Y-80597963D01*
X243190442Y-80604482D01*
X243124260Y-80611000D01*
X243035740Y-80611000D01*
X242969558Y-80604482D01*
X242903373Y-80597963D01*
X242733534Y-80546443D01*
X242577009Y-80462778D01*
X242541271Y-80433448D01*
X242439814Y-80350186D01*
X242356552Y-80248729D01*
X242327222Y-80212991D01*
X242243557Y-80056466D01*
X242192037Y-79886627D01*
X242174641Y-79710000D01*
X242192037Y-79533373D01*
X242243557Y-79363534D01*
X242327222Y-79207009D01*
X242356552Y-79171271D01*
X242439814Y-79069814D01*
X242541271Y-78986552D01*
X242577009Y-78957222D01*
X242733534Y-78873557D01*
X242903373Y-78822037D01*
X242969558Y-78815518D01*
X243035740Y-78809000D01*
X243124260Y-78809000D01*
X243190442Y-78815518D01*
X243190442Y-78815518D01*
G37*
G36*
X240650442Y-78815518D02*
G01*
X240716627Y-78822037D01*
X240886466Y-78873557D01*
X241042991Y-78957222D01*
X241078729Y-78986552D01*
X241180186Y-79069814D01*
X241263448Y-79171271D01*
X241292778Y-79207009D01*
X241376443Y-79363534D01*
X241427963Y-79533373D01*
X241445359Y-79710000D01*
X241427963Y-79886627D01*
X241376443Y-80056466D01*
X241292778Y-80212991D01*
X241263448Y-80248729D01*
X241180186Y-80350186D01*
X241078729Y-80433448D01*
X241042991Y-80462778D01*
X240886466Y-80546443D01*
X240716627Y-80597963D01*
X240650442Y-80604482D01*
X240584260Y-80611000D01*
X240495740Y-80611000D01*
X240429558Y-80604482D01*
X240363373Y-80597963D01*
X240193534Y-80546443D01*
X240037009Y-80462778D01*
X240001271Y-80433448D01*
X239899814Y-80350186D01*
X239816552Y-80248729D01*
X239787222Y-80212991D01*
X239703557Y-80056466D01*
X239652037Y-79886627D01*
X239634641Y-79710000D01*
X239652037Y-79533373D01*
X239703557Y-79363534D01*
X239787222Y-79207009D01*
X239816552Y-79171271D01*
X239899814Y-79069814D01*
X240001271Y-78986552D01*
X240037009Y-78957222D01*
X240193534Y-78873557D01*
X240363373Y-78822037D01*
X240429558Y-78815518D01*
X240495740Y-78809000D01*
X240584260Y-78809000D01*
X240650442Y-78815518D01*
X240650442Y-78815518D01*
G37*
G36*
X238110442Y-78815518D02*
G01*
X238176627Y-78822037D01*
X238346466Y-78873557D01*
X238502991Y-78957222D01*
X238538729Y-78986552D01*
X238640186Y-79069814D01*
X238723448Y-79171271D01*
X238752778Y-79207009D01*
X238836443Y-79363534D01*
X238887963Y-79533373D01*
X238905359Y-79710000D01*
X238887963Y-79886627D01*
X238836443Y-80056466D01*
X238752778Y-80212991D01*
X238723448Y-80248729D01*
X238640186Y-80350186D01*
X238538729Y-80433448D01*
X238502991Y-80462778D01*
X238346466Y-80546443D01*
X238176627Y-80597963D01*
X238110442Y-80604482D01*
X238044260Y-80611000D01*
X237955740Y-80611000D01*
X237889558Y-80604482D01*
X237823373Y-80597963D01*
X237653534Y-80546443D01*
X237497009Y-80462778D01*
X237461271Y-80433448D01*
X237359814Y-80350186D01*
X237276552Y-80248729D01*
X237247222Y-80212991D01*
X237163557Y-80056466D01*
X237112037Y-79886627D01*
X237094641Y-79710000D01*
X237112037Y-79533373D01*
X237163557Y-79363534D01*
X237247222Y-79207009D01*
X237276552Y-79171271D01*
X237359814Y-79069814D01*
X237461271Y-78986552D01*
X237497009Y-78957222D01*
X237653534Y-78873557D01*
X237823373Y-78822037D01*
X237889558Y-78815518D01*
X237955740Y-78809000D01*
X238044260Y-78809000D01*
X238110442Y-78815518D01*
X238110442Y-78815518D01*
G37*
G36*
X230490442Y-78815518D02*
G01*
X230556627Y-78822037D01*
X230726466Y-78873557D01*
X230882991Y-78957222D01*
X230918729Y-78986552D01*
X231020186Y-79069814D01*
X231103448Y-79171271D01*
X231132778Y-79207009D01*
X231216443Y-79363534D01*
X231267963Y-79533373D01*
X231285359Y-79710000D01*
X231267963Y-79886627D01*
X231216443Y-80056466D01*
X231132778Y-80212991D01*
X231103448Y-80248729D01*
X231020186Y-80350186D01*
X230918729Y-80433448D01*
X230882991Y-80462778D01*
X230726466Y-80546443D01*
X230556627Y-80597963D01*
X230490442Y-80604482D01*
X230424260Y-80611000D01*
X230335740Y-80611000D01*
X230269558Y-80604482D01*
X230203373Y-80597963D01*
X230033534Y-80546443D01*
X229877009Y-80462778D01*
X229841271Y-80433448D01*
X229739814Y-80350186D01*
X229656552Y-80248729D01*
X229627222Y-80212991D01*
X229543557Y-80056466D01*
X229492037Y-79886627D01*
X229474641Y-79710000D01*
X229492037Y-79533373D01*
X229543557Y-79363534D01*
X229627222Y-79207009D01*
X229656552Y-79171271D01*
X229739814Y-79069814D01*
X229841271Y-78986552D01*
X229877009Y-78957222D01*
X230033534Y-78873557D01*
X230203373Y-78822037D01*
X230269558Y-78815518D01*
X230335740Y-78809000D01*
X230424260Y-78809000D01*
X230490442Y-78815518D01*
X230490442Y-78815518D01*
G37*
G36*
X225410442Y-78815518D02*
G01*
X225476627Y-78822037D01*
X225646466Y-78873557D01*
X225802991Y-78957222D01*
X225838729Y-78986552D01*
X225940186Y-79069814D01*
X226023448Y-79171271D01*
X226052778Y-79207009D01*
X226136443Y-79363534D01*
X226187963Y-79533373D01*
X226205359Y-79710000D01*
X226187963Y-79886627D01*
X226136443Y-80056466D01*
X226052778Y-80212991D01*
X226023448Y-80248729D01*
X225940186Y-80350186D01*
X225838729Y-80433448D01*
X225802991Y-80462778D01*
X225646466Y-80546443D01*
X225476627Y-80597963D01*
X225410442Y-80604482D01*
X225344260Y-80611000D01*
X225255740Y-80611000D01*
X225189558Y-80604482D01*
X225123373Y-80597963D01*
X224953534Y-80546443D01*
X224797009Y-80462778D01*
X224761271Y-80433448D01*
X224659814Y-80350186D01*
X224576552Y-80248729D01*
X224547222Y-80212991D01*
X224463557Y-80056466D01*
X224412037Y-79886627D01*
X224394641Y-79710000D01*
X224412037Y-79533373D01*
X224463557Y-79363534D01*
X224547222Y-79207009D01*
X224576552Y-79171271D01*
X224659814Y-79069814D01*
X224761271Y-78986552D01*
X224797009Y-78957222D01*
X224953534Y-78873557D01*
X225123373Y-78822037D01*
X225189558Y-78815518D01*
X225255740Y-78809000D01*
X225344260Y-78809000D01*
X225410442Y-78815518D01*
X225410442Y-78815518D01*
G37*
G36*
X233030442Y-78815518D02*
G01*
X233096627Y-78822037D01*
X233266466Y-78873557D01*
X233422991Y-78957222D01*
X233458729Y-78986552D01*
X233560186Y-79069814D01*
X233643448Y-79171271D01*
X233672778Y-79207009D01*
X233756443Y-79363534D01*
X233807963Y-79533373D01*
X233825359Y-79710000D01*
X233807963Y-79886627D01*
X233756443Y-80056466D01*
X233672778Y-80212991D01*
X233643448Y-80248729D01*
X233560186Y-80350186D01*
X233458729Y-80433448D01*
X233422991Y-80462778D01*
X233266466Y-80546443D01*
X233096627Y-80597963D01*
X233030442Y-80604482D01*
X232964260Y-80611000D01*
X232875740Y-80611000D01*
X232809558Y-80604482D01*
X232743373Y-80597963D01*
X232573534Y-80546443D01*
X232417009Y-80462778D01*
X232381271Y-80433448D01*
X232279814Y-80350186D01*
X232196552Y-80248729D01*
X232167222Y-80212991D01*
X232083557Y-80056466D01*
X232032037Y-79886627D01*
X232014641Y-79710000D01*
X232032037Y-79533373D01*
X232083557Y-79363534D01*
X232167222Y-79207009D01*
X232196552Y-79171271D01*
X232279814Y-79069814D01*
X232381271Y-78986552D01*
X232417009Y-78957222D01*
X232573534Y-78873557D01*
X232743373Y-78822037D01*
X232809558Y-78815518D01*
X232875740Y-78809000D01*
X232964260Y-78809000D01*
X233030442Y-78815518D01*
X233030442Y-78815518D01*
G37*
G36*
X227950442Y-78815518D02*
G01*
X228016627Y-78822037D01*
X228186466Y-78873557D01*
X228342991Y-78957222D01*
X228378729Y-78986552D01*
X228480186Y-79069814D01*
X228563448Y-79171271D01*
X228592778Y-79207009D01*
X228676443Y-79363534D01*
X228727963Y-79533373D01*
X228745359Y-79710000D01*
X228727963Y-79886627D01*
X228676443Y-80056466D01*
X228592778Y-80212991D01*
X228563448Y-80248729D01*
X228480186Y-80350186D01*
X228378729Y-80433448D01*
X228342991Y-80462778D01*
X228186466Y-80546443D01*
X228016627Y-80597963D01*
X227950442Y-80604482D01*
X227884260Y-80611000D01*
X227795740Y-80611000D01*
X227729558Y-80604482D01*
X227663373Y-80597963D01*
X227493534Y-80546443D01*
X227337009Y-80462778D01*
X227301271Y-80433448D01*
X227199814Y-80350186D01*
X227116552Y-80248729D01*
X227087222Y-80212991D01*
X227003557Y-80056466D01*
X226952037Y-79886627D01*
X226934641Y-79710000D01*
X226952037Y-79533373D01*
X227003557Y-79363534D01*
X227087222Y-79207009D01*
X227116552Y-79171271D01*
X227199814Y-79069814D01*
X227301271Y-78986552D01*
X227337009Y-78957222D01*
X227493534Y-78873557D01*
X227663373Y-78822037D01*
X227729558Y-78815518D01*
X227795740Y-78809000D01*
X227884260Y-78809000D01*
X227950442Y-78815518D01*
X227950442Y-78815518D01*
G37*
G36*
X52189890Y-78374017D02*
G01*
X52308364Y-78423091D01*
X52414988Y-78494335D01*
X52505665Y-78585012D01*
X52576909Y-78691636D01*
X52625983Y-78810110D01*
X52651000Y-78935882D01*
X52651000Y-79064118D01*
X52625983Y-79189890D01*
X52576909Y-79308364D01*
X52505665Y-79414988D01*
X52414988Y-79505665D01*
X52308364Y-79576909D01*
X52308363Y-79576910D01*
X52308362Y-79576910D01*
X52189890Y-79625983D01*
X52064119Y-79651000D01*
X51935881Y-79651000D01*
X51810110Y-79625983D01*
X51691638Y-79576910D01*
X51691637Y-79576910D01*
X51691636Y-79576909D01*
X51585012Y-79505665D01*
X51494335Y-79414988D01*
X51423091Y-79308364D01*
X51374017Y-79189890D01*
X51349000Y-79064118D01*
X51349000Y-78935882D01*
X51374017Y-78810110D01*
X51423091Y-78691636D01*
X51494335Y-78585012D01*
X51585012Y-78494335D01*
X51691636Y-78423091D01*
X51810110Y-78374017D01*
X51935881Y-78349000D01*
X52064119Y-78349000D01*
X52189890Y-78374017D01*
X52189890Y-78374017D01*
G37*
G36*
X50689890Y-77874017D02*
G01*
X50808364Y-77923091D01*
X50914988Y-77994335D01*
X51005665Y-78085012D01*
X51076909Y-78191636D01*
X51125983Y-78310110D01*
X51151000Y-78435882D01*
X51151000Y-78564118D01*
X51125983Y-78689890D01*
X51076909Y-78808364D01*
X51005665Y-78914988D01*
X50914988Y-79005665D01*
X50808364Y-79076909D01*
X50808363Y-79076910D01*
X50808362Y-79076910D01*
X50689890Y-79125983D01*
X50564119Y-79151000D01*
X50435881Y-79151000D01*
X50310110Y-79125983D01*
X50191638Y-79076910D01*
X50191637Y-79076910D01*
X50191636Y-79076909D01*
X50085012Y-79005665D01*
X49994335Y-78914988D01*
X49923091Y-78808364D01*
X49874017Y-78689890D01*
X49849000Y-78564118D01*
X49849000Y-78435882D01*
X49874017Y-78310110D01*
X49923091Y-78191636D01*
X49994335Y-78085012D01*
X50085012Y-77994335D01*
X50191636Y-77923091D01*
X50310110Y-77874017D01*
X50435881Y-77849000D01*
X50564119Y-77849000D01*
X50689890Y-77874017D01*
X50689890Y-77874017D01*
G37*
G36*
X303358339Y-75608710D02*
G01*
X303581911Y-75701317D01*
X303581913Y-75701318D01*
X303783123Y-75835762D01*
X303954238Y-76006877D01*
X304076523Y-76189890D01*
X304088683Y-76208089D01*
X304181290Y-76431661D01*
X304228500Y-76669002D01*
X304228500Y-76910998D01*
X304181290Y-77148339D01*
X304115006Y-77308362D01*
X304088682Y-77371913D01*
X303954238Y-77573123D01*
X303783123Y-77744238D01*
X303581913Y-77878682D01*
X303581912Y-77878683D01*
X303581911Y-77878683D01*
X303358339Y-77971290D01*
X303120998Y-78018500D01*
X302879002Y-78018500D01*
X302641661Y-77971290D01*
X302418089Y-77878683D01*
X302418088Y-77878683D01*
X302418087Y-77878682D01*
X302216877Y-77744238D01*
X302045762Y-77573123D01*
X301911318Y-77371913D01*
X301884994Y-77308362D01*
X301818710Y-77148339D01*
X301771500Y-76910998D01*
X301771500Y-76669002D01*
X301818710Y-76431661D01*
X301911317Y-76208089D01*
X301923477Y-76189890D01*
X302045762Y-76006877D01*
X302216877Y-75835762D01*
X302418087Y-75701318D01*
X302418089Y-75701317D01*
X302641661Y-75608710D01*
X302879002Y-75561500D01*
X303120998Y-75561500D01*
X303358339Y-75608710D01*
X303358339Y-75608710D01*
G37*
G36*
X52189890Y-76374017D02*
G01*
X52308364Y-76423091D01*
X52400921Y-76484936D01*
X52414988Y-76494335D01*
X52505665Y-76585012D01*
X52576910Y-76691638D01*
X52625983Y-76810110D01*
X52646051Y-76910998D01*
X52651000Y-76935882D01*
X52651000Y-77064118D01*
X52625983Y-77189890D01*
X52576909Y-77308364D01*
X52505665Y-77414988D01*
X52414988Y-77505665D01*
X52308364Y-77576909D01*
X52308363Y-77576910D01*
X52308362Y-77576910D01*
X52189890Y-77625983D01*
X52064119Y-77651000D01*
X51935881Y-77651000D01*
X51810110Y-77625983D01*
X51691638Y-77576910D01*
X51691637Y-77576910D01*
X51691636Y-77576909D01*
X51585012Y-77505665D01*
X51494335Y-77414988D01*
X51423091Y-77308364D01*
X51374017Y-77189890D01*
X51349000Y-77064118D01*
X51349000Y-76935882D01*
X51353950Y-76910998D01*
X51374017Y-76810110D01*
X51423090Y-76691638D01*
X51494335Y-76585012D01*
X51585012Y-76494335D01*
X51599079Y-76484936D01*
X51691636Y-76423091D01*
X51810110Y-76374017D01*
X51935881Y-76349000D01*
X52064119Y-76349000D01*
X52189890Y-76374017D01*
X52189890Y-76374017D01*
G37*
G36*
X50689890Y-75374017D02*
G01*
X50803710Y-75421163D01*
X50808364Y-75423091D01*
X50914988Y-75494335D01*
X51005665Y-75585012D01*
X51028266Y-75618836D01*
X51076910Y-75691638D01*
X51125983Y-75810110D01*
X51151000Y-75935881D01*
X51151000Y-76064119D01*
X51125983Y-76189890D01*
X51118446Y-76208087D01*
X51076909Y-76308364D01*
X51005665Y-76414988D01*
X50914988Y-76505665D01*
X50808364Y-76576909D01*
X50808363Y-76576910D01*
X50808362Y-76576910D01*
X50689890Y-76625983D01*
X50564119Y-76651000D01*
X50435881Y-76651000D01*
X50310110Y-76625983D01*
X50191638Y-76576910D01*
X50191637Y-76576910D01*
X50191636Y-76576909D01*
X50085012Y-76505665D01*
X49994335Y-76414988D01*
X49923091Y-76308364D01*
X49881555Y-76208087D01*
X49874017Y-76189890D01*
X49849000Y-76064119D01*
X49849000Y-75935881D01*
X49874017Y-75810110D01*
X49923090Y-75691638D01*
X49971735Y-75618836D01*
X49994335Y-75585012D01*
X50085012Y-75494335D01*
X50191636Y-75423091D01*
X50196291Y-75421163D01*
X50310110Y-75374017D01*
X50435881Y-75349000D01*
X50564119Y-75349000D01*
X50689890Y-75374017D01*
X50689890Y-75374017D01*
G37*
G36*
X309476425Y-74521988D02*
G01*
X309642710Y-74555063D01*
X309825336Y-74630709D01*
X309989694Y-74740530D01*
X310129470Y-74880306D01*
X310239291Y-75044664D01*
X310314937Y-75227290D01*
X310331063Y-75308364D01*
X310353500Y-75421163D01*
X310353500Y-75618837D01*
X310348012Y-75646425D01*
X310314937Y-75812710D01*
X310239291Y-75995336D01*
X310129470Y-76159694D01*
X309989694Y-76299470D01*
X309825336Y-76409291D01*
X309642710Y-76484937D01*
X309476425Y-76518012D01*
X309448837Y-76523500D01*
X309251163Y-76523500D01*
X309223575Y-76518012D01*
X309057290Y-76484937D01*
X308874664Y-76409291D01*
X308710306Y-76299470D01*
X308570530Y-76159694D01*
X308460709Y-75995336D01*
X308385063Y-75812710D01*
X308351988Y-75646425D01*
X308346500Y-75618837D01*
X308346500Y-75421163D01*
X308368937Y-75308364D01*
X308385063Y-75227290D01*
X308460709Y-75044664D01*
X308570530Y-74880306D01*
X308710306Y-74740530D01*
X308874664Y-74630709D01*
X309057290Y-74555063D01*
X309223575Y-74521988D01*
X309251163Y-74516500D01*
X309448837Y-74516500D01*
X309476425Y-74521988D01*
X309476425Y-74521988D01*
G37*
G36*
X312016425Y-74521988D02*
G01*
X312182710Y-74555063D01*
X312365336Y-74630709D01*
X312529694Y-74740530D01*
X312669470Y-74880306D01*
X312779291Y-75044664D01*
X312854937Y-75227290D01*
X312871063Y-75308364D01*
X312893500Y-75421163D01*
X312893500Y-75618837D01*
X312888012Y-75646425D01*
X312854937Y-75812710D01*
X312779291Y-75995336D01*
X312669470Y-76159694D01*
X312529694Y-76299470D01*
X312365336Y-76409291D01*
X312182710Y-76484937D01*
X312016425Y-76518012D01*
X311988837Y-76523500D01*
X311791163Y-76523500D01*
X311763575Y-76518012D01*
X311597290Y-76484937D01*
X311414664Y-76409291D01*
X311250306Y-76299470D01*
X311110530Y-76159694D01*
X311000709Y-75995336D01*
X310925063Y-75812710D01*
X310891988Y-75646425D01*
X310886500Y-75618837D01*
X310886500Y-75421163D01*
X310908937Y-75308364D01*
X310925063Y-75227290D01*
X311000709Y-75044664D01*
X311110530Y-74880306D01*
X311250306Y-74740530D01*
X311414664Y-74630709D01*
X311597290Y-74555063D01*
X311763575Y-74521988D01*
X311791163Y-74516500D01*
X311988837Y-74516500D01*
X312016425Y-74521988D01*
X312016425Y-74521988D01*
G37*
G36*
X306936425Y-74521988D02*
G01*
X307102710Y-74555063D01*
X307285336Y-74630709D01*
X307449694Y-74740530D01*
X307589470Y-74880306D01*
X307699291Y-75044664D01*
X307774937Y-75227290D01*
X307791063Y-75308364D01*
X307813500Y-75421163D01*
X307813500Y-75618837D01*
X307808012Y-75646425D01*
X307774937Y-75812710D01*
X307699291Y-75995336D01*
X307589470Y-76159694D01*
X307449694Y-76299470D01*
X307285336Y-76409291D01*
X307102710Y-76484937D01*
X306936425Y-76518012D01*
X306908837Y-76523500D01*
X306711163Y-76523500D01*
X306683575Y-76518012D01*
X306517290Y-76484937D01*
X306334664Y-76409291D01*
X306170306Y-76299470D01*
X306030530Y-76159694D01*
X305920709Y-75995336D01*
X305845063Y-75812710D01*
X305811988Y-75646425D01*
X305806500Y-75618837D01*
X305806500Y-75421163D01*
X305828937Y-75308364D01*
X305845063Y-75227290D01*
X305920709Y-75044664D01*
X306030530Y-74880306D01*
X306170306Y-74740530D01*
X306334664Y-74630709D01*
X306517290Y-74555063D01*
X306683575Y-74521988D01*
X306711163Y-74516500D01*
X306908837Y-74516500D01*
X306936425Y-74521988D01*
X306936425Y-74521988D01*
G37*
G36*
X52189890Y-74374017D02*
G01*
X52308364Y-74423091D01*
X52414988Y-74494335D01*
X52505665Y-74585012D01*
X52576909Y-74691636D01*
X52625983Y-74810110D01*
X52651000Y-74935882D01*
X52651000Y-75064118D01*
X52625983Y-75189890D01*
X52576909Y-75308364D01*
X52505665Y-75414988D01*
X52414988Y-75505665D01*
X52308364Y-75576909D01*
X52308363Y-75576910D01*
X52308362Y-75576910D01*
X52189890Y-75625983D01*
X52064119Y-75651000D01*
X51935881Y-75651000D01*
X51810110Y-75625983D01*
X51691638Y-75576910D01*
X51691637Y-75576910D01*
X51691636Y-75576909D01*
X51585012Y-75505665D01*
X51494335Y-75414988D01*
X51423091Y-75308364D01*
X51374017Y-75189890D01*
X51349000Y-75064118D01*
X51349000Y-74935882D01*
X51374017Y-74810110D01*
X51423091Y-74691636D01*
X51494335Y-74585012D01*
X51585012Y-74494335D01*
X51691636Y-74423091D01*
X51810110Y-74374017D01*
X51935881Y-74349000D01*
X52064119Y-74349000D01*
X52189890Y-74374017D01*
X52189890Y-74374017D01*
G37*
G36*
X294078766Y-73373821D02*
G01*
X294215257Y-73430358D01*
X294338097Y-73512437D01*
X294442563Y-73616903D01*
X294524642Y-73739743D01*
X294581179Y-73876234D01*
X294610000Y-74021130D01*
X294610000Y-74168870D01*
X294581179Y-74313766D01*
X294524642Y-74450257D01*
X294442563Y-74573097D01*
X294338097Y-74677563D01*
X294215257Y-74759642D01*
X294078766Y-74816179D01*
X293933870Y-74845000D01*
X293786130Y-74845000D01*
X293641234Y-74816179D01*
X293504743Y-74759642D01*
X293381903Y-74677563D01*
X293277437Y-74573097D01*
X293195358Y-74450257D01*
X293138821Y-74313766D01*
X293110000Y-74168870D01*
X293110000Y-74021130D01*
X293138821Y-73876234D01*
X293195358Y-73739743D01*
X293277437Y-73616903D01*
X293381903Y-73512437D01*
X293504743Y-73430358D01*
X293641234Y-73373821D01*
X293786130Y-73345000D01*
X293933870Y-73345000D01*
X294078766Y-73373821D01*
X294078766Y-73373821D01*
G37*
G36*
X50689890Y-73374017D02*
G01*
X50771133Y-73407669D01*
X50808364Y-73423091D01*
X50914988Y-73494335D01*
X51005665Y-73585012D01*
X51076909Y-73691636D01*
X51125983Y-73810110D01*
X51151000Y-73935882D01*
X51151000Y-74064118D01*
X51125983Y-74189890D01*
X51076909Y-74308364D01*
X51005665Y-74414988D01*
X50914988Y-74505665D01*
X50808364Y-74576909D01*
X50808363Y-74576910D01*
X50808362Y-74576910D01*
X50689890Y-74625983D01*
X50564119Y-74651000D01*
X50435881Y-74651000D01*
X50310110Y-74625983D01*
X50191638Y-74576910D01*
X50191637Y-74576910D01*
X50191636Y-74576909D01*
X50085012Y-74505665D01*
X49994335Y-74414988D01*
X49923091Y-74308364D01*
X49874017Y-74189890D01*
X49849000Y-74064118D01*
X49849000Y-73935882D01*
X49874017Y-73810110D01*
X49923091Y-73691636D01*
X49994335Y-73585012D01*
X50085012Y-73494335D01*
X50191636Y-73423091D01*
X50228868Y-73407669D01*
X50310110Y-73374017D01*
X50435881Y-73349000D01*
X50564119Y-73349000D01*
X50689890Y-73374017D01*
X50689890Y-73374017D01*
G37*
G36*
X296618766Y-72353821D02*
G01*
X296755257Y-72410358D01*
X296878097Y-72492437D01*
X296982563Y-72596903D01*
X297064642Y-72719743D01*
X297121179Y-72856234D01*
X297150000Y-73001130D01*
X297150000Y-73148870D01*
X297121179Y-73293766D01*
X297064642Y-73430257D01*
X296982563Y-73553097D01*
X296878097Y-73657563D01*
X296755257Y-73739642D01*
X296618766Y-73796179D01*
X296473870Y-73825000D01*
X296326130Y-73825000D01*
X296181234Y-73796179D01*
X296044743Y-73739642D01*
X295921903Y-73657563D01*
X295817437Y-73553097D01*
X295735358Y-73430257D01*
X295678821Y-73293766D01*
X295650000Y-73148870D01*
X295650000Y-73001130D01*
X295678821Y-72856234D01*
X295735358Y-72719743D01*
X295817437Y-72596903D01*
X295921903Y-72492437D01*
X296044743Y-72410358D01*
X296181234Y-72353821D01*
X296326130Y-72325000D01*
X296473870Y-72325000D01*
X296618766Y-72353821D01*
X296618766Y-72353821D01*
G37*
G36*
X52189890Y-72374017D02*
G01*
X52301523Y-72420257D01*
X52308364Y-72423091D01*
X52412147Y-72492437D01*
X52414988Y-72494335D01*
X52505665Y-72585012D01*
X52576910Y-72691638D01*
X52625983Y-72810110D01*
X52651000Y-72935881D01*
X52651000Y-73064119D01*
X52643342Y-73102618D01*
X52625983Y-73189890D01*
X52576909Y-73308364D01*
X52505665Y-73414988D01*
X52414988Y-73505665D01*
X52308364Y-73576909D01*
X52308363Y-73576910D01*
X52308362Y-73576910D01*
X52189890Y-73625983D01*
X52064119Y-73651000D01*
X51935881Y-73651000D01*
X51810110Y-73625983D01*
X51691638Y-73576910D01*
X51691637Y-73576910D01*
X51691636Y-73576909D01*
X51585012Y-73505665D01*
X51494335Y-73414988D01*
X51423091Y-73308364D01*
X51374017Y-73189890D01*
X51356658Y-73102618D01*
X51349000Y-73064119D01*
X51349000Y-72935881D01*
X51374017Y-72810110D01*
X51423090Y-72691638D01*
X51494335Y-72585012D01*
X51585012Y-72494335D01*
X51587853Y-72492437D01*
X51691636Y-72423091D01*
X51698478Y-72420257D01*
X51810110Y-72374017D01*
X51935881Y-72349000D01*
X52064119Y-72349000D01*
X52189890Y-72374017D01*
X52189890Y-72374017D01*
G37*
G36*
X236827617Y-71783420D02*
G01*
X236909846Y-71808364D01*
X236950335Y-71820646D01*
X237063424Y-71881094D01*
X237162554Y-71962447D01*
X237243906Y-72061575D01*
X237304354Y-72174664D01*
X237314040Y-72206596D01*
X237341580Y-72297382D01*
X237351000Y-72393027D01*
X237351000Y-73006973D01*
X237341580Y-73102618D01*
X237315106Y-73189890D01*
X237304354Y-73225336D01*
X237243906Y-73338425D01*
X237162554Y-73437554D01*
X237063425Y-73518906D01*
X236950336Y-73579354D01*
X236918404Y-73589040D01*
X236827618Y-73616580D01*
X236700000Y-73629149D01*
X236572383Y-73616580D01*
X236481597Y-73589040D01*
X236449665Y-73579354D01*
X236336576Y-73518906D01*
X236237447Y-73437554D01*
X236156096Y-73338427D01*
X236156095Y-73338425D01*
X236095647Y-73225336D01*
X236095645Y-73225333D01*
X236083237Y-73184427D01*
X236058420Y-73102618D01*
X236049000Y-73006973D01*
X236049000Y-72393028D01*
X236058420Y-72297383D01*
X236095645Y-72174669D01*
X236095646Y-72174665D01*
X236156094Y-72061576D01*
X236237447Y-71962446D01*
X236336575Y-71881094D01*
X236449664Y-71820646D01*
X236490153Y-71808364D01*
X236572382Y-71783420D01*
X236700000Y-71770851D01*
X236827617Y-71783420D01*
X236827617Y-71783420D01*
G37*
G36*
X240827617Y-71783420D02*
G01*
X240909846Y-71808364D01*
X240950335Y-71820646D01*
X241063424Y-71881094D01*
X241162554Y-71962447D01*
X241243906Y-72061575D01*
X241304354Y-72174664D01*
X241314040Y-72206596D01*
X241341580Y-72297382D01*
X241351000Y-72393027D01*
X241351000Y-73006973D01*
X241341580Y-73102618D01*
X241315106Y-73189890D01*
X241304354Y-73225336D01*
X241243906Y-73338425D01*
X241162554Y-73437554D01*
X241063425Y-73518906D01*
X240950336Y-73579354D01*
X240918404Y-73589040D01*
X240827618Y-73616580D01*
X240700000Y-73629149D01*
X240572383Y-73616580D01*
X240481597Y-73589040D01*
X240449665Y-73579354D01*
X240336576Y-73518906D01*
X240237447Y-73437554D01*
X240156096Y-73338427D01*
X240156095Y-73338425D01*
X240095647Y-73225336D01*
X240095645Y-73225333D01*
X240083237Y-73184427D01*
X240058420Y-73102618D01*
X240049000Y-73006973D01*
X240049000Y-72393028D01*
X240058420Y-72297383D01*
X240095645Y-72174669D01*
X240095646Y-72174665D01*
X240156094Y-72061576D01*
X240237447Y-71962446D01*
X240336575Y-71881094D01*
X240449664Y-71820646D01*
X240490153Y-71808364D01*
X240572382Y-71783420D01*
X240700000Y-71770851D01*
X240827617Y-71783420D01*
X240827617Y-71783420D01*
G37*
G36*
X238827617Y-71783420D02*
G01*
X238909846Y-71808364D01*
X238950335Y-71820646D01*
X239063424Y-71881094D01*
X239162554Y-71962447D01*
X239243906Y-72061575D01*
X239304354Y-72174664D01*
X239314040Y-72206596D01*
X239341580Y-72297382D01*
X239351000Y-72393027D01*
X239351000Y-73006973D01*
X239341580Y-73102618D01*
X239315106Y-73189890D01*
X239304354Y-73225336D01*
X239243906Y-73338425D01*
X239162554Y-73437554D01*
X239063425Y-73518906D01*
X238950336Y-73579354D01*
X238918404Y-73589040D01*
X238827618Y-73616580D01*
X238700000Y-73629149D01*
X238572383Y-73616580D01*
X238481597Y-73589040D01*
X238449665Y-73579354D01*
X238336576Y-73518906D01*
X238237447Y-73437554D01*
X238156096Y-73338427D01*
X238156095Y-73338425D01*
X238095647Y-73225336D01*
X238095645Y-73225333D01*
X238083237Y-73184427D01*
X238058420Y-73102618D01*
X238049000Y-73006973D01*
X238049000Y-72393028D01*
X238058420Y-72297383D01*
X238095645Y-72174669D01*
X238095646Y-72174665D01*
X238156094Y-72061576D01*
X238237447Y-71962446D01*
X238336575Y-71881094D01*
X238449664Y-71820646D01*
X238490153Y-71808364D01*
X238572382Y-71783420D01*
X238700000Y-71770851D01*
X238827617Y-71783420D01*
X238827617Y-71783420D01*
G37*
G36*
X235191242Y-71778404D02*
G01*
X235228337Y-71789657D01*
X235262515Y-71807925D01*
X235292481Y-71832519D01*
X235317075Y-71862485D01*
X235335343Y-71896663D01*
X235346596Y-71933758D01*
X235351000Y-71978474D01*
X235351000Y-73421526D01*
X235346596Y-73466242D01*
X235335343Y-73503337D01*
X235317075Y-73537515D01*
X235292481Y-73567481D01*
X235262515Y-73592075D01*
X235228337Y-73610343D01*
X235191242Y-73621596D01*
X235146526Y-73626000D01*
X234253474Y-73626000D01*
X234208758Y-73621596D01*
X234171663Y-73610343D01*
X234137485Y-73592075D01*
X234107519Y-73567481D01*
X234082925Y-73537515D01*
X234064657Y-73503337D01*
X234053404Y-73466242D01*
X234049000Y-73421526D01*
X234049000Y-71978474D01*
X234053404Y-71933758D01*
X234064657Y-71896663D01*
X234082925Y-71862485D01*
X234107519Y-71832519D01*
X234137485Y-71807925D01*
X234171663Y-71789657D01*
X234208758Y-71778404D01*
X234253474Y-71774000D01*
X235146526Y-71774000D01*
X235191242Y-71778404D01*
X235191242Y-71778404D01*
G37*
G36*
X294078766Y-71343821D02*
G01*
X294215257Y-71400358D01*
X294338097Y-71482437D01*
X294442563Y-71586903D01*
X294524642Y-71709743D01*
X294581179Y-71846234D01*
X294610000Y-71991130D01*
X294610000Y-72138870D01*
X294581179Y-72283766D01*
X294524642Y-72420257D01*
X294442563Y-72543097D01*
X294338097Y-72647563D01*
X294215257Y-72729642D01*
X294078766Y-72786179D01*
X293933870Y-72815000D01*
X293786130Y-72815000D01*
X293641234Y-72786179D01*
X293504743Y-72729642D01*
X293381903Y-72647563D01*
X293277437Y-72543097D01*
X293195358Y-72420257D01*
X293138821Y-72283766D01*
X293110000Y-72138870D01*
X293110000Y-71991130D01*
X293138821Y-71846234D01*
X293195358Y-71709743D01*
X293277437Y-71586903D01*
X293381903Y-71482437D01*
X293504743Y-71400358D01*
X293641234Y-71343821D01*
X293786130Y-71315000D01*
X293933870Y-71315000D01*
X294078766Y-71343821D01*
X294078766Y-71343821D01*
G37*
G36*
X50689890Y-70874017D02*
G01*
X50808364Y-70923091D01*
X50914988Y-70994335D01*
X51005665Y-71085012D01*
X51028288Y-71118869D01*
X51076910Y-71191638D01*
X51125983Y-71310110D01*
X51151000Y-71435881D01*
X51151000Y-71564119D01*
X51125983Y-71689890D01*
X51082591Y-71794648D01*
X51076909Y-71808364D01*
X51005665Y-71914988D01*
X50914988Y-72005665D01*
X50808364Y-72076909D01*
X50808363Y-72076910D01*
X50808362Y-72076910D01*
X50689890Y-72125983D01*
X50564119Y-72151000D01*
X50435881Y-72151000D01*
X50310110Y-72125983D01*
X50191638Y-72076910D01*
X50191637Y-72076910D01*
X50191636Y-72076909D01*
X50085012Y-72005665D01*
X49994335Y-71914988D01*
X49923091Y-71808364D01*
X49917410Y-71794648D01*
X49874017Y-71689890D01*
X49849000Y-71564119D01*
X49849000Y-71435881D01*
X49874017Y-71310110D01*
X49923090Y-71191638D01*
X49971713Y-71118869D01*
X49994335Y-71085012D01*
X50085012Y-70994335D01*
X50191636Y-70923091D01*
X50310110Y-70874017D01*
X50435881Y-70849000D01*
X50564119Y-70849000D01*
X50689890Y-70874017D01*
X50689890Y-70874017D01*
G37*
G36*
X296618766Y-70323821D02*
G01*
X296755257Y-70380358D01*
X296878097Y-70462437D01*
X296982563Y-70566903D01*
X297064642Y-70689743D01*
X297121179Y-70826234D01*
X297150000Y-70971130D01*
X297150000Y-71118870D01*
X297121179Y-71263766D01*
X297064642Y-71400257D01*
X296982563Y-71523097D01*
X296878097Y-71627563D01*
X296755257Y-71709642D01*
X296618766Y-71766179D01*
X296473870Y-71795000D01*
X296326130Y-71795000D01*
X296181234Y-71766179D01*
X296044743Y-71709642D01*
X295921903Y-71627563D01*
X295817437Y-71523097D01*
X295735358Y-71400257D01*
X295678821Y-71263766D01*
X295650000Y-71118870D01*
X295650000Y-70971130D01*
X295678821Y-70826234D01*
X295735358Y-70689743D01*
X295817437Y-70566903D01*
X295921903Y-70462437D01*
X296044743Y-70380358D01*
X296181234Y-70323821D01*
X296326130Y-70295000D01*
X296473870Y-70295000D01*
X296618766Y-70323821D01*
X296618766Y-70323821D01*
G37*
G36*
X52189890Y-70374017D02*
G01*
X52229097Y-70390257D01*
X52308364Y-70423091D01*
X52367249Y-70462437D01*
X52414988Y-70494335D01*
X52505665Y-70585012D01*
X52576910Y-70691638D01*
X52625983Y-70810110D01*
X52651000Y-70935881D01*
X52651000Y-71064119D01*
X52625983Y-71189890D01*
X52576909Y-71308364D01*
X52505665Y-71414988D01*
X52414988Y-71505665D01*
X52308364Y-71576909D01*
X52308363Y-71576910D01*
X52308362Y-71576910D01*
X52189890Y-71625983D01*
X52064119Y-71651000D01*
X51935881Y-71651000D01*
X51810110Y-71625983D01*
X51691638Y-71576910D01*
X51691637Y-71576910D01*
X51691636Y-71576909D01*
X51585012Y-71505665D01*
X51494335Y-71414988D01*
X51423091Y-71308364D01*
X51374017Y-71189890D01*
X51349000Y-71064119D01*
X51349000Y-70935881D01*
X51374017Y-70810110D01*
X51423090Y-70691638D01*
X51494335Y-70585012D01*
X51585012Y-70494335D01*
X51632751Y-70462437D01*
X51691636Y-70423091D01*
X51770904Y-70390257D01*
X51810110Y-70374017D01*
X51935881Y-70349000D01*
X52064119Y-70349000D01*
X52189890Y-70374017D01*
X52189890Y-70374017D01*
G37*
G36*
X294078766Y-69313821D02*
G01*
X294215257Y-69370358D01*
X294338097Y-69452437D01*
X294442563Y-69556903D01*
X294524642Y-69679743D01*
X294581179Y-69816234D01*
X294610000Y-69961130D01*
X294610000Y-70108870D01*
X294581179Y-70253766D01*
X294524642Y-70390257D01*
X294442563Y-70513097D01*
X294338097Y-70617563D01*
X294215257Y-70699642D01*
X294078766Y-70756179D01*
X293933870Y-70785000D01*
X293786130Y-70785000D01*
X293641234Y-70756179D01*
X293504743Y-70699642D01*
X293381903Y-70617563D01*
X293277437Y-70513097D01*
X293195358Y-70390257D01*
X293138821Y-70253766D01*
X293110000Y-70108870D01*
X293110000Y-69961130D01*
X293138821Y-69816234D01*
X293195358Y-69679743D01*
X293277437Y-69556903D01*
X293381903Y-69452437D01*
X293504743Y-69370358D01*
X293641234Y-69313821D01*
X293786130Y-69285000D01*
X293933870Y-69285000D01*
X294078766Y-69313821D01*
X294078766Y-69313821D01*
G37*
G36*
X296618766Y-68293821D02*
G01*
X296755257Y-68350358D01*
X296878097Y-68432437D01*
X296982563Y-68536903D01*
X297064642Y-68659743D01*
X297121179Y-68796234D01*
X297150000Y-68941130D01*
X297150000Y-69088870D01*
X297121179Y-69233766D01*
X297064642Y-69370257D01*
X296982563Y-69493097D01*
X296878097Y-69597563D01*
X296755257Y-69679642D01*
X296618766Y-69736179D01*
X296473870Y-69765000D01*
X296326130Y-69765000D01*
X296181234Y-69736179D01*
X296044743Y-69679642D01*
X295921903Y-69597563D01*
X295817437Y-69493097D01*
X295735358Y-69370257D01*
X295678821Y-69233766D01*
X295650000Y-69088870D01*
X295650000Y-68941130D01*
X295678821Y-68796234D01*
X295735358Y-68659743D01*
X295817437Y-68536903D01*
X295921903Y-68432437D01*
X296044743Y-68350358D01*
X296181234Y-68293821D01*
X296326130Y-68265000D01*
X296473870Y-68265000D01*
X296618766Y-68293821D01*
X296618766Y-68293821D01*
G37*
G36*
X43263855Y-67952140D02*
G01*
X43327618Y-67958420D01*
X43418404Y-67985960D01*
X43450336Y-67995646D01*
X43563425Y-68056094D01*
X43662554Y-68137446D01*
X43743906Y-68236575D01*
X43804354Y-68349664D01*
X43804565Y-68350359D01*
X43841580Y-68472382D01*
X43854149Y-68600000D01*
X43841580Y-68727618D01*
X43820766Y-68796233D01*
X43804354Y-68850336D01*
X43743906Y-68963425D01*
X43662554Y-69062554D01*
X43563425Y-69143906D01*
X43450336Y-69204354D01*
X43418404Y-69214040D01*
X43327618Y-69241580D01*
X43263855Y-69247860D01*
X43231974Y-69251000D01*
X42268026Y-69251000D01*
X42236145Y-69247860D01*
X42172382Y-69241580D01*
X42081596Y-69214040D01*
X42049664Y-69204354D01*
X41936575Y-69143906D01*
X41837446Y-69062554D01*
X41756094Y-68963425D01*
X41695646Y-68850336D01*
X41679234Y-68796233D01*
X41658420Y-68727618D01*
X41645851Y-68600000D01*
X41658420Y-68472382D01*
X41695435Y-68350359D01*
X41695646Y-68349664D01*
X41756094Y-68236575D01*
X41837446Y-68137446D01*
X41936575Y-68056094D01*
X42049664Y-67995646D01*
X42081596Y-67985960D01*
X42172382Y-67958420D01*
X42236145Y-67952140D01*
X42268026Y-67949000D01*
X43231974Y-67949000D01*
X43263855Y-67952140D01*
X43263855Y-67952140D01*
G37*
G36*
X51913855Y-67952140D02*
G01*
X51977618Y-67958420D01*
X52068404Y-67985960D01*
X52100336Y-67995646D01*
X52213425Y-68056094D01*
X52312554Y-68137446D01*
X52393906Y-68236575D01*
X52454354Y-68349664D01*
X52454565Y-68350359D01*
X52491580Y-68472382D01*
X52504149Y-68600000D01*
X52491580Y-68727618D01*
X52470766Y-68796233D01*
X52454354Y-68850336D01*
X52393906Y-68963425D01*
X52312554Y-69062554D01*
X52213425Y-69143906D01*
X52100336Y-69204354D01*
X52068404Y-69214040D01*
X51977618Y-69241580D01*
X51913855Y-69247860D01*
X51881974Y-69251000D01*
X50618026Y-69251000D01*
X50586145Y-69247860D01*
X50522382Y-69241580D01*
X50431596Y-69214040D01*
X50399664Y-69204354D01*
X50286575Y-69143906D01*
X50187446Y-69062554D01*
X50106094Y-68963425D01*
X50045646Y-68850336D01*
X50029234Y-68796233D01*
X50008420Y-68727618D01*
X49995851Y-68600000D01*
X50008420Y-68472382D01*
X50045435Y-68350359D01*
X50045646Y-68349664D01*
X50106094Y-68236575D01*
X50187446Y-68137446D01*
X50286575Y-68056094D01*
X50399664Y-67995646D01*
X50431596Y-67985960D01*
X50522382Y-67958420D01*
X50586145Y-67952140D01*
X50618026Y-67949000D01*
X51881974Y-67949000D01*
X51913855Y-67952140D01*
X51913855Y-67952140D01*
G37*
G36*
X296618766Y-66263821D02*
G01*
X296755257Y-66320358D01*
X296878097Y-66402437D01*
X296982563Y-66506903D01*
X297064642Y-66629743D01*
X297121179Y-66766234D01*
X297150000Y-66911130D01*
X297150000Y-67058870D01*
X297121179Y-67203766D01*
X297064642Y-67340257D01*
X296982563Y-67463097D01*
X296878097Y-67567563D01*
X296755257Y-67649642D01*
X296618766Y-67706179D01*
X296473870Y-67735000D01*
X296326130Y-67735000D01*
X296181234Y-67706179D01*
X296044743Y-67649642D01*
X295921903Y-67567563D01*
X295817437Y-67463097D01*
X295735358Y-67340257D01*
X295678821Y-67203766D01*
X295650000Y-67058870D01*
X295650000Y-66911130D01*
X295678821Y-66766234D01*
X295735358Y-66629743D01*
X295817437Y-66506903D01*
X295921903Y-66402437D01*
X296044743Y-66320358D01*
X296181234Y-66263821D01*
X296326130Y-66235000D01*
X296473870Y-66235000D01*
X296618766Y-66263821D01*
X296618766Y-66263821D01*
G37*
G36*
X294078766Y-65243821D02*
G01*
X294215257Y-65300358D01*
X294338097Y-65382437D01*
X294442563Y-65486903D01*
X294524642Y-65609743D01*
X294581179Y-65746234D01*
X294610000Y-65891130D01*
X294610000Y-66038870D01*
X294581179Y-66183766D01*
X294524642Y-66320257D01*
X294442563Y-66443097D01*
X294338097Y-66547563D01*
X294215257Y-66629642D01*
X294078766Y-66686179D01*
X293933870Y-66715000D01*
X293786130Y-66715000D01*
X293641234Y-66686179D01*
X293504743Y-66629642D01*
X293381903Y-66547563D01*
X293277437Y-66443097D01*
X293195358Y-66320257D01*
X293138821Y-66183766D01*
X293110000Y-66038870D01*
X293110000Y-65891130D01*
X293138821Y-65746234D01*
X293195358Y-65609743D01*
X293277437Y-65486903D01*
X293381903Y-65382437D01*
X293504743Y-65300358D01*
X293641234Y-65243821D01*
X293786130Y-65215000D01*
X293933870Y-65215000D01*
X294078766Y-65243821D01*
X294078766Y-65243821D01*
G37*
G36*
X296618766Y-64233821D02*
G01*
X296755257Y-64290358D01*
X296878097Y-64372437D01*
X296982563Y-64476903D01*
X297064642Y-64599743D01*
X297121179Y-64736234D01*
X297150000Y-64881130D01*
X297150000Y-65028870D01*
X297121179Y-65173766D01*
X297064642Y-65310257D01*
X296982563Y-65433097D01*
X296878097Y-65537563D01*
X296755257Y-65619642D01*
X296618766Y-65676179D01*
X296473870Y-65705000D01*
X296326130Y-65705000D01*
X296181234Y-65676179D01*
X296044743Y-65619642D01*
X295921903Y-65537563D01*
X295817437Y-65433097D01*
X295735358Y-65310257D01*
X295678821Y-65173766D01*
X295650000Y-65028870D01*
X295650000Y-64881130D01*
X295678821Y-64736234D01*
X295735358Y-64599743D01*
X295817437Y-64476903D01*
X295921903Y-64372437D01*
X296044743Y-64290358D01*
X296181234Y-64233821D01*
X296326130Y-64205000D01*
X296473870Y-64205000D01*
X296618766Y-64233821D01*
X296618766Y-64233821D01*
G37*
G36*
X294078766Y-63213821D02*
G01*
X294215257Y-63270358D01*
X294338097Y-63352437D01*
X294442563Y-63456903D01*
X294524642Y-63579743D01*
X294581179Y-63716234D01*
X294610000Y-63861130D01*
X294610000Y-64008870D01*
X294581179Y-64153766D01*
X294524642Y-64290257D01*
X294442563Y-64413097D01*
X294338097Y-64517563D01*
X294215257Y-64599642D01*
X294078766Y-64656179D01*
X293933870Y-64685000D01*
X293786130Y-64685000D01*
X293641234Y-64656179D01*
X293504743Y-64599642D01*
X293381903Y-64517563D01*
X293277437Y-64413097D01*
X293195358Y-64290257D01*
X293138821Y-64153766D01*
X293110000Y-64008870D01*
X293110000Y-63861130D01*
X293138821Y-63716234D01*
X293195358Y-63579743D01*
X293277437Y-63456903D01*
X293381903Y-63352437D01*
X293504743Y-63270358D01*
X293641234Y-63213821D01*
X293786130Y-63185000D01*
X293933870Y-63185000D01*
X294078766Y-63213821D01*
X294078766Y-63213821D01*
G37*
G36*
X49681209Y-62014534D02*
G01*
X49773272Y-62023601D01*
X49950463Y-62077351D01*
X49950466Y-62077352D01*
X50113759Y-62164634D01*
X50113762Y-62164636D01*
X50113763Y-62164637D01*
X50230277Y-62260258D01*
X50256896Y-62282104D01*
X50374366Y-62425241D01*
X50461648Y-62588534D01*
X50461649Y-62588537D01*
X50515399Y-62765728D01*
X50533548Y-62950000D01*
X50515399Y-63134272D01*
X50461649Y-63311463D01*
X50461648Y-63311466D01*
X50374366Y-63474759D01*
X50374364Y-63474762D01*
X50374363Y-63474763D01*
X50256896Y-63617896D01*
X50137072Y-63716234D01*
X50113759Y-63735366D01*
X49950466Y-63822648D01*
X49950463Y-63822649D01*
X49773272Y-63876399D01*
X49681209Y-63885466D01*
X49635178Y-63890000D01*
X47764822Y-63890000D01*
X47718791Y-63885466D01*
X47626728Y-63876399D01*
X47449537Y-63822649D01*
X47449534Y-63822648D01*
X47286241Y-63735366D01*
X47262929Y-63716234D01*
X47143104Y-63617896D01*
X47025637Y-63474763D01*
X47025636Y-63474762D01*
X47025634Y-63474759D01*
X46938352Y-63311466D01*
X46938351Y-63311463D01*
X46884601Y-63134272D01*
X46866452Y-62950000D01*
X46884601Y-62765728D01*
X46938351Y-62588537D01*
X46938352Y-62588534D01*
X47025634Y-62425241D01*
X47143104Y-62282104D01*
X47169723Y-62260258D01*
X47286237Y-62164637D01*
X47286238Y-62164636D01*
X47286241Y-62164634D01*
X47449534Y-62077352D01*
X47449537Y-62077351D01*
X47626728Y-62023601D01*
X47718791Y-62014534D01*
X47764822Y-62010000D01*
X49635178Y-62010000D01*
X49681209Y-62014534D01*
X49681209Y-62014534D01*
G37*
G36*
X43528571Y-62152863D02*
G01*
X43607023Y-62160590D01*
X43707682Y-62191125D01*
X43758013Y-62206392D01*
X43897165Y-62280771D01*
X44019133Y-62380867D01*
X44119229Y-62502835D01*
X44193608Y-62641987D01*
X44193608Y-62641988D01*
X44239410Y-62792977D01*
X44254875Y-62950000D01*
X44239410Y-63107023D01*
X44231144Y-63134272D01*
X44193608Y-63258013D01*
X44119229Y-63397165D01*
X44019133Y-63519133D01*
X43897165Y-63619229D01*
X43758013Y-63693608D01*
X43707682Y-63708875D01*
X43607023Y-63739410D01*
X43528571Y-63747137D01*
X43489346Y-63751000D01*
X41910654Y-63751000D01*
X41871429Y-63747137D01*
X41792977Y-63739410D01*
X41692318Y-63708875D01*
X41641987Y-63693608D01*
X41502835Y-63619229D01*
X41380867Y-63519133D01*
X41280771Y-63397165D01*
X41206392Y-63258013D01*
X41168856Y-63134272D01*
X41160590Y-63107023D01*
X41145125Y-62950000D01*
X41160590Y-62792977D01*
X41206392Y-62641988D01*
X41206392Y-62641987D01*
X41280771Y-62502835D01*
X41380867Y-62380867D01*
X41502835Y-62280771D01*
X41641987Y-62206392D01*
X41692318Y-62191125D01*
X41792977Y-62160590D01*
X41871429Y-62152863D01*
X41910654Y-62149000D01*
X43489346Y-62149000D01*
X43528571Y-62152863D01*
X43528571Y-62152863D01*
G37*
G36*
X297150000Y-63675000D02*
G01*
X295650000Y-63675000D01*
X295650000Y-62175000D01*
X297150000Y-62175000D01*
X297150000Y-63675000D01*
X297150000Y-63675000D01*
G37*
G36*
X294078766Y-61183821D02*
G01*
X294215257Y-61240358D01*
X294338097Y-61322437D01*
X294442563Y-61426903D01*
X294524642Y-61549743D01*
X294581179Y-61686234D01*
X294610000Y-61831130D01*
X294610000Y-61978870D01*
X294581179Y-62123766D01*
X294524642Y-62260257D01*
X294442563Y-62383097D01*
X294338097Y-62487563D01*
X294215257Y-62569642D01*
X294078766Y-62626179D01*
X293933870Y-62655000D01*
X293786130Y-62655000D01*
X293641234Y-62626179D01*
X293504743Y-62569642D01*
X293381903Y-62487563D01*
X293277437Y-62383097D01*
X293195358Y-62260257D01*
X293138821Y-62123766D01*
X293110000Y-61978870D01*
X293110000Y-61831130D01*
X293138821Y-61686234D01*
X293195358Y-61549743D01*
X293277437Y-61426903D01*
X293381903Y-61322437D01*
X293504743Y-61240358D01*
X293641234Y-61183821D01*
X293786130Y-61155000D01*
X293933870Y-61155000D01*
X294078766Y-61183821D01*
X294078766Y-61183821D01*
G37*
G36*
X309476425Y-59481988D02*
G01*
X309642710Y-59515063D01*
X309825336Y-59590709D01*
X309989694Y-59700530D01*
X310129470Y-59840306D01*
X310239291Y-60004664D01*
X310314937Y-60187290D01*
X310353500Y-60381164D01*
X310353500Y-60578836D01*
X310314937Y-60772710D01*
X310239291Y-60955336D01*
X310129470Y-61119694D01*
X309989694Y-61259470D01*
X309825336Y-61369291D01*
X309642710Y-61444937D01*
X309476425Y-61478012D01*
X309448837Y-61483500D01*
X309251163Y-61483500D01*
X309223575Y-61478012D01*
X309057290Y-61444937D01*
X308874664Y-61369291D01*
X308710306Y-61259470D01*
X308570530Y-61119694D01*
X308460709Y-60955336D01*
X308385063Y-60772710D01*
X308346500Y-60578836D01*
X308346500Y-60381164D01*
X308385063Y-60187290D01*
X308460709Y-60004664D01*
X308570530Y-59840306D01*
X308710306Y-59700530D01*
X308874664Y-59590709D01*
X309057290Y-59515063D01*
X309223575Y-59481988D01*
X309251163Y-59476500D01*
X309448837Y-59476500D01*
X309476425Y-59481988D01*
X309476425Y-59481988D01*
G37*
G36*
X312016425Y-59481988D02*
G01*
X312182710Y-59515063D01*
X312365336Y-59590709D01*
X312529694Y-59700530D01*
X312669470Y-59840306D01*
X312779291Y-60004664D01*
X312854937Y-60187290D01*
X312893500Y-60381164D01*
X312893500Y-60578836D01*
X312854937Y-60772710D01*
X312779291Y-60955336D01*
X312669470Y-61119694D01*
X312529694Y-61259470D01*
X312365336Y-61369291D01*
X312182710Y-61444937D01*
X312016425Y-61478012D01*
X311988837Y-61483500D01*
X311791163Y-61483500D01*
X311763575Y-61478012D01*
X311597290Y-61444937D01*
X311414664Y-61369291D01*
X311250306Y-61259470D01*
X311110530Y-61119694D01*
X311000709Y-60955336D01*
X310925063Y-60772710D01*
X310886500Y-60578836D01*
X310886500Y-60381164D01*
X310925063Y-60187290D01*
X311000709Y-60004664D01*
X311110530Y-59840306D01*
X311250306Y-59700530D01*
X311414664Y-59590709D01*
X311597290Y-59515063D01*
X311763575Y-59481988D01*
X311791163Y-59476500D01*
X311988837Y-59476500D01*
X312016425Y-59481988D01*
X312016425Y-59481988D01*
G37*
G36*
X303358339Y-58028710D02*
G01*
X303581911Y-58121317D01*
X303581913Y-58121318D01*
X303783123Y-58255762D01*
X303954238Y-58426877D01*
X304088682Y-58628087D01*
X304088683Y-58628089D01*
X304181290Y-58851661D01*
X304228500Y-59089002D01*
X304228500Y-59330998D01*
X304181290Y-59568339D01*
X304126534Y-59700530D01*
X304088682Y-59791913D01*
X303954238Y-59993123D01*
X303783123Y-60164238D01*
X303581913Y-60298682D01*
X303581912Y-60298683D01*
X303581911Y-60298683D01*
X303358339Y-60391290D01*
X303120998Y-60438500D01*
X302879002Y-60438500D01*
X302641661Y-60391290D01*
X302418089Y-60298683D01*
X302418088Y-60298683D01*
X302418087Y-60298682D01*
X302216877Y-60164238D01*
X302045762Y-59993123D01*
X301911318Y-59791913D01*
X301873466Y-59700530D01*
X301818710Y-59568339D01*
X301771500Y-59330998D01*
X301771500Y-59089002D01*
X301818710Y-58851661D01*
X301911317Y-58628089D01*
X301911318Y-58628087D01*
X302045762Y-58426877D01*
X302216877Y-58255762D01*
X302418087Y-58121318D01*
X302418089Y-58121317D01*
X302641661Y-58028710D01*
X302879002Y-57981500D01*
X303120998Y-57981500D01*
X303358339Y-58028710D01*
X303358339Y-58028710D01*
G37*
G36*
X302706031Y-49464207D02*
G01*
X302874618Y-49515348D01*
X302904148Y-49524306D01*
X302970030Y-49559521D01*
X303086729Y-49621897D01*
X303246765Y-49753235D01*
X303378103Y-49913271D01*
X303378104Y-49913273D01*
X303475694Y-50095851D01*
X303475694Y-50095852D01*
X303475695Y-50095854D01*
X303535793Y-50293968D01*
X303551000Y-50448370D01*
X303551000Y-52551630D01*
X303535793Y-52706032D01*
X303475695Y-52904146D01*
X303475694Y-52904149D01*
X303436239Y-52977963D01*
X303378103Y-53086729D01*
X303246765Y-53246765D01*
X303086729Y-53378103D01*
X303048258Y-53398666D01*
X302904149Y-53475694D01*
X302904146Y-53475695D01*
X302706032Y-53535793D01*
X302500000Y-53556085D01*
X302293969Y-53535793D01*
X302095855Y-53475695D01*
X302095852Y-53475694D01*
X301951743Y-53398666D01*
X301913272Y-53378103D01*
X301753236Y-53246765D01*
X301621898Y-53086729D01*
X301563762Y-52977963D01*
X301524307Y-52904149D01*
X301524306Y-52904146D01*
X301464208Y-52706032D01*
X301449001Y-52551630D01*
X301449000Y-50448371D01*
X301464207Y-50293969D01*
X301524305Y-50095855D01*
X301524306Y-50095852D01*
X301565427Y-50018921D01*
X301621897Y-49913271D01*
X301753235Y-49753235D01*
X301913271Y-49621897D01*
X302013554Y-49568295D01*
X302095851Y-49524306D01*
X302125381Y-49515348D01*
X302293968Y-49464207D01*
X302500000Y-49443915D01*
X302706031Y-49464207D01*
X302706031Y-49464207D01*
G37*
G36*
X308931528Y-49462398D02*
G01*
X309106074Y-49515347D01*
X309106077Y-49515349D01*
X309106078Y-49515349D01*
X309170906Y-49550000D01*
X309266950Y-49601336D01*
X309407949Y-49717051D01*
X309523667Y-49858053D01*
X309609652Y-50018921D01*
X309662602Y-50193471D01*
X309676000Y-50329510D01*
X309676000Y-52670490D01*
X309662602Y-52806529D01*
X309609652Y-52981079D01*
X309523667Y-53141947D01*
X309407949Y-53282949D01*
X309266947Y-53398667D01*
X309106079Y-53484652D01*
X308931529Y-53537602D01*
X308750000Y-53555480D01*
X308568472Y-53537602D01*
X308393922Y-53484652D01*
X308233054Y-53398667D01*
X308092052Y-53282949D01*
X307976334Y-53141947D01*
X307890349Y-52981079D01*
X307837399Y-52806529D01*
X307824001Y-52670490D01*
X307824000Y-50329511D01*
X307837398Y-50193472D01*
X307890347Y-50018926D01*
X307976336Y-49858050D01*
X308092051Y-49717051D01*
X308233053Y-49601333D01*
X308393921Y-49515348D01*
X308568471Y-49462398D01*
X308750000Y-49444520D01*
X308931528Y-49462398D01*
X308931528Y-49462398D01*
G37*
G36*
X223820443Y-51195519D02*
G01*
X223886627Y-51202037D01*
X224056466Y-51253557D01*
X224212991Y-51337222D01*
X224248729Y-51366552D01*
X224350186Y-51449814D01*
X224433448Y-51551271D01*
X224462778Y-51587009D01*
X224546443Y-51743534D01*
X224597963Y-51913373D01*
X224615359Y-52090000D01*
X224597963Y-52266627D01*
X224546443Y-52436466D01*
X224462778Y-52592991D01*
X224433448Y-52628729D01*
X224350186Y-52730186D01*
X224257160Y-52806529D01*
X224212991Y-52842778D01*
X224056466Y-52926443D01*
X223886627Y-52977963D01*
X223820443Y-52984481D01*
X223754260Y-52991000D01*
X223665740Y-52991000D01*
X223599557Y-52984481D01*
X223533373Y-52977963D01*
X223363534Y-52926443D01*
X223207009Y-52842778D01*
X223162840Y-52806529D01*
X223069814Y-52730186D01*
X222986552Y-52628729D01*
X222957222Y-52592991D01*
X222873557Y-52436466D01*
X222822037Y-52266627D01*
X222804641Y-52090000D01*
X222822037Y-51913373D01*
X222873557Y-51743534D01*
X222957222Y-51587009D01*
X222986552Y-51551271D01*
X223069814Y-51449814D01*
X223171271Y-51366552D01*
X223207009Y-51337222D01*
X223363534Y-51253557D01*
X223533373Y-51202037D01*
X223599558Y-51195518D01*
X223665740Y-51189000D01*
X223754260Y-51189000D01*
X223820443Y-51195519D01*
X223820443Y-51195519D01*
G37*
G36*
X218740443Y-51195519D02*
G01*
X218806627Y-51202037D01*
X218976466Y-51253557D01*
X219132991Y-51337222D01*
X219168729Y-51366552D01*
X219270186Y-51449814D01*
X219353448Y-51551271D01*
X219382778Y-51587009D01*
X219466443Y-51743534D01*
X219517963Y-51913373D01*
X219535359Y-52090000D01*
X219517963Y-52266627D01*
X219466443Y-52436466D01*
X219382778Y-52592991D01*
X219353448Y-52628729D01*
X219270186Y-52730186D01*
X219177160Y-52806529D01*
X219132991Y-52842778D01*
X218976466Y-52926443D01*
X218806627Y-52977963D01*
X218740443Y-52984481D01*
X218674260Y-52991000D01*
X218585740Y-52991000D01*
X218519557Y-52984481D01*
X218453373Y-52977963D01*
X218283534Y-52926443D01*
X218127009Y-52842778D01*
X218082840Y-52806529D01*
X217989814Y-52730186D01*
X217906552Y-52628729D01*
X217877222Y-52592991D01*
X217793557Y-52436466D01*
X217742037Y-52266627D01*
X217724641Y-52090000D01*
X217742037Y-51913373D01*
X217793557Y-51743534D01*
X217877222Y-51587009D01*
X217906552Y-51551271D01*
X217989814Y-51449814D01*
X218091271Y-51366552D01*
X218127009Y-51337222D01*
X218283534Y-51253557D01*
X218453373Y-51202037D01*
X218519558Y-51195518D01*
X218585740Y-51189000D01*
X218674260Y-51189000D01*
X218740443Y-51195519D01*
X218740443Y-51195519D01*
G37*
G36*
X226360443Y-51195519D02*
G01*
X226426627Y-51202037D01*
X226596466Y-51253557D01*
X226752991Y-51337222D01*
X226788729Y-51366552D01*
X226890186Y-51449814D01*
X226973448Y-51551271D01*
X227002778Y-51587009D01*
X227086443Y-51743534D01*
X227137963Y-51913373D01*
X227155359Y-52090000D01*
X227137963Y-52266627D01*
X227086443Y-52436466D01*
X227002778Y-52592991D01*
X226973448Y-52628729D01*
X226890186Y-52730186D01*
X226797160Y-52806529D01*
X226752991Y-52842778D01*
X226596466Y-52926443D01*
X226426627Y-52977963D01*
X226360443Y-52984481D01*
X226294260Y-52991000D01*
X226205740Y-52991000D01*
X226139557Y-52984481D01*
X226073373Y-52977963D01*
X225903534Y-52926443D01*
X225747009Y-52842778D01*
X225702840Y-52806529D01*
X225609814Y-52730186D01*
X225526552Y-52628729D01*
X225497222Y-52592991D01*
X225413557Y-52436466D01*
X225362037Y-52266627D01*
X225344641Y-52090000D01*
X225362037Y-51913373D01*
X225413557Y-51743534D01*
X225497222Y-51587009D01*
X225526552Y-51551271D01*
X225609814Y-51449814D01*
X225711271Y-51366552D01*
X225747009Y-51337222D01*
X225903534Y-51253557D01*
X226073373Y-51202037D01*
X226139558Y-51195518D01*
X226205740Y-51189000D01*
X226294260Y-51189000D01*
X226360443Y-51195519D01*
X226360443Y-51195519D01*
G37*
G36*
X221280443Y-51195519D02*
G01*
X221346627Y-51202037D01*
X221516466Y-51253557D01*
X221672991Y-51337222D01*
X221708729Y-51366552D01*
X221810186Y-51449814D01*
X221893448Y-51551271D01*
X221922778Y-51587009D01*
X222006443Y-51743534D01*
X222057963Y-51913373D01*
X222075359Y-52090000D01*
X222057963Y-52266627D01*
X222006443Y-52436466D01*
X221922778Y-52592991D01*
X221893448Y-52628729D01*
X221810186Y-52730186D01*
X221717160Y-52806529D01*
X221672991Y-52842778D01*
X221516466Y-52926443D01*
X221346627Y-52977963D01*
X221280443Y-52984481D01*
X221214260Y-52991000D01*
X221125740Y-52991000D01*
X221059557Y-52984481D01*
X220993373Y-52977963D01*
X220823534Y-52926443D01*
X220667009Y-52842778D01*
X220622840Y-52806529D01*
X220529814Y-52730186D01*
X220446552Y-52628729D01*
X220417222Y-52592991D01*
X220333557Y-52436466D01*
X220282037Y-52266627D01*
X220264641Y-52090000D01*
X220282037Y-51913373D01*
X220333557Y-51743534D01*
X220417222Y-51587009D01*
X220446552Y-51551271D01*
X220529814Y-51449814D01*
X220631271Y-51366552D01*
X220667009Y-51337222D01*
X220823534Y-51253557D01*
X220993373Y-51202037D01*
X221059558Y-51195518D01*
X221125740Y-51189000D01*
X221214260Y-51189000D01*
X221280443Y-51195519D01*
X221280443Y-51195519D01*
G37*
G36*
X221280442Y-48655518D02*
G01*
X221346627Y-48662037D01*
X221516466Y-48713557D01*
X221672991Y-48797222D01*
X221690347Y-48811466D01*
X221810186Y-48909814D01*
X221882744Y-48998228D01*
X221922778Y-49047009D01*
X222006443Y-49203534D01*
X222057963Y-49373373D01*
X222075359Y-49550000D01*
X222057963Y-49726627D01*
X222018096Y-49858050D01*
X222006442Y-49896468D01*
X221997460Y-49913272D01*
X221922778Y-50052991D01*
X221893448Y-50088729D01*
X221810186Y-50190186D01*
X221708729Y-50273448D01*
X221672991Y-50302778D01*
X221516466Y-50386443D01*
X221346627Y-50437963D01*
X221280442Y-50444482D01*
X221214260Y-50451000D01*
X221125740Y-50451000D01*
X221059557Y-50444481D01*
X220993373Y-50437963D01*
X220823534Y-50386443D01*
X220667009Y-50302778D01*
X220631271Y-50273448D01*
X220529814Y-50190186D01*
X220446552Y-50088729D01*
X220417222Y-50052991D01*
X220342540Y-49913272D01*
X220333558Y-49896468D01*
X220321904Y-49858050D01*
X220282037Y-49726627D01*
X220264641Y-49550000D01*
X220282037Y-49373373D01*
X220333557Y-49203534D01*
X220417222Y-49047009D01*
X220457256Y-48998228D01*
X220529814Y-48909814D01*
X220649653Y-48811466D01*
X220667009Y-48797222D01*
X220823534Y-48713557D01*
X220993373Y-48662037D01*
X221059557Y-48655519D01*
X221125740Y-48649000D01*
X221214260Y-48649000D01*
X221280442Y-48655518D01*
X221280442Y-48655518D01*
G37*
G36*
X227151000Y-50451000D02*
G01*
X225349000Y-50451000D01*
X225349000Y-48649000D01*
X227151000Y-48649000D01*
X227151000Y-50451000D01*
X227151000Y-50451000D01*
G37*
G36*
X218740442Y-48655518D02*
G01*
X218806627Y-48662037D01*
X218976466Y-48713557D01*
X219132991Y-48797222D01*
X219150347Y-48811466D01*
X219270186Y-48909814D01*
X219342744Y-48998228D01*
X219382778Y-49047009D01*
X219466443Y-49203534D01*
X219517963Y-49373373D01*
X219535359Y-49550000D01*
X219517963Y-49726627D01*
X219478096Y-49858050D01*
X219466442Y-49896468D01*
X219457460Y-49913272D01*
X219382778Y-50052991D01*
X219353448Y-50088729D01*
X219270186Y-50190186D01*
X219168729Y-50273448D01*
X219132991Y-50302778D01*
X218976466Y-50386443D01*
X218806627Y-50437963D01*
X218740442Y-50444482D01*
X218674260Y-50451000D01*
X218585740Y-50451000D01*
X218519557Y-50444481D01*
X218453373Y-50437963D01*
X218283534Y-50386443D01*
X218127009Y-50302778D01*
X218091271Y-50273448D01*
X217989814Y-50190186D01*
X217906552Y-50088729D01*
X217877222Y-50052991D01*
X217802540Y-49913272D01*
X217793558Y-49896468D01*
X217781904Y-49858050D01*
X217742037Y-49726627D01*
X217724641Y-49550000D01*
X217742037Y-49373373D01*
X217793557Y-49203534D01*
X217877222Y-49047009D01*
X217917256Y-48998228D01*
X217989814Y-48909814D01*
X218109653Y-48811466D01*
X218127009Y-48797222D01*
X218283534Y-48713557D01*
X218453373Y-48662037D01*
X218519557Y-48655519D01*
X218585740Y-48649000D01*
X218674260Y-48649000D01*
X218740442Y-48655518D01*
X218740442Y-48655518D01*
G37*
G36*
X223820442Y-48655518D02*
G01*
X223886627Y-48662037D01*
X224056466Y-48713557D01*
X224212991Y-48797222D01*
X224230347Y-48811466D01*
X224350186Y-48909814D01*
X224422744Y-48998228D01*
X224462778Y-49047009D01*
X224546443Y-49203534D01*
X224597963Y-49373373D01*
X224615359Y-49550000D01*
X224597963Y-49726627D01*
X224558096Y-49858050D01*
X224546442Y-49896468D01*
X224537460Y-49913272D01*
X224462778Y-50052991D01*
X224433448Y-50088729D01*
X224350186Y-50190186D01*
X224248729Y-50273448D01*
X224212991Y-50302778D01*
X224056466Y-50386443D01*
X223886627Y-50437963D01*
X223820442Y-50444482D01*
X223754260Y-50451000D01*
X223665740Y-50451000D01*
X223599557Y-50444481D01*
X223533373Y-50437963D01*
X223363534Y-50386443D01*
X223207009Y-50302778D01*
X223171271Y-50273448D01*
X223069814Y-50190186D01*
X222986552Y-50088729D01*
X222957222Y-50052991D01*
X222882540Y-49913272D01*
X222873558Y-49896468D01*
X222861904Y-49858050D01*
X222822037Y-49726627D01*
X222804641Y-49550000D01*
X222822037Y-49373373D01*
X222873557Y-49203534D01*
X222957222Y-49047009D01*
X222997256Y-48998228D01*
X223069814Y-48909814D01*
X223189653Y-48811466D01*
X223207009Y-48797222D01*
X223363534Y-48713557D01*
X223533373Y-48662037D01*
X223599557Y-48655519D01*
X223665740Y-48649000D01*
X223754260Y-48649000D01*
X223820442Y-48655518D01*
X223820442Y-48655518D01*
G37*
G36*
X152748228Y-47931703D02*
G01*
X152903100Y-47995853D01*
X153042481Y-48088985D01*
X153161015Y-48207519D01*
X153254147Y-48346900D01*
X153318297Y-48501772D01*
X153351000Y-48666184D01*
X153351000Y-48833816D01*
X153318297Y-48998228D01*
X153254147Y-49153100D01*
X153161015Y-49292481D01*
X153042481Y-49411015D01*
X152903100Y-49504147D01*
X152748228Y-49568297D01*
X152583816Y-49601000D01*
X152416184Y-49601000D01*
X152251772Y-49568297D01*
X152096900Y-49504147D01*
X151957519Y-49411015D01*
X151838985Y-49292481D01*
X151745853Y-49153100D01*
X151681703Y-48998228D01*
X151649000Y-48833816D01*
X151649000Y-48666184D01*
X151681703Y-48501772D01*
X151745853Y-48346900D01*
X151838985Y-48207519D01*
X151957519Y-48088985D01*
X152096900Y-47995853D01*
X152251772Y-47931703D01*
X152416184Y-47899000D01*
X152583816Y-47899000D01*
X152748228Y-47931703D01*
X152748228Y-47931703D01*
G37*
G36*
X205994098Y-44547033D02*
G01*
X206458350Y-44739332D01*
X206458352Y-44739333D01*
X206876168Y-45018509D01*
X207231491Y-45373832D01*
X207491365Y-45762761D01*
X207510668Y-45791650D01*
X207702967Y-46255902D01*
X207801000Y-46748747D01*
X207801000Y-47251253D01*
X207702967Y-47744098D01*
X207525685Y-48172096D01*
X207510667Y-48208352D01*
X207231491Y-48626168D01*
X206876168Y-48981491D01*
X206458352Y-49260667D01*
X206458351Y-49260668D01*
X206458350Y-49260668D01*
X205994098Y-49452967D01*
X205501253Y-49551000D01*
X204998747Y-49551000D01*
X204505902Y-49452967D01*
X204041650Y-49260668D01*
X204041649Y-49260668D01*
X204041648Y-49260667D01*
X203623832Y-48981491D01*
X203268509Y-48626168D01*
X202989333Y-48208352D01*
X202974315Y-48172096D01*
X202797033Y-47744098D01*
X202699000Y-47251253D01*
X202699000Y-46748747D01*
X202797033Y-46255902D01*
X202989332Y-45791650D01*
X203008635Y-45762761D01*
X203268509Y-45373832D01*
X203623832Y-45018509D01*
X204041648Y-44739333D01*
X204041650Y-44739332D01*
X204505902Y-44547033D01*
X204998747Y-44449000D01*
X205501253Y-44449000D01*
X205994098Y-44547033D01*
X205994098Y-44547033D01*
G37*
G36*
X49681209Y-47514534D02*
G01*
X49773272Y-47523601D01*
X49950463Y-47577351D01*
X49950466Y-47577352D01*
X50113759Y-47664634D01*
X50113762Y-47664636D01*
X50113763Y-47664637D01*
X50256896Y-47782104D01*
X50352831Y-47899000D01*
X50374366Y-47925241D01*
X50461648Y-48088534D01*
X50461649Y-48088537D01*
X50515399Y-48265728D01*
X50533548Y-48450000D01*
X50515399Y-48634272D01*
X50462337Y-48809195D01*
X50461648Y-48811466D01*
X50374366Y-48974759D01*
X50374364Y-48974762D01*
X50374363Y-48974763D01*
X50355105Y-48998229D01*
X50256896Y-49117896D01*
X50113759Y-49235366D01*
X49950466Y-49322648D01*
X49950463Y-49322649D01*
X49773272Y-49376399D01*
X49681209Y-49385466D01*
X49635178Y-49390000D01*
X47764822Y-49390000D01*
X47718791Y-49385466D01*
X47626728Y-49376399D01*
X47449537Y-49322649D01*
X47449534Y-49322648D01*
X47286241Y-49235366D01*
X47143104Y-49117896D01*
X47044895Y-48998229D01*
X47025637Y-48974763D01*
X47025636Y-48974762D01*
X47025634Y-48974759D01*
X46938352Y-48811466D01*
X46937663Y-48809195D01*
X46884601Y-48634272D01*
X46866452Y-48450000D01*
X46884601Y-48265728D01*
X46938351Y-48088537D01*
X46938352Y-48088534D01*
X47025634Y-47925241D01*
X47047170Y-47899000D01*
X47143104Y-47782104D01*
X47286237Y-47664637D01*
X47286238Y-47664636D01*
X47286241Y-47664634D01*
X47449534Y-47577352D01*
X47449537Y-47577351D01*
X47626728Y-47523601D01*
X47718791Y-47514534D01*
X47764822Y-47510000D01*
X49635178Y-47510000D01*
X49681209Y-47514534D01*
X49681209Y-47514534D01*
G37*
G36*
X132636601Y-48164397D02*
G01*
X132675305Y-48172096D01*
X132707340Y-48185365D01*
X132784680Y-48217400D01*
X132883115Y-48283173D01*
X132966827Y-48366885D01*
X133032600Y-48465320D01*
X133077904Y-48574696D01*
X133101000Y-48690805D01*
X133101000Y-48809195D01*
X133077904Y-48925304D01*
X133032600Y-49034680D01*
X132966827Y-49133115D01*
X132883115Y-49216827D01*
X132784680Y-49282600D01*
X132707340Y-49314635D01*
X132675305Y-49327904D01*
X132636601Y-49335603D01*
X132559195Y-49351000D01*
X132440805Y-49351000D01*
X132363399Y-49335603D01*
X132324695Y-49327904D01*
X132292660Y-49314635D01*
X132215320Y-49282600D01*
X132116885Y-49216827D01*
X132033173Y-49133115D01*
X131967400Y-49034680D01*
X131922096Y-48925304D01*
X131899000Y-48809195D01*
X131899000Y-48690805D01*
X131922096Y-48574696D01*
X131967400Y-48465320D01*
X132033173Y-48366885D01*
X132116885Y-48283173D01*
X132215320Y-48217400D01*
X132292660Y-48185365D01*
X132324695Y-48172096D01*
X132363399Y-48164397D01*
X132440805Y-48149000D01*
X132559195Y-48149000D01*
X132636601Y-48164397D01*
X132636601Y-48164397D01*
G37*
G36*
X43509652Y-47651000D02*
G01*
X43607023Y-47660590D01*
X43707682Y-47691125D01*
X43758013Y-47706392D01*
X43897165Y-47780771D01*
X44019133Y-47880867D01*
X44119229Y-48002835D01*
X44193608Y-48141987D01*
X44193608Y-48141988D01*
X44239410Y-48292977D01*
X44254875Y-48450000D01*
X44239410Y-48607023D01*
X44221463Y-48666185D01*
X44193608Y-48758013D01*
X44119229Y-48897165D01*
X44019133Y-49019133D01*
X43897165Y-49119229D01*
X43758013Y-49193608D01*
X43707682Y-49208875D01*
X43607023Y-49239410D01*
X43528571Y-49247137D01*
X43489346Y-49251000D01*
X41910654Y-49251000D01*
X41871429Y-49247137D01*
X41792977Y-49239410D01*
X41692318Y-49208875D01*
X41641987Y-49193608D01*
X41502835Y-49119229D01*
X41380867Y-49019133D01*
X41280771Y-48897165D01*
X41206392Y-48758013D01*
X41178537Y-48666185D01*
X41160590Y-48607023D01*
X41145125Y-48450000D01*
X41160590Y-48292977D01*
X41206392Y-48141988D01*
X41206392Y-48141987D01*
X41280771Y-48002835D01*
X41380867Y-47880867D01*
X41502835Y-47780771D01*
X41641987Y-47706392D01*
X41692318Y-47691125D01*
X41792977Y-47660590D01*
X41890348Y-47651000D01*
X41910654Y-47649000D01*
X43489346Y-47649000D01*
X43509652Y-47651000D01*
X43509652Y-47651000D01*
G37*
G36*
X306786425Y-45762760D02*
G01*
X306786428Y-45762761D01*
X306786429Y-45762761D01*
X306965693Y-45817140D01*
X306965696Y-45817142D01*
X306965697Y-45817142D01*
X307130903Y-45905446D01*
X307275712Y-46024288D01*
X307394554Y-46169097D01*
X307482858Y-46334303D01*
X307482860Y-46334307D01*
X307537239Y-46513571D01*
X307537240Y-46513575D01*
X307555601Y-46700000D01*
X307537240Y-46886425D01*
X307537239Y-46886428D01*
X307537239Y-46886429D01*
X307482860Y-47065693D01*
X307482858Y-47065696D01*
X307482858Y-47065697D01*
X307394554Y-47230903D01*
X307275712Y-47375712D01*
X307130903Y-47494554D01*
X306976000Y-47577351D01*
X306965693Y-47582860D01*
X306786429Y-47637239D01*
X306786428Y-47637239D01*
X306786425Y-47637240D01*
X306646718Y-47651000D01*
X304353282Y-47651000D01*
X304213575Y-47637240D01*
X304213572Y-47637239D01*
X304213571Y-47637239D01*
X304034307Y-47582860D01*
X304024000Y-47577351D01*
X303869097Y-47494554D01*
X303724288Y-47375712D01*
X303605446Y-47230903D01*
X303517142Y-47065697D01*
X303517142Y-47065696D01*
X303517140Y-47065693D01*
X303462761Y-46886429D01*
X303462761Y-46886428D01*
X303462760Y-46886425D01*
X303444399Y-46700000D01*
X303462760Y-46513575D01*
X303462761Y-46513571D01*
X303517140Y-46334307D01*
X303517142Y-46334303D01*
X303605446Y-46169097D01*
X303724288Y-46024288D01*
X303869097Y-45905446D01*
X304034303Y-45817142D01*
X304034304Y-45817142D01*
X304034307Y-45817140D01*
X304213571Y-45762761D01*
X304213572Y-45762761D01*
X304213575Y-45762760D01*
X304353282Y-45749000D01*
X306646718Y-45749000D01*
X306786425Y-45762760D01*
X306786425Y-45762760D01*
G37*
G36*
X313497085Y-42063975D02*
G01*
X313852143Y-42211045D01*
X313852145Y-42211046D01*
X314171690Y-42424559D01*
X314443441Y-42696310D01*
X314656954Y-43015855D01*
X314656955Y-43015857D01*
X314804025Y-43370915D01*
X314879000Y-43747842D01*
X314879000Y-44132158D01*
X314804025Y-44509085D01*
X314708653Y-44739332D01*
X314656954Y-44864145D01*
X314443441Y-45183690D01*
X314171690Y-45455441D01*
X313852145Y-45668954D01*
X313852144Y-45668955D01*
X313852143Y-45668955D01*
X313497085Y-45816025D01*
X313120158Y-45891000D01*
X312735842Y-45891000D01*
X312358915Y-45816025D01*
X312003857Y-45668955D01*
X312003856Y-45668955D01*
X312003855Y-45668954D01*
X311684310Y-45455441D01*
X311412559Y-45183690D01*
X311199046Y-44864145D01*
X311147347Y-44739332D01*
X311051975Y-44509085D01*
X310977000Y-44132158D01*
X310977000Y-43747842D01*
X311051975Y-43370915D01*
X311199045Y-43015857D01*
X311199046Y-43015855D01*
X311412559Y-42696310D01*
X311684310Y-42424559D01*
X312003855Y-42211046D01*
X312003857Y-42211045D01*
X312358915Y-42063975D01*
X312735842Y-41989000D01*
X313120158Y-41989000D01*
X313497085Y-42063975D01*
X313497085Y-42063975D01*
G37*
G36*
X42609085Y-42063975D02*
G01*
X42964143Y-42211045D01*
X42964145Y-42211046D01*
X43283690Y-42424559D01*
X43555441Y-42696310D01*
X43768954Y-43015855D01*
X43768955Y-43015857D01*
X43916025Y-43370915D01*
X43991000Y-43747842D01*
X43991000Y-44132158D01*
X43916025Y-44509085D01*
X43820653Y-44739332D01*
X43768954Y-44864145D01*
X43555441Y-45183690D01*
X43283690Y-45455441D01*
X42964145Y-45668954D01*
X42964144Y-45668955D01*
X42964143Y-45668955D01*
X42609085Y-45816025D01*
X42232158Y-45891000D01*
X41847842Y-45891000D01*
X41470915Y-45816025D01*
X41115857Y-45668955D01*
X41115856Y-45668955D01*
X41115855Y-45668954D01*
X40796310Y-45455441D01*
X40524559Y-45183690D01*
X40311046Y-44864145D01*
X40259347Y-44739332D01*
X40163975Y-44509085D01*
X40089000Y-44132158D01*
X40089000Y-43747842D01*
X40163975Y-43370915D01*
X40311045Y-43015857D01*
X40311046Y-43015855D01*
X40524559Y-42696310D01*
X40796310Y-42424559D01*
X41115855Y-42211046D01*
X41115857Y-42211045D01*
X41470915Y-42063975D01*
X41847842Y-41989000D01*
X42232158Y-41989000D01*
X42609085Y-42063975D01*
X42609085Y-42063975D01*
G37*
G36*
X74571213Y-43277502D02*
G01*
X74642321Y-43284505D01*
X74779172Y-43326019D01*
X74779175Y-43326020D01*
X74905294Y-43393432D01*
X75015843Y-43484157D01*
X75106568Y-43594706D01*
X75173980Y-43720825D01*
X75173981Y-43720828D01*
X75215495Y-43857679D01*
X75229512Y-44000000D01*
X75215495Y-44142321D01*
X75190312Y-44225336D01*
X75173980Y-44279175D01*
X75106568Y-44405294D01*
X75015843Y-44515843D01*
X74905294Y-44606568D01*
X74779175Y-44673980D01*
X74779172Y-44673981D01*
X74642321Y-44715495D01*
X74571213Y-44722498D01*
X74535660Y-44726000D01*
X74464340Y-44726000D01*
X74428787Y-44722498D01*
X74357679Y-44715495D01*
X74220828Y-44673981D01*
X74220825Y-44673980D01*
X74094706Y-44606568D01*
X73984157Y-44515843D01*
X73893432Y-44405294D01*
X73826020Y-44279175D01*
X73809688Y-44225336D01*
X73784505Y-44142321D01*
X73770488Y-44000000D01*
X73784505Y-43857679D01*
X73826019Y-43720828D01*
X73826020Y-43720825D01*
X73893432Y-43594706D01*
X73984157Y-43484157D01*
X74094706Y-43393432D01*
X74220825Y-43326020D01*
X74220828Y-43326019D01*
X74357679Y-43284505D01*
X74428787Y-43277502D01*
X74464340Y-43274000D01*
X74535660Y-43274000D01*
X74571213Y-43277502D01*
X74571213Y-43277502D01*
G37*
G36*
X90571213Y-43277502D02*
G01*
X90642321Y-43284505D01*
X90779172Y-43326019D01*
X90779175Y-43326020D01*
X90905294Y-43393432D01*
X91015843Y-43484157D01*
X91106568Y-43594706D01*
X91173980Y-43720825D01*
X91173981Y-43720828D01*
X91215495Y-43857679D01*
X91229512Y-44000000D01*
X91215495Y-44142321D01*
X91190312Y-44225336D01*
X91173980Y-44279175D01*
X91106568Y-44405294D01*
X91015843Y-44515843D01*
X90905294Y-44606568D01*
X90779175Y-44673980D01*
X90779172Y-44673981D01*
X90642321Y-44715495D01*
X90571213Y-44722498D01*
X90535660Y-44726000D01*
X90464340Y-44726000D01*
X90428787Y-44722498D01*
X90357679Y-44715495D01*
X90220828Y-44673981D01*
X90220825Y-44673980D01*
X90094706Y-44606568D01*
X89984157Y-44515843D01*
X89893432Y-44405294D01*
X89826020Y-44279175D01*
X89809688Y-44225336D01*
X89784505Y-44142321D01*
X89770488Y-44000000D01*
X89784505Y-43857679D01*
X89826019Y-43720828D01*
X89826020Y-43720825D01*
X89893432Y-43594706D01*
X89984157Y-43484157D01*
X90094706Y-43393432D01*
X90220825Y-43326020D01*
X90220828Y-43326019D01*
X90357679Y-43284505D01*
X90428787Y-43277502D01*
X90464340Y-43274000D01*
X90535660Y-43274000D01*
X90571213Y-43277502D01*
X90571213Y-43277502D01*
G37*
G36*
X88571213Y-43277502D02*
G01*
X88642321Y-43284505D01*
X88779172Y-43326019D01*
X88779175Y-43326020D01*
X88905294Y-43393432D01*
X89015843Y-43484157D01*
X89106568Y-43594706D01*
X89173980Y-43720825D01*
X89173981Y-43720828D01*
X89215495Y-43857679D01*
X89229512Y-44000000D01*
X89215495Y-44142321D01*
X89190312Y-44225336D01*
X89173980Y-44279175D01*
X89106568Y-44405294D01*
X89015843Y-44515843D01*
X88905294Y-44606568D01*
X88779175Y-44673980D01*
X88779172Y-44673981D01*
X88642321Y-44715495D01*
X88571213Y-44722498D01*
X88535660Y-44726000D01*
X88464340Y-44726000D01*
X88428787Y-44722498D01*
X88357679Y-44715495D01*
X88220828Y-44673981D01*
X88220825Y-44673980D01*
X88094706Y-44606568D01*
X87984157Y-44515843D01*
X87893432Y-44405294D01*
X87826020Y-44279175D01*
X87809688Y-44225336D01*
X87784505Y-44142321D01*
X87770488Y-44000000D01*
X87784505Y-43857679D01*
X87826019Y-43720828D01*
X87826020Y-43720825D01*
X87893432Y-43594706D01*
X87984157Y-43484157D01*
X88094706Y-43393432D01*
X88220825Y-43326020D01*
X88220828Y-43326019D01*
X88357679Y-43284505D01*
X88428787Y-43277502D01*
X88464340Y-43274000D01*
X88535660Y-43274000D01*
X88571213Y-43277502D01*
X88571213Y-43277502D01*
G37*
G36*
X86571213Y-43277502D02*
G01*
X86642321Y-43284505D01*
X86779172Y-43326019D01*
X86779175Y-43326020D01*
X86905294Y-43393432D01*
X87015843Y-43484157D01*
X87106568Y-43594706D01*
X87173980Y-43720825D01*
X87173981Y-43720828D01*
X87215495Y-43857679D01*
X87229512Y-44000000D01*
X87215495Y-44142321D01*
X87190312Y-44225336D01*
X87173980Y-44279175D01*
X87106568Y-44405294D01*
X87015843Y-44515843D01*
X86905294Y-44606568D01*
X86779175Y-44673980D01*
X86779172Y-44673981D01*
X86642321Y-44715495D01*
X86571213Y-44722498D01*
X86535660Y-44726000D01*
X86464340Y-44726000D01*
X86428787Y-44722498D01*
X86357679Y-44715495D01*
X86220828Y-44673981D01*
X86220825Y-44673980D01*
X86094706Y-44606568D01*
X85984157Y-44515843D01*
X85893432Y-44405294D01*
X85826020Y-44279175D01*
X85809688Y-44225336D01*
X85784505Y-44142321D01*
X85770488Y-44000000D01*
X85784505Y-43857679D01*
X85826019Y-43720828D01*
X85826020Y-43720825D01*
X85893432Y-43594706D01*
X85984157Y-43484157D01*
X86094706Y-43393432D01*
X86220825Y-43326020D01*
X86220828Y-43326019D01*
X86357679Y-43284505D01*
X86428787Y-43277502D01*
X86464340Y-43274000D01*
X86535660Y-43274000D01*
X86571213Y-43277502D01*
X86571213Y-43277502D01*
G37*
G36*
X84571213Y-43277502D02*
G01*
X84642321Y-43284505D01*
X84779172Y-43326019D01*
X84779175Y-43326020D01*
X84905294Y-43393432D01*
X85015843Y-43484157D01*
X85106568Y-43594706D01*
X85173980Y-43720825D01*
X85173981Y-43720828D01*
X85215495Y-43857679D01*
X85229512Y-44000000D01*
X85215495Y-44142321D01*
X85190312Y-44225336D01*
X85173980Y-44279175D01*
X85106568Y-44405294D01*
X85015843Y-44515843D01*
X84905294Y-44606568D01*
X84779175Y-44673980D01*
X84779172Y-44673981D01*
X84642321Y-44715495D01*
X84571213Y-44722498D01*
X84535660Y-44726000D01*
X84464340Y-44726000D01*
X84428787Y-44722498D01*
X84357679Y-44715495D01*
X84220828Y-44673981D01*
X84220825Y-44673980D01*
X84094706Y-44606568D01*
X83984157Y-44515843D01*
X83893432Y-44405294D01*
X83826020Y-44279175D01*
X83809688Y-44225336D01*
X83784505Y-44142321D01*
X83770488Y-44000000D01*
X83784505Y-43857679D01*
X83826019Y-43720828D01*
X83826020Y-43720825D01*
X83893432Y-43594706D01*
X83984157Y-43484157D01*
X84094706Y-43393432D01*
X84220825Y-43326020D01*
X84220828Y-43326019D01*
X84357679Y-43284505D01*
X84428787Y-43277502D01*
X84464340Y-43274000D01*
X84535660Y-43274000D01*
X84571213Y-43277502D01*
X84571213Y-43277502D01*
G37*
G36*
X82571213Y-43277502D02*
G01*
X82642321Y-43284505D01*
X82779172Y-43326019D01*
X82779175Y-43326020D01*
X82905294Y-43393432D01*
X83015843Y-43484157D01*
X83106568Y-43594706D01*
X83173980Y-43720825D01*
X83173981Y-43720828D01*
X83215495Y-43857679D01*
X83229512Y-44000000D01*
X83215495Y-44142321D01*
X83190312Y-44225336D01*
X83173980Y-44279175D01*
X83106568Y-44405294D01*
X83015843Y-44515843D01*
X82905294Y-44606568D01*
X82779175Y-44673980D01*
X82779172Y-44673981D01*
X82642321Y-44715495D01*
X82571213Y-44722498D01*
X82535660Y-44726000D01*
X82464340Y-44726000D01*
X82428787Y-44722498D01*
X82357679Y-44715495D01*
X82220828Y-44673981D01*
X82220825Y-44673980D01*
X82094706Y-44606568D01*
X81984157Y-44515843D01*
X81893432Y-44405294D01*
X81826020Y-44279175D01*
X81809688Y-44225336D01*
X81784505Y-44142321D01*
X81770488Y-44000000D01*
X81784505Y-43857679D01*
X81826019Y-43720828D01*
X81826020Y-43720825D01*
X81893432Y-43594706D01*
X81984157Y-43484157D01*
X82094706Y-43393432D01*
X82220825Y-43326020D01*
X82220828Y-43326019D01*
X82357679Y-43284505D01*
X82428787Y-43277502D01*
X82464340Y-43274000D01*
X82535660Y-43274000D01*
X82571213Y-43277502D01*
X82571213Y-43277502D01*
G37*
G36*
X80571213Y-43277502D02*
G01*
X80642321Y-43284505D01*
X80779172Y-43326019D01*
X80779175Y-43326020D01*
X80905294Y-43393432D01*
X81015843Y-43484157D01*
X81106568Y-43594706D01*
X81173980Y-43720825D01*
X81173981Y-43720828D01*
X81215495Y-43857679D01*
X81229512Y-44000000D01*
X81215495Y-44142321D01*
X81190312Y-44225336D01*
X81173980Y-44279175D01*
X81106568Y-44405294D01*
X81015843Y-44515843D01*
X80905294Y-44606568D01*
X80779175Y-44673980D01*
X80779172Y-44673981D01*
X80642321Y-44715495D01*
X80571213Y-44722498D01*
X80535660Y-44726000D01*
X80464340Y-44726000D01*
X80428787Y-44722498D01*
X80357679Y-44715495D01*
X80220828Y-44673981D01*
X80220825Y-44673980D01*
X80094706Y-44606568D01*
X79984157Y-44515843D01*
X79893432Y-44405294D01*
X79826020Y-44279175D01*
X79809688Y-44225336D01*
X79784505Y-44142321D01*
X79770488Y-44000000D01*
X79784505Y-43857679D01*
X79826019Y-43720828D01*
X79826020Y-43720825D01*
X79893432Y-43594706D01*
X79984157Y-43484157D01*
X80094706Y-43393432D01*
X80220825Y-43326020D01*
X80220828Y-43326019D01*
X80357679Y-43284505D01*
X80428787Y-43277502D01*
X80464340Y-43274000D01*
X80535660Y-43274000D01*
X80571213Y-43277502D01*
X80571213Y-43277502D01*
G37*
G36*
X78571213Y-43277502D02*
G01*
X78642321Y-43284505D01*
X78779172Y-43326019D01*
X78779175Y-43326020D01*
X78905294Y-43393432D01*
X79015843Y-43484157D01*
X79106568Y-43594706D01*
X79173980Y-43720825D01*
X79173981Y-43720828D01*
X79215495Y-43857679D01*
X79229512Y-44000000D01*
X79215495Y-44142321D01*
X79190312Y-44225336D01*
X79173980Y-44279175D01*
X79106568Y-44405294D01*
X79015843Y-44515843D01*
X78905294Y-44606568D01*
X78779175Y-44673980D01*
X78779172Y-44673981D01*
X78642321Y-44715495D01*
X78571213Y-44722498D01*
X78535660Y-44726000D01*
X78464340Y-44726000D01*
X78428787Y-44722498D01*
X78357679Y-44715495D01*
X78220828Y-44673981D01*
X78220825Y-44673980D01*
X78094706Y-44606568D01*
X77984157Y-44515843D01*
X77893432Y-44405294D01*
X77826020Y-44279175D01*
X77809688Y-44225336D01*
X77784505Y-44142321D01*
X77770488Y-44000000D01*
X77784505Y-43857679D01*
X77826019Y-43720828D01*
X77826020Y-43720825D01*
X77893432Y-43594706D01*
X77984157Y-43484157D01*
X78094706Y-43393432D01*
X78220825Y-43326020D01*
X78220828Y-43326019D01*
X78357679Y-43284505D01*
X78428787Y-43277502D01*
X78464340Y-43274000D01*
X78535660Y-43274000D01*
X78571213Y-43277502D01*
X78571213Y-43277502D01*
G37*
G36*
X76571213Y-43277502D02*
G01*
X76642321Y-43284505D01*
X76779172Y-43326019D01*
X76779175Y-43326020D01*
X76905294Y-43393432D01*
X77015843Y-43484157D01*
X77106568Y-43594706D01*
X77173980Y-43720825D01*
X77173981Y-43720828D01*
X77215495Y-43857679D01*
X77229512Y-44000000D01*
X77215495Y-44142321D01*
X77190312Y-44225336D01*
X77173980Y-44279175D01*
X77106568Y-44405294D01*
X77015843Y-44515843D01*
X76905294Y-44606568D01*
X76779175Y-44673980D01*
X76779172Y-44673981D01*
X76642321Y-44715495D01*
X76571213Y-44722498D01*
X76535660Y-44726000D01*
X76464340Y-44726000D01*
X76428787Y-44722498D01*
X76357679Y-44715495D01*
X76220828Y-44673981D01*
X76220825Y-44673980D01*
X76094706Y-44606568D01*
X75984157Y-44515843D01*
X75893432Y-44405294D01*
X75826020Y-44279175D01*
X75809688Y-44225336D01*
X75784505Y-44142321D01*
X75770488Y-44000000D01*
X75784505Y-43857679D01*
X75826019Y-43720828D01*
X75826020Y-43720825D01*
X75893432Y-43594706D01*
X75984157Y-43484157D01*
X76094706Y-43393432D01*
X76220825Y-43326020D01*
X76220828Y-43326019D01*
X76357679Y-43284505D01*
X76428787Y-43277502D01*
X76464340Y-43274000D01*
X76535660Y-43274000D01*
X76571213Y-43277502D01*
X76571213Y-43277502D01*
G37*
G36*
X92571213Y-43277502D02*
G01*
X92642321Y-43284505D01*
X92779172Y-43326019D01*
X92779175Y-43326020D01*
X92905294Y-43393432D01*
X93015843Y-43484157D01*
X93106568Y-43594706D01*
X93173980Y-43720825D01*
X93173981Y-43720828D01*
X93215495Y-43857679D01*
X93229512Y-44000000D01*
X93215495Y-44142321D01*
X93190312Y-44225336D01*
X93173980Y-44279175D01*
X93106568Y-44405294D01*
X93015843Y-44515843D01*
X92905294Y-44606568D01*
X92779175Y-44673980D01*
X92779172Y-44673981D01*
X92642321Y-44715495D01*
X92571213Y-44722498D01*
X92535660Y-44726000D01*
X92464340Y-44726000D01*
X92428787Y-44722498D01*
X92357679Y-44715495D01*
X92220828Y-44673981D01*
X92220825Y-44673980D01*
X92094706Y-44606568D01*
X91984157Y-44515843D01*
X91893432Y-44405294D01*
X91826020Y-44279175D01*
X91809688Y-44225336D01*
X91784505Y-44142321D01*
X91770488Y-44000000D01*
X91784505Y-43857679D01*
X91826019Y-43720828D01*
X91826020Y-43720825D01*
X91893432Y-43594706D01*
X91984157Y-43484157D01*
X92094706Y-43393432D01*
X92220825Y-43326020D01*
X92220828Y-43326019D01*
X92357679Y-43284505D01*
X92428787Y-43277502D01*
X92464340Y-43274000D01*
X92535660Y-43274000D01*
X92571213Y-43277502D01*
X92571213Y-43277502D01*
G37*
G36*
X66571213Y-43277502D02*
G01*
X66642321Y-43284505D01*
X66779172Y-43326019D01*
X66779175Y-43326020D01*
X66905294Y-43393432D01*
X67015843Y-43484157D01*
X67106568Y-43594706D01*
X67173980Y-43720825D01*
X67173981Y-43720828D01*
X67215495Y-43857679D01*
X67229512Y-44000000D01*
X67215495Y-44142321D01*
X67190312Y-44225336D01*
X67173980Y-44279175D01*
X67106568Y-44405294D01*
X67015843Y-44515843D01*
X66905294Y-44606568D01*
X66779175Y-44673980D01*
X66779172Y-44673981D01*
X66642321Y-44715495D01*
X66571213Y-44722498D01*
X66535660Y-44726000D01*
X66464340Y-44726000D01*
X66428787Y-44722498D01*
X66357679Y-44715495D01*
X66220828Y-44673981D01*
X66220825Y-44673980D01*
X66094706Y-44606568D01*
X65984157Y-44515843D01*
X65893432Y-44405294D01*
X65826020Y-44279175D01*
X65809688Y-44225336D01*
X65784505Y-44142321D01*
X65770488Y-44000000D01*
X65784505Y-43857679D01*
X65826019Y-43720828D01*
X65826020Y-43720825D01*
X65893432Y-43594706D01*
X65984157Y-43484157D01*
X66094706Y-43393432D01*
X66220825Y-43326020D01*
X66220828Y-43326019D01*
X66357679Y-43284505D01*
X66428787Y-43277502D01*
X66464340Y-43274000D01*
X66535660Y-43274000D01*
X66571213Y-43277502D01*
X66571213Y-43277502D01*
G37*
G36*
X68571213Y-43277502D02*
G01*
X68642321Y-43284505D01*
X68779172Y-43326019D01*
X68779175Y-43326020D01*
X68905294Y-43393432D01*
X69015843Y-43484157D01*
X69106568Y-43594706D01*
X69173980Y-43720825D01*
X69173981Y-43720828D01*
X69215495Y-43857679D01*
X69229512Y-44000000D01*
X69215495Y-44142321D01*
X69190312Y-44225336D01*
X69173980Y-44279175D01*
X69106568Y-44405294D01*
X69015843Y-44515843D01*
X68905294Y-44606568D01*
X68779175Y-44673980D01*
X68779172Y-44673981D01*
X68642321Y-44715495D01*
X68571213Y-44722498D01*
X68535660Y-44726000D01*
X68464340Y-44726000D01*
X68428787Y-44722498D01*
X68357679Y-44715495D01*
X68220828Y-44673981D01*
X68220825Y-44673980D01*
X68094706Y-44606568D01*
X67984157Y-44515843D01*
X67893432Y-44405294D01*
X67826020Y-44279175D01*
X67809688Y-44225336D01*
X67784505Y-44142321D01*
X67770488Y-44000000D01*
X67784505Y-43857679D01*
X67826019Y-43720828D01*
X67826020Y-43720825D01*
X67893432Y-43594706D01*
X67984157Y-43484157D01*
X68094706Y-43393432D01*
X68220825Y-43326020D01*
X68220828Y-43326019D01*
X68357679Y-43284505D01*
X68428787Y-43277502D01*
X68464340Y-43274000D01*
X68535660Y-43274000D01*
X68571213Y-43277502D01*
X68571213Y-43277502D01*
G37*
G36*
X70571213Y-43277502D02*
G01*
X70642321Y-43284505D01*
X70779172Y-43326019D01*
X70779175Y-43326020D01*
X70905294Y-43393432D01*
X71015843Y-43484157D01*
X71106568Y-43594706D01*
X71173980Y-43720825D01*
X71173981Y-43720828D01*
X71215495Y-43857679D01*
X71229512Y-44000000D01*
X71215495Y-44142321D01*
X71190312Y-44225336D01*
X71173980Y-44279175D01*
X71106568Y-44405294D01*
X71015843Y-44515843D01*
X70905294Y-44606568D01*
X70779175Y-44673980D01*
X70779172Y-44673981D01*
X70642321Y-44715495D01*
X70571213Y-44722498D01*
X70535660Y-44726000D01*
X70464340Y-44726000D01*
X70428787Y-44722498D01*
X70357679Y-44715495D01*
X70220828Y-44673981D01*
X70220825Y-44673980D01*
X70094706Y-44606568D01*
X69984157Y-44515843D01*
X69893432Y-44405294D01*
X69826020Y-44279175D01*
X69809688Y-44225336D01*
X69784505Y-44142321D01*
X69770488Y-44000000D01*
X69784505Y-43857679D01*
X69826019Y-43720828D01*
X69826020Y-43720825D01*
X69893432Y-43594706D01*
X69984157Y-43484157D01*
X70094706Y-43393432D01*
X70220825Y-43326020D01*
X70220828Y-43326019D01*
X70357679Y-43284505D01*
X70428787Y-43277502D01*
X70464340Y-43274000D01*
X70535660Y-43274000D01*
X70571213Y-43277502D01*
X70571213Y-43277502D01*
G37*
G36*
X72571213Y-43277502D02*
G01*
X72642321Y-43284505D01*
X72779172Y-43326019D01*
X72779175Y-43326020D01*
X72905294Y-43393432D01*
X73015843Y-43484157D01*
X73106568Y-43594706D01*
X73173980Y-43720825D01*
X73173981Y-43720828D01*
X73215495Y-43857679D01*
X73229512Y-44000000D01*
X73215495Y-44142321D01*
X73190312Y-44225336D01*
X73173980Y-44279175D01*
X73106568Y-44405294D01*
X73015843Y-44515843D01*
X72905294Y-44606568D01*
X72779175Y-44673980D01*
X72779172Y-44673981D01*
X72642321Y-44715495D01*
X72571213Y-44722498D01*
X72535660Y-44726000D01*
X72464340Y-44726000D01*
X72428787Y-44722498D01*
X72357679Y-44715495D01*
X72220828Y-44673981D01*
X72220825Y-44673980D01*
X72094706Y-44606568D01*
X71984157Y-44515843D01*
X71893432Y-44405294D01*
X71826020Y-44279175D01*
X71809688Y-44225336D01*
X71784505Y-44142321D01*
X71770488Y-44000000D01*
X71784505Y-43857679D01*
X71826019Y-43720828D01*
X71826020Y-43720825D01*
X71893432Y-43594706D01*
X71984157Y-43484157D01*
X72094706Y-43393432D01*
X72220825Y-43326020D01*
X72220828Y-43326019D01*
X72357679Y-43284505D01*
X72428787Y-43277502D01*
X72464340Y-43274000D01*
X72535660Y-43274000D01*
X72571213Y-43277502D01*
X72571213Y-43277502D01*
G37*
G36*
X64571213Y-43277502D02*
G01*
X64642321Y-43284505D01*
X64779172Y-43326019D01*
X64779175Y-43326020D01*
X64905294Y-43393432D01*
X65015843Y-43484157D01*
X65106568Y-43594706D01*
X65173980Y-43720825D01*
X65173981Y-43720828D01*
X65215495Y-43857679D01*
X65229512Y-44000000D01*
X65215495Y-44142321D01*
X65190312Y-44225336D01*
X65173980Y-44279175D01*
X65106568Y-44405294D01*
X65015843Y-44515843D01*
X64905294Y-44606568D01*
X64779175Y-44673980D01*
X64779172Y-44673981D01*
X64642321Y-44715495D01*
X64571213Y-44722498D01*
X64535660Y-44726000D01*
X64464340Y-44726000D01*
X64428787Y-44722498D01*
X64357679Y-44715495D01*
X64220828Y-44673981D01*
X64220825Y-44673980D01*
X64094706Y-44606568D01*
X63984157Y-44515843D01*
X63893432Y-44405294D01*
X63826020Y-44279175D01*
X63809688Y-44225336D01*
X63784505Y-44142321D01*
X63770488Y-44000000D01*
X63784505Y-43857679D01*
X63826019Y-43720828D01*
X63826020Y-43720825D01*
X63893432Y-43594706D01*
X63984157Y-43484157D01*
X64094706Y-43393432D01*
X64220825Y-43326020D01*
X64220828Y-43326019D01*
X64357679Y-43284505D01*
X64428787Y-43277502D01*
X64464340Y-43274000D01*
X64535660Y-43274000D01*
X64571213Y-43277502D01*
X64571213Y-43277502D01*
G37*
G36*
X294527618Y-42783420D02*
G01*
X294608400Y-42807925D01*
X294650336Y-42820646D01*
X294763425Y-42881094D01*
X294862554Y-42962446D01*
X294943906Y-43061575D01*
X295004354Y-43174664D01*
X295004355Y-43174668D01*
X295041580Y-43297382D01*
X295051000Y-43393027D01*
X295051000Y-44006973D01*
X295041580Y-44102618D01*
X295014040Y-44193404D01*
X295004354Y-44225336D01*
X294943906Y-44338425D01*
X294862554Y-44437553D01*
X294763424Y-44518906D01*
X294650335Y-44579354D01*
X294618403Y-44589040D01*
X294527617Y-44616580D01*
X294400000Y-44629149D01*
X294272382Y-44616580D01*
X294181596Y-44589040D01*
X294149664Y-44579354D01*
X294036575Y-44518906D01*
X293937447Y-44437554D01*
X293856094Y-44338424D01*
X293795646Y-44225335D01*
X293770513Y-44142481D01*
X293758420Y-44102617D01*
X293749000Y-44006972D01*
X293749000Y-43393027D01*
X293758420Y-43297382D01*
X293795645Y-43174668D01*
X293795645Y-43174667D01*
X293827957Y-43114217D01*
X293856095Y-43061574D01*
X293869493Y-43045249D01*
X293937447Y-42962446D01*
X294036576Y-42881094D01*
X294149665Y-42820646D01*
X294191601Y-42807925D01*
X294272383Y-42783420D01*
X294400000Y-42770851D01*
X294527618Y-42783420D01*
X294527618Y-42783420D01*
G37*
G36*
X292527618Y-42783420D02*
G01*
X292608400Y-42807925D01*
X292650336Y-42820646D01*
X292763425Y-42881094D01*
X292862554Y-42962446D01*
X292943906Y-43061575D01*
X293004354Y-43174664D01*
X293004355Y-43174668D01*
X293041580Y-43297382D01*
X293051000Y-43393027D01*
X293051000Y-44006973D01*
X293041580Y-44102618D01*
X293014040Y-44193404D01*
X293004354Y-44225336D01*
X292943906Y-44338425D01*
X292862554Y-44437553D01*
X292763424Y-44518906D01*
X292650335Y-44579354D01*
X292618403Y-44589040D01*
X292527617Y-44616580D01*
X292400000Y-44629149D01*
X292272382Y-44616580D01*
X292181596Y-44589040D01*
X292149664Y-44579354D01*
X292036575Y-44518906D01*
X291937447Y-44437554D01*
X291856094Y-44338424D01*
X291795646Y-44225335D01*
X291770513Y-44142481D01*
X291758420Y-44102617D01*
X291749000Y-44006972D01*
X291749000Y-43393027D01*
X291758420Y-43297382D01*
X291795645Y-43174668D01*
X291795645Y-43174667D01*
X291827957Y-43114217D01*
X291856095Y-43061574D01*
X291869493Y-43045249D01*
X291937447Y-42962446D01*
X292036576Y-42881094D01*
X292149665Y-42820646D01*
X292191601Y-42807925D01*
X292272383Y-42783420D01*
X292400000Y-42770851D01*
X292527618Y-42783420D01*
X292527618Y-42783420D01*
G37*
G36*
X296527618Y-42783420D02*
G01*
X296608400Y-42807925D01*
X296650336Y-42820646D01*
X296763425Y-42881094D01*
X296862554Y-42962446D01*
X296943906Y-43061575D01*
X297004354Y-43174664D01*
X297004355Y-43174668D01*
X297041580Y-43297382D01*
X297051000Y-43393027D01*
X297051000Y-44006973D01*
X297041580Y-44102618D01*
X297014040Y-44193404D01*
X297004354Y-44225336D01*
X296943906Y-44338425D01*
X296862554Y-44437553D01*
X296763424Y-44518906D01*
X296650335Y-44579354D01*
X296618403Y-44589040D01*
X296527617Y-44616580D01*
X296400000Y-44629149D01*
X296272382Y-44616580D01*
X296181596Y-44589040D01*
X296149664Y-44579354D01*
X296036575Y-44518906D01*
X295937447Y-44437554D01*
X295856094Y-44338424D01*
X295795646Y-44225335D01*
X295770513Y-44142481D01*
X295758420Y-44102617D01*
X295749000Y-44006972D01*
X295749000Y-43393027D01*
X295758420Y-43297382D01*
X295795645Y-43174668D01*
X295795645Y-43174667D01*
X295827957Y-43114217D01*
X295856095Y-43061574D01*
X295869493Y-43045249D01*
X295937447Y-42962446D01*
X296036576Y-42881094D01*
X296149665Y-42820646D01*
X296191601Y-42807925D01*
X296272383Y-42783420D01*
X296400000Y-42770851D01*
X296527618Y-42783420D01*
X296527618Y-42783420D01*
G37*
G36*
X298891242Y-42778404D02*
G01*
X298928337Y-42789657D01*
X298962515Y-42807925D01*
X298992481Y-42832519D01*
X299017075Y-42862485D01*
X299035343Y-42896663D01*
X299046596Y-42933758D01*
X299051000Y-42978474D01*
X299051000Y-44421526D01*
X299046596Y-44466242D01*
X299035343Y-44503337D01*
X299017075Y-44537515D01*
X298992481Y-44567481D01*
X298962515Y-44592075D01*
X298928337Y-44610343D01*
X298891242Y-44621596D01*
X298846526Y-44626000D01*
X297953474Y-44626000D01*
X297908758Y-44621596D01*
X297871663Y-44610343D01*
X297837485Y-44592075D01*
X297807519Y-44567481D01*
X297782925Y-44537515D01*
X297764657Y-44503337D01*
X297753404Y-44466242D01*
X297749000Y-44421526D01*
X297749000Y-42978474D01*
X297753404Y-42933758D01*
X297764657Y-42896663D01*
X297782925Y-42862485D01*
X297807519Y-42832519D01*
X297837485Y-42807925D01*
X297871663Y-42789657D01*
X297908758Y-42778404D01*
X297953474Y-42774000D01*
X298846526Y-42774000D01*
X298891242Y-42778404D01*
X298891242Y-42778404D01*
G37*
G36*
X161248228Y-42781703D02*
G01*
X161403100Y-42845853D01*
X161542481Y-42938985D01*
X161661015Y-43057519D01*
X161754147Y-43196900D01*
X161818297Y-43351772D01*
X161851000Y-43516184D01*
X161851000Y-43683816D01*
X161818297Y-43848228D01*
X161754147Y-44003100D01*
X161661015Y-44142481D01*
X161542481Y-44261015D01*
X161403100Y-44354147D01*
X161248228Y-44418297D01*
X161083816Y-44451000D01*
X160916184Y-44451000D01*
X160751772Y-44418297D01*
X160596900Y-44354147D01*
X160457519Y-44261015D01*
X160338985Y-44142481D01*
X160245853Y-44003100D01*
X160181703Y-43848228D01*
X160149000Y-43683816D01*
X160149000Y-43516184D01*
X160181703Y-43351772D01*
X160245853Y-43196900D01*
X160338985Y-43057519D01*
X160457519Y-42938985D01*
X160596900Y-42845853D01*
X160751772Y-42781703D01*
X160916184Y-42749000D01*
X161083816Y-42749000D01*
X161248228Y-42781703D01*
X161248228Y-42781703D01*
G37*
G36*
X64571213Y-41277502D02*
G01*
X64642321Y-41284505D01*
X64779172Y-41326019D01*
X64779175Y-41326020D01*
X64905294Y-41393432D01*
X65015843Y-41484157D01*
X65106568Y-41594706D01*
X65173980Y-41720825D01*
X65173981Y-41720828D01*
X65215495Y-41857679D01*
X65229512Y-42000000D01*
X65215495Y-42142321D01*
X65194647Y-42211045D01*
X65173980Y-42279175D01*
X65106568Y-42405294D01*
X65015843Y-42515843D01*
X64905294Y-42606568D01*
X64779175Y-42673980D01*
X64779172Y-42673981D01*
X64642321Y-42715495D01*
X64571213Y-42722498D01*
X64535660Y-42726000D01*
X64464340Y-42726000D01*
X64428787Y-42722498D01*
X64357679Y-42715495D01*
X64220828Y-42673981D01*
X64220825Y-42673980D01*
X64094706Y-42606568D01*
X63984157Y-42515843D01*
X63893432Y-42405294D01*
X63826020Y-42279175D01*
X63805353Y-42211045D01*
X63784505Y-42142321D01*
X63770488Y-42000000D01*
X63784505Y-41857679D01*
X63826019Y-41720828D01*
X63826020Y-41720825D01*
X63893432Y-41594706D01*
X63984157Y-41484157D01*
X64094706Y-41393432D01*
X64220825Y-41326020D01*
X64220828Y-41326019D01*
X64357679Y-41284505D01*
X64428787Y-41277502D01*
X64464340Y-41274000D01*
X64535660Y-41274000D01*
X64571213Y-41277502D01*
X64571213Y-41277502D01*
G37*
G36*
X72571213Y-41277502D02*
G01*
X72642321Y-41284505D01*
X72779172Y-41326019D01*
X72779175Y-41326020D01*
X72905294Y-41393432D01*
X73015843Y-41484157D01*
X73106568Y-41594706D01*
X73173980Y-41720825D01*
X73173981Y-41720828D01*
X73215495Y-41857679D01*
X73229512Y-42000000D01*
X73215495Y-42142321D01*
X73194647Y-42211045D01*
X73173980Y-42279175D01*
X73106568Y-42405294D01*
X73015843Y-42515843D01*
X72905294Y-42606568D01*
X72779175Y-42673980D01*
X72779172Y-42673981D01*
X72642321Y-42715495D01*
X72571213Y-42722498D01*
X72535660Y-42726000D01*
X72464340Y-42726000D01*
X72428787Y-42722498D01*
X72357679Y-42715495D01*
X72220828Y-42673981D01*
X72220825Y-42673980D01*
X72094706Y-42606568D01*
X71984157Y-42515843D01*
X71893432Y-42405294D01*
X71826020Y-42279175D01*
X71805353Y-42211045D01*
X71784505Y-42142321D01*
X71770488Y-42000000D01*
X71784505Y-41857679D01*
X71826019Y-41720828D01*
X71826020Y-41720825D01*
X71893432Y-41594706D01*
X71984157Y-41484157D01*
X72094706Y-41393432D01*
X72220825Y-41326020D01*
X72220828Y-41326019D01*
X72357679Y-41284505D01*
X72428787Y-41277502D01*
X72464340Y-41274000D01*
X72535660Y-41274000D01*
X72571213Y-41277502D01*
X72571213Y-41277502D01*
G37*
G36*
X70571213Y-41277502D02*
G01*
X70642321Y-41284505D01*
X70779172Y-41326019D01*
X70779175Y-41326020D01*
X70905294Y-41393432D01*
X71015843Y-41484157D01*
X71106568Y-41594706D01*
X71173980Y-41720825D01*
X71173981Y-41720828D01*
X71215495Y-41857679D01*
X71229512Y-42000000D01*
X71215495Y-42142321D01*
X71194647Y-42211045D01*
X71173980Y-42279175D01*
X71106568Y-42405294D01*
X71015843Y-42515843D01*
X70905294Y-42606568D01*
X70779175Y-42673980D01*
X70779172Y-42673981D01*
X70642321Y-42715495D01*
X70571213Y-42722498D01*
X70535660Y-42726000D01*
X70464340Y-42726000D01*
X70428787Y-42722498D01*
X70357679Y-42715495D01*
X70220828Y-42673981D01*
X70220825Y-42673980D01*
X70094706Y-42606568D01*
X69984157Y-42515843D01*
X69893432Y-42405294D01*
X69826020Y-42279175D01*
X69805353Y-42211045D01*
X69784505Y-42142321D01*
X69770488Y-42000000D01*
X69784505Y-41857679D01*
X69826019Y-41720828D01*
X69826020Y-41720825D01*
X69893432Y-41594706D01*
X69984157Y-41484157D01*
X70094706Y-41393432D01*
X70220825Y-41326020D01*
X70220828Y-41326019D01*
X70357679Y-41284505D01*
X70428787Y-41277502D01*
X70464340Y-41274000D01*
X70535660Y-41274000D01*
X70571213Y-41277502D01*
X70571213Y-41277502D01*
G37*
G36*
X68571213Y-41277502D02*
G01*
X68642321Y-41284505D01*
X68779172Y-41326019D01*
X68779175Y-41326020D01*
X68905294Y-41393432D01*
X69015843Y-41484157D01*
X69106568Y-41594706D01*
X69173980Y-41720825D01*
X69173981Y-41720828D01*
X69215495Y-41857679D01*
X69229512Y-42000000D01*
X69215495Y-42142321D01*
X69194647Y-42211045D01*
X69173980Y-42279175D01*
X69106568Y-42405294D01*
X69015843Y-42515843D01*
X68905294Y-42606568D01*
X68779175Y-42673980D01*
X68779172Y-42673981D01*
X68642321Y-42715495D01*
X68571213Y-42722498D01*
X68535660Y-42726000D01*
X68464340Y-42726000D01*
X68428787Y-42722498D01*
X68357679Y-42715495D01*
X68220828Y-42673981D01*
X68220825Y-42673980D01*
X68094706Y-42606568D01*
X67984157Y-42515843D01*
X67893432Y-42405294D01*
X67826020Y-42279175D01*
X67805353Y-42211045D01*
X67784505Y-42142321D01*
X67770488Y-42000000D01*
X67784505Y-41857679D01*
X67826019Y-41720828D01*
X67826020Y-41720825D01*
X67893432Y-41594706D01*
X67984157Y-41484157D01*
X68094706Y-41393432D01*
X68220825Y-41326020D01*
X68220828Y-41326019D01*
X68357679Y-41284505D01*
X68428787Y-41277502D01*
X68464340Y-41274000D01*
X68535660Y-41274000D01*
X68571213Y-41277502D01*
X68571213Y-41277502D01*
G37*
G36*
X66571213Y-41277502D02*
G01*
X66642321Y-41284505D01*
X66779172Y-41326019D01*
X66779175Y-41326020D01*
X66905294Y-41393432D01*
X67015843Y-41484157D01*
X67106568Y-41594706D01*
X67173980Y-41720825D01*
X67173981Y-41720828D01*
X67215495Y-41857679D01*
X67229512Y-42000000D01*
X67215495Y-42142321D01*
X67194647Y-42211045D01*
X67173980Y-42279175D01*
X67106568Y-42405294D01*
X67015843Y-42515843D01*
X66905294Y-42606568D01*
X66779175Y-42673980D01*
X66779172Y-42673981D01*
X66642321Y-42715495D01*
X66571213Y-42722498D01*
X66535660Y-42726000D01*
X66464340Y-42726000D01*
X66428787Y-42722498D01*
X66357679Y-42715495D01*
X66220828Y-42673981D01*
X66220825Y-42673980D01*
X66094706Y-42606568D01*
X65984157Y-42515843D01*
X65893432Y-42405294D01*
X65826020Y-42279175D01*
X65805353Y-42211045D01*
X65784505Y-42142321D01*
X65770488Y-42000000D01*
X65784505Y-41857679D01*
X65826019Y-41720828D01*
X65826020Y-41720825D01*
X65893432Y-41594706D01*
X65984157Y-41484157D01*
X66094706Y-41393432D01*
X66220825Y-41326020D01*
X66220828Y-41326019D01*
X66357679Y-41284505D01*
X66428787Y-41277502D01*
X66464340Y-41274000D01*
X66535660Y-41274000D01*
X66571213Y-41277502D01*
X66571213Y-41277502D01*
G37*
G36*
X80571213Y-41277502D02*
G01*
X80642321Y-41284505D01*
X80779172Y-41326019D01*
X80779175Y-41326020D01*
X80905294Y-41393432D01*
X81015843Y-41484157D01*
X81106568Y-41594706D01*
X81173980Y-41720825D01*
X81173981Y-41720828D01*
X81215495Y-41857679D01*
X81229512Y-42000000D01*
X81215495Y-42142321D01*
X81194647Y-42211045D01*
X81173980Y-42279175D01*
X81106568Y-42405294D01*
X81015843Y-42515843D01*
X80905294Y-42606568D01*
X80779175Y-42673980D01*
X80779172Y-42673981D01*
X80642321Y-42715495D01*
X80571213Y-42722498D01*
X80535660Y-42726000D01*
X80464340Y-42726000D01*
X80428787Y-42722498D01*
X80357679Y-42715495D01*
X80220828Y-42673981D01*
X80220825Y-42673980D01*
X80094706Y-42606568D01*
X79984157Y-42515843D01*
X79893432Y-42405294D01*
X79826020Y-42279175D01*
X79805353Y-42211045D01*
X79784505Y-42142321D01*
X79770488Y-42000000D01*
X79784505Y-41857679D01*
X79826019Y-41720828D01*
X79826020Y-41720825D01*
X79893432Y-41594706D01*
X79984157Y-41484157D01*
X80094706Y-41393432D01*
X80220825Y-41326020D01*
X80220828Y-41326019D01*
X80357679Y-41284505D01*
X80428787Y-41277502D01*
X80464340Y-41274000D01*
X80535660Y-41274000D01*
X80571213Y-41277502D01*
X80571213Y-41277502D01*
G37*
G36*
X78571213Y-41277502D02*
G01*
X78642321Y-41284505D01*
X78779172Y-41326019D01*
X78779175Y-41326020D01*
X78905294Y-41393432D01*
X79015843Y-41484157D01*
X79106568Y-41594706D01*
X79173980Y-41720825D01*
X79173981Y-41720828D01*
X79215495Y-41857679D01*
X79229512Y-42000000D01*
X79215495Y-42142321D01*
X79194647Y-42211045D01*
X79173980Y-42279175D01*
X79106568Y-42405294D01*
X79015843Y-42515843D01*
X78905294Y-42606568D01*
X78779175Y-42673980D01*
X78779172Y-42673981D01*
X78642321Y-42715495D01*
X78571213Y-42722498D01*
X78535660Y-42726000D01*
X78464340Y-42726000D01*
X78428787Y-42722498D01*
X78357679Y-42715495D01*
X78220828Y-42673981D01*
X78220825Y-42673980D01*
X78094706Y-42606568D01*
X77984157Y-42515843D01*
X77893432Y-42405294D01*
X77826020Y-42279175D01*
X77805353Y-42211045D01*
X77784505Y-42142321D01*
X77770488Y-42000000D01*
X77784505Y-41857679D01*
X77826019Y-41720828D01*
X77826020Y-41720825D01*
X77893432Y-41594706D01*
X77984157Y-41484157D01*
X78094706Y-41393432D01*
X78220825Y-41326020D01*
X78220828Y-41326019D01*
X78357679Y-41284505D01*
X78428787Y-41277502D01*
X78464340Y-41274000D01*
X78535660Y-41274000D01*
X78571213Y-41277502D01*
X78571213Y-41277502D01*
G37*
G36*
X84571213Y-41277502D02*
G01*
X84642321Y-41284505D01*
X84779172Y-41326019D01*
X84779175Y-41326020D01*
X84905294Y-41393432D01*
X85015843Y-41484157D01*
X85106568Y-41594706D01*
X85173980Y-41720825D01*
X85173981Y-41720828D01*
X85215495Y-41857679D01*
X85229512Y-42000000D01*
X85215495Y-42142321D01*
X85194647Y-42211045D01*
X85173980Y-42279175D01*
X85106568Y-42405294D01*
X85015843Y-42515843D01*
X84905294Y-42606568D01*
X84779175Y-42673980D01*
X84779172Y-42673981D01*
X84642321Y-42715495D01*
X84571213Y-42722498D01*
X84535660Y-42726000D01*
X84464340Y-42726000D01*
X84428787Y-42722498D01*
X84357679Y-42715495D01*
X84220828Y-42673981D01*
X84220825Y-42673980D01*
X84094706Y-42606568D01*
X83984157Y-42515843D01*
X83893432Y-42405294D01*
X83826020Y-42279175D01*
X83805353Y-42211045D01*
X83784505Y-42142321D01*
X83770488Y-42000000D01*
X83784505Y-41857679D01*
X83826019Y-41720828D01*
X83826020Y-41720825D01*
X83893432Y-41594706D01*
X83984157Y-41484157D01*
X84094706Y-41393432D01*
X84220825Y-41326020D01*
X84220828Y-41326019D01*
X84357679Y-41284505D01*
X84428787Y-41277502D01*
X84464340Y-41274000D01*
X84535660Y-41274000D01*
X84571213Y-41277502D01*
X84571213Y-41277502D01*
G37*
G36*
X86571213Y-41277502D02*
G01*
X86642321Y-41284505D01*
X86779172Y-41326019D01*
X86779175Y-41326020D01*
X86905294Y-41393432D01*
X87015843Y-41484157D01*
X87106568Y-41594706D01*
X87173980Y-41720825D01*
X87173981Y-41720828D01*
X87215495Y-41857679D01*
X87229512Y-42000000D01*
X87215495Y-42142321D01*
X87194647Y-42211045D01*
X87173980Y-42279175D01*
X87106568Y-42405294D01*
X87015843Y-42515843D01*
X86905294Y-42606568D01*
X86779175Y-42673980D01*
X86779172Y-42673981D01*
X86642321Y-42715495D01*
X86571213Y-42722498D01*
X86535660Y-42726000D01*
X86464340Y-42726000D01*
X86428787Y-42722498D01*
X86357679Y-42715495D01*
X86220828Y-42673981D01*
X86220825Y-42673980D01*
X86094706Y-42606568D01*
X85984157Y-42515843D01*
X85893432Y-42405294D01*
X85826020Y-42279175D01*
X85805353Y-42211045D01*
X85784505Y-42142321D01*
X85770488Y-42000000D01*
X85784505Y-41857679D01*
X85826019Y-41720828D01*
X85826020Y-41720825D01*
X85893432Y-41594706D01*
X85984157Y-41484157D01*
X86094706Y-41393432D01*
X86220825Y-41326020D01*
X86220828Y-41326019D01*
X86357679Y-41284505D01*
X86428787Y-41277502D01*
X86464340Y-41274000D01*
X86535660Y-41274000D01*
X86571213Y-41277502D01*
X86571213Y-41277502D01*
G37*
G36*
X76571213Y-41277502D02*
G01*
X76642321Y-41284505D01*
X76779172Y-41326019D01*
X76779175Y-41326020D01*
X76905294Y-41393432D01*
X77015843Y-41484157D01*
X77106568Y-41594706D01*
X77173980Y-41720825D01*
X77173981Y-41720828D01*
X77215495Y-41857679D01*
X77229512Y-42000000D01*
X77215495Y-42142321D01*
X77194647Y-42211045D01*
X77173980Y-42279175D01*
X77106568Y-42405294D01*
X77015843Y-42515843D01*
X76905294Y-42606568D01*
X76779175Y-42673980D01*
X76779172Y-42673981D01*
X76642321Y-42715495D01*
X76571213Y-42722498D01*
X76535660Y-42726000D01*
X76464340Y-42726000D01*
X76428787Y-42722498D01*
X76357679Y-42715495D01*
X76220828Y-42673981D01*
X76220825Y-42673980D01*
X76094706Y-42606568D01*
X75984157Y-42515843D01*
X75893432Y-42405294D01*
X75826020Y-42279175D01*
X75805353Y-42211045D01*
X75784505Y-42142321D01*
X75770488Y-42000000D01*
X75784505Y-41857679D01*
X75826019Y-41720828D01*
X75826020Y-41720825D01*
X75893432Y-41594706D01*
X75984157Y-41484157D01*
X76094706Y-41393432D01*
X76220825Y-41326020D01*
X76220828Y-41326019D01*
X76357679Y-41284505D01*
X76428787Y-41277502D01*
X76464340Y-41274000D01*
X76535660Y-41274000D01*
X76571213Y-41277502D01*
X76571213Y-41277502D01*
G37*
G36*
X88571213Y-41277502D02*
G01*
X88642321Y-41284505D01*
X88779172Y-41326019D01*
X88779175Y-41326020D01*
X88905294Y-41393432D01*
X89015843Y-41484157D01*
X89106568Y-41594706D01*
X89173980Y-41720825D01*
X89173981Y-41720828D01*
X89215495Y-41857679D01*
X89229512Y-42000000D01*
X89215495Y-42142321D01*
X89194647Y-42211045D01*
X89173980Y-42279175D01*
X89106568Y-42405294D01*
X89015843Y-42515843D01*
X88905294Y-42606568D01*
X88779175Y-42673980D01*
X88779172Y-42673981D01*
X88642321Y-42715495D01*
X88571213Y-42722498D01*
X88535660Y-42726000D01*
X88464340Y-42726000D01*
X88428787Y-42722498D01*
X88357679Y-42715495D01*
X88220828Y-42673981D01*
X88220825Y-42673980D01*
X88094706Y-42606568D01*
X87984157Y-42515843D01*
X87893432Y-42405294D01*
X87826020Y-42279175D01*
X87805353Y-42211045D01*
X87784505Y-42142321D01*
X87770488Y-42000000D01*
X87784505Y-41857679D01*
X87826019Y-41720828D01*
X87826020Y-41720825D01*
X87893432Y-41594706D01*
X87984157Y-41484157D01*
X88094706Y-41393432D01*
X88220825Y-41326020D01*
X88220828Y-41326019D01*
X88357679Y-41284505D01*
X88428787Y-41277502D01*
X88464340Y-41274000D01*
X88535660Y-41274000D01*
X88571213Y-41277502D01*
X88571213Y-41277502D01*
G37*
G36*
X93226000Y-42726000D02*
G01*
X91774000Y-42726000D01*
X91774000Y-41274000D01*
X93226000Y-41274000D01*
X93226000Y-42726000D01*
X93226000Y-42726000D01*
G37*
G36*
X74571213Y-41277502D02*
G01*
X74642321Y-41284505D01*
X74779172Y-41326019D01*
X74779175Y-41326020D01*
X74905294Y-41393432D01*
X75015843Y-41484157D01*
X75106568Y-41594706D01*
X75173980Y-41720825D01*
X75173981Y-41720828D01*
X75215495Y-41857679D01*
X75229512Y-42000000D01*
X75215495Y-42142321D01*
X75194647Y-42211045D01*
X75173980Y-42279175D01*
X75106568Y-42405294D01*
X75015843Y-42515843D01*
X74905294Y-42606568D01*
X74779175Y-42673980D01*
X74779172Y-42673981D01*
X74642321Y-42715495D01*
X74571213Y-42722498D01*
X74535660Y-42726000D01*
X74464340Y-42726000D01*
X74428787Y-42722498D01*
X74357679Y-42715495D01*
X74220828Y-42673981D01*
X74220825Y-42673980D01*
X74094706Y-42606568D01*
X73984157Y-42515843D01*
X73893432Y-42405294D01*
X73826020Y-42279175D01*
X73805353Y-42211045D01*
X73784505Y-42142321D01*
X73770488Y-42000000D01*
X73784505Y-41857679D01*
X73826019Y-41720828D01*
X73826020Y-41720825D01*
X73893432Y-41594706D01*
X73984157Y-41484157D01*
X74094706Y-41393432D01*
X74220825Y-41326020D01*
X74220828Y-41326019D01*
X74357679Y-41284505D01*
X74428787Y-41277502D01*
X74464340Y-41274000D01*
X74535660Y-41274000D01*
X74571213Y-41277502D01*
X74571213Y-41277502D01*
G37*
G36*
X90571213Y-41277502D02*
G01*
X90642321Y-41284505D01*
X90779172Y-41326019D01*
X90779175Y-41326020D01*
X90905294Y-41393432D01*
X91015843Y-41484157D01*
X91106568Y-41594706D01*
X91173980Y-41720825D01*
X91173981Y-41720828D01*
X91215495Y-41857679D01*
X91229512Y-42000000D01*
X91215495Y-42142321D01*
X91194647Y-42211045D01*
X91173980Y-42279175D01*
X91106568Y-42405294D01*
X91015843Y-42515843D01*
X90905294Y-42606568D01*
X90779175Y-42673980D01*
X90779172Y-42673981D01*
X90642321Y-42715495D01*
X90571213Y-42722498D01*
X90535660Y-42726000D01*
X90464340Y-42726000D01*
X90428787Y-42722498D01*
X90357679Y-42715495D01*
X90220828Y-42673981D01*
X90220825Y-42673980D01*
X90094706Y-42606568D01*
X89984157Y-42515843D01*
X89893432Y-42405294D01*
X89826020Y-42279175D01*
X89805353Y-42211045D01*
X89784505Y-42142321D01*
X89770488Y-42000000D01*
X89784505Y-41857679D01*
X89826019Y-41720828D01*
X89826020Y-41720825D01*
X89893432Y-41594706D01*
X89984157Y-41484157D01*
X90094706Y-41393432D01*
X90220825Y-41326020D01*
X90220828Y-41326019D01*
X90357679Y-41284505D01*
X90428787Y-41277502D01*
X90464340Y-41274000D01*
X90535660Y-41274000D01*
X90571213Y-41277502D01*
X90571213Y-41277502D01*
G37*
G36*
X82571213Y-41277502D02*
G01*
X82642321Y-41284505D01*
X82779172Y-41326019D01*
X82779175Y-41326020D01*
X82905294Y-41393432D01*
X83015843Y-41484157D01*
X83106568Y-41594706D01*
X83173980Y-41720825D01*
X83173981Y-41720828D01*
X83215495Y-41857679D01*
X83229512Y-42000000D01*
X83215495Y-42142321D01*
X83194647Y-42211045D01*
X83173980Y-42279175D01*
X83106568Y-42405294D01*
X83015843Y-42515843D01*
X82905294Y-42606568D01*
X82779175Y-42673980D01*
X82779172Y-42673981D01*
X82642321Y-42715495D01*
X82571213Y-42722498D01*
X82535660Y-42726000D01*
X82464340Y-42726000D01*
X82428787Y-42722498D01*
X82357679Y-42715495D01*
X82220828Y-42673981D01*
X82220825Y-42673980D01*
X82094706Y-42606568D01*
X81984157Y-42515843D01*
X81893432Y-42405294D01*
X81826020Y-42279175D01*
X81805353Y-42211045D01*
X81784505Y-42142321D01*
X81770488Y-42000000D01*
X81784505Y-41857679D01*
X81826019Y-41720828D01*
X81826020Y-41720825D01*
X81893432Y-41594706D01*
X81984157Y-41484157D01*
X82094706Y-41393432D01*
X82220825Y-41326020D01*
X82220828Y-41326019D01*
X82357679Y-41284505D01*
X82428787Y-41277502D01*
X82464340Y-41274000D01*
X82535660Y-41274000D01*
X82571213Y-41277502D01*
X82571213Y-41277502D01*
G37*
M02*
